<svg width="442" height="345" viewBox="0 0 442 345" fill="none" xmlns="http://www.w3.org/2000/svg">
<path d="M442 264.457H0V264.678H442V264.457Z" fill="#EBEBEB"/>
<path d="M397.712 278.681H368.434V278.902H397.712V278.681Z" fill="#EBEBEB"/>
<path d="M292.799 281.085H285.117V281.306H292.799V281.085Z" fill="#EBEBEB"/>
<path d="M367.55 270.477H350.586V270.698H367.55V270.477Z" fill="#EBEBEB"/>
<path d="M84.5546 271.963H46.3746V272.184H84.5546V271.963Z" fill="#EBEBEB"/>
<path d="M98.0268 271.963H92.431V272.184H98.0268V271.963Z" fill="#EBEBEB"/>
<path d="M199.033 275.693H116.219V275.914H199.033V275.693Z" fill="#EBEBEB"/>
<path d="M351.16 110.164V75.2371H352.557V111.119L351.16 110.164Z" fill="#E0E0E0"/>
<path d="M351.832 77.0493C351.832 77.0493 356.252 77.7919 359.063 80.0461C361.874 82.3003 363.722 81.8141 363.722 81.8141C363.627 82.3523 363.422 82.8651 363.12 83.3208C362.818 83.7764 362.425 84.1652 361.967 84.4628C361.509 84.7604 360.994 84.9606 360.455 85.0509C359.916 85.1412 359.364 85.1196 358.833 84.9876C357.552 84.8019 356.244 84.9319 355.024 85.3663C353.804 85.8008 352.708 86.5265 351.832 87.4805V77.0493Z" fill="#EBEBEB"/>
<path d="M405.553 264.104L225.111 264.502L233.951 235.957L234.587 233.897L253.363 226.401L271.14 214.52C271.14 214.52 280.069 218.516 281.298 215.183C281.438 214.744 281.475 214.278 281.404 213.822C280.988 210.516 282.951 206.202 284.63 203.214C285.297 202.024 286.026 200.871 286.814 199.757L304.626 187.983L309.93 181.061L312.909 172.804L315.367 165.962C315.367 165.962 318.488 148.503 320.256 147.769C322.024 147.036 329.98 142.289 329.98 142.289C331.712 142.2 333.349 141.472 334.576 140.247C336.196 138.556 337.22 136.383 337.494 134.059C337.821 132.131 338.324 129.745 338.89 127.216C340.782 118.81 343.505 108.82 343.505 108.82L356.544 109.625C356.544 109.625 361.459 149.361 360.822 153.162C360.61 154.461 361.255 158.245 362.299 162.709C364.314 171.284 367.797 182.334 369.45 182.846C369.891 182.954 370.287 183.198 370.581 183.544C370.875 183.89 371.052 184.321 371.086 184.774C371.348 186.953 371.883 189.091 372.677 191.138C374.073 194.577 377.415 210.79 379.687 222.238C381.004 228.859 381.95 233.871 381.95 233.871L384.664 235.498L397.314 243.056L405.553 264.104Z" fill="#EBEBEB"/>
<path d="M281.298 215.139L293.886 225.04L292.887 243.038L270.875 239.219L233.951 235.913L234.587 233.853L253.363 226.357L271.141 214.476C271.141 214.476 280.069 218.472 281.298 215.139Z" fill="#E0E0E0"/>
<path d="M324.958 198.325L327.61 225.04L301.179 196.796L284.648 203.187C285.315 201.998 286.044 200.844 286.831 199.731L304.644 187.956L309.948 181.034L312.927 172.778L314.448 184.164L324.958 198.325Z" fill="#E0E0E0"/>
<path d="M351.638 164.212L347.562 150.068L334.585 140.22C336.204 138.529 337.229 136.357 337.502 134.032C337.829 132.105 338.333 129.718 338.899 127.19L346.528 140.22L351.638 164.212Z" fill="#E0E0E0"/>
<path d="M371.094 184.747L364.562 205.229L355.58 211.249L348.455 226.764L351.637 205.229L361.927 197.556V180.539L362.307 162.674C364.323 171.248 367.806 182.298 369.459 182.811C369.9 182.918 370.296 183.162 370.59 183.509C370.884 183.855 371.06 184.285 371.094 184.738V184.747Z" fill="#E0E0E0"/>
<path d="M384.673 235.48L381.959 235.781L370.847 238.795L367.523 254.017L365.304 235.745L379.696 222.22C381.013 228.841 381.959 233.853 381.959 233.853L384.673 235.48Z" fill="#E0E0E0"/>
<path d="M156.433 200.146H122.01V264.457H156.433V200.146Z" fill="#E6E6E6"/>
<path d="M119.8 264.449H125.599L125.599 200.138H119.8L119.8 264.449Z" fill="#E0E0E0"/>
<path d="M121.674 145.17H87.2508V264.457H121.674V145.17Z" fill="#EBEBEB"/>
<path d="M82.0706 264.457H89.1249L89.1249 145.17H82.0706L82.0706 264.457Z" fill="#E0E0E0"/>
<path d="M86.9237 176.809H52.5007V264.457H86.9237V176.809Z" fill="#E6E6E6"/>
<path d="M47.5238 264.457H54.3837L54.3837 176.809H47.5238L47.5238 264.457Z" fill="#E0E0E0"/>
<path d="M123.265 103.826C121.497 102.058 118.253 102.783 115.592 103.826C115.592 103.569 115.592 103.419 115.592 103.419H87.6752C87.6752 103.419 87.6752 103.569 87.6752 103.826C85.0232 102.747 81.7524 102.058 80.002 103.826C78.0042 105.868 78.4462 113.011 81.5932 117.36C82.5494 118.702 83.8194 119.789 85.2926 120.527C86.7657 121.265 88.397 121.632 90.0443 121.594C92.6121 121.523 95.1373 120.921 97.461 119.826C102.235 126.279 99.671 137.427 92.8377 138.346H110.403C103.561 137.462 101.006 126.279 105.779 119.826C108.1 120.921 110.622 121.523 113.187 121.594C114.836 121.632 116.469 121.266 117.944 120.528C119.418 119.79 120.69 118.702 121.647 117.36C124.785 113.011 125.236 105.868 123.265 103.826ZM83.6883 115.972C80.7092 112.02 81.0363 106.31 81.7524 105.567C82.5833 104.728 85.2884 105.497 87.8431 106.663C88.1942 108.815 88.9963 110.867 90.1969 112.686C91.3974 114.505 92.9692 116.05 94.809 117.218C95.0919 117.413 95.366 117.625 95.6312 117.837C90.3272 119.95 86.2254 119.313 83.6883 115.972ZM119.552 115.972C117.015 119.313 112.913 119.941 107.609 117.837C107.875 117.625 108.149 117.413 108.431 117.218C110.277 116.044 111.853 114.491 113.054 112.663C114.255 110.834 115.053 108.771 115.397 106.61C117.926 105.452 120.701 104.683 121.488 105.523C122.169 106.31 122.531 112.056 119.552 115.972Z" fill="#EBEBEB"/>
<path d="M112.188 136.878H91.052V146.054H112.188V136.878Z" fill="#E0E0E0"/>
<path d="M107.689 25.4238C107.689 24.1766 108.184 22.9804 109.066 22.0984C109.948 21.2164 111.144 20.721 112.392 20.721C112.849 20.7224 113.305 20.7878 113.744 20.9154C113.673 20.4384 113.638 19.9568 113.638 19.4745C113.638 16.8338 114.687 14.3011 116.553 12.433C118.42 10.5649 120.951 9.51418 123.592 9.51184C124.209 9.51229 124.825 9.57149 125.431 9.68863C126.41 8.06883 127.891 6.81271 129.649 6.11087C131.407 5.40903 133.346 5.29978 135.172 5.79969C136.997 6.2996 138.61 7.38139 139.765 8.88091C140.921 10.3804 141.555 12.2158 141.573 14.1086H141.714C142.79 14.0729 143.862 14.254 144.867 14.6411C145.871 15.0281 146.787 15.6133 147.561 16.3618C148.335 17.1103 148.95 18.0067 149.37 18.9978C149.791 19.9889 150.007 21.0544 150.007 22.1309C150.007 23.2074 149.791 24.2729 149.37 25.264C148.95 26.2552 148.335 27.1516 147.561 27.9001C146.787 28.6486 145.871 29.2337 144.867 29.6208C143.862 30.0079 142.79 30.189 141.714 30.1532H112.268C111.037 30.1231 109.867 29.6105 109.01 28.7258C108.154 27.8411 107.679 26.6552 107.689 25.4238Z" fill="#F0F0F0"/>
<path d="M279.344 15.6997C279.346 14.7181 279.737 13.7773 280.431 13.0832C281.126 12.3891 282.066 11.9981 283.048 11.9958C283.41 11.9955 283.77 12.0461 284.118 12.146C284.064 11.7712 284.038 11.3931 284.038 11.0145C284.038 9.86036 284.292 8.72035 284.782 7.67551C285.273 6.63066 285.987 5.70664 286.875 4.96909C287.763 4.23155 288.802 3.6986 289.919 3.40811C291.036 3.11763 292.203 3.07674 293.338 3.28835C294.114 2.01814 295.281 1.03431 296.664 0.484961C298.048 -0.0643892 299.572 -0.149535 301.008 0.242345C302.444 0.634226 303.714 1.48192 304.626 2.65783C305.538 3.83375 306.044 5.27424 306.067 6.76247H306.182C307.861 6.76247 309.471 7.42932 310.658 8.61632C311.845 9.80332 312.512 11.4132 312.512 13.0919C312.512 14.7706 311.845 16.3805 310.658 17.5675C309.471 18.7545 307.861 19.4214 306.182 19.4214H282.951C281.982 19.3959 281.062 18.9921 280.388 18.2964C279.714 17.6007 279.339 16.6685 279.344 15.6997Z" fill="#F0F0F0"/>
<path d="M57.7252 67.2812C57.7241 66.5026 57.8764 65.7315 58.1735 65.0119C58.4707 64.2923 58.9067 63.6383 59.4568 63.0874C60.0069 62.5365 60.6603 62.0994 61.3794 61.8012C62.0986 61.503 62.8695 61.3495 63.648 61.3495C64.2235 61.3484 64.7958 61.4349 65.3453 61.6059C65.2609 61.0025 65.2166 60.3941 65.2127 59.7848C65.2101 57.9379 65.6146 56.113 66.3973 54.4401C67.1801 52.7672 68.3218 51.2874 69.7414 50.1058C71.161 48.9242 72.8235 48.07 74.6106 47.6039C76.3978 47.1377 78.2658 47.0711 80.0816 47.4088C81.3207 45.3796 83.1856 43.8079 85.3954 42.9303C87.6052 42.0528 90.0403 41.9169 92.334 42.5432C94.6277 43.1695 96.6559 44.524 98.1131 46.4028C99.5703 48.2816 100.378 50.583 100.414 52.9604H100.599C101.952 52.9204 103.299 53.1522 104.56 53.6422C105.822 54.1322 106.972 54.8704 107.943 55.813C108.914 56.7556 109.685 57.8835 110.212 59.1299C110.74 60.3762 111.011 61.7157 111.011 63.0689C111.011 64.4221 110.74 65.7616 110.212 67.0079C109.685 68.2543 108.914 69.3822 107.943 70.3248C106.972 71.2674 105.822 72.0056 104.56 72.4956C103.299 72.9856 101.952 73.2175 100.599 73.1774H63.4712C61.9351 73.1338 60.4763 72.4939 59.4037 71.3933C58.3312 70.2928 57.7292 68.8179 57.7252 67.2812Z" fill="#F0F0F0"/>
<path d="M319.566 49.6011C319.566 48.0279 320.191 46.5192 321.303 45.4068C322.416 44.2944 323.925 43.6695 325.498 43.6695C326.073 43.6684 326.645 43.7548 327.195 43.9258C327.111 43.3224 327.066 42.7141 327.062 42.1048C327.06 40.2578 327.464 38.433 328.247 36.7601C329.03 35.0872 330.171 33.6073 331.591 32.4257C333.011 31.2442 334.673 30.3899 336.46 29.9238C338.247 29.4577 340.115 29.3911 341.931 29.7288C343.17 27.6995 345.035 26.1278 347.245 25.2503C349.455 24.3727 351.89 24.2368 354.184 24.8631C356.477 25.4894 358.506 26.8439 359.963 28.7227C361.42 30.6015 362.227 32.9029 362.263 35.2803H362.44C363.793 35.2403 365.14 35.4722 366.401 35.9622C367.662 36.4522 368.813 37.1904 369.783 38.133C370.754 39.0756 371.526 40.2035 372.053 41.4498C372.58 42.6962 372.852 44.0356 372.852 45.3888C372.852 46.7421 372.58 48.0815 372.053 49.3279C371.526 50.5742 370.754 51.7021 369.783 52.6447C368.813 53.5873 367.662 54.3255 366.401 54.8155C365.14 55.3055 363.793 55.5374 362.44 55.4974H325.312C323.776 55.4538 322.317 54.8139 321.245 53.7133C320.172 52.6127 319.57 51.1379 319.566 49.6011Z" fill="#F0F0F0"/>
<path d="M247.89 344.64C354.972 344.64 441.78 339.572 441.78 333.32C441.78 327.068 354.972 322 247.89 322C140.808 322 54 327.068 54 333.32C54 339.572 140.808 344.64 247.89 344.64Z" fill="#F5F5F5"/>
</svg>
