<svg width="1275" height="1275" viewBox="0 0 1275 1275" fill="none" xmlns="http://www.w3.org/2000/svg">
<path d="M861.135 1007.25H834.411V1007.89H861.135V1007.25Z" fill="#E0E0E0"/>
<path d="M211.089 990.522H165.572V991.159H211.089V990.522Z" fill="#E0E0E0"/>
<path d="M458.719 1006.94H380.536V1007.58H458.719V1006.94Z" fill="#E0E0E0"/>
<path d="M676.616 992.383H561.229V993.021H676.616V992.383Z" fill="#E0E0E0"/>
<path d="M1135.74 996.438H998.172V997.075H1135.74V996.438Z" fill="#E0E0E0"/>
<path d="M313.522 990.522H223.405V991.159H313.522V990.522Z" fill="#E0E0E0"/>
<path d="M1188.78 996.744H1150.61V997.381H1188.78V996.744Z" fill="#E0E0E0"/>
<path d="M1007.33 327.278C1006.59 327.278 1005.87 327.064 1005.25 326.661C1004.63 326.258 1004.14 325.684 1003.84 325.009C996.596 308.638 1037.45 280.282 1081.54 260.749C1125.63 241.216 1174.08 229.97 1181.34 246.341C1181.55 246.802 1181.66 247.298 1181.67 247.801C1181.68 248.304 1181.59 248.804 1181.41 249.273C1181.23 249.741 1180.95 250.17 1180.6 250.533C1180.26 250.897 1179.84 251.188 1179.38 251.39C1178.92 251.593 1178.42 251.703 1177.92 251.714C1177.42 251.725 1176.92 251.637 1176.45 251.454C1175.98 251.272 1175.55 250.999 1175.19 250.651C1174.83 250.303 1174.53 249.887 1174.33 249.427C1171.09 242.134 1134.55 245.602 1084.65 267.736C1034.74 289.87 1007.59 314.579 1010.7 321.898C1010.91 322.359 1011.03 322.858 1011.05 323.367C1011.07 323.875 1010.99 324.382 1010.81 324.858C1010.63 325.334 1010.35 325.768 1010 326.136C1009.65 326.503 1009.23 326.797 1008.76 326.998C1008.31 327.184 1007.82 327.28 1007.33 327.278V327.278Z" fill="#F5F5F5"/>
<path d="M1092.58 351.325C1128.84 351.325 1158.24 321.927 1158.24 285.662C1158.24 249.398 1128.84 220 1092.58 220C1056.31 220 1026.91 249.398 1026.91 285.662C1026.91 321.927 1056.31 351.325 1092.58 351.325Z" fill="#E6E6E6"/>
<path d="M1023.04 332.965C1012.64 332.965 1006.18 330.415 1003.84 325.009C1003.63 324.545 1003.52 324.045 1003.5 323.538C1003.49 323.03 1003.58 322.524 1003.76 322.05C1003.94 321.576 1004.22 321.143 1004.57 320.775C1004.92 320.408 1005.34 320.113 1005.8 319.909C1006.26 319.693 1006.76 319.572 1007.27 319.553C1007.78 319.534 1008.29 319.618 1008.76 319.799C1009.24 319.979 1009.67 320.254 1010.04 320.606C1010.41 320.957 1010.7 321.38 1010.9 321.847C1011.92 324.142 1018.86 327.1 1038.47 323.734C1059.9 319.467 1080.76 312.697 1100.61 303.563C1150.44 281.506 1177.62 256.745 1174.33 249.376C1173.92 248.446 1173.9 247.392 1174.27 246.445C1174.64 245.498 1175.36 244.736 1176.29 244.327C1177.22 243.918 1178.28 243.895 1179.23 244.263C1180.17 244.631 1180.93 245.361 1181.34 246.29C1188.59 262.661 1147.73 291.017 1103.64 310.55C1083.21 319.933 1061.74 326.891 1039.69 331.282C1034.2 332.309 1028.63 332.872 1023.04 332.965Z" fill="#F5F5F5"/>
<path d="M948.319 185.997L950.487 190.357C950.611 190.608 950.794 190.825 951.021 190.989C951.247 191.153 951.51 191.26 951.787 191.301L956.607 192.015C956.928 192.06 957.229 192.194 957.478 192.403C957.726 192.611 957.911 192.884 958.012 193.192C958.113 193.5 958.126 193.83 958.049 194.145C957.971 194.46 957.807 194.747 957.576 194.973L954.082 198.39C953.88 198.584 953.73 198.826 953.646 199.093C953.561 199.361 953.545 199.645 953.598 199.92L954.414 204.714C954.475 205.038 954.443 205.373 954.32 205.679C954.198 205.986 953.991 206.251 953.723 206.444C953.455 206.636 953.138 206.749 952.809 206.768C952.479 206.786 952.151 206.711 951.864 206.55L947.554 204.28C947.3 204.155 947.021 204.089 946.738 204.089C946.455 204.089 946.176 204.155 945.922 204.28L941.613 206.55C941.325 206.711 940.997 206.786 940.667 206.768C940.338 206.749 940.021 206.636 939.753 206.444C939.485 206.251 939.278 205.986 939.156 205.679C939.034 205.373 939.001 205.038 939.063 204.714L939.879 199.92C939.933 199.643 939.915 199.356 939.826 199.088C939.736 198.819 939.579 198.579 939.369 198.39L935.85 194.973C935.618 194.747 935.454 194.46 935.377 194.145C935.299 193.83 935.312 193.5 935.413 193.192C935.514 192.884 935.699 192.611 935.947 192.403C936.196 192.194 936.498 192.06 936.819 192.015L941.638 191.301C941.915 191.26 942.178 191.153 942.404 190.989C942.631 190.825 942.814 190.608 942.939 190.357L945.106 185.997C945.236 185.677 945.458 185.404 945.744 185.211C946.03 185.018 946.368 184.916 946.713 184.916C947.058 184.916 947.395 185.018 947.681 185.211C947.967 185.404 948.189 185.677 948.319 185.997V185.997Z" fill="#F5F5F5"/>
<path d="M153.332 615.035L155.55 619.395C155.677 619.646 155.86 619.865 156.086 620.033C156.312 620.201 156.574 620.315 156.851 620.364L161.67 621.053C161.991 621.103 162.292 621.241 162.539 621.452C162.786 621.663 162.97 621.938 163.07 622.247C163.17 622.556 163.183 622.887 163.107 623.202C163.031 623.518 162.869 623.807 162.639 624.036L159.146 627.428C158.946 627.623 158.797 627.865 158.713 628.132C158.628 628.399 158.611 628.682 158.661 628.957L159.477 633.777C159.539 634.101 159.506 634.436 159.384 634.742C159.262 635.049 159.055 635.314 158.787 635.507C158.519 635.699 158.202 635.812 157.873 635.831C157.543 635.85 157.215 635.774 156.927 635.613L152.618 633.343C152.368 633.205 152.087 633.132 151.802 633.132C151.516 633.132 151.236 633.205 150.986 633.343L146.676 635.613C146.388 635.774 146.061 635.85 145.731 635.831C145.402 635.812 145.085 635.699 144.817 635.507C144.549 635.314 144.342 635.049 144.22 634.742C144.097 634.436 144.065 634.101 144.126 633.777L144.942 628.957C144.993 628.682 144.975 628.399 144.891 628.132C144.806 627.865 144.658 627.623 144.458 627.428L140.964 624.036C140.735 623.807 140.573 623.518 140.497 623.202C140.421 622.887 140.433 622.556 140.534 622.247C140.634 621.938 140.818 621.663 141.065 621.452C141.312 621.241 141.613 621.103 141.933 621.053L146.753 620.364C147.03 620.315 147.292 620.201 147.518 620.033C147.743 619.865 147.927 619.646 148.053 619.395L150.221 615.035C150.364 614.744 150.586 614.499 150.86 614.328C151.135 614.157 151.453 614.067 151.776 614.067C152.1 614.067 152.417 614.157 152.692 614.328C152.967 614.499 153.189 614.744 153.332 615.035V615.035Z" fill="#E6E6E6"/>
<path d="M774.103 805.29L776.245 809.65C776.37 809.905 776.557 810.125 776.789 810.29C777.02 810.455 777.289 810.559 777.571 810.594L782.391 811.308C782.709 811.357 783.008 811.494 783.253 811.704C783.499 811.913 783.68 812.187 783.778 812.495C783.876 812.802 783.887 813.13 783.808 813.443C783.73 813.756 783.566 814.041 783.334 814.266L779.866 817.683C779.662 817.876 779.508 818.117 779.419 818.384C779.33 818.651 779.309 818.935 779.356 819.213L780.172 824.032C780.234 824.356 780.201 824.691 780.079 824.998C779.956 825.304 779.749 825.569 779.482 825.762C779.214 825.955 778.897 826.067 778.567 826.086C778.238 826.105 777.91 826.029 777.622 825.868L773.313 823.599C773.068 823.46 772.791 823.387 772.509 823.387C772.228 823.387 771.951 823.46 771.706 823.599L767.371 825.868C767.082 826.019 766.757 826.086 766.432 826.062C766.107 826.039 765.795 825.926 765.531 825.735C765.267 825.545 765.06 825.285 764.935 824.984C764.81 824.684 764.77 824.354 764.821 824.032L765.663 819.213C765.704 818.936 765.679 818.653 765.59 818.387C765.502 818.121 765.352 817.88 765.153 817.683L761.659 814.266C761.427 814.039 761.263 813.753 761.186 813.438C761.109 813.123 761.122 812.793 761.222 812.485C761.323 812.177 761.508 811.903 761.757 811.695C762.005 811.487 762.307 811.353 762.628 811.308L767.448 810.594C767.728 810.555 767.995 810.449 768.226 810.285C768.457 810.12 768.645 809.903 768.774 809.65L770.916 805.29C771.057 804.987 771.283 804.73 771.565 804.551C771.847 804.371 772.175 804.276 772.509 804.276C772.844 804.276 773.172 804.371 773.454 804.551C773.736 804.73 773.961 804.987 774.103 805.29Z" fill="#E6E6E6"/>
<path d="M743.172 86.5214L744.472 89.0714C744.545 89.2198 744.653 89.3485 744.786 89.4462C744.919 89.5439 745.074 89.6078 745.237 89.6324L748.119 90.0404C748.313 90.0671 748.496 90.1477 748.646 90.2731C748.796 90.3986 748.908 90.5637 748.97 90.7497C749.031 90.9358 749.038 91.1352 748.992 91.3254C748.945 91.5156 748.846 91.6888 748.705 91.8253L746.614 93.8654C746.496 93.9836 746.408 94.1292 746.359 94.2893C746.311 94.4494 746.302 94.6191 746.334 94.7833L746.818 97.6394C746.859 97.8319 746.843 98.0321 746.773 98.2158C746.702 98.3995 746.58 98.559 746.421 98.6749C746.262 98.7908 746.073 98.8582 745.877 98.869C745.68 98.8798 745.485 98.8336 745.314 98.7359L742.764 97.3843C742.614 97.3082 742.448 97.2685 742.279 97.2685C742.111 97.2685 741.945 97.3082 741.795 97.3843L739.245 98.7359C739.073 98.8228 738.881 98.8605 738.689 98.845C738.497 98.8295 738.313 98.7612 738.157 98.6478C738.002 98.5344 737.88 98.3802 737.807 98.2023C737.733 98.0243 737.71 97.8295 737.74 97.6394L738.25 94.7833C738.273 94.6171 738.257 94.4479 738.204 94.2888C738.151 94.1296 738.062 93.9848 737.945 93.8654L735.853 91.8253C735.713 91.6888 735.614 91.5156 735.567 91.3254C735.521 91.1352 735.528 90.9358 735.589 90.7497C735.65 90.5637 735.763 90.3986 735.913 90.2731C736.063 90.1477 736.246 90.0671 736.44 90.0404L739.321 89.6324C739.485 89.6078 739.64 89.5439 739.773 89.4462C739.906 89.3485 740.014 89.2198 740.086 89.0714L741.387 86.5214C741.48 86.3683 741.611 86.2419 741.768 86.1542C741.924 86.0665 742.1 86.0204 742.279 86.0204C742.459 86.0204 742.635 86.0665 742.791 86.1542C742.947 86.2419 743.079 86.3683 743.172 86.5214V86.5214Z" fill="#E6E6E6"/>
<path d="M289.732 537.54L291.032 540.09C291.105 540.238 291.212 540.367 291.346 540.465C291.479 540.562 291.634 540.626 291.797 540.651L294.679 541.084C294.873 541.105 295.057 541.182 295.209 541.304C295.361 541.427 295.475 541.591 295.537 541.776C295.598 541.961 295.606 542.16 295.558 542.35C295.509 542.539 295.408 542.711 295.265 542.844L293.174 544.884C293.056 545.002 292.968 545.148 292.919 545.308C292.87 545.468 292.862 545.638 292.894 545.802L293.378 548.683C293.408 548.874 293.385 549.068 293.312 549.246C293.238 549.424 293.117 549.578 292.961 549.692C292.806 549.805 292.622 549.873 292.43 549.889C292.238 549.905 292.046 549.867 291.874 549.78L289.324 548.428C289.177 548.341 289.01 548.294 288.839 548.294C288.669 548.294 288.501 548.341 288.355 548.428L285.805 549.78C285.632 549.874 285.437 549.917 285.24 549.905C285.044 549.893 284.856 549.826 284.696 549.711C284.536 549.597 284.412 549.44 284.337 549.258C284.263 549.076 284.241 548.877 284.275 548.683L284.785 545.802C284.807 545.636 284.792 545.466 284.738 545.307C284.685 545.148 284.597 545.003 284.479 544.884L282.388 542.844C282.245 542.711 282.144 542.539 282.095 542.35C282.047 542.16 282.055 541.961 282.116 541.776C282.178 541.591 282.292 541.427 282.444 541.304C282.596 541.182 282.78 541.105 282.974 541.084L285.856 540.651C286.019 540.626 286.174 540.562 286.307 540.465C286.441 540.367 286.548 540.238 286.621 540.09L287.921 537.54C288.007 537.374 288.137 537.235 288.297 537.138C288.457 537.041 288.64 536.99 288.826 536.99C289.013 536.99 289.196 537.041 289.356 537.138C289.516 537.235 289.646 537.374 289.732 537.54Z" fill="#F5F5F5"/>
<path d="M159.502 781.09L160.777 783.64C160.851 783.795 160.961 783.93 161.099 784.032C161.237 784.135 161.398 784.201 161.568 784.227L164.449 784.635C164.641 784.665 164.821 784.749 164.968 784.876C165.115 785.003 165.224 785.168 165.282 785.354C165.34 785.539 165.346 785.737 165.298 785.925C165.25 786.114 165.15 786.285 165.01 786.42L162.945 788.46C162.82 788.574 162.726 788.718 162.673 788.879C162.619 789.04 162.608 789.211 162.639 789.378L163.2 792.285C163.241 792.477 163.225 792.677 163.154 792.861C163.084 793.045 162.962 793.204 162.803 793.32C162.644 793.436 162.455 793.503 162.258 793.514C162.062 793.525 161.866 793.479 161.695 793.381L159.145 792.03C158.995 791.953 158.829 791.914 158.661 791.914C158.493 791.914 158.327 791.953 158.176 792.03L155.626 793.381C155.456 793.479 155.26 793.525 155.064 793.514C154.867 793.503 154.678 793.436 154.519 793.32C154.36 793.204 154.238 793.045 154.167 792.861C154.097 792.677 154.081 792.477 154.122 792.285L154.606 789.429C154.638 789.262 154.626 789.091 154.573 788.93C154.519 788.769 154.425 788.625 154.3 788.511L152.209 786.471C152.069 786.334 151.97 786.161 151.923 785.971C151.877 785.781 151.884 785.581 151.945 785.395C152.006 785.209 152.119 785.044 152.269 784.918C152.419 784.793 152.602 784.712 152.796 784.686L155.677 784.278C155.846 784.248 156.005 784.18 156.142 784.078C156.279 783.976 156.391 783.844 156.468 783.691L157.743 781.141C157.837 780.996 157.965 780.876 158.116 780.792C158.267 780.707 158.436 780.66 158.609 780.655C158.782 780.65 158.954 780.687 159.109 780.763C159.265 780.839 159.4 780.951 159.502 781.09V781.09Z" fill="#F5F5F5"/>
<path d="M1067.89 781.473L1069.19 784.023C1069.26 784.175 1069.38 784.305 1069.51 784.403C1069.65 784.501 1069.81 784.563 1069.98 784.584L1072.86 784.992C1073.05 785.023 1073.23 785.106 1073.38 785.233C1073.53 785.36 1073.64 785.526 1073.69 785.711C1073.75 785.896 1073.76 786.094 1073.71 786.283C1073.66 786.471 1073.56 786.642 1073.42 786.777L1071.36 788.817C1071.23 788.933 1071.14 789.077 1071.09 789.237C1071.03 789.398 1071.02 789.569 1071.05 789.735L1071.54 792.591C1071.58 792.783 1071.56 792.984 1071.49 793.167C1071.42 793.351 1071.3 793.511 1071.14 793.626C1070.98 793.742 1070.79 793.81 1070.59 793.821C1070.4 793.831 1070.2 793.785 1070.03 793.687L1067.48 792.336C1067.33 792.26 1067.16 792.22 1067 792.22C1066.83 792.22 1066.66 792.26 1066.51 792.336L1063.96 793.687C1063.79 793.781 1063.59 793.825 1063.4 793.813C1063.2 793.801 1063.01 793.733 1062.85 793.619C1062.69 793.504 1062.57 793.347 1062.49 793.165C1062.42 792.984 1062.4 792.785 1062.43 792.591L1062.94 789.735C1062.97 789.569 1062.96 789.398 1062.9 789.237C1062.85 789.077 1062.76 788.933 1062.64 788.817L1060.54 786.777C1060.4 786.64 1060.31 786.467 1060.26 786.277C1060.21 786.087 1060.22 785.887 1060.28 785.701C1060.34 785.515 1060.45 785.35 1060.6 785.225C1060.75 785.099 1060.94 785.019 1061.13 784.992L1064.01 784.584C1064.18 784.559 1064.34 784.495 1064.48 784.398C1064.61 784.301 1064.73 784.172 1064.8 784.023L1066.08 781.473C1066.17 781.314 1066.3 781.182 1066.46 781.09C1066.62 780.999 1066.8 780.951 1066.98 780.951C1067.17 780.951 1067.35 780.999 1067.51 781.09C1067.67 781.182 1067.8 781.314 1067.89 781.473V781.473Z" fill="#E6E6E6"/>
<path d="M438.574 168.657C440.447 168.657 441.966 167.138 441.966 165.265C441.966 163.392 440.447 161.874 438.574 161.874C436.701 161.874 435.183 163.392 435.183 165.265C435.183 167.138 436.701 168.657 438.574 168.657Z" fill="#E6E6E6"/>
<path d="M790.958 206.754C790.963 207.426 790.768 208.084 790.399 208.645C790.029 209.206 789.501 209.645 788.882 209.905C788.263 210.166 787.58 210.237 786.92 210.109C786.261 209.981 785.654 209.66 785.177 209.187C784.7 208.713 784.375 208.109 784.242 207.45C784.109 206.792 784.175 206.109 784.431 205.487C784.686 204.866 785.121 204.335 785.679 203.961C786.238 203.587 786.894 203.388 787.566 203.388C788.461 203.388 789.32 203.742 789.955 204.372C790.591 205.003 790.951 205.859 790.958 206.754Z" fill="#F5F5F5"/>
<path d="M421.209 475.983C423.082 475.983 424.601 474.464 424.601 472.591C424.601 470.718 423.082 469.2 421.209 469.2C419.336 469.2 417.818 470.718 417.818 472.591C417.818 474.464 419.336 475.983 421.209 475.983Z" fill="#F5F5F5"/>
<path d="M313.217 727.413C313.222 728.086 313.026 728.745 312.656 729.307C312.285 729.868 311.755 730.307 311.135 730.567C310.514 730.826 309.83 730.896 309.17 730.766C308.509 730.636 307.903 730.312 307.427 729.836C306.951 729.361 306.628 728.754 306.498 728.094C306.367 727.433 306.437 726.749 306.697 726.129C306.956 725.508 307.395 724.978 307.957 724.608C308.518 724.237 309.178 724.042 309.851 724.047C310.743 724.047 311.599 724.401 312.231 725.033C312.862 725.664 313.217 726.52 313.217 727.413V727.413Z" fill="#F5F5F5"/>
<path d="M1020.84 526.983C1022.71 526.983 1024.23 525.464 1024.23 523.591C1024.23 521.718 1022.71 520.2 1020.84 520.2C1018.97 520.2 1017.45 521.718 1017.45 523.591C1017.45 525.464 1018.97 526.983 1020.84 526.983Z" fill="#E6E6E6"/>
<path d="M416.824 305.312C416.209 305.309 415.602 305.173 415.045 304.912C414.488 304.651 413.994 304.272 413.599 303.802C413.203 303.331 412.915 302.779 412.754 302.186C412.593 301.592 412.564 300.971 412.667 300.365L414.07 292.281C414.11 292.014 414.087 291.741 414.003 291.484C413.919 291.227 413.776 290.994 413.585 290.802L407.695 285.065C407.128 284.516 406.727 283.82 406.537 283.054C406.347 282.289 406.376 281.486 406.621 280.736C406.865 279.986 407.315 279.32 407.92 278.814C408.525 278.308 409.26 277.982 410.041 277.874L418.175 276.701C418.441 276.657 418.693 276.551 418.91 276.391C419.127 276.232 419.304 276.023 419.425 275.783L423.046 268.413C423.389 267.689 423.931 267.077 424.608 266.649C425.285 266.221 426.07 265.993 426.871 265.993C427.672 265.993 428.457 266.221 429.134 266.649C429.811 267.077 430.353 267.689 430.696 268.413L434.317 275.783C434.44 276.026 434.621 276.237 434.842 276.397C435.064 276.557 435.321 276.661 435.592 276.701L443.701 277.95C444.482 278.059 445.217 278.385 445.821 278.891C446.426 279.397 446.876 280.063 447.121 280.812C447.365 281.562 447.394 282.365 447.205 283.131C447.015 283.896 446.613 284.593 446.047 285.141L440.08 290.7C439.889 290.891 439.747 291.125 439.667 291.383C439.587 291.64 439.571 291.914 439.621 292.179L440.998 300.263C441.133 301.038 441.047 301.837 440.751 302.567C440.455 303.296 439.96 303.928 439.322 304.391C438.685 304.853 437.93 305.127 437.144 305.182C436.358 305.236 435.573 305.069 434.878 304.7L427.61 300.875C427.372 300.743 427.105 300.674 426.832 300.674C426.56 300.674 426.293 300.743 426.055 300.875L418.787 304.674C418.196 305.047 417.521 305.266 416.824 305.312V305.312ZM426.845 268.617C426.532 268.607 426.223 268.688 425.956 268.851C425.689 269.014 425.475 269.252 425.341 269.535L421.694 276.905C421.395 277.519 420.951 278.051 420.4 278.456C419.849 278.86 419.208 279.124 418.532 279.225L410.398 280.398C410.091 280.442 409.803 280.571 409.566 280.771C409.329 280.971 409.153 281.233 409.057 281.527C408.961 281.822 408.95 282.138 409.025 282.438C409.1 282.739 409.257 283.013 409.48 283.229L415.37 288.966C415.859 289.447 416.223 290.04 416.432 290.693C416.64 291.345 416.687 292.039 416.569 292.715L415.192 300.798C415.138 301.103 415.17 301.416 415.285 301.704C415.4 301.991 415.594 302.24 415.843 302.423C416.092 302.606 416.388 302.716 416.697 302.74C417.005 302.763 417.314 302.7 417.589 302.558L424.882 298.733C425.484 298.418 426.153 298.253 426.832 298.253C427.512 298.253 428.181 298.418 428.783 298.733L436.076 302.558C436.345 302.728 436.658 302.817 436.977 302.815C437.295 302.812 437.607 302.718 437.873 302.543C438.139 302.368 438.35 302.12 438.479 301.829C438.608 301.537 438.65 301.215 438.601 300.9L437.224 292.817C437.112 292.141 437.162 291.449 437.37 290.797C437.579 290.146 437.939 289.553 438.422 289.068L444.313 283.331C444.541 283.117 444.703 282.843 444.78 282.54C444.857 282.237 444.845 281.918 444.746 281.622C444.649 281.327 444.47 281.066 444.231 280.867C443.992 280.669 443.703 280.542 443.395 280.5L435.26 279.327C434.584 279.226 433.943 278.962 433.392 278.558C432.841 278.153 432.397 277.621 432.098 277.007L428.401 269.535C428.263 269.244 428.042 269 427.764 268.837C427.487 268.673 427.167 268.596 426.845 268.617V268.617Z" fill="#E04048"/>
<path opacity="0.5" d="M416.824 305.312C416.209 305.309 415.602 305.173 415.045 304.912C414.488 304.651 413.994 304.272 413.599 303.802C413.203 303.331 412.915 302.779 412.754 302.186C412.593 301.592 412.564 300.971 412.667 300.365L414.07 292.281C414.11 292.014 414.087 291.741 414.003 291.484C413.919 291.227 413.776 290.994 413.585 290.802L407.695 285.065C407.128 284.516 406.727 283.82 406.537 283.054C406.347 282.289 406.376 281.486 406.621 280.736C406.865 279.986 407.315 279.32 407.92 278.814C408.525 278.308 409.26 277.982 410.041 277.874L418.175 276.701C418.441 276.657 418.693 276.551 418.91 276.391C419.127 276.232 419.304 276.023 419.425 275.783L423.046 268.413C423.389 267.689 423.931 267.077 424.608 266.649C425.285 266.221 426.07 265.993 426.871 265.993C427.672 265.993 428.457 266.221 429.134 266.649C429.811 267.077 430.353 267.689 430.696 268.413L434.317 275.783C434.44 276.026 434.621 276.237 434.842 276.397C435.064 276.557 435.321 276.661 435.592 276.701L443.701 277.95C444.482 278.059 445.217 278.385 445.821 278.891C446.426 279.397 446.876 280.063 447.121 280.812C447.365 281.562 447.394 282.365 447.205 283.131C447.015 283.896 446.613 284.593 446.047 285.141L440.08 290.7C439.889 290.891 439.747 291.125 439.667 291.383C439.587 291.64 439.571 291.914 439.621 292.179L440.998 300.263C441.133 301.038 441.047 301.837 440.751 302.567C440.455 303.296 439.96 303.928 439.322 304.391C438.685 304.853 437.93 305.127 437.144 305.182C436.358 305.236 435.573 305.069 434.878 304.7L427.61 300.875C427.372 300.743 427.105 300.674 426.832 300.674C426.56 300.674 426.293 300.743 426.055 300.875L418.787 304.674C418.196 305.047 417.521 305.266 416.824 305.312V305.312ZM426.845 268.617C426.532 268.607 426.223 268.688 425.956 268.851C425.689 269.014 425.475 269.252 425.341 269.535L421.694 276.905C421.395 277.519 420.951 278.051 420.4 278.456C419.849 278.86 419.208 279.124 418.532 279.225L410.398 280.398C410.091 280.442 409.803 280.571 409.566 280.771C409.329 280.971 409.153 281.233 409.057 281.527C408.961 281.822 408.95 282.138 409.025 282.438C409.1 282.739 409.257 283.013 409.48 283.229L415.37 288.966C415.859 289.447 416.223 290.04 416.432 290.693C416.64 291.345 416.687 292.039 416.569 292.715L415.192 300.798C415.138 301.103 415.17 301.416 415.285 301.704C415.4 301.991 415.594 302.24 415.843 302.423C416.092 302.606 416.388 302.716 416.697 302.74C417.005 302.763 417.314 302.7 417.589 302.558L424.882 298.733C425.484 298.418 426.153 298.253 426.832 298.253C427.512 298.253 428.181 298.418 428.783 298.733L436.076 302.558C436.345 302.728 436.658 302.817 436.977 302.815C437.295 302.812 437.607 302.718 437.873 302.543C438.139 302.368 438.35 302.12 438.479 301.829C438.608 301.537 438.65 301.215 438.601 300.9L437.224 292.817C437.112 292.141 437.162 291.449 437.37 290.797C437.579 290.146 437.939 289.553 438.422 289.068L444.313 283.331C444.541 283.117 444.703 282.843 444.78 282.54C444.857 282.237 444.845 281.918 444.746 281.622C444.649 281.327 444.47 281.066 444.231 280.867C443.992 280.669 443.703 280.542 443.395 280.5L435.26 279.327C434.584 279.226 433.943 278.962 433.392 278.558C432.841 278.153 432.397 277.621 432.098 277.007L428.401 269.535C428.263 269.244 428.042 269 427.764 268.837C427.487 268.673 427.167 268.596 426.845 268.617V268.617Z" fill="white"/>
<path d="M887.731 502.044C886.787 502.032 885.855 501.828 884.992 501.446C884.128 501.063 883.351 500.51 882.708 499.819C882.064 499.128 881.568 498.313 881.248 497.425C880.928 496.536 880.791 495.592 880.846 494.649L881.917 478.941C881.966 478.239 881.843 477.535 881.559 476.89C881.274 476.246 880.837 475.681 880.285 475.244L867.969 465.452C866.959 464.654 866.193 463.591 865.755 462.381C865.317 461.172 865.225 459.864 865.49 458.605C865.755 457.346 866.366 456.186 867.255 455.256C868.143 454.326 869.274 453.662 870.519 453.339L885.819 449.514C886.506 449.35 887.142 449.017 887.667 448.545C888.193 448.073 888.592 447.477 888.828 446.811L894.336 432.072C894.789 430.868 895.569 429.814 896.589 429.029C897.608 428.244 898.827 427.759 900.107 427.629C901.387 427.499 902.678 427.729 903.835 428.293C904.991 428.858 905.967 429.734 906.652 430.823L915.016 444.159C915.387 444.759 915.9 445.259 916.509 445.614C917.118 445.97 917.805 446.171 918.51 446.199L934.243 446.888C935.537 446.928 936.793 447.331 937.869 448.05C938.944 448.77 939.796 449.777 940.328 450.956C940.859 452.136 941.049 453.442 940.875 454.724C940.701 456.006 940.17 457.214 939.343 458.21L929.143 470.271C928.665 470.812 928.328 471.463 928.163 472.167C927.999 472.87 928.011 473.603 928.2 474.3L932.407 489.473C932.757 490.711 932.751 492.023 932.391 493.259C932.03 494.495 931.329 495.604 930.367 496.46C929.406 497.32 928.224 497.895 926.953 498.12C925.683 498.345 924.375 498.212 923.176 497.735L908.59 491.844C907.936 491.581 907.227 491.481 906.526 491.552C905.824 491.623 905.15 491.863 904.561 492.252L891.454 500.948C890.341 501.656 889.051 502.036 887.731 502.044ZM900.864 430.134H900.405C899.592 430.203 898.817 430.505 898.17 431.002C897.524 431.499 897.034 432.171 896.758 432.939L891.25 447.678C890.866 448.732 890.227 449.674 889.391 450.422C888.555 451.169 887.547 451.698 886.456 451.962L871.156 455.787C870.365 455.983 869.645 456.397 869.078 456.982C868.51 457.567 868.118 458.299 867.945 459.096C867.773 459.892 867.827 460.721 868.101 461.489C868.376 462.256 868.86 462.931 869.499 463.437L881.815 473.229C882.685 473.926 883.372 474.824 883.816 475.846C884.26 476.868 884.449 477.983 884.365 479.094L883.295 494.802C883.228 495.612 883.394 496.424 883.773 497.142C884.153 497.861 884.73 498.456 885.436 498.857C886.125 499.286 886.92 499.514 887.731 499.514C888.543 499.514 889.338 499.286 890.026 498.857L903.159 490.161C904.089 489.544 905.155 489.161 906.265 489.046C907.375 488.93 908.497 489.086 909.534 489.498L924.145 495.389C924.889 495.677 925.697 495.756 926.482 495.618C927.267 495.479 928 495.128 928.599 494.602C929.199 494.076 929.642 493.396 929.882 492.635C930.122 491.875 930.149 491.063 929.959 490.289L925.752 475.116C925.451 474.039 925.417 472.905 925.652 471.812C925.888 470.72 926.386 469.7 927.103 468.843L937.303 456.782C937.819 456.154 938.15 455.396 938.261 454.592C938.371 453.788 938.256 452.968 937.928 452.225C937.6 451.483 937.073 450.845 936.404 450.385C935.736 449.924 934.952 449.658 934.141 449.616L918.434 448.953C917.314 448.902 916.224 448.581 915.256 448.017C914.288 447.453 913.471 446.663 912.874 445.715L904.536 432.378C904.176 431.713 903.647 431.156 903.002 430.762C902.357 430.367 901.62 430.151 900.864 430.134Z" fill="#E04048"/>
<path opacity="0.5" d="M887.731 502.044C886.787 502.032 885.855 501.828 884.992 501.446C884.128 501.063 883.351 500.51 882.708 499.819C882.064 499.128 881.568 498.313 881.248 497.425C880.928 496.536 880.791 495.592 880.846 494.649L881.917 478.941C881.966 478.239 881.843 477.535 881.559 476.89C881.274 476.246 880.837 475.681 880.285 475.244L867.969 465.452C866.959 464.654 866.193 463.591 865.755 462.381C865.317 461.172 865.225 459.864 865.49 458.605C865.755 457.346 866.366 456.186 867.255 455.256C868.143 454.326 869.274 453.662 870.519 453.339L885.819 449.514C886.506 449.35 887.142 449.017 887.667 448.545C888.193 448.073 888.592 447.477 888.828 446.811L894.336 432.072C894.789 430.868 895.569 429.814 896.589 429.029C897.608 428.244 898.827 427.759 900.107 427.629C901.387 427.499 902.678 427.729 903.835 428.293C904.991 428.858 905.967 429.734 906.652 430.823L915.016 444.159C915.387 444.759 915.9 445.259 916.509 445.614C917.118 445.97 917.805 446.171 918.51 446.199L934.243 446.888C935.537 446.928 936.793 447.331 937.869 448.05C938.944 448.77 939.796 449.777 940.328 450.956C940.859 452.136 941.049 453.442 940.875 454.724C940.701 456.006 940.17 457.214 939.343 458.21L929.143 470.271C928.665 470.812 928.328 471.463 928.163 472.167C927.999 472.87 928.011 473.603 928.2 474.3L932.407 489.473C932.757 490.711 932.751 492.023 932.391 493.259C932.03 494.495 931.329 495.604 930.367 496.46C929.406 497.32 928.224 497.895 926.953 498.12C925.683 498.345 924.375 498.212 923.176 497.735L908.59 491.844C907.936 491.581 907.227 491.481 906.526 491.552C905.824 491.623 905.15 491.863 904.561 492.252L891.454 500.948C890.341 501.656 889.051 502.036 887.731 502.044ZM900.864 430.134H900.405C899.592 430.203 898.817 430.505 898.17 431.002C897.524 431.499 897.034 432.171 896.758 432.939L891.25 447.678C890.866 448.732 890.227 449.674 889.391 450.422C888.555 451.169 887.547 451.698 886.456 451.962L871.156 455.787C870.365 455.983 869.645 456.397 869.078 456.982C868.51 457.567 868.118 458.299 867.945 459.096C867.773 459.892 867.827 460.721 868.101 461.489C868.376 462.256 868.86 462.931 869.499 463.437L881.815 473.229C882.685 473.926 883.372 474.824 883.816 475.846C884.26 476.868 884.449 477.983 884.365 479.094L883.295 494.802C883.228 495.612 883.394 496.424 883.773 497.142C884.153 497.861 884.73 498.456 885.436 498.857C886.125 499.286 886.92 499.514 887.731 499.514C888.543 499.514 889.338 499.286 890.026 498.857L903.159 490.161C904.089 489.544 905.155 489.161 906.265 489.046C907.375 488.93 908.497 489.086 909.534 489.498L924.145 495.389C924.889 495.677 925.697 495.756 926.482 495.618C927.267 495.479 928 495.128 928.599 494.602C929.199 494.076 929.642 493.396 929.882 492.635C930.122 491.875 930.149 491.063 929.959 490.289L925.752 475.116C925.451 474.039 925.417 472.905 925.652 471.812C925.888 470.72 926.386 469.7 927.103 468.843L937.303 456.782C937.819 456.154 938.15 455.396 938.261 454.592C938.371 453.788 938.256 452.968 937.928 452.225C937.6 451.483 937.073 450.845 936.404 450.385C935.736 449.924 934.952 449.658 934.141 449.616L918.434 448.953C917.314 448.902 916.224 448.581 915.256 448.017C914.288 447.453 913.471 446.663 912.874 445.715L904.536 432.378C904.176 431.713 903.647 431.156 903.002 430.762C902.357 430.367 901.62 430.151 900.864 430.134Z" fill="white"/>
<path d="M423.785 616.055L422.357 621.384C422.282 621.693 422.279 622.015 422.35 622.325C422.421 622.635 422.563 622.924 422.765 623.169L426.361 627.3C426.598 627.582 426.751 627.925 426.805 628.289C426.859 628.654 426.81 629.026 426.665 629.364C426.519 629.703 426.283 629.994 425.982 630.206C425.68 630.418 425.326 630.542 424.958 630.564L419.45 630.87C419.133 630.886 418.825 630.98 418.553 631.145C418.282 631.31 418.055 631.54 417.895 631.814L415.013 636.506C414.824 636.822 414.55 637.079 414.222 637.246C413.894 637.414 413.525 637.486 413.158 637.454C412.791 637.422 412.44 637.288 412.146 637.066C411.852 636.844 411.626 636.544 411.494 636.2L409.505 631.1C409.393 630.799 409.209 630.53 408.969 630.316C408.729 630.103 408.44 629.952 408.128 629.876L402.773 628.601C402.414 628.518 402.086 628.336 401.825 628.075C401.565 627.815 401.383 627.486 401.301 627.127C401.218 626.768 401.239 626.393 401.359 626.045C401.48 625.696 401.696 625.389 401.983 625.158L406.241 621.69C406.493 621.491 406.691 621.234 406.82 620.941C406.949 620.647 407.004 620.327 406.981 620.007L406.522 614.499C406.496 614.131 406.574 613.763 406.745 613.437C406.917 613.11 407.176 612.838 407.493 612.65C407.811 612.462 408.174 612.366 408.543 612.373C408.912 612.38 409.272 612.489 409.582 612.689L414.197 615.672C414.465 615.85 414.773 615.959 415.093 615.99C415.413 616.022 415.736 615.974 416.033 615.851L421.133 613.734C421.472 613.593 421.843 613.55 422.205 613.609C422.567 613.668 422.906 613.827 423.182 614.069C423.458 614.31 423.661 614.625 423.767 614.976C423.874 615.326 423.88 615.7 423.785 616.055V616.055Z" fill="#E04048"/>
</svg>
