<svg width="1047" height="740" viewBox="0 0 1047 740" fill="none" xmlns="http://www.w3.org/2000/svg">
<g clip-path="url(#clip0_2841_1261)">
<path d="M866.883 241.278C866.144 241.278 865.421 241.064 864.801 240.661C864.181 240.258 863.691 239.684 863.39 239.009C856.148 222.638 896.999 194.282 941.088 174.749C985.178 155.216 1033.63 143.97 1040.9 160.341C1041.1 160.802 1041.21 161.298 1041.22 161.801C1041.23 162.304 1041.14 162.804 1040.96 163.273C1040.78 163.741 1040.5 164.17 1040.16 164.533C1039.81 164.897 1039.39 165.188 1038.93 165.39C1038.47 165.593 1037.98 165.703 1037.47 165.714C1036.97 165.725 1036.47 165.637 1036 165.454C1035.53 165.272 1035.1 164.999 1034.74 164.651C1034.38 164.303 1034.09 163.887 1033.88 163.427C1030.64 156.134 994.103 159.602 944.199 181.736C894.296 203.87 867.138 228.579 870.249 235.898C870.465 236.359 870.586 236.858 870.605 237.367C870.624 237.875 870.541 238.382 870.36 238.858C870.179 239.334 869.905 239.768 869.553 240.136C869.201 240.503 868.779 240.797 868.311 240.998C867.858 241.184 867.373 241.28 866.883 241.278V241.278Z" fill="#F5F5F5"/>
<path d="M952.129 265.325C988.394 265.325 1017.79 235.927 1017.79 199.662C1017.79 163.398 988.394 134 952.129 134C915.865 134 886.467 163.398 886.467 199.662C886.467 235.927 915.865 265.325 952.129 265.325Z" fill="#E6E6E6"/>
<path d="M882.592 246.965C872.188 246.965 865.737 244.415 863.391 239.009C863.183 238.545 863.069 238.045 863.055 237.538C863.041 237.03 863.128 236.524 863.311 236.05C863.493 235.576 863.768 235.143 864.119 234.775C864.469 234.408 864.889 234.113 865.354 233.909C865.815 233.693 866.315 233.572 866.823 233.553C867.332 233.534 867.839 233.618 868.314 233.799C868.79 233.979 869.225 234.254 869.592 234.606C869.96 234.957 870.253 235.38 870.454 235.847C871.474 238.142 878.41 241.1 898.02 237.734C919.452 233.467 940.31 226.697 960.163 217.563C1009.99 195.506 1037.17 170.745 1033.88 163.376C1033.47 162.446 1033.45 161.392 1033.82 160.445C1034.19 159.498 1034.92 158.736 1035.85 158.327C1036.78 157.918 1037.83 157.895 1038.78 158.263C1039.73 158.631 1040.49 159.361 1040.9 160.29C1048.14 176.661 1007.29 205.017 963.198 224.55C942.762 233.933 921.298 240.891 899.244 245.282C893.75 246.309 888.18 246.872 882.592 246.965Z" fill="#F5F5F5"/>
<path d="M807.871 99.9969L810.039 104.357C810.163 104.608 810.347 104.825 810.573 104.989C810.8 105.153 811.062 105.26 811.339 105.301L816.159 106.015C816.48 106.06 816.782 106.194 817.03 106.402C817.279 106.611 817.464 106.884 817.565 107.192C817.665 107.5 817.678 107.83 817.601 108.145C817.524 108.46 817.36 108.747 817.128 108.973L813.634 112.39C813.433 112.584 813.283 112.826 813.198 113.093C813.113 113.361 813.097 113.645 813.15 113.92L813.966 118.714C814.027 119.038 813.995 119.373 813.872 119.679C813.75 119.986 813.543 120.251 813.275 120.444C813.008 120.636 812.69 120.749 812.361 120.768C812.032 120.786 811.704 120.711 811.416 120.55L807.106 118.28C806.853 118.155 806.573 118.089 806.29 118.089C806.007 118.089 805.728 118.155 805.474 118.28L801.165 120.55C800.877 120.711 800.549 120.786 800.22 120.768C799.89 120.749 799.573 120.636 799.305 120.444C799.038 120.251 798.83 119.986 798.708 119.679C798.586 119.373 798.553 119.038 798.615 118.714L799.431 113.92C799.486 113.643 799.467 113.356 799.378 113.087C799.289 112.819 799.131 112.579 798.921 112.39L795.402 108.973C795.17 108.747 795.006 108.46 794.929 108.145C794.852 107.83 794.864 107.5 794.965 107.192C795.066 106.884 795.251 106.611 795.5 106.402C795.748 106.194 796.05 106.06 796.371 106.015L801.19 105.301C801.467 105.26 801.73 105.153 801.956 104.989C802.183 104.825 802.366 104.608 802.491 104.357L804.658 99.9969C804.788 99.6773 805.01 99.4037 805.297 99.211C805.583 99.0184 805.92 98.9155 806.265 98.9155C806.61 98.9155 806.947 99.0184 807.233 99.211C807.519 99.4037 807.742 99.6773 807.871 99.9969V99.9969Z" fill="#F5F5F5"/>
<path d="M12.8841 529.035L15.1026 533.395C15.2291 533.646 15.4126 533.865 15.6383 534.033C15.8641 534.201 16.1259 534.315 16.4031 534.364L21.2226 535.053C21.5435 535.103 21.844 535.241 22.091 535.452C22.3381 535.663 22.5219 535.938 22.6222 536.247C22.7225 536.556 22.7354 536.887 22.6594 537.202C22.5834 537.518 22.4215 537.807 22.1916 538.036L18.6981 541.428C18.4983 541.623 18.3495 541.865 18.2651 542.132C18.1806 542.399 18.1629 542.682 18.2136 542.957L19.0296 547.777C19.091 548.101 19.0586 548.436 18.9363 548.742C18.814 549.049 18.6068 549.314 18.3391 549.507C18.0714 549.699 17.7542 549.812 17.4248 549.831C17.0955 549.85 16.7676 549.774 16.4796 549.613L12.1701 547.343C11.9204 547.205 11.6396 547.132 11.3541 547.132C11.0686 547.132 10.7878 547.205 10.5381 547.343L6.22864 549.613C5.9407 549.774 5.6128 549.85 5.28344 549.831C4.95408 549.812 4.63692 549.699 4.3692 549.507C4.10147 549.314 3.89429 549.049 3.77198 548.742C3.64966 548.436 3.61728 548.101 3.67864 547.777L4.49464 542.957C4.54536 542.682 4.5277 542.399 4.44322 542.132C4.35874 541.865 4.21003 541.623 4.01014 541.428L0.516638 538.036C0.286756 537.807 0.124851 537.518 0.0488531 537.202C-0.0271446 536.887 -0.0142697 536.556 0.0860509 536.247C0.186372 535.938 0.370225 535.663 0.617249 535.452C0.864273 535.241 1.16483 535.103 1.48564 535.053L6.30514 534.364C6.58233 534.315 6.8442 534.201 7.06996 534.033C7.29572 533.865 7.47914 533.646 7.60564 533.395L9.77314 529.035C9.91622 528.744 10.1378 528.499 10.4127 528.328C10.6876 528.157 11.0049 528.067 11.3286 528.067C11.6524 528.067 11.9697 528.157 12.2446 528.328C12.5195 528.499 12.7411 528.744 12.8841 529.035V529.035Z" fill="#E6E6E6"/>
<path d="M633.655 719.29L635.797 723.65C635.923 723.905 636.109 724.125 636.341 724.29C636.572 724.455 636.841 724.559 637.123 724.594L641.943 725.308C642.262 725.357 642.561 725.494 642.806 725.704C643.051 725.913 643.233 726.187 643.331 726.495C643.429 726.802 643.439 727.13 643.361 727.443C643.282 727.756 643.118 728.041 642.886 728.266L639.418 731.683C639.214 731.876 639.06 732.117 638.971 732.384C638.883 732.651 638.861 732.935 638.908 733.213L639.724 738.032C639.786 738.356 639.753 738.691 639.631 738.998C639.509 739.304 639.302 739.569 639.034 739.762C638.766 739.955 638.449 740.067 638.12 740.086C637.79 740.105 637.462 740.029 637.174 739.868L632.865 737.599C632.62 737.46 632.343 737.387 632.062 737.387C631.78 737.387 631.503 737.46 631.258 737.599L626.923 739.868C626.634 740.019 626.309 740.086 625.984 740.062C625.66 740.039 625.348 739.926 625.083 739.735C624.819 739.545 624.612 739.285 624.487 738.984C624.362 738.684 624.322 738.354 624.373 738.032L625.215 733.213C625.256 732.936 625.231 732.653 625.143 732.387C625.054 732.121 624.904 731.88 624.705 731.683L621.211 728.266C620.979 728.039 620.816 727.753 620.738 727.438C620.661 727.123 620.674 726.793 620.775 726.485C620.876 726.177 621.061 725.903 621.309 725.695C621.558 725.487 621.859 725.353 622.18 725.308L627 724.594C627.281 724.555 627.548 724.449 627.779 724.285C628.009 724.12 628.197 723.903 628.326 723.65L630.468 719.29C630.61 718.987 630.835 718.73 631.117 718.551C631.399 718.371 631.727 718.276 632.062 718.276C632.396 718.276 632.724 718.371 633.006 718.551C633.288 718.73 633.514 718.987 633.655 719.29Z" fill="#E6E6E6"/>
<path d="M602.724 0.521351L604.024 3.07135C604.097 3.21984 604.204 3.34848 604.338 3.4462C604.471 3.54392 604.626 3.60781 604.789 3.63235L607.671 4.04035C607.865 4.06707 608.047 4.14773 608.198 4.27314C608.348 4.39856 608.46 4.56369 608.521 4.74972C608.582 4.93575 608.59 5.13521 608.543 5.32538C608.497 5.51555 608.398 5.68878 608.257 5.82535L606.166 7.86535C606.048 7.9836 605.96 8.1292 605.911 8.2893C605.862 8.44939 605.854 8.61906 605.886 8.78335L606.37 11.6394C606.411 11.8319 606.395 12.0321 606.325 12.2158C606.254 12.3995 606.132 12.559 605.973 12.6749C605.814 12.7908 605.625 12.8582 605.428 12.869C605.232 12.8798 605.037 12.8336 604.866 12.7359L602.316 11.3843C602.166 11.3082 602 11.2685 601.831 11.2685C601.663 11.2685 601.497 11.3082 601.347 11.3843L598.797 12.7359C598.625 12.8228 598.432 12.8605 598.241 12.845C598.049 12.8295 597.865 12.7612 597.709 12.6478C597.553 12.5344 597.432 12.3802 597.359 12.2023C597.285 12.0243 597.262 11.8295 597.292 11.6394L597.802 8.78335C597.825 8.61712 597.809 8.44792 597.756 8.28877C597.703 8.12962 597.614 7.98477 597.496 7.86535L595.405 5.82535C595.265 5.68878 595.166 5.51555 595.119 5.32538C595.072 5.13521 595.08 4.93575 595.141 4.74972C595.202 4.56369 595.314 4.39856 595.465 4.27314C595.615 4.14773 595.798 4.06707 595.992 4.04035L598.873 3.63235C599.037 3.60781 599.192 3.54392 599.325 3.4462C599.458 3.34848 599.566 3.21984 599.638 3.07135L600.939 0.521351C601.032 0.368349 601.163 0.241916 601.319 0.154187C601.476 0.0664588 601.652 0.0203857 601.831 0.0203857C602.01 0.0203857 602.187 0.0664588 602.343 0.154187C602.499 0.241916 602.63 0.368349 602.724 0.521351V0.521351Z" fill="#E6E6E6"/>
<path d="M149.284 451.54L150.584 454.09C150.657 454.238 150.765 454.367 150.898 454.465C151.031 454.562 151.186 454.626 151.349 454.651L154.231 455.084C154.425 455.105 154.609 455.182 154.761 455.304C154.913 455.427 155.027 455.591 155.089 455.776C155.151 455.961 155.158 456.16 155.11 456.35C155.062 456.539 154.96 456.711 154.817 456.844L152.726 458.884C152.608 459.002 152.52 459.148 152.471 459.308C152.423 459.468 152.414 459.638 152.446 459.802L152.93 462.683C152.961 462.874 152.938 463.068 152.864 463.246C152.791 463.424 152.669 463.578 152.514 463.692C152.358 463.805 152.174 463.873 151.982 463.889C151.79 463.905 151.598 463.867 151.426 463.78L148.876 462.428C148.73 462.341 148.562 462.294 148.391 462.294C148.221 462.294 148.053 462.341 147.907 462.428L145.357 463.78C145.184 463.874 144.989 463.917 144.793 463.905C144.597 463.893 144.408 463.826 144.248 463.711C144.088 463.597 143.964 463.44 143.89 463.258C143.815 463.076 143.793 462.877 143.827 462.683L144.337 459.802C144.36 459.636 144.344 459.466 144.291 459.307C144.238 459.148 144.149 459.003 144.031 458.884L141.94 456.844C141.797 456.711 141.696 456.539 141.648 456.35C141.6 456.16 141.607 455.961 141.669 455.776C141.73 455.591 141.844 455.427 141.996 455.304C142.148 455.182 142.332 455.105 142.526 455.084L145.408 454.651C145.571 454.626 145.726 454.562 145.86 454.465C145.993 454.367 146.1 454.238 146.173 454.09L147.473 451.54C147.56 451.374 147.689 451.235 147.849 451.138C148.009 451.041 148.192 450.99 148.379 450.99C148.566 450.99 148.749 451.041 148.908 451.138C149.068 451.235 149.198 451.374 149.284 451.54Z" fill="#F5F5F5"/>
<path d="M19.0544 695.09L20.3294 697.64C20.4029 697.795 20.5135 697.93 20.6513 698.032C20.7892 698.135 20.9501 698.201 21.1199 698.227L24.0014 698.635C24.1933 698.665 24.3729 698.749 24.52 698.876C24.667 699.003 24.7758 699.168 24.8341 699.354C24.8923 699.539 24.8978 699.737 24.8498 699.925C24.8018 700.114 24.7023 700.285 24.5624 700.42L22.4969 702.46C22.372 702.574 22.2783 702.718 22.2247 702.879C22.1712 703.04 22.1595 703.211 22.1909 703.378L22.7519 706.285C22.7927 706.477 22.7769 706.677 22.7064 706.861C22.6359 707.045 22.5138 707.204 22.3548 707.32C22.1958 707.436 22.0066 707.503 21.8101 707.514C21.6136 707.525 21.4182 707.479 21.2474 707.381L18.6974 706.03C18.5473 705.953 18.3813 705.914 18.2129 705.914C18.0446 705.914 17.8786 705.953 17.7284 706.03L15.1784 707.381C15.0076 707.479 14.8122 707.525 14.6157 707.514C14.4192 707.503 14.2301 707.436 14.0711 707.32C13.912 707.204 13.7899 707.045 13.7195 706.861C13.649 706.677 13.6332 706.477 13.6739 706.285L14.1584 703.429C14.1898 703.262 14.1782 703.091 14.1246 702.93C14.0711 702.769 13.9774 702.625 13.8524 702.511L11.7614 700.471C11.6211 700.334 11.5219 700.161 11.4752 699.971C11.4285 699.781 11.4362 699.581 11.4973 699.395C11.5584 699.209 11.6706 699.044 11.821 698.918C11.9713 698.793 12.1539 698.712 12.3479 698.686L15.2294 698.278C15.3978 698.248 15.5569 698.18 15.6942 698.078C15.8314 697.976 15.943 697.844 16.0199 697.691L17.2949 695.141C17.3893 694.996 17.5175 694.876 17.6684 694.792C17.8192 694.707 17.9884 694.66 18.1613 694.655C18.3343 694.65 18.5058 694.687 18.6614 694.763C18.8169 694.839 18.9518 694.951 19.0544 695.09V695.09Z" fill="#F5F5F5"/>
<path d="M927.441 695.473L928.741 698.023C928.816 698.175 928.927 698.305 929.065 698.403C929.203 698.501 929.364 698.563 929.532 698.584L932.413 698.992C932.605 699.023 932.785 699.106 932.932 699.233C933.079 699.36 933.187 699.526 933.246 699.711C933.304 699.896 933.309 700.094 933.261 700.283C933.213 700.471 933.114 700.642 932.974 700.777L930.909 702.817C930.786 702.933 930.693 703.077 930.64 703.237C930.586 703.398 930.574 703.569 930.603 703.735L931.087 706.591C931.128 706.783 931.112 706.984 931.042 707.167C930.971 707.351 930.849 707.511 930.69 707.626C930.531 707.742 930.342 707.81 930.145 707.821C929.949 707.831 929.753 707.785 929.583 707.687L927.033 706.336C926.882 706.26 926.716 706.22 926.548 706.22C926.38 706.22 926.214 706.26 926.064 706.336L923.514 707.687C923.341 707.781 923.145 707.825 922.949 707.813C922.753 707.801 922.565 707.733 922.405 707.619C922.245 707.504 922.121 707.347 922.046 707.165C921.972 706.984 921.95 706.785 921.984 706.591L922.494 703.735C922.523 703.569 922.51 703.398 922.456 703.237C922.403 703.077 922.311 702.933 922.188 702.817L920.097 700.777C919.956 700.64 919.857 700.467 919.81 700.277C919.764 700.087 919.771 699.887 919.832 699.701C919.894 699.515 920.006 699.35 920.156 699.225C920.307 699.099 920.489 699.019 920.683 698.992L923.565 698.584C923.731 698.559 923.89 698.495 924.027 698.398C924.164 698.301 924.277 698.172 924.355 698.023L925.63 695.473C925.722 695.314 925.854 695.182 926.013 695.09C926.172 694.999 926.352 694.951 926.535 694.951C926.719 694.951 926.899 694.999 927.058 695.09C927.217 695.182 927.349 695.314 927.441 695.473V695.473Z" fill="#E6E6E6"/>
<path d="M298.126 82.6568C299.999 82.6568 301.518 81.1384 301.518 79.2653C301.518 77.3923 299.999 75.8738 298.126 75.8738C296.253 75.8738 294.735 77.3923 294.735 79.2653C294.735 81.1384 296.253 82.6568 298.126 82.6568Z" fill="#E6E6E6"/>
<path d="M650.51 120.754C650.515 121.426 650.32 122.084 649.951 122.645C649.581 123.206 649.053 123.645 648.434 123.905C647.815 124.166 647.132 124.237 646.473 124.109C645.813 123.981 645.206 123.66 644.73 123.187C644.253 122.713 643.927 122.109 643.794 121.45C643.661 120.792 643.727 120.109 643.983 119.487C644.239 118.866 644.673 118.335 645.232 117.961C645.79 117.587 646.447 117.388 647.118 117.388C648.014 117.388 648.872 117.742 649.508 118.372C650.143 119.003 650.503 119.859 650.51 120.754Z" fill="#F5F5F5"/>
<path d="M280.762 389.983C282.635 389.983 284.153 388.464 284.153 386.591C284.153 384.718 282.635 383.2 280.762 383.2C278.889 383.2 277.37 384.718 277.37 386.591C277.37 388.464 278.889 389.983 280.762 389.983Z" fill="#F5F5F5"/>
<path d="M172.769 641.413C172.774 642.086 172.578 642.745 172.208 643.307C171.837 643.868 171.307 644.307 170.687 644.567C170.066 644.826 169.382 644.896 168.722 644.766C168.061 644.636 167.455 644.312 166.979 643.836C166.503 643.361 166.18 642.754 166.05 642.094C165.919 641.433 165.989 640.749 166.249 640.129C166.508 639.508 166.947 638.978 167.509 638.608C168.07 638.237 168.73 638.042 169.403 638.047C170.295 638.047 171.151 638.401 171.783 639.033C172.414 639.664 172.769 640.52 172.769 641.413V641.413Z" fill="#F5F5F5"/>
<path d="M880.394 440.983C882.267 440.983 883.785 439.464 883.785 437.591C883.785 435.718 882.267 434.2 880.394 434.2C878.521 434.2 877.002 435.718 877.002 437.591C877.002 439.464 878.521 440.983 880.394 440.983Z" fill="#E6E6E6"/>
<path d="M269.573 219.312C268.958 219.309 268.351 219.173 267.794 218.912C267.237 218.651 266.743 218.272 266.348 217.802C265.952 217.331 265.664 216.779 265.503 216.186C265.342 215.592 265.313 214.971 265.416 214.365L266.819 206.281C266.859 206.014 266.836 205.741 266.752 205.484C266.668 205.227 266.525 204.994 266.334 204.802L260.444 199.065C259.877 198.516 259.476 197.82 259.286 197.054C259.096 196.289 259.125 195.486 259.37 194.736C259.614 193.986 260.064 193.32 260.669 192.814C261.274 192.308 262.009 191.982 262.79 191.874L270.924 190.701C271.19 190.657 271.442 190.551 271.659 190.391C271.876 190.232 272.053 190.023 272.174 189.783L275.795 182.413C276.138 181.689 276.68 181.077 277.357 180.649C278.034 180.221 278.819 179.993 279.62 179.993C280.421 179.993 281.206 180.221 281.883 180.649C282.56 181.077 283.102 181.689 283.445 182.413L287.066 189.783C287.189 190.026 287.37 190.237 287.591 190.397C287.813 190.557 288.07 190.661 288.341 190.701L296.45 191.95C297.231 192.059 297.966 192.385 298.57 192.891C299.175 193.397 299.625 194.063 299.87 194.812C300.114 195.562 300.143 196.365 299.954 197.131C299.764 197.896 299.362 198.593 298.796 199.141L292.829 204.7C292.638 204.891 292.496 205.125 292.416 205.383C292.336 205.64 292.32 205.914 292.37 206.179L293.747 214.263C293.882 215.038 293.796 215.837 293.5 216.567C293.204 217.296 292.709 217.928 292.071 218.391C291.434 218.853 290.679 219.127 289.893 219.182C289.108 219.236 288.322 219.069 287.627 218.7L280.359 214.875C280.121 214.743 279.854 214.674 279.582 214.674C279.309 214.674 279.042 214.743 278.804 214.875L271.536 218.674C270.945 219.047 270.27 219.266 269.573 219.312V219.312ZM279.594 182.617C279.281 182.607 278.972 182.688 278.705 182.851C278.438 183.014 278.224 183.252 278.09 183.535L274.443 190.905C274.144 191.519 273.7 192.051 273.149 192.456C272.598 192.86 271.957 193.124 271.281 193.225L263.147 194.398C262.84 194.442 262.552 194.571 262.315 194.771C262.078 194.971 261.902 195.233 261.806 195.527C261.71 195.822 261.699 196.138 261.774 196.438C261.849 196.739 262.006 197.013 262.229 197.229L268.119 202.966C268.608 203.447 268.972 204.04 269.181 204.693C269.389 205.345 269.436 206.039 269.318 206.715L267.941 214.798C267.887 215.103 267.919 215.416 268.034 215.704C268.149 215.991 268.343 216.24 268.592 216.423C268.841 216.606 269.137 216.716 269.446 216.74C269.754 216.763 270.063 216.7 270.338 216.558L277.631 212.733C278.233 212.418 278.902 212.253 279.582 212.253C280.261 212.253 280.93 212.418 281.532 212.733L288.825 216.558C289.094 216.728 289.407 216.817 289.726 216.815C290.045 216.812 290.356 216.718 290.622 216.543C290.888 216.368 291.099 216.12 291.228 215.829C291.357 215.537 291.399 215.215 291.35 214.9L289.973 206.817C289.861 206.141 289.911 205.449 290.119 204.797C290.328 204.146 290.688 203.553 291.171 203.068L297.062 197.331C297.29 197.117 297.452 196.843 297.529 196.54C297.606 196.237 297.594 195.918 297.495 195.622C297.398 195.327 297.219 195.066 296.98 194.867C296.741 194.669 296.452 194.542 296.144 194.5L288.009 193.327C287.333 193.226 286.692 192.962 286.141 192.558C285.59 192.153 285.146 191.621 284.847 191.007L281.15 183.535C281.012 183.244 280.791 183 280.513 182.837C280.236 182.673 279.916 182.596 279.594 182.617V182.617Z" fill="#E04048"/>
<path opacity="0.5" d="M269.573 219.312C268.958 219.309 268.351 219.173 267.794 218.912C267.237 218.651 266.743 218.272 266.348 217.802C265.952 217.331 265.664 216.779 265.503 216.186C265.342 215.592 265.313 214.971 265.416 214.365L266.819 206.281C266.859 206.014 266.836 205.741 266.752 205.484C266.668 205.227 266.525 204.994 266.334 204.802L260.444 199.065C259.877 198.516 259.476 197.82 259.286 197.054C259.096 196.289 259.125 195.486 259.37 194.736C259.614 193.986 260.064 193.32 260.669 192.814C261.274 192.308 262.009 191.982 262.79 191.874L270.924 190.701C271.19 190.657 271.442 190.551 271.659 190.391C271.876 190.232 272.053 190.023 272.174 189.783L275.795 182.413C276.138 181.689 276.68 181.077 277.357 180.649C278.034 180.221 278.819 179.993 279.62 179.993C280.421 179.993 281.206 180.221 281.883 180.649C282.56 181.077 283.102 181.689 283.445 182.413L287.066 189.783C287.189 190.026 287.37 190.237 287.591 190.397C287.813 190.557 288.07 190.661 288.341 190.701L296.45 191.95C297.231 192.059 297.966 192.385 298.57 192.891C299.175 193.397 299.625 194.063 299.87 194.812C300.114 195.562 300.143 196.365 299.954 197.131C299.764 197.896 299.362 198.593 298.796 199.141L292.829 204.7C292.638 204.891 292.496 205.125 292.416 205.383C292.336 205.64 292.32 205.914 292.37 206.179L293.747 214.263C293.882 215.038 293.796 215.837 293.5 216.567C293.204 217.296 292.709 217.928 292.071 218.391C291.434 218.853 290.679 219.127 289.893 219.182C289.108 219.236 288.322 219.069 287.627 218.7L280.359 214.875C280.121 214.743 279.854 214.674 279.582 214.674C279.309 214.674 279.042 214.743 278.804 214.875L271.536 218.674C270.945 219.047 270.27 219.266 269.573 219.312V219.312ZM279.594 182.617C279.281 182.607 278.972 182.688 278.705 182.851C278.438 183.014 278.224 183.252 278.09 183.535L274.443 190.905C274.144 191.519 273.7 192.051 273.149 192.456C272.598 192.86 271.957 193.124 271.281 193.225L263.147 194.398C262.84 194.442 262.552 194.571 262.315 194.771C262.078 194.971 261.902 195.233 261.806 195.527C261.71 195.822 261.699 196.138 261.774 196.438C261.849 196.739 262.006 197.013 262.229 197.229L268.119 202.966C268.608 203.447 268.972 204.04 269.181 204.693C269.389 205.345 269.436 206.039 269.318 206.715L267.941 214.798C267.887 215.103 267.919 215.416 268.034 215.704C268.149 215.991 268.343 216.24 268.592 216.423C268.841 216.606 269.137 216.716 269.446 216.74C269.754 216.763 270.063 216.7 270.338 216.558L277.631 212.733C278.233 212.418 278.902 212.253 279.582 212.253C280.261 212.253 280.93 212.418 281.532 212.733L288.825 216.558C289.094 216.728 289.407 216.817 289.726 216.815C290.045 216.812 290.356 216.718 290.622 216.543C290.888 216.368 291.099 216.12 291.228 215.829C291.357 215.537 291.399 215.215 291.35 214.9L289.973 206.817C289.861 206.141 289.911 205.449 290.119 204.797C290.328 204.146 290.688 203.553 291.171 203.068L297.062 197.331C297.29 197.117 297.452 196.843 297.529 196.54C297.606 196.237 297.594 195.918 297.495 195.622C297.398 195.327 297.219 195.066 296.98 194.867C296.741 194.669 296.452 194.542 296.144 194.5L288.009 193.327C287.333 193.226 286.692 192.962 286.141 192.558C285.59 192.153 285.146 191.621 284.847 191.007L281.15 183.535C281.012 183.244 280.791 183 280.513 182.837C280.236 182.673 279.916 182.596 279.594 182.617V182.617Z" fill="white"/>
<path d="M740.48 416.044C739.536 416.032 738.604 415.828 737.741 415.446C736.877 415.063 736.1 414.51 735.457 413.819C734.813 413.128 734.317 412.313 733.997 411.425C733.677 410.536 733.54 409.592 733.595 408.649L734.667 392.941C734.715 392.239 734.592 391.535 734.308 390.89C734.023 390.246 733.586 389.681 733.034 389.244L720.718 379.452C719.708 378.654 718.942 377.591 718.504 376.381C718.066 375.172 717.974 373.864 718.239 372.605C718.504 371.346 719.115 370.186 720.004 369.256C720.892 368.326 722.023 367.662 723.268 367.339L738.568 363.514C739.255 363.35 739.891 363.017 740.416 362.545C740.942 362.073 741.341 361.477 741.577 360.811L747.085 346.072C747.538 344.868 748.318 343.814 749.338 343.029C750.357 342.244 751.576 341.759 752.856 341.629C754.136 341.499 755.427 341.729 756.584 342.293C757.74 342.858 758.716 343.734 759.401 344.823L767.765 358.159C768.136 358.759 768.649 359.259 769.258 359.614C769.867 359.97 770.554 360.171 771.259 360.199L786.992 360.888C788.286 360.928 789.542 361.331 790.618 362.05C791.693 362.77 792.545 363.777 793.077 364.956C793.608 366.136 793.798 367.442 793.624 368.724C793.45 370.006 792.919 371.214 792.092 372.21L781.892 384.271C781.414 384.812 781.077 385.463 780.912 386.167C780.748 386.87 780.76 387.603 780.949 388.3L785.156 403.473C785.506 404.711 785.5 406.023 785.14 407.259C784.779 408.495 784.078 409.604 783.117 410.46C782.155 411.32 780.973 411.895 779.702 412.12C778.432 412.345 777.124 412.212 775.925 411.735L761.339 405.844C760.685 405.581 759.977 405.481 759.275 405.552C758.573 405.623 757.899 405.863 757.311 406.252L744.203 414.948C743.09 415.656 741.8 416.036 740.48 416.044ZM753.613 344.134H753.154C752.341 344.203 751.566 344.505 750.919 345.002C750.273 345.499 749.783 346.171 749.508 346.939L744 361.678C743.615 362.732 742.976 363.674 742.14 364.422C741.304 365.169 740.296 365.698 739.205 365.962L723.905 369.787C723.114 369.983 722.394 370.397 721.827 370.982C721.259 371.567 720.867 372.299 720.694 373.096C720.522 373.892 720.576 374.721 720.85 375.489C721.125 376.256 721.609 376.931 722.248 377.437L734.564 387.229C735.434 387.926 736.121 388.824 736.565 389.846C737.009 390.868 737.198 391.983 737.114 393.094L736.044 408.802C735.977 409.612 736.143 410.424 736.522 411.142C736.902 411.861 737.479 412.456 738.186 412.857C738.874 413.286 739.669 413.514 740.48 413.514C741.292 413.514 742.087 413.286 742.775 412.857L755.908 404.161C756.838 403.544 757.904 403.161 759.014 403.046C760.124 402.93 761.246 403.086 762.283 403.498L776.895 409.389C777.638 409.677 778.446 409.756 779.231 409.618C780.017 409.479 780.749 409.128 781.348 408.602C781.948 408.076 782.391 407.396 782.631 406.635C782.871 405.875 782.898 405.063 782.709 404.289L778.501 389.116C778.2 388.039 778.166 386.905 778.401 385.812C778.637 384.72 779.135 383.7 779.853 382.843L790.053 370.782C790.568 370.154 790.899 369.396 791.01 368.592C791.12 367.788 791.005 366.968 790.677 366.225C790.349 365.483 789.822 364.845 789.153 364.385C788.485 363.924 787.701 363.658 786.89 363.616L771.183 362.953C770.063 362.902 768.973 362.581 768.005 362.017C767.037 361.453 766.22 360.663 765.623 359.715L757.285 346.378C756.925 345.713 756.396 345.156 755.751 344.762C755.106 344.367 754.369 344.151 753.613 344.134Z" fill="#E04048"/>
<path opacity="0.5" d="M740.48 416.044C739.536 416.032 738.604 415.828 737.741 415.446C736.877 415.063 736.1 414.51 735.457 413.819C734.813 413.128 734.317 412.313 733.997 411.425C733.677 410.536 733.54 409.592 733.595 408.649L734.667 392.941C734.715 392.239 734.592 391.535 734.308 390.89C734.023 390.246 733.586 389.681 733.034 389.244L720.718 379.452C719.708 378.654 718.942 377.591 718.504 376.381C718.066 375.172 717.974 373.864 718.239 372.605C718.504 371.346 719.115 370.186 720.004 369.256C720.892 368.326 722.023 367.662 723.268 367.339L738.568 363.514C739.255 363.35 739.891 363.017 740.416 362.545C740.942 362.073 741.341 361.477 741.577 360.811L747.085 346.072C747.538 344.868 748.318 343.814 749.338 343.029C750.357 342.244 751.576 341.759 752.856 341.629C754.136 341.499 755.427 341.729 756.584 342.293C757.74 342.858 758.716 343.734 759.401 344.823L767.765 358.159C768.136 358.759 768.649 359.259 769.258 359.614C769.867 359.97 770.554 360.171 771.259 360.199L786.992 360.888C788.286 360.928 789.542 361.331 790.618 362.05C791.693 362.77 792.545 363.777 793.077 364.956C793.608 366.136 793.798 367.442 793.624 368.724C793.45 370.006 792.919 371.214 792.092 372.21L781.892 384.271C781.414 384.812 781.077 385.463 780.912 386.167C780.748 386.87 780.76 387.603 780.949 388.3L785.156 403.473C785.506 404.711 785.5 406.023 785.14 407.259C784.779 408.495 784.078 409.604 783.117 410.46C782.155 411.32 780.973 411.895 779.702 412.12C778.432 412.345 777.124 412.212 775.925 411.735L761.339 405.844C760.685 405.581 759.977 405.481 759.275 405.552C758.573 405.623 757.899 405.863 757.311 406.252L744.203 414.948C743.09 415.656 741.8 416.036 740.48 416.044ZM753.613 344.134H753.154C752.341 344.203 751.566 344.505 750.919 345.002C750.273 345.499 749.783 346.171 749.508 346.939L744 361.678C743.615 362.732 742.976 363.674 742.14 364.422C741.304 365.169 740.296 365.698 739.205 365.962L723.905 369.787C723.114 369.983 722.394 370.397 721.827 370.982C721.259 371.567 720.867 372.299 720.694 373.096C720.522 373.892 720.576 374.721 720.85 375.489C721.125 376.256 721.609 376.931 722.248 377.437L734.564 387.229C735.434 387.926 736.121 388.824 736.565 389.846C737.009 390.868 737.198 391.983 737.114 393.094L736.044 408.802C735.977 409.612 736.143 410.424 736.522 411.142C736.902 411.861 737.479 412.456 738.186 412.857C738.874 413.286 739.669 413.514 740.48 413.514C741.292 413.514 742.087 413.286 742.775 412.857L755.908 404.161C756.838 403.544 757.904 403.161 759.014 403.046C760.124 402.93 761.246 403.086 762.283 403.498L776.895 409.389C777.638 409.677 778.446 409.756 779.231 409.618C780.017 409.479 780.749 409.128 781.348 408.602C781.948 408.076 782.391 407.396 782.631 406.635C782.871 405.875 782.898 405.063 782.709 404.289L778.501 389.116C778.2 388.039 778.166 386.905 778.401 385.812C778.637 384.72 779.135 383.7 779.853 382.843L790.053 370.782C790.568 370.154 790.899 369.396 791.01 368.592C791.12 367.788 791.005 366.968 790.677 366.225C790.349 365.483 789.822 364.845 789.153 364.385C788.485 363.924 787.701 363.658 786.89 363.616L771.183 362.953C770.063 362.902 768.973 362.581 768.005 362.017C767.037 361.453 766.22 360.663 765.623 359.715L757.285 346.378C756.925 345.713 756.396 345.156 755.751 344.762C755.106 344.367 754.369 344.151 753.613 344.134Z" fill="white"/>
<path d="M276.534 530.055L275.106 535.384C275.031 535.693 275.028 536.015 275.099 536.325C275.17 536.635 275.312 536.924 275.514 537.169L279.11 541.3C279.347 541.582 279.5 541.925 279.554 542.289C279.608 542.654 279.559 543.026 279.414 543.364C279.268 543.703 279.032 543.994 278.731 544.206C278.429 544.418 278.075 544.542 277.707 544.564L272.199 544.87C271.882 544.886 271.574 544.98 271.302 545.145C271.031 545.31 270.804 545.54 270.644 545.814L267.762 550.506C267.573 550.822 267.299 551.079 266.971 551.246C266.643 551.414 266.274 551.486 265.907 551.454C265.54 551.422 265.189 551.288 264.895 551.066C264.601 550.844 264.375 550.544 264.243 550.2L262.254 545.1C262.142 544.799 261.958 544.53 261.718 544.316C261.478 544.103 261.19 543.952 260.877 543.876L255.522 542.601C255.163 542.518 254.835 542.336 254.574 542.075C254.314 541.815 254.132 541.486 254.05 541.127C253.967 540.768 253.988 540.393 254.108 540.045C254.229 539.696 254.445 539.389 254.732 539.158L258.99 535.69C259.242 535.491 259.44 535.234 259.569 534.941C259.698 534.647 259.753 534.327 259.73 534.007L259.271 528.499C259.245 528.131 259.323 527.763 259.494 527.437C259.666 527.11 259.925 526.838 260.242 526.65C260.56 526.462 260.923 526.366 261.292 526.373C261.661 526.38 262.021 526.489 262.331 526.689L266.946 529.672C267.214 529.85 267.522 529.959 267.842 529.99C268.162 530.022 268.485 529.974 268.782 529.851L273.882 527.734C274.221 527.593 274.592 527.55 274.954 527.609C275.316 527.668 275.655 527.827 275.931 528.069C276.207 528.31 276.41 528.625 276.516 528.976C276.623 529.326 276.629 529.7 276.534 530.055V530.055Z" fill="#E04048"/>
</g>
<defs>
<clipPath id="clip0_2841_1261">
<rect width="1047" height="740" fill="white"/>
</clipPath>
</defs>
</svg>
