<svg width="77" height="85" viewBox="0 0 77 85" fill="none" xmlns="http://www.w3.org/2000/svg">
<g filter="url(#filter0_d_1782_742)">
<path d="M4.07753 38.5512V34.8818C7.37206 34.8818 9.67034 34.1914 10.9724 32.8104C12.2941 31.4295 12.955 29.1213 12.955 25.886V16.4167C12.955 13.6942 13.2115 11.3368 13.7244 9.34427C14.257 7.35177 15.1152 5.70451 16.2989 4.40248C17.4825 3.10045 19.0608 2.13379 21.0335 1.5025C23.0063 0.871208 25.4427 0.555563 28.3427 0.555563V6.35552C26.0542 6.35552 24.2491 6.71062 22.9274 7.42082C21.6254 8.13102 20.6982 9.23577 20.1458 10.7351C19.6131 12.2147 19.3468 14.1085 19.3468 16.4167V28.2533C19.3468 29.7921 19.1397 31.1928 18.7254 32.4553C18.3308 33.7179 17.591 34.8029 16.506 35.7104C15.421 36.6179 13.8724 37.3182 11.8601 37.8114C9.86762 38.3046 7.27342 38.5512 4.07753 38.5512ZM28.3427 76.3101C25.4427 76.3101 23.0063 75.9945 21.0335 75.3632C19.0608 74.7319 17.4825 73.7652 16.2989 72.4632C15.1152 71.1612 14.257 69.5139 13.7244 67.5214C13.2115 65.5289 12.955 63.1714 12.955 60.449V50.9797C12.955 47.7443 12.2941 45.4362 10.9724 44.0552C9.67034 42.6743 7.37206 41.9838 4.07753 41.9838V38.3145C7.27342 38.3145 9.86762 38.5611 11.8601 39.0543C13.8724 39.5475 15.421 40.2478 16.506 41.1553C17.591 42.0627 18.3308 43.1478 18.7254 44.4103C19.1397 45.6729 19.3468 47.0736 19.3468 48.6124V60.449C19.3468 62.7572 19.6131 64.651 20.1458 66.1306C20.6982 67.6102 21.6254 68.7051 22.9274 69.4153C24.2491 70.1452 26.0542 70.5102 28.3427 70.5102V76.3101ZM4.07753 41.9838V34.8818H11.0612V41.9838H4.07753Z" fill="url(#paint0_diamond_1782_742)"/>
<path d="M72.5675 38.3145V41.9838C69.2729 41.9838 66.9648 42.6743 65.643 44.0552C64.341 45.4362 63.69 47.7443 63.69 50.9797V60.449C63.69 63.1714 63.4237 65.5289 62.891 67.5214C62.3781 69.5139 61.5298 71.1612 60.3461 72.4632C59.1625 73.7652 57.5842 74.7319 55.6115 75.3632C53.6387 75.9945 51.2023 76.3101 48.3023 76.3101V70.5102C50.5908 70.5102 52.386 70.1452 53.688 69.4153C55.0098 68.7051 55.937 67.6102 56.4696 66.1306C57.022 64.651 57.2982 62.7572 57.2982 60.449V48.6124C57.2982 47.0736 57.4955 45.6729 57.89 44.4103C58.3043 43.1478 59.054 42.0627 60.139 41.1553C61.224 40.2478 62.7628 39.5475 64.7553 39.0543C66.7675 38.5611 69.3716 38.3145 72.5675 38.3145ZM48.3023 0.555563C51.2023 0.555563 53.6387 0.871208 55.6115 1.5025C57.5842 2.13379 59.1625 3.10045 60.3461 4.40248C61.5298 5.70451 62.3781 7.35177 62.891 9.34427C63.4237 11.3368 63.69 13.6942 63.69 16.4167V25.886C63.69 29.1213 64.341 31.4295 65.643 32.8104C66.9648 34.1914 69.2729 34.8818 72.5675 34.8818V38.5512C69.3716 38.5512 66.7675 38.3046 64.7553 37.8114C62.7628 37.3182 61.224 36.6179 60.139 35.7104C59.054 34.8029 58.3043 33.7179 57.89 32.4553C57.4955 31.1928 57.2982 29.7921 57.2982 28.2533V16.4167C57.2982 14.1085 57.022 12.2147 56.4696 10.7351C55.937 9.23577 55.0098 8.13102 53.688 7.42082C52.386 6.71062 50.5908 6.35552 48.3023 6.35552V0.555563ZM72.5675 34.8818V41.9838H65.5839V34.8818H72.5675Z" fill="url(#paint1_diamond_1782_742)"/>
<circle cx="38.9229" cy="22.2307" r="6.53846" fill="#E04048"/>
<circle cx="38.9229" cy="54.923" r="6.53846" fill="#006491"/>
</g>
<defs>
<filter id="filter0_d_1782_742" x="0.0775146" y="0.555542" width="76.49" height="83.7545" filterUnits="userSpaceOnUse" color-interpolation-filters="sRGB">
<feFlood flood-opacity="0" result="BackgroundImageFix"/>
<feColorMatrix in="SourceAlpha" type="matrix" values="0 0 0 0 0 0 0 0 0 0 0 0 0 0 0 0 0 0 127 0" result="hardAlpha"/>
<feOffset dy="4"/>
<feGaussianBlur stdDeviation="2"/>
<feComposite in2="hardAlpha" operator="out"/>
<feColorMatrix type="matrix" values="0 0 0 0 0 0 0 0 0 0 0 0 0 0 0 0 0 0 0.25 0"/>
<feBlend mode="normal" in2="BackgroundImageFix" result="effect1_dropShadow_1782_742"/>
<feBlend mode="normal" in="SourceGraphic" in2="effect1_dropShadow_1782_742" result="shape"/>
</filter>
<radialGradient id="paint0_diamond_1782_742" cx="0" cy="0" r="1" gradientUnits="userSpaceOnUse" gradientTransform="translate(17.12 13.0769) rotate(90.5842) scale(60.8109 27.7229)">
<stop stop-color="#2683AD"/>
<stop offset="1" stop-color="#006491"/>
</radialGradient>
<radialGradient id="paint1_diamond_1782_742" cx="0" cy="0" r="1" gradientUnits="userSpaceOnUse" gradientTransform="translate(61.5815 30.7308) rotate(90) scale(20.2692 15.5)">
<stop stop-color="#E04048"/>
<stop offset="1" stop-color="#D11C37"/>
</radialGradient>
</defs>
</svg>
