<svg width="243" height="243" viewBox="0 0 243 243" fill="none" xmlns="http://www.w3.org/2000/svg">
<circle cx="121.5" cy="121.5" r="121.5" fill="#E04048"/>
<path d="M94.7555 52.2492C93.966 52.434 94.4699 52.4004 93.8148 52.4844C91.0098 53.0891 93.0926 53.6266 94.7555 52.2492ZM144.088 53.3746C144.289 53.2402 144.995 52.5516 142.795 51.8797C142.929 52.5684 142.341 52.5012 142.341 52.8875C143.97 54.3656 144.642 56.9355 146.725 57.473C147.128 55.6254 144.877 54.7184 144.088 53.3746ZM93.2605 51.7117C93.5125 53.2066 94.6379 50.1328 94.6547 49.041C94.218 49.293 93.7813 49.5449 93.3277 49.7465C94.3859 50.284 93.4621 50.8551 92.3199 51.7117C90.002 54.6008 94.4867 49.4609 93.2605 51.7117ZM122 33C98.2492 33 79 52.2492 79 76C79 99.734 98.2492 119 122 119C145.751 119 165 99.734 165 76C165 52.2492 145.751 33 122 33ZM123.142 47.4117L123.344 47.4789C122.537 48.5203 127.543 51.5605 123.948 51.8125C120.589 52.7699 125.359 50.9391 122.756 51.2582C124.133 49.3434 121.664 49.3098 123.142 47.4117ZM102.751 50.1664C101.541 49.1586 97.7453 51.5438 99.0723 50.9727C102.364 49.6793 99.2906 51.107 100.063 52.6523C99.3578 54.1137 99.8281 51.2078 98.0812 52.9379C96.8215 53.2234 93.7309 56.0789 94.1172 55.2055C94.0164 56.566 90.4387 58.1785 89.9516 60.4461C88.7758 63.5871 89.666 60.3285 89.4477 59.1023C87.768 56.9691 84.7109 62.7137 85.618 64.9812C87.1465 62.2937 87.0289 64.6957 85.9203 65.8883C87.0457 67.9543 84.8957 70.6418 87.0289 72.1703C87.9695 72.3887 89.8508 69.0125 89.0277 72.523C89.5988 69.4828 90.6066 73.2453 92.2359 72.4055C92.3367 74.0012 93.3277 73.2621 93.5461 75.1937C96.2672 74.9922 98.7531 79.5945 95.5113 80.468C95.9984 80.3336 96.9559 81.1902 98.0645 80.5352C99.9457 82.0301 104.901 82.2148 105.035 85.9102C101.625 87.5395 104.195 92.0074 101.239 93.6031C97.8461 93.0992 100.08 97.7855 98.6523 97.248C99.2234 100.624 95.2258 96.8113 96.7711 98.6758C99.6098 100.423 95.5281 100.07 96.8047 101.346C95.377 101.044 97.6949 104 98.0812 105.092C100.13 108.418 96.3176 104.353 95.1922 103.245C94.1172 101.095 91.5809 96.9793 90.8754 93.6031C90.4723 88.6984 86.6762 85.4062 85.8027 80.6191C84.9293 77.9484 88.2047 73.6652 86.441 72.1703C84.9125 70.9777 85.534 66.8961 84.627 64.7461C86.8945 54.9199 94.1004 46.6391 102.751 41.7344C101.861 42.3895 107.84 40.0379 107.152 40.609C106.967 41.0289 110.645 39.0133 112.862 38.7109C112.627 38.7445 107.101 40.7266 108.63 40.4578C106.261 41.6168 108.395 40.9617 109.57 40.3738C107.219 42.1039 105.405 41.6168 102.734 43.1453C100.046 43.8508 100.601 46.6391 98.6859 48.0332C99.8113 48.2348 102.633 45.1273 104.279 44.0355C108.059 42.2047 102.364 47.3613 105.959 45.1441C104.75 46.2695 105.002 48.0668 104.262 48.5707C103.893 48.4699 105.724 49.4441 102.751 50.1664ZM108.63 42.4398C108.243 42.9605 107.706 44.0859 107.387 43.3973C106.95 43.6156 106.782 44.5563 105.959 43.8004C106.446 43.4477 106.95 42.6078 105.993 43.1285C106.429 42.6582 110.326 41.3313 110.108 40.8273C110.796 40.3906 110.729 40.1723 109.94 40.441C109.537 40.3066 110.897 39.1645 112.711 39.0133C112.963 39.0133 113.064 39.1813 112.611 39.1309C109.873 39.9707 111.048 39.7355 112.896 39.1309C112.191 39.534 111.704 39.6516 111.586 39.8363C113.434 39.1645 111.485 40.3234 111.905 40.2395C111.384 40.5082 111.989 40.5922 110.981 40.9785C111.166 40.8273 109.335 42.0703 110.427 41.7008C109.369 42.7086 108.898 42.7254 108.63 42.4398ZM110.242 44.8418C110.276 43.2293 112.594 42.2047 112.308 42.1207C115.164 40.777 111.317 42.1711 113.568 40.9617C114.408 40.8777 116.188 38.1902 118.657 38.0223C121.379 37.1992 120.119 38.0727 122.134 37.3L121.731 37.6359C121.379 37.6863 121.815 38.3078 120.539 39.2484C120.404 40.7098 118.103 40.0379 119.245 41.6C118.506 40.5418 117.398 41.5664 118.792 41.6672C117.297 42.8094 113.82 43.0109 112.157 44.909C111.082 46.4543 110.091 45.9672 110.242 44.8418ZM122.185 50.2168C121.043 52.9715 119.934 49.8137 121.95 49.3098C122.454 49.5785 122.655 49.6625 122.185 50.2168ZM117.885 44.7074C117.549 43.4645 117.818 44.1195 119.816 43.5316C121.194 44.5227 118.59 45.1777 117.885 44.7074ZM149.161 94.0063C147.582 91.2852 151.075 88.7656 152.251 86.4813C152.1 89.152 151.764 91.7891 149.161 94.0063ZM155.107 62.9152C153.393 63.0496 151.848 63.4527 150.303 62.4785C146.742 58.5816 150.958 66.8793 152.134 63.4863C156.366 65.0988 152.066 72.0527 149.396 71.3305C147.901 68.1055 146.053 64.5613 142.795 62.9824C145.297 65.7539 146.54 69.1637 149.228 71.6664C149.412 75.1602 152.957 70.3898 152.738 73.0941C153.074 77.7469 147.481 80.5352 148.455 85.2047C150.538 89.4543 144.441 90.227 145.129 94.0398C142.677 96.7777 140.057 100.473 135.656 99.8852C135.656 97.5672 134.48 95.602 134.211 93.2168C131.826 90.1934 136.731 86.9516 133.691 83.7938C130.18 83.0043 134.413 78.1668 130.802 78.6203C128.635 76.4535 125.46 78.5531 122.353 78.5699C118.456 78.9394 114.441 73.7828 116.171 70.1379C114.794 66.3418 120.539 65.2332 120.69 61.8906C123.445 59.5895 127.358 59.875 131.087 59.3375C130.818 62.0082 133.64 62.025 135.773 62.9152C136.966 60.0262 140.678 63.3855 143.214 61.5547C144.088 57.2883 140.745 59.8582 138.83 58.4977C136.513 55.1047 143.786 56.7508 143.03 54.9703C140.208 54.9535 141.804 51.4934 139.805 53.425C141.602 53.7441 139.486 55.1551 139.536 53.5426C136.815 52.7531 139.435 56.6332 138.058 57.0027C135.958 56.1293 136.949 57.9937 137.168 58.2793C136.261 60.2445 135.152 55.3902 132.582 55.5246C130.029 53.1898 131.574 56.5828 133.791 57.1371C133.321 57.2715 134.06 59.2031 133.472 58.3801C131.641 55.8605 128.164 54.1809 126.098 57.2715C125.88 60.1605 120.001 60.9836 120.942 57.6074C119.564 54.1137 125.208 57.5066 124.688 54.7184C121.059 52.3164 125.679 53.0891 126.905 50.8383C129.693 50.9223 127.022 48.5539 128.332 47.8652C128.198 50.4352 130.466 49.948 132.263 49.4609C131.826 47.9828 133.338 48.0332 132.414 46.807C136.58 45.1441 129.239 47.5797 130.718 43.9348C128.92 42.6918 129.962 46.6727 130.718 47.0926C130.768 48.3188 129.727 49.8305 128.299 47.2605C126.216 48.6211 126.434 45.8832 126.3 46.1687C126.065 45.1105 127.879 45.0602 127.896 43.2125C127.745 42.0367 127.778 41.4152 128.618 41.348C128.685 41.516 132.061 41.5664 133.254 42.9605C129.995 42.3055 132.767 43.498 134.228 44.1699C132.666 42.9438 134.85 44.1699 133.573 42.7758C134.077 42.8766 132.179 40.8609 134.127 42.6246C133.069 41.3648 136.193 41.7344 134.346 40.7938C137.05 41.5496 135.454 40.8609 133.859 40.1723C129.458 37.552 141.636 43.7164 136.664 40.9785C139.838 41.6672 129.878 38.5262 134.413 39.9035C132.683 39.1477 134.362 39.5676 135.925 40.0547C133.12 39.1813 128.92 37.552 129.088 37.4848C130.063 37.552 131.02 37.7703 131.944 38.0391C134.816 38.8957 131.121 37.8375 131.91 37.8543C141.787 40.3906 150.437 47.0086 155.695 55.659C156.921 56.9523 160.263 65.502 158.516 61.7059C159.306 64.7293 159.423 67.9879 159.843 71.0785C158.97 70.1043 157.996 66.5098 157.156 64.5109C156.803 65.2836 156.4 63.4191 155.107 62.9152Z" fill="white"/>
<path d="M113.996 138.543V167H107.883V145.496L101.281 147.508V142.781L113.391 138.543H113.996ZM128.391 154.188L123.547 153.035L125.207 138.562H141.496V143.387H130.207L129.523 149.383C129.875 149.174 130.428 148.947 131.184 148.699C131.939 148.439 132.785 148.309 133.723 148.309C135.116 148.309 136.353 148.523 137.434 148.953C138.514 149.383 139.426 150.008 140.168 150.828C140.923 151.635 141.49 152.632 141.867 153.816C142.258 155.001 142.453 156.349 142.453 157.859C142.453 159.109 142.258 160.307 141.867 161.453C141.477 162.586 140.878 163.602 140.07 164.5C139.276 165.385 138.267 166.089 137.043 166.609C135.819 167.13 134.38 167.391 132.727 167.391C131.477 167.391 130.266 167.202 129.094 166.824C127.922 166.447 126.867 165.9 125.93 165.184C125.005 164.454 124.27 163.569 123.723 162.527C123.189 161.486 122.915 160.314 122.902 159.012H128.996C129.061 159.767 129.25 160.418 129.562 160.965C129.875 161.499 130.298 161.915 130.832 162.215C131.366 162.501 131.984 162.645 132.688 162.645C133.365 162.645 133.938 162.514 134.406 162.254C134.875 161.98 135.246 161.609 135.52 161.141C135.806 160.672 136.014 160.125 136.145 159.5C136.275 158.875 136.34 158.204 136.34 157.488C136.34 156.746 136.255 156.082 136.086 155.496C135.917 154.897 135.656 154.389 135.305 153.973C134.953 153.543 134.504 153.217 133.957 152.996C133.423 152.762 132.779 152.645 132.023 152.645C131.034 152.645 130.259 152.807 129.699 153.133C129.139 153.458 128.703 153.81 128.391 154.188Z" fill="white"/>
<path d="M87.6777 190.322H90.3633C90.2917 191.273 90.028 192.116 89.5723 192.852C89.1165 193.581 88.4818 194.154 87.668 194.57C86.8542 194.987 85.8678 195.195 84.709 195.195C83.8171 195.195 83.013 195.039 82.2969 194.727C81.5872 194.408 80.9785 193.955 80.4707 193.369C79.9694 192.777 79.5853 192.067 79.3184 191.24C79.0514 190.407 78.918 189.473 78.918 188.438V187.354C78.918 186.318 79.0547 185.384 79.3281 184.551C79.6016 183.717 79.9922 183.008 80.5 182.422C81.0143 181.829 81.6296 181.374 82.3457 181.055C83.0684 180.736 83.8757 180.576 84.7676 180.576C85.9264 180.576 86.9062 180.791 87.707 181.221C88.5078 181.644 89.1296 182.227 89.5723 182.969C90.015 183.711 90.2819 184.564 90.373 185.527H87.6875C87.6354 184.928 87.5052 184.421 87.2969 184.004C87.0951 183.587 86.7891 183.271 86.3789 183.057C85.9753 182.835 85.4382 182.725 84.7676 182.725C84.2467 182.725 83.7878 182.822 83.3906 183.018C83 183.213 82.6745 183.506 82.4141 183.896C82.1536 184.281 81.9583 184.762 81.8281 185.342C81.6979 185.915 81.6328 186.579 81.6328 187.334V188.438C81.6328 189.16 81.6914 189.808 81.8086 190.381C81.9258 190.954 82.1081 191.439 82.3555 191.836C82.6029 192.233 82.9219 192.536 83.3125 192.744C83.7031 192.952 84.1686 193.057 84.709 193.057C85.3665 193.057 85.9004 192.952 86.3105 192.744C86.7272 192.536 87.043 192.23 87.2578 191.826C87.4792 191.423 87.6191 190.921 87.6777 190.322ZM91.7891 189.824V189.619C91.7891 188.844 91.8997 188.132 92.1211 187.48C92.3424 186.823 92.6647 186.253 93.0879 185.771C93.5111 185.29 94.0286 184.915 94.6406 184.648C95.2526 184.375 95.9492 184.238 96.7305 184.238C97.5247 184.238 98.2279 184.375 98.8398 184.648C99.4583 184.915 99.9792 185.29 100.402 185.771C100.826 186.253 101.148 186.823 101.369 187.48C101.59 188.132 101.701 188.844 101.701 189.619V189.824C101.701 190.592 101.59 191.305 101.369 191.963C101.148 192.614 100.826 193.184 100.402 193.672C99.9792 194.154 99.4616 194.528 98.8496 194.795C98.2376 195.062 97.5378 195.195 96.75 195.195C95.9688 195.195 95.2689 195.062 94.6504 194.795C94.0319 194.528 93.5111 194.154 93.0879 193.672C92.6647 193.184 92.3424 192.614 92.1211 191.963C91.8997 191.305 91.7891 190.592 91.7891 189.824ZM94.3672 189.619V189.824C94.3672 190.286 94.4128 190.719 94.5039 191.123C94.5951 191.527 94.735 191.882 94.9238 192.188C95.1126 192.493 95.3568 192.734 95.6562 192.91C95.9622 193.079 96.3268 193.164 96.75 193.164C97.1667 193.164 97.5247 193.079 97.8242 192.91C98.1237 192.734 98.3678 192.493 98.5566 192.188C98.752 191.882 98.8952 191.527 98.9863 191.123C99.0775 190.719 99.123 190.286 99.123 189.824V189.619C99.123 189.163 99.0775 188.737 98.9863 188.34C98.8952 187.936 98.752 187.581 98.5566 187.275C98.3678 186.963 98.1204 186.719 97.8145 186.543C97.515 186.361 97.1536 186.27 96.7305 186.27C96.3138 186.27 95.9557 186.361 95.6562 186.543C95.3568 186.719 95.1126 186.963 94.9238 187.275C94.735 187.581 94.5951 187.936 94.5039 188.34C94.4128 188.737 94.3672 189.163 94.3672 189.619ZM109.865 192.49V184.434H112.463V195H110.021L109.865 192.49ZM110.197 190.303L110.998 190.283C110.998 190.993 110.92 191.647 110.764 192.246C110.607 192.845 110.363 193.366 110.031 193.809C109.706 194.245 109.292 194.587 108.791 194.834C108.29 195.075 107.697 195.195 107.014 195.195C106.493 195.195 106.018 195.124 105.588 194.98C105.158 194.831 104.787 194.6 104.475 194.287C104.169 193.968 103.931 193.561 103.762 193.066C103.592 192.565 103.508 191.963 103.508 191.26V184.434H106.086V191.279C106.086 191.631 106.125 191.924 106.203 192.158C106.288 192.393 106.402 192.585 106.545 192.734C106.695 192.878 106.867 192.982 107.062 193.047C107.264 193.105 107.479 193.135 107.707 193.135C108.332 193.135 108.824 193.011 109.182 192.764C109.546 192.51 109.807 192.171 109.963 191.748C110.119 191.318 110.197 190.837 110.197 190.303ZM117.277 186.689V195H114.699V184.434H117.121L117.277 186.689ZM116.867 189.336H116.105C116.112 188.568 116.216 187.871 116.418 187.246C116.62 186.621 116.903 186.084 117.268 185.635C117.639 185.186 118.078 184.84 118.586 184.6C119.094 184.359 119.66 184.238 120.285 184.238C120.793 184.238 121.252 184.31 121.662 184.453C122.072 184.596 122.424 184.824 122.717 185.137C123.016 185.449 123.244 185.859 123.4 186.367C123.563 186.868 123.645 187.487 123.645 188.223V195H121.047V188.203C121.047 187.721 120.975 187.34 120.832 187.061C120.695 186.781 120.493 186.582 120.227 186.465C119.966 186.348 119.644 186.289 119.26 186.289C118.863 186.289 118.514 186.37 118.215 186.533C117.922 186.689 117.674 186.908 117.473 187.188C117.277 187.467 117.128 187.79 117.023 188.154C116.919 188.519 116.867 188.913 116.867 189.336ZM130.92 184.434V186.289H124.865V184.434H130.92ZM126.486 181.836H129.074V191.953C129.074 192.266 129.117 192.507 129.201 192.676C129.286 192.845 129.413 192.959 129.582 193.018C129.751 193.076 129.953 193.105 130.188 193.105C130.357 193.105 130.513 193.096 130.656 193.076C130.799 193.057 130.92 193.037 131.018 193.018L131.027 194.951C130.812 195.023 130.568 195.081 130.295 195.127C130.028 195.173 129.725 195.195 129.387 195.195C128.807 195.195 128.299 195.098 127.863 194.902C127.427 194.701 127.089 194.378 126.848 193.936C126.607 193.486 126.486 192.894 126.486 192.158V181.836ZM135.217 186.592V195H132.639V184.434H135.08L135.217 186.592ZM138.43 184.365L138.391 186.768C138.247 186.742 138.085 186.722 137.902 186.709C137.727 186.696 137.561 186.689 137.404 186.689C137.007 186.689 136.659 186.745 136.359 186.855C136.06 186.96 135.809 187.113 135.607 187.314C135.412 187.516 135.262 187.764 135.158 188.057C135.054 188.343 134.995 188.669 134.982 189.033L134.426 188.965C134.426 188.294 134.494 187.673 134.631 187.1C134.768 186.527 134.966 186.025 135.227 185.596C135.487 185.166 135.812 184.834 136.203 184.6C136.6 184.359 137.056 184.238 137.57 184.238C137.714 184.238 137.867 184.251 138.029 184.277C138.199 184.297 138.332 184.326 138.43 184.365ZM142.58 184.434V195H139.992V184.434H142.58ZM139.816 181.67C139.816 181.286 139.947 180.967 140.207 180.713C140.474 180.459 140.832 180.332 141.281 180.332C141.73 180.332 142.085 180.459 142.346 180.713C142.613 180.967 142.746 181.286 142.746 181.67C142.746 182.048 142.613 182.363 142.346 182.617C142.085 182.871 141.73 182.998 141.281 182.998C140.832 182.998 140.474 182.871 140.207 182.617C139.947 182.363 139.816 182.048 139.816 181.67ZM149.787 195.195C148.986 195.195 148.267 195.065 147.629 194.805C146.991 194.544 146.447 194.183 145.998 193.721C145.555 193.252 145.214 192.708 144.973 192.09C144.738 191.465 144.621 190.794 144.621 190.078V189.688C144.621 188.874 144.738 188.135 144.973 187.471C145.207 186.8 145.539 186.224 145.969 185.742C146.398 185.26 146.913 184.889 147.512 184.629C148.111 184.368 148.771 184.238 149.494 184.238C150.243 184.238 150.904 184.365 151.477 184.619C152.049 184.867 152.528 185.218 152.912 185.674C153.296 186.13 153.586 186.676 153.781 187.314C153.977 187.946 154.074 188.646 154.074 189.414V190.498H145.793V188.721H151.535V188.525C151.522 188.115 151.444 187.741 151.301 187.402C151.158 187.057 150.936 186.784 150.637 186.582C150.337 186.374 149.95 186.27 149.475 186.27C149.09 186.27 148.755 186.354 148.469 186.523C148.189 186.686 147.954 186.921 147.766 187.227C147.583 187.526 147.447 187.884 147.355 188.301C147.264 188.717 147.219 189.18 147.219 189.688V190.078C147.219 190.521 147.277 190.931 147.395 191.309C147.518 191.686 147.697 192.015 147.932 192.295C148.173 192.568 148.459 192.783 148.791 192.939C149.13 193.089 149.514 193.164 149.943 193.164C150.484 193.164 150.972 193.06 151.408 192.852C151.851 192.637 152.235 192.321 152.561 191.904L153.859 193.252C153.638 193.577 153.339 193.89 152.961 194.189C152.59 194.489 152.141 194.733 151.613 194.922C151.086 195.104 150.477 195.195 149.787 195.195ZM161.613 192.109C161.613 191.888 161.555 191.689 161.438 191.514C161.32 191.338 161.099 191.178 160.773 191.035C160.454 190.885 159.986 190.745 159.367 190.615C158.82 190.498 158.316 190.352 157.854 190.176C157.391 190 156.994 189.788 156.662 189.541C156.33 189.287 156.07 188.991 155.881 188.652C155.699 188.307 155.607 187.91 155.607 187.461C155.607 187.025 155.702 186.615 155.891 186.23C156.079 185.84 156.353 185.498 156.711 185.205C157.069 184.906 157.505 184.671 158.02 184.502C158.534 184.326 159.113 184.238 159.758 184.238C160.656 184.238 161.428 184.385 162.072 184.678C162.723 184.971 163.221 185.374 163.566 185.889C163.911 186.396 164.084 186.969 164.084 187.607H161.506C161.506 187.327 161.441 187.074 161.311 186.846C161.187 186.618 160.995 186.436 160.734 186.299C160.474 186.156 160.145 186.084 159.748 186.084C159.39 186.084 159.087 186.143 158.84 186.26C158.599 186.377 158.417 186.53 158.293 186.719C158.169 186.908 158.107 187.116 158.107 187.344C158.107 187.513 158.14 187.666 158.205 187.803C158.277 187.933 158.391 188.053 158.547 188.164C158.703 188.275 158.915 188.376 159.182 188.467C159.455 188.558 159.79 188.646 160.188 188.73C160.975 188.887 161.662 189.095 162.248 189.355C162.84 189.609 163.303 189.948 163.635 190.371C163.967 190.794 164.133 191.335 164.133 191.992C164.133 192.461 164.032 192.891 163.83 193.281C163.628 193.665 163.335 194.001 162.951 194.287C162.567 194.574 162.108 194.798 161.574 194.961C161.04 195.117 160.438 195.195 159.768 195.195C158.798 195.195 157.977 195.023 157.307 194.678C156.636 194.326 156.128 193.883 155.783 193.35C155.438 192.809 155.266 192.249 155.266 191.67H157.736C157.756 192.08 157.867 192.409 158.068 192.656C158.27 192.904 158.524 193.083 158.83 193.193C159.143 193.298 159.471 193.35 159.816 193.35C160.207 193.35 160.536 193.298 160.803 193.193C161.07 193.083 161.271 192.936 161.408 192.754C161.545 192.565 161.613 192.35 161.613 192.109Z" fill="white"/>
</svg>
