<svg width="431" height="420" viewBox="0 0 431 420" fill="none" xmlns="http://www.w3.org/2000/svg">
<path d="M63.0725 386.94C147.153 430.87 283.472 430.87 367.552 386.94C451.632 343.01 451.642 271.8 367.552 227.87C283.462 183.94 147.152 183.95 63.0625 227.87C-21.0275 271.79 -21.0175 343 63.0725 386.94Z" fill="#F5F5F5"/>
<path d="M169.312 348.79C191.972 359.59 228.702 359.59 251.312 348.79C273.922 337.99 273.972 320.49 251.312 309.69C228.652 298.89 191.932 298.89 169.312 309.69C146.692 320.49 146.612 338 169.312 348.79Z" fill="#EBEBEB"/>
<path d="M365.472 322.06L284.472 368.81C283.801 369.15 283.06 369.327 282.307 369.327C281.555 369.327 280.813 369.15 280.142 368.81L178.892 310.33C178.631 310.242 178.404 310.073 178.244 309.849C178.083 309.625 177.997 309.356 177.997 309.08C177.997 308.804 178.083 308.535 178.244 308.311C178.404 308.087 178.631 307.919 178.892 307.83L259.892 261.08C260.563 260.74 261.305 260.563 262.057 260.563C262.81 260.563 263.551 260.74 264.222 261.08L365.502 319.56C365.763 319.652 365.988 319.823 366.146 320.049C366.304 320.275 366.387 320.545 366.383 320.821C366.38 321.097 366.291 321.365 366.127 321.587C365.964 321.809 365.735 321.975 365.472 322.06Z" fill="#EBEBEB"/>
<path d="M388.012 65.0702V86.5402C388.012 86.5402 379.192 90.6702 363.012 90.6702C346.832 90.6702 338.012 86.5302 338.012 86.5302V65.5302L354.892 17.7602C354.662 19.2602 355.542 20.7602 357.522 21.9402C358.971 22.8342 360.617 23.3575 362.316 23.4639C364.015 23.5703 365.714 23.2565 367.262 22.5502C367.697 22.3792 368.119 22.1753 368.522 21.9402C370.622 20.7302 371.522 19.0702 371.112 17.4902L388.012 65.0702Z" fill="#F5F5F5"/>
<path opacity="0.5" d="M388.012 65.0702V86.5402C388.012 86.5402 379.192 90.6702 363.012 90.6702C346.832 90.6702 338.012 86.5302 338.012 86.5302V65.5302L354.892 17.7602C354.662 19.2602 355.542 20.7602 357.522 21.9402C358.971 22.8342 360.617 23.3575 362.316 23.4639C364.015 23.5703 365.714 23.2565 367.262 22.5502C367.697 22.3792 368.119 22.1753 368.522 21.9402C370.622 20.7302 371.522 19.0702 371.112 17.4902L388.012 65.0702Z" fill="white"/>
<path d="M386.072 215.57C384.623 217.48 382.786 219.061 380.682 220.21C370.902 225.86 355.052 225.86 345.282 220.21C343.175 219.062 341.335 217.481 339.882 215.57C338.754 214.07 338.087 212.273 337.962 210.4V221.55C338.142 225.11 340.572 228.64 345.282 231.36C355.052 237 370.902 237 380.682 231.36C385.562 228.54 388.012 224.84 388.012 221.14V210C387.975 212.016 387.296 213.967 386.072 215.57V215.57Z" fill="#F5F5F5"/>
<path d="M386.072 204.42C384.623 206.33 382.786 207.911 380.682 209.06C380.102 209.39 379.512 209.7 378.902 209.99C369.672 214.39 356.282 214.39 347.062 209.99C346.452 209.7 345.852 209.39 345.282 209.06C343.175 207.912 341.335 206.331 339.882 204.42C338.754 202.923 338.087 201.13 337.962 199.26V210.4C338.087 212.273 338.754 214.07 339.882 215.57C341.335 217.481 343.175 219.062 345.282 220.21C355.052 225.86 370.902 225.86 380.682 220.21C382.786 219.061 384.623 217.48 386.072 215.57C387.296 213.967 387.975 212.016 388.012 210V198.85C387.976 200.866 387.296 202.818 386.072 204.42Z" fill="#EBEBEB"/>
<path d="M386.072 193.27C384.621 195.181 382.785 196.765 380.682 197.92C380.102 198.25 379.512 198.55 378.902 198.85C369.672 203.25 356.282 203.25 347.062 198.85C346.452 198.55 345.852 198.25 345.282 197.92C343.177 196.765 341.337 195.181 339.882 193.27C338.754 191.773 338.087 189.98 337.962 188.11V199.26C338.087 201.13 338.754 202.923 339.882 204.42C341.335 206.331 343.175 207.912 345.282 209.06C345.852 209.39 346.452 209.7 347.062 209.99C356.282 214.39 369.672 214.39 378.902 209.99C379.512 209.7 380.102 209.39 380.682 209.06C382.786 207.911 384.623 206.33 386.072 204.42C387.296 202.818 387.976 200.866 388.012 198.85V187.7C387.977 189.716 387.297 191.668 386.072 193.27V193.27Z" fill="#F5F5F5"/>
<path d="M337.962 65.4902V188.11C338.087 189.98 338.754 191.773 339.882 193.27C341.337 195.181 343.177 196.765 345.282 197.92C345.852 198.25 346.452 198.55 347.062 198.85C349.48 199.977 352.025 200.806 354.642 201.32L350.112 72.0902L337.962 65.4902Z" fill="#F5F5F5"/>
<path d="M375.853 72.0902L371.312 201.32C373.93 200.806 376.475 199.977 378.892 198.85C379.502 198.55 380.092 198.25 380.672 197.92C382.775 196.765 384.611 195.181 386.062 193.27C387.287 191.668 387.967 189.716 388.003 187.7V65.0702L375.853 72.0902Z" fill="#F5F5F5"/>
<path d="M337.962 65.4902V188.11C338.087 189.98 338.754 191.773 339.882 193.27C341.337 195.181 343.177 196.765 345.282 197.92C345.852 198.25 346.452 198.55 347.062 198.85C349.48 199.977 352.025 200.806 354.642 201.32L350.112 72.0902L337.962 65.4902Z" fill="#E0E0E0"/>
<path d="M375.853 72.0902L371.312 201.32C373.93 200.806 376.475 199.977 378.892 198.85C379.502 198.55 380.092 198.25 380.672 197.92C382.775 196.765 384.611 195.181 386.062 193.27C387.287 191.668 387.967 189.716 388.003 187.7V65.0702L375.853 72.0902Z" fill="#E0E0E0"/>
<path d="M350.112 72.0902V200.09C351.594 200.602 353.107 201.016 354.642 201.33C357.388 201.885 360.182 202.163 362.982 202.16C365.783 202.158 368.576 201.88 371.322 201.33C372.858 201.016 374.371 200.602 375.852 200.09V72.0902H350.112Z" fill="#EBEBEB"/>
<path d="M368.483 21.8902C368.079 22.1253 367.657 22.3292 367.222 22.5002C365.674 23.2065 363.975 23.5203 362.276 23.4139C360.577 23.3076 358.931 22.7842 357.483 21.8902C355.483 20.7502 354.623 19.2102 354.853 17.7102L360.612 1.58024C360.802 1.10857 361.13 0.705255 361.553 0.423274C361.976 0.141292 362.474 -0.00617227 362.983 0.000242699V0.000242699C363.492 -0.00681624 363.992 0.140255 364.417 0.42219C364.842 0.704125 365.171 1.10777 365.362 1.58024L371.062 17.4202C371.452 19.0002 370.583 20.6802 368.483 21.8902Z" fill="#E0E0E0"/>
<path d="M380.682 231.36C372.282 236.21 359.402 236.88 349.742 233.36C349.202 233.174 348.672 232.964 348.152 232.73L347.432 232.43C346.682 232.09 345.962 231.72 345.282 231.33C340.572 228.61 338.142 225.08 337.962 221.52V251.9C337.782 255.74 340.212 259.61 345.282 262.53C345.882 262.88 346.512 263.21 347.162 263.53C347.402 263.65 347.662 263.74 347.902 263.85C348.322 264.03 348.732 264.22 349.162 264.38C349.592 264.54 349.832 264.62 350.162 264.73C350.492 264.84 350.872 264.99 351.242 265.1C351.612 265.21 352.062 265.33 352.472 265.44C352.882 265.55 353.102 265.62 353.422 265.69C353.742 265.76 354.372 265.9 354.852 265.99C355.122 265.99 355.392 266.11 355.662 266.15C356.202 266.25 356.752 266.32 357.302 266.4L357.952 266.49C358.562 266.56 359.172 266.61 359.782 266.65H360.262C360.932 266.7 361.602 266.72 362.262 266.73H362.582C363.302 266.73 364.022 266.73 364.742 266.73H364.902C365.662 266.73 366.422 266.64 367.182 266.57C371.637 266.192 375.974 264.949 379.952 262.91V262.91C380.172 262.79 380.402 262.69 380.622 262.56C385.502 259.74 387.952 256.04 387.952 252.34V221.14C388.012 224.84 385.562 228.54 380.682 231.36Z" fill="#E0E0E0"/>
<path d="M127.06 91.8382L116.31 98.0382C116.37 97.5672 116.4 97.0929 116.4 96.6182V93.5082C116.4 87.9682 112.51 85.7182 107.72 88.5082C105.649 89.7768 103.881 91.4835 102.54 93.5082C101.75 86.5082 96.29 83.9482 89.65 87.7782C82.47 91.9282 76.65 102.008 76.65 110.288V114.948C76.6042 116.808 76.9803 118.654 77.75 120.348L68.82 125.498C67.4176 126.414 66.2505 127.647 65.4131 129.098C64.5757 130.548 64.0916 132.176 64 133.848C64 136.918 66.16 138.168 68.82 136.628L127.06 103.008C128.462 102.092 129.63 100.859 130.467 99.4086C131.304 97.958 131.788 96.3306 131.88 94.6582C131.88 91.5482 129.74 90.2982 127.06 91.8382Z" fill="#F0F0F0"/>
</svg>
