<svg width="173" height="173" viewBox="0 0 173 173" fill="none" xmlns="http://www.w3.org/2000/svg">
<path d="M81.4046 167.248C81.4331 167.682 81.6226 168.027 81.9732 168.285C82.3239 168.542 82.763 168.684 83.2907 168.712C83.6766 168.732 84.0174 168.688 84.3134 168.578C84.6064 168.468 84.8396 168.308 85.0127 168.098C85.1831 167.888 85.2755 167.644 85.2901 167.366C85.3023 167.133 85.2575 166.931 85.1556 166.757C85.0508 166.587 84.9133 166.442 84.7432 166.322C84.573 166.205 84.3933 166.106 84.2041 166.025C84.0147 165.946 83.8403 165.882 83.6808 165.831L82.8082 165.546C82.5843 165.475 82.3362 165.379 82.0636 165.26C81.7883 165.14 81.5277 164.983 81.2819 164.788C81.0331 164.595 80.8324 164.354 80.6797 164.065C80.5271 163.775 80.4615 163.426 80.4829 163.017C80.5076 162.547 80.6533 162.127 80.9201 161.76C81.184 161.393 81.5573 161.109 82.04 160.91C82.5199 160.71 83.0946 160.628 83.7641 160.663C84.3883 160.696 84.9235 160.825 85.3696 161.05C85.813 161.276 86.1557 161.575 86.3978 161.949C86.6371 162.323 86.7613 162.749 86.7703 163.228L85.6809 163.171C85.6698 162.84 85.5734 162.562 85.3918 162.336C85.2072 162.113 84.9687 161.941 84.6764 161.821C84.381 161.703 84.0603 161.635 83.7141 161.617C83.3113 161.595 82.9461 161.642 82.6187 161.755C82.2911 161.872 82.0276 162.043 81.828 162.269C81.6282 162.497 81.52 162.77 81.5033 163.088C81.4882 163.377 81.5567 163.617 81.7088 163.807C81.861 163.997 82.0661 164.156 82.324 164.283C82.5818 164.411 82.8618 164.525 83.1637 164.626L84.22 164.989C84.8906 165.22 85.415 165.528 85.7931 165.912C86.1713 166.296 86.3449 166.781 86.3141 167.369C86.2885 167.857 86.1343 168.275 85.8514 168.624C85.5655 168.976 85.1932 169.241 84.7343 169.419C84.2725 169.6 83.7636 169.676 83.2076 169.647C82.6458 169.617 82.1518 169.49 81.7255 169.266C81.299 169.044 80.9672 168.754 80.73 168.394C80.49 168.035 80.3744 167.635 80.3833 167.194L81.4046 167.248Z" fill="white"/>
<path d="M71.0494 156.84L68.6272 165.508L67.6914 165.247L67.9712 164.246L67.8563 164.213C67.7546 164.303 67.6171 164.415 67.4438 164.55C67.2671 164.686 67.0409 164.788 66.7654 164.856C66.4864 164.925 66.1417 164.903 65.7313 164.788C65.2004 164.64 64.7696 164.376 64.4389 163.998C64.1081 163.619 63.8972 163.155 63.8062 162.604C63.7152 162.054 63.7622 161.447 63.9472 160.785C64.1338 160.118 64.409 159.571 64.773 159.144C65.1362 158.721 65.5564 158.431 66.0335 158.275C66.5099 158.122 67.0108 158.119 67.5361 158.266C67.9411 158.379 68.2466 158.537 68.4526 158.739C68.6579 158.944 68.8021 159.151 68.8853 159.36C68.9677 159.571 69.0284 159.745 69.0674 159.879L69.1495 159.902L70.0808 156.57L71.0494 156.84ZM68.5558 162.09C68.6888 161.614 68.7364 161.175 68.6986 160.772C68.66 160.372 68.5352 160.032 68.3244 159.752C68.1129 159.474 67.8128 159.281 67.4243 159.173C67.0194 159.06 66.6516 159.072 66.3211 159.21C65.9871 159.349 65.7008 159.582 65.4623 159.908C65.2203 160.235 65.0366 160.624 64.9112 161.072C64.7874 161.516 64.7441 161.934 64.7816 162.328C64.8155 162.724 64.9402 163.064 65.1557 163.348C65.3677 163.635 65.6789 163.835 66.0893 163.95C66.4833 164.06 66.8423 164.053 67.1663 163.928C67.4895 163.806 67.7692 163.586 68.0054 163.268C68.2408 162.954 68.4243 162.561 68.5558 162.09Z" fill="white"/>
<path d="M54.9643 153.876L52.0164 159.72L51.1489 159.282L51.5941 158.4L51.5333 158.369C51.2809 158.605 50.9697 158.742 50.5998 158.781C50.23 158.821 49.87 158.752 49.5199 158.576C49.454 158.542 49.3722 158.5 49.2745 158.447C49.1769 158.395 49.104 158.353 49.0558 158.322L49.5164 157.409C49.543 157.432 49.607 157.479 49.7084 157.549C49.806 157.621 49.9144 157.686 50.0336 157.747C50.3177 157.89 50.6015 157.958 50.8848 157.951C51.1644 157.946 51.4213 157.872 51.6556 157.729C51.886 157.588 52.0678 157.385 52.2009 157.121L54.0663 153.423L54.9643 153.876Z" fill="white"/>
<path d="M41.9237 145.852C42.4245 146.235 42.7719 146.676 42.9659 147.175C43.1559 147.675 43.1962 148.2 43.0868 148.749C42.9734 149.299 42.7129 149.84 42.3054 150.373C41.8978 150.905 41.4416 151.3 40.9367 151.557C40.4279 151.816 39.9114 151.925 39.3873 151.885C38.8592 151.846 38.3605 151.646 37.8913 151.287C37.6206 151.08 37.3878 150.83 37.1929 150.538C36.998 150.246 36.87 149.915 36.8088 149.547C36.7459 149.18 36.7771 148.782 36.9024 148.352C37.0277 147.922 37.2759 147.464 37.6472 146.979L37.9063 146.641L41.913 149.707L41.3846 150.398L38.19 147.953C37.9655 148.246 37.8238 148.553 37.765 148.873C37.7039 149.191 37.7296 149.498 37.842 149.795C37.9522 150.091 38.1517 150.349 38.4404 150.57C38.7585 150.813 39.0942 150.945 39.4475 150.965C39.7968 150.986 40.1293 150.918 40.4451 150.763C40.7608 150.607 41.0284 150.386 41.2477 150.1L41.6 149.64C41.9005 149.247 42.0875 148.863 42.1611 148.486C42.2307 148.11 42.1981 147.758 42.0633 147.429C41.9267 147.103 41.6971 146.816 41.3745 146.569C41.1647 146.409 40.9527 146.293 40.7386 146.222C40.5205 146.152 40.3037 146.129 40.0881 146.154C39.8707 146.18 39.6591 146.258 39.4533 146.387L38.8475 145.58C39.1291 145.38 39.4417 145.255 39.7854 145.203C40.1274 145.153 40.4818 145.181 40.8484 145.287C41.2133 145.394 41.5717 145.583 41.9237 145.852Z" fill="white"/>
<path d="M31.4138 136.247C31.6856 136.56 31.8732 136.895 31.9767 137.253C32.0779 137.613 32.0811 137.965 31.986 138.311C31.8887 138.659 31.6791 138.972 31.3572 139.251C31.0738 139.497 30.7957 139.64 30.5229 139.681C30.248 139.724 29.9791 139.696 29.7163 139.596C29.4535 139.497 29.1996 139.356 28.9548 139.174C28.706 138.991 28.467 138.798 28.2378 138.594C27.9385 138.327 27.6983 138.109 27.517 137.939C27.3318 137.768 27.1772 137.662 27.0534 137.619C26.9277 137.574 26.8037 137.604 26.6814 137.71L26.6556 137.732C26.3379 138.008 26.1665 138.309 26.1412 138.635C26.1141 138.96 26.2523 139.297 26.5557 139.646C26.8702 140.009 27.1963 140.225 27.5338 140.293C27.8713 140.361 28.1666 140.359 28.4195 140.287L28.7873 141.231C28.3751 141.363 27.9922 141.394 27.6387 141.324C27.2811 141.255 26.9583 141.121 26.6702 140.923C26.3782 140.725 26.1242 140.502 25.9083 140.253C25.7705 140.094 25.6316 139.895 25.4916 139.655C25.3475 139.415 25.2497 139.149 25.1981 138.855C25.1446 138.559 25.179 138.246 25.3013 137.914C25.4236 137.582 25.6811 137.246 26.0739 136.906L29.3323 134.081L29.9913 134.84L29.3216 135.421L29.3551 135.46C29.5071 135.418 29.6963 135.404 29.9229 135.419C30.1495 135.433 30.3923 135.502 30.6513 135.627C30.9102 135.753 31.1644 135.959 31.4138 136.247ZM30.6307 136.723C30.3702 136.422 30.0915 136.22 29.7947 136.116C29.4961 136.01 29.2078 135.986 28.9299 136.043C28.6501 136.097 28.4071 136.214 28.2011 136.393L27.5056 136.996C27.5722 136.994 27.669 137.034 27.7961 137.116C27.9193 137.197 28.054 137.298 28.2005 137.42C28.343 137.54 28.4805 137.66 28.6131 137.778C28.7416 137.896 28.8466 137.991 28.9281 138.063C29.1251 138.238 29.327 138.387 29.5339 138.508C29.7368 138.629 29.9407 138.693 30.1456 138.7C30.3466 138.706 30.5437 138.625 30.7369 138.458C31.0009 138.229 31.1158 137.958 31.0817 137.646C31.0435 137.333 30.8932 137.025 30.6307 136.723Z" fill="white"/>
<path d="M22.2141 123.644C22.477 124.121 22.5883 124.61 22.5481 125.108C22.5054 125.609 22.3193 126.084 21.9898 126.534C21.6578 126.986 21.1881 127.378 20.5807 127.712C19.9782 128.044 19.3986 128.228 18.8419 128.265C18.2851 128.302 17.7847 128.202 17.3406 127.967C16.8965 127.731 16.5416 127.372 16.276 126.889C16.0707 126.516 15.9707 126.186 15.976 125.901C15.9775 125.615 16.0252 125.372 16.1191 125.171C16.2091 124.969 16.286 124.809 16.35 124.689L16.3089 124.614L13.4859 126.167L13.0013 125.285L20.6488 121.081L21.1171 121.932L20.2358 122.416L20.2933 122.521C20.4335 122.528 20.6161 122.548 20.8411 122.58C21.0637 122.613 21.2981 122.706 21.5444 122.859C21.7882 123.014 22.0115 123.275 22.2141 123.644ZM21.3567 123.959C21.1623 123.606 20.9059 123.358 20.5875 123.215C20.2667 123.074 19.907 123.03 19.5086 123.084C19.1076 123.139 18.6906 123.285 18.2574 123.524C17.8293 123.759 17.4888 124.027 17.2361 124.328C16.981 124.631 16.8308 124.953 16.7858 125.296C16.7382 125.639 16.813 125.991 17.0102 126.349C17.2155 126.722 17.4825 126.981 17.8111 127.124C18.1358 127.267 18.4955 127.311 18.8901 127.256C19.2808 127.2 19.6778 127.061 20.0811 126.839C20.4893 126.615 20.826 126.349 21.0912 126.041C21.3524 125.732 21.5136 125.4 21.5748 125.045C21.632 124.69 21.5594 124.328 21.3567 123.959Z" fill="white"/>
<path d="M16.3275 111.139L10.1247 113.229L9.80347 112.276L16.0063 110.186L16.3275 111.139ZM8.92755 113.093C8.99015 113.278 8.98088 113.46 8.89971 113.637C8.81764 113.812 8.68776 113.929 8.51007 113.989C8.33239 114.049 8.15805 114.034 7.98705 113.945C7.81515 113.853 7.6979 113.714 7.63529 113.528C7.57268 113.342 7.58241 113.162 7.66448 112.988C7.74565 112.81 7.87507 112.692 8.05276 112.632C8.23044 112.572 8.40524 112.588 8.57714 112.68C8.74814 112.769 8.86494 112.907 8.92755 113.093Z" fill="white"/>
<path d="M9.4891 100.998L13.384 100.42L13.5316 101.415L7.05701 102.375L6.91438 101.414L7.92604 101.264L7.91353 101.18C7.56222 101.077 7.26387 100.885 7.01847 100.606C6.77027 100.327 6.60989 99.9427 6.53732 99.4538C6.47226 99.0154 6.50526 98.6184 6.63632 98.263C6.76457 97.9079 6.99639 97.6122 7.3318 97.3758C7.66439 97.1397 8.10608 96.9809 8.65687 96.8992L12.7709 96.2888L12.9186 97.2836L8.87194 97.8839C8.36331 97.9594 7.98667 98.1503 7.74205 98.4565C7.49461 98.7632 7.40509 99.147 7.47349 99.6078C7.52061 99.9254 7.63158 100.199 7.80639 100.429C7.98079 100.656 8.2107 100.821 8.49612 100.925C8.78155 101.029 9.11254 101.053 9.4891 100.998Z" fill="white"/>
<path d="M14.8113 82.6821C14.776 83.1666 14.6833 83.5786 14.5332 83.918C14.386 84.2576 14.2033 84.5363 13.9852 84.754C13.7701 84.969 13.5443 85.1363 13.3077 85.2558L12.805 84.4159C12.9306 84.3339 13.0749 84.229 13.2381 84.1013C13.404 83.9739 13.5524 83.7938 13.6833 83.5613C13.8173 83.326 13.8986 83.0115 13.9273 82.6177C13.9657 82.0907 13.8699 81.6465 13.6399 81.285C13.4099 80.9236 13.0229 80.7231 12.4788 80.6834L11.1528 80.5868L11.1466 80.6718C11.2603 80.7542 11.4 80.8697 11.5657 81.0185C11.7288 81.1643 11.8692 81.3682 11.9868 81.6303C12.1018 81.8893 12.1438 82.2314 12.1129 82.6564C12.0744 83.1834 11.9153 83.6475 11.6354 84.0487C11.3557 84.447 10.9689 84.7507 10.4752 84.9596C9.98161 85.1658 9.39482 85.2441 8.71481 85.1945C8.04612 85.1458 7.47243 84.9858 6.99373 84.7145C6.51219 84.443 6.1507 84.0877 5.90926 83.6485C5.66499 83.2091 5.56289 82.7146 5.60295 82.1649C5.63393 81.7399 5.72935 81.4079 5.88919 81.1689C6.04641 80.9268 6.21912 80.7457 6.40733 80.6256C6.59292 80.5024 6.74506 80.4081 6.86377 80.3427L6.8712 80.2407L5.83418 80.1651L5.90481 79.1961L12.62 79.6854C13.181 79.7262 13.6279 79.887 13.9606 80.1676C14.2964 80.4456 14.5309 80.8045 14.664 81.2443C14.8002 81.6815 14.8493 82.1607 14.8113 82.6821ZM11.2218 82.4547C11.2511 82.0524 11.1838 81.7057 11.0198 81.4146C10.8559 81.1235 10.6064 80.8931 10.2712 80.7234C9.9361 80.5537 9.52769 80.4513 9.04601 80.4162C8.57567 80.3819 8.15541 80.4225 7.78524 80.538C7.41508 80.6534 7.11787 80.8426 6.89363 81.1054C6.66938 81.3682 6.54239 81.7036 6.51265 82.1116C6.48167 82.5366 6.56352 82.8986 6.75821 83.1976C6.9531 83.4938 7.22672 83.726 7.57907 83.8941C7.93162 84.0593 8.32891 84.1581 8.77092 84.1903C9.22426 84.2233 9.63035 84.1817 9.98918 84.0654C10.3454 83.9461 10.6329 83.7534 10.8517 83.4874C11.0678 83.2183 11.1912 82.8741 11.2218 82.4547Z" fill="white"/>
<path d="M10.4613 55.086L9.61509 54.6823L12.4339 48.7749L13.2801 49.1786L12.0982 51.6554L19.1291 55.0091L18.674 55.9629L11.6431 52.6092L10.4613 55.086Z" fill="white"/>
<path d="M27.2963 41.7229C26.9112 42.2223 26.4687 42.5682 25.9689 42.7605C25.4686 42.9487 24.9439 42.9873 24.3947 42.876C23.845 42.7608 23.3046 42.4986 22.7736 42.0893C22.2426 41.68 21.8491 41.2225 21.5933 40.7169C21.3369 40.2072 21.2296 39.6905 21.2712 39.1666C21.3123 38.6387 21.5132 38.1408 21.874 37.6728C22.0822 37.4028 22.3327 37.1709 22.6257 36.9771C22.9187 36.7832 23.2497 36.6563 23.6187 36.5964C23.9855 36.5348 24.3837 36.5673 24.8134 36.694C25.243 36.8207 25.6997 37.0705 26.1835 37.4434L26.521 37.7035L23.4402 41.6992L22.7517 41.1685L25.208 37.9828C24.9155 37.7573 24.6094 37.6146 24.2896 37.5547C23.9717 37.4926 23.6639 37.5172 23.3663 37.6286C23.0705 37.7378 22.8116 37.9363 22.5896 38.2243C22.345 38.5415 22.2121 38.8767 22.1909 39.2299C22.1693 39.579 22.2356 39.9117 22.39 40.2279C22.5443 40.5442 22.7644 40.8124 23.0501 41.0327L23.5092 41.3865C23.9007 41.6883 24.2846 41.8766 24.661 41.9514C25.0368 42.0223 25.3893 41.9909 25.7184 41.8571C26.0452 41.7217 26.3327 41.4931 26.5807 41.1714C26.742 40.9621 26.8585 40.7506 26.9301 40.5368C27.0012 40.319 27.0248 40.1022 27.001 39.8866C26.9748 39.6692 26.8978 39.4574 26.7698 39.2511L27.5791 38.6482C27.7777 38.9304 27.9022 39.2434 27.9528 39.5872C28.0011 39.9293 27.972 40.2835 27.8654 40.6497C27.7566 41.0142 27.5669 41.3719 27.2963 41.7229Z" fill="white"/>
<path d="M37.4837 30.7575C37.0187 31.1579 36.5237 31.3929 35.9988 31.4625C35.4738 31.5321 34.955 31.4521 34.4423 31.2225C33.9296 30.9929 33.46 30.6306 33.0336 30.1355C32.5998 29.6318 32.3095 29.1076 32.1628 28.5629C32.0163 28.0142 32.0163 27.4874 32.1628 26.9827C32.3095 26.474 32.6068 26.0269 33.0546 25.6413C33.4033 25.341 33.7733 25.135 34.1644 25.0231C34.5555 24.9113 34.9405 24.8947 35.3194 24.9733C35.6984 25.052 36.0428 25.2277 36.3529 25.5006L35.5908 26.1568C35.338 25.9808 35.0364 25.8919 34.686 25.8899C34.3359 25.8839 33.9929 26.0255 33.6571 26.3147C33.36 26.5705 33.1662 26.8723 33.0758 27.22C32.9857 27.5638 32.9987 27.9293 33.1149 28.3167C33.2313 28.7 33.4509 29.079 33.7735 29.4535C34.1035 29.8366 34.4511 30.1184 34.8164 30.2987C35.1839 30.4772 35.5461 30.5495 35.9032 30.5158C36.2624 30.4801 36.5928 30.3325 36.8942 30.073C37.0922 29.9025 37.2423 29.7133 37.3445 29.5054C37.4466 29.2975 37.498 29.0807 37.4987 28.8552C37.4994 28.6297 37.4456 28.4061 37.3372 28.1845L38.0993 27.5283C38.3084 27.8581 38.429 28.2136 38.461 28.5946C38.4933 28.9717 38.4299 29.3487 38.2709 29.7255C38.1121 30.0984 37.8497 30.4424 37.4837 30.7575Z" fill="white"/>
<path d="M46.3383 19.22L48.224 22.6766L47.3411 23.1581L43.1615 15.4967L44.0444 15.0152L45.5791 17.8284L45.6539 17.7876C45.6267 17.4173 45.7002 17.0715 45.8743 16.75C46.0495 16.4247 46.3629 16.1389 46.8143 15.8927C47.2059 15.6792 47.5917 15.5707 47.9717 15.5673C48.3504 15.5614 48.7085 15.6751 49.0462 15.9085C49.3849 16.1379 49.689 16.4995 49.9584 16.9933L51.9503 20.6444L51.0673 21.1259L49.1081 17.5347C48.8591 17.0783 48.5482 16.79 48.1752 16.6698C47.8033 16.5458 47.4091 16.5974 46.9926 16.8245C46.7033 16.9823 46.4772 17.1849 46.3144 17.4322C46.1541 17.6782 46.0718 17.9544 46.0675 18.261C46.0657 18.5661 46.156 18.8858 46.3383 19.22Z" fill="white"/>
<path d="M61.9956 12.0765L63.0812 15.8614L62.1145 16.1386L60.3098 9.84682L61.2437 9.57902L61.5257 10.5621L61.6076 10.5386C61.6635 10.1768 61.8138 9.85592 62.0585 9.57589C62.3025 9.29314 62.6621 9.08364 63.1373 8.94739C63.5633 8.82523 63.9611 8.80573 64.3308 8.88888C64.6996 8.9693 65.0233 9.1602 65.3019 9.46157C65.5797 9.76022 65.7953 10.1772 65.9488 10.7124L67.0956 14.7103L66.1289 14.9875L65.0009 11.0551C64.8591 10.5609 64.6203 10.2126 64.2845 10.0104C63.9479 9.80548 63.5557 9.76723 63.1078 9.89565C62.7992 9.98413 62.5426 10.1301 62.338 10.3336C62.136 10.5363 62.0022 10.786 61.9366 11.0826C61.8709 11.3793 61.8906 11.7106 61.9956 12.0765Z" fill="white"/>
<path d="M80.7266 12.491C80.1367 12.526 79.6108 12.4163 79.1489 12.162C78.6898 11.9075 78.3206 11.5352 78.0411 11.0452C77.7644 10.5551 77.606 9.9725 77.566 9.29755C77.5256 8.61693 77.6137 8.01549 77.8303 7.49322C78.0498 6.97079 78.3724 6.55608 78.7981 6.24909C79.2267 5.94193 79.7359 5.77086 80.3258 5.73588C80.9157 5.70089 81.4402 5.81066 81.8992 6.06518C82.3611 6.31954 82.7305 6.69321 83.0073 7.18621C83.287 7.67904 83.447 8.26577 83.4874 8.94639C83.5274 9.62134 83.4377 10.2186 83.218 10.7382C83.0013 11.2576 82.6786 11.6709 82.25 11.9781C81.8242 12.2851 81.3164 12.4561 80.7266 12.491ZM80.6731 11.5892C81.1211 11.5626 81.483 11.4259 81.7586 11.1791C82.0343 10.9322 82.2305 10.6175 82.3472 10.2349C82.464 9.85231 82.5094 9.44266 82.4835 9.00592C82.4576 8.56919 82.3639 8.16636 82.2026 7.79742C82.0413 7.42848 81.8091 7.13632 81.506 6.92093C81.203 6.70554 80.8274 6.61113 80.3793 6.6377C79.9312 6.66427 79.5695 6.80241 79.294 7.05211C79.0185 7.30181 78.8225 7.61937 78.7059 8.00479C78.5893 8.39021 78.544 8.80128 78.5699 9.23801C78.5958 9.67475 78.6893 10.0762 78.8505 10.4423C79.0117 10.8084 79.2437 11.0977 79.5466 11.3102C79.8495 11.5228 80.225 11.6158 80.6731 11.5892Z" fill="white"/>
<path d="M96.3924 4.00526L95.3605 12.6713L94.3619 12.5525L95.3938 3.88639L96.3924 4.00526Z" fill="white"/>
<path d="M106.85 15.1069C106.284 14.9345 105.83 14.6486 105.485 14.2495C105.143 13.8511 104.927 13.3736 104.835 12.817C104.746 12.2612 104.801 11.66 104.998 11.0133C105.197 10.3612 105.489 9.82805 105.874 9.41382C106.262 9.00042 106.708 8.72389 107.214 8.58425C107.723 8.44543 108.26 8.46225 108.825 8.63472C109.39 8.80718 109.844 9.09259 110.186 9.49093C110.53 9.89011 110.746 10.3689 110.834 10.9274C110.925 11.4868 110.871 12.0925 110.672 12.7446C110.474 13.3913 110.182 13.92 109.796 14.3307C109.411 14.7422 108.965 15.0173 108.456 15.1562C107.95 15.2958 107.415 15.2794 106.85 15.1069ZM107.113 14.2429C107.543 14.3739 107.93 14.3716 108.274 14.2361C108.618 14.1006 108.912 13.8738 109.154 13.5558C109.397 13.2378 109.582 12.8695 109.71 12.4511C109.838 12.0327 109.89 11.6224 109.867 11.2204C109.844 10.8184 109.728 10.4637 109.519 10.1563C109.31 9.84896 108.991 9.62977 108.562 9.49876C108.132 9.36776 107.745 9.37137 107.4 9.5096C107.055 9.64783 106.76 9.87732 106.517 10.1981C106.273 10.5188 106.088 10.8884 105.96 11.3069C105.832 11.7253 105.78 12.1342 105.804 12.5334C105.828 12.9327 105.944 13.2847 106.154 13.5894C106.364 13.894 106.684 14.1119 107.113 14.2429Z" fill="white"/>
<path d="M120.719 23.3943C120.297 23.1545 119.965 22.894 119.722 22.6129C119.479 22.3342 119.305 22.0496 119.202 21.7592C119.1 21.4727 119.046 21.197 119.04 20.932L120.014 20.8383C120.035 20.9869 120.067 21.1623 120.113 21.3644C120.157 21.569 120.255 21.7803 120.409 21.9983C120.564 22.2202 120.814 22.4286 121.157 22.6235C121.617 22.8843 122.059 22.9884 122.484 22.9357C122.909 22.883 123.257 22.6195 123.526 22.1452L124.182 20.9889L124.108 20.9469C123.985 21.0142 123.821 21.0908 123.615 21.1766C123.413 21.2614 123.169 21.3007 122.882 21.2945C122.598 21.2872 122.271 21.1784 121.901 20.9681C121.441 20.7073 121.09 20.3644 120.848 19.9395C120.608 19.5159 120.5 19.0364 120.523 18.5007C120.549 17.9665 120.73 17.4029 121.066 16.81C121.397 16.2269 121.788 15.7774 122.239 15.4615C122.691 15.143 123.167 14.969 123.667 14.9394C124.169 14.9072 124.659 15.0272 125.139 15.2992C125.509 15.5096 125.768 15.7382 125.916 15.9851C126.067 16.231 126.156 16.4647 126.184 16.6862C126.216 16.9067 126.235 17.0846 126.244 17.2198L126.333 17.2703L126.846 16.3661L127.691 16.8457L124.367 22.7008C124.089 23.19 123.752 23.5246 123.356 23.7048C122.961 23.8888 122.536 23.9466 122.081 23.8782C121.628 23.8136 121.174 23.6523 120.719 23.3943ZM122.465 20.2498C122.816 20.4489 123.158 20.5369 123.492 20.5137C123.825 20.4905 124.14 20.364 124.437 20.1341C124.734 19.9042 125.002 19.5793 125.241 19.1593C125.473 18.7492 125.617 18.3522 125.672 17.9683C125.726 17.5844 125.683 17.2349 125.542 16.9196C125.401 16.6043 125.152 16.3457 124.796 16.1437C124.426 15.9334 124.064 15.852 123.71 15.8996C123.359 15.9485 123.032 16.096 122.729 16.3421C122.428 16.5897 122.168 16.9061 121.95 17.2915C121.725 17.6868 121.588 18.0714 121.539 18.4454C121.494 18.8184 121.545 19.1607 121.691 19.4724C121.842 19.7831 122.1 20.0422 122.465 20.2498Z" fill="white"/>
<path d="M132.277 30.9698C132.15 30.8564 132.046 30.7447 131.965 30.6347C131.882 30.5268 131.83 30.4463 131.809 30.3932L132.59 29.9015C132.731 30.1107 132.877 30.2713 133.028 30.3833C133.18 30.4953 133.359 30.5433 133.568 30.5273C133.776 30.5153 134.037 30.4258 134.349 30.2589L134.829 30.0019L137.4 23.4799L138.214 24.2056L136.093 29.3014L136.144 29.3467L140.963 26.6548L141.778 27.3805L134.713 31.1313C134.395 31.3005 134.093 31.4064 133.808 31.449C133.521 31.4937 133.25 31.4751 132.996 31.3932C132.744 31.3131 132.504 31.172 132.277 30.9698Z" fill="white"/>
<path d="M151.383 49.9465L156.353 45.2438L156.824 46.1897L152.969 49.6899L152.999 49.7509L158.109 48.7682L158.587 49.7295L154.732 53.1915L154.763 53.2525L159.864 52.2927L160.335 53.2387L153.587 54.3711L153.146 53.4862L157.009 49.9632L156.963 49.8717L151.824 50.8314L151.383 49.9465Z" fill="white"/>
<path d="M157.986 65.9443L164.299 64.215L164.565 65.1849L158.252 66.9142L157.986 65.9443ZM165.486 64.42C165.435 64.2309 165.454 64.0503 165.546 63.878C165.638 63.7085 165.774 63.5989 165.955 63.5494C166.136 63.4999 166.309 63.5246 166.474 63.6236C166.641 63.7253 166.75 63.8707 166.802 64.0597C166.853 64.2488 166.833 64.4281 166.741 64.5976C166.65 64.7699 166.514 64.8808 166.333 64.9303C166.152 64.9798 165.979 64.9538 165.813 64.852C165.647 64.7531 165.538 64.609 165.486 64.42Z" fill="white"/>
<path d="M166.965 77.8712L166.119 77.969L165.729 74.5994L166.576 74.5016L166.965 77.8712ZM168.247 75.3037L168.362 76.3027L162.165 77.0189C161.883 77.0515 161.676 77.1169 161.544 77.215C161.416 77.3156 161.335 77.4336 161.302 77.569C161.272 77.7069 161.266 77.8492 161.283 77.9959C161.296 78.106 161.312 78.1956 161.331 78.2649C161.353 78.3338 161.371 78.3889 161.384 78.4303L160.511 78.7372C160.477 78.6724 160.441 78.5808 160.402 78.4624C160.359 78.3443 160.327 78.1921 160.306 78.0059C160.273 77.7236 160.302 77.4401 160.392 77.1551C160.482 76.873 160.641 76.6287 160.869 76.4222C161.097 76.2185 161.4 76.0948 161.779 76.0511L168.247 75.3037Z" fill="white"/>
<path d="M164.81 89.6966L160.885 89.3836L160.965 88.3811L169.664 89.0748L169.584 90.0773L166.39 89.8226L166.383 89.9076C166.708 90.0874 166.957 90.3381 167.131 90.6597C167.308 90.9844 167.375 91.4031 167.335 91.9157C167.299 92.3603 167.179 92.7426 166.974 93.0625C166.772 93.3827 166.48 93.6202 166.1 93.7751C165.723 93.9331 165.254 93.9898 164.693 93.9451L160.547 93.6144L160.627 92.6119L164.705 92.9372C165.223 92.9785 165.635 92.8759 165.94 92.6295C166.247 92.3861 166.419 92.0279 166.457 91.555C166.483 91.2265 166.437 90.9264 166.319 90.6548C166.201 90.3861 166.015 90.166 165.761 89.9947C165.506 89.8262 165.189 89.7268 164.81 89.6966Z" fill="white"/>
<path d="M155.093 115.441L162.976 119.186L162.523 120.14L155.486 116.798L153.745 120.462L152.898 120.06L155.093 115.441Z" fill="white"/>
<path d="M146.217 130.622C146.577 130.154 147.004 129.828 147.499 129.646C147.992 129.466 148.516 129.431 149.069 129.541C149.621 129.653 150.164 129.915 150.701 130.327C151.241 130.742 151.638 131.202 151.891 131.708C152.142 132.216 152.244 132.732 152.197 133.254C152.148 133.779 151.944 134.276 151.583 134.745C151.223 135.213 150.797 135.538 150.304 135.718C149.809 135.9 149.285 135.934 148.731 135.82C148.175 135.709 147.627 135.445 147.086 135.03C146.55 134.618 146.158 134.159 145.909 133.653C145.659 133.149 145.558 132.634 145.606 132.109C145.653 131.586 145.857 131.091 146.217 130.622ZM146.933 131.173C146.66 131.529 146.526 131.891 146.532 132.261C146.538 132.631 146.647 132.986 146.86 133.325C147.072 133.663 147.352 133.966 147.699 134.233C148.046 134.499 148.412 134.692 148.796 134.812C149.181 134.932 149.554 134.948 149.915 134.86C150.276 134.772 150.594 134.55 150.867 134.194C151.141 133.838 151.273 133.475 151.265 133.103C151.257 132.731 151.145 132.375 150.931 132.035C150.716 131.694 150.435 131.39 150.088 131.124C149.741 130.857 149.376 130.665 148.994 130.547C148.612 130.429 148.241 130.415 147.882 130.504C147.523 130.594 147.207 130.817 146.933 131.173Z" fill="white"/>
<path d="M137.417 149.413L135.025 142.858L135.804 142.196L141.887 145.618L141.055 146.324L136.301 143.518L136.249 143.562L138.249 148.707L137.417 149.413Z" fill="white"/>
<path d="M122.755 151.275C123.308 150.973 123.852 150.833 124.387 150.858C124.921 150.886 125.417 151.062 125.875 151.384C126.333 151.71 126.722 152.167 127.044 152.755C127.366 153.343 127.543 153.92 127.574 154.486C127.604 155.056 127.495 155.572 127.247 156.035C126.997 156.502 126.613 156.878 126.095 157.162C125.796 157.325 125.474 157.437 125.127 157.497C124.781 157.557 124.427 157.54 124.065 157.447C123.704 157.356 123.353 157.167 123.01 156.878C122.668 156.59 122.349 156.177 122.056 155.642L121.851 155.268L126.277 152.845L126.695 153.608L123.166 155.539C123.343 155.863 123.567 156.117 123.835 156.3C124.102 156.485 124.393 156.586 124.711 156.603C125.025 156.622 125.342 156.544 125.661 156.369C126.013 156.177 126.269 155.923 126.43 155.608C126.59 155.297 126.663 154.966 126.648 154.614C126.634 154.263 126.54 153.929 126.367 153.612L126.088 153.104C125.851 152.67 125.575 152.344 125.26 152.124C124.945 151.908 124.609 151.796 124.254 151.786C123.9 151.779 123.545 151.873 123.189 152.068C122.957 152.195 122.766 152.342 122.614 152.509C122.462 152.68 122.353 152.869 122.288 153.076C122.225 153.285 122.21 153.51 122.245 153.751L121.262 153.978C121.193 153.64 121.205 153.303 121.296 152.968C121.389 152.635 121.558 152.322 121.803 152.03C122.049 151.74 122.366 151.488 122.755 151.275Z" fill="white"/>
<path d="M99.9585 159.567C100.166 159.531 100.356 159.575 100.53 159.698C100.704 159.82 100.809 159.985 100.845 160.192C100.881 160.4 100.837 160.59 100.714 160.764C100.592 160.938 100.427 161.043 100.219 161.079C100.012 161.114 99.8217 161.071 99.6477 160.948C99.4737 160.825 99.3689 160.66 99.3331 160.453C99.3094 160.316 99.3227 160.184 99.3729 160.057C99.4202 159.931 99.4953 159.823 99.598 159.733C99.6984 159.646 99.8185 159.591 99.9585 159.567Z" fill="white"/>
</svg>
