<svg width="1248" height="638" viewBox="0 0 1248 638" fill="none" xmlns="http://www.w3.org/2000/svg">
<path d="M1103.58 227.563C1102.97 227.563 1102.37 227.386 1101.86 227.053C1101.34 226.721 1100.94 226.247 1100.69 225.689C1094.71 212.174 1128.44 188.765 1164.84 172.64C1201.23 156.515 1241.23 147.231 1247.23 160.746C1247.4 161.126 1247.49 161.535 1247.5 161.951C1247.51 162.366 1247.43 162.779 1247.28 163.166C1247.13 163.553 1246.91 163.906 1246.62 164.206C1246.33 164.506 1245.99 164.747 1245.61 164.914C1245.23 165.081 1244.82 165.172 1244.4 165.181C1243.99 165.19 1243.58 165.117 1243.19 164.967C1242.8 164.816 1242.45 164.591 1242.15 164.304C1241.85 164.017 1241.61 163.673 1241.44 163.293C1238.77 157.273 1208.6 160.136 1167.4 178.408C1126.21 196.681 1103.79 217.079 1106.35 223.121C1106.53 223.501 1106.63 223.914 1106.65 224.334C1106.66 224.753 1106.6 225.172 1106.45 225.565C1106.3 225.957 1106.07 226.316 1105.78 226.62C1105.49 226.923 1105.14 227.165 1104.75 227.331C1104.38 227.485 1103.98 227.564 1103.58 227.563V227.563Z" fill="#F5F5F5"/>
<path d="M1173.95 247.414C1203.89 247.414 1228.16 223.145 1228.16 193.207C1228.16 163.269 1203.89 139 1173.95 139C1144.01 139 1119.74 163.269 1119.74 193.207C1119.74 223.145 1144.01 247.414 1173.95 247.414Z" fill="#E6E6E6"/>
<path d="M1116.54 232.258C1107.95 232.258 1102.63 230.152 1100.69 225.69C1100.52 225.307 1100.43 224.894 1100.42 224.475C1100.4 224.056 1100.48 223.638 1100.63 223.247C1100.78 222.856 1101 222.498 1101.29 222.195C1101.58 221.891 1101.93 221.648 1102.31 221.479C1102.69 221.301 1103.11 221.201 1103.53 221.186C1103.95 221.17 1104.36 221.239 1104.76 221.388C1105.15 221.537 1105.51 221.764 1105.81 222.054C1106.12 222.345 1106.36 222.693 1106.52 223.079C1107.37 224.974 1113.09 227.416 1129.28 224.637C1146.97 221.114 1164.19 215.526 1180.58 207.985C1221.72 189.776 1244.16 169.335 1241.44 163.251C1241.1 162.484 1241.08 161.613 1241.39 160.832C1241.69 160.05 1242.29 159.421 1243.06 159.083C1243.83 158.745 1244.7 158.726 1245.48 159.03C1246.26 159.334 1246.89 159.937 1247.23 160.704C1253.21 174.219 1219.48 197.628 1183.09 213.753C1166.22 221.499 1148.5 227.243 1130.29 230.868C1125.76 231.716 1121.16 232.181 1116.54 232.258Z" fill="#F5F5F5"/>
<path d="M99.6364 620.799L101.468 624.399C101.572 624.606 101.724 624.787 101.91 624.926C102.096 625.064 102.313 625.158 102.541 625.199L106.52 625.767C106.785 625.809 107.033 625.923 107.237 626.097C107.441 626.271 107.593 626.498 107.676 626.753C107.758 627.008 107.769 627.281 107.706 627.542C107.644 627.802 107.51 628.041 107.32 628.23L104.436 631.03C104.271 631.192 104.148 631.391 104.079 631.611C104.009 631.832 103.994 632.066 104.036 632.293L104.71 636.272C104.76 636.539 104.734 636.816 104.633 637.069C104.532 637.322 104.361 637.54 104.14 637.7C103.919 637.859 103.657 637.951 103.385 637.967C103.113 637.983 102.842 637.92 102.605 637.787L99.0469 635.914C98.8408 635.799 98.609 635.739 98.3733 635.739C98.1376 635.739 97.9058 635.799 97.6997 635.914L94.142 637.787C93.9043 637.92 93.6336 637.983 93.3617 637.967C93.0898 637.951 92.828 637.859 92.6069 637.7C92.3859 637.54 92.2149 637.322 92.1139 637.069C92.0129 636.816 91.9862 636.539 92.0369 636.272L92.7105 632.293C92.7524 632.066 92.7378 631.832 92.6681 631.611C92.5983 631.391 92.4755 631.192 92.3105 631.03L89.4265 628.23C89.2367 628.041 89.1031 627.802 89.0403 627.542C88.9776 627.281 88.9882 627.008 89.071 626.753C89.1539 626.498 89.3056 626.271 89.5096 626.097C89.7135 625.923 89.9616 625.809 90.2265 625.767L94.2051 625.199C94.434 625.158 94.6502 625.064 94.8365 624.926C95.0229 624.787 95.1743 624.606 95.2788 624.399L97.0681 620.799C97.1862 620.559 97.3691 620.357 97.5961 620.216C97.823 620.075 98.085 620 98.3523 620C98.6195 620 98.8815 620.075 99.1084 620.216C99.3354 620.357 99.5183 620.559 99.6364 620.799Z" fill="#E6E6E6"/>
<path d="M35.7047 44.0939L37.473 47.6937C37.5763 47.9043 37.7305 48.0858 37.9216 48.2218C38.1128 48.3578 38.3348 48.444 38.5677 48.4726L42.5464 49.062C42.8096 49.1026 43.0563 49.2158 43.2586 49.3889C43.461 49.562 43.6111 49.7881 43.692 50.0418C43.773 50.2955 43.7815 50.5667 43.7167 50.825C43.6519 51.0833 43.5164 51.3185 43.3253 51.504L40.4623 54.3248C40.2935 54.4844 40.1668 54.6832 40.0934 54.9035C40.0199 55.1239 40.002 55.359 40.0413 55.5879L40.7149 59.5666C40.7656 59.8342 40.7388 60.1106 40.6378 60.3636C40.5369 60.6165 40.3658 60.8354 40.1448 60.9946C39.9238 61.1537 39.662 61.2465 39.3901 61.262C39.1182 61.2776 38.8475 61.2152 38.6098 61.0823L35.0521 59.2087C34.8498 59.0944 34.6214 59.0343 34.389 59.0343C34.1566 59.0343 33.9282 59.0944 33.7259 59.2087L30.1471 61.0823C29.9086 61.2064 29.6403 61.2619 29.372 61.2425C29.1038 61.2231 28.8462 61.1297 28.628 60.9725C28.4097 60.8154 28.2394 60.6008 28.1359 60.3525C28.0325 60.1043 28 59.8322 28.042 59.5666L28.7367 55.5879C28.7706 55.3591 28.7501 55.1255 28.677 54.9061C28.6038 54.6867 28.4801 54.4875 28.3157 54.3248L25.4317 51.504C25.2402 51.3171 25.1049 51.0803 25.0412 50.8205C24.9775 50.5606 24.9878 50.2881 25.0711 50.0338C25.1544 49.7796 25.3073 49.5538 25.5124 49.382C25.7175 49.2102 25.9667 49.0994 26.2316 49.062L30.2103 48.4726C30.442 48.4405 30.6625 48.3529 30.8531 48.2173C31.0437 48.0817 31.1987 47.9021 31.305 47.6937L33.0733 44.0939C33.1903 43.8437 33.3762 43.6321 33.6093 43.4838C33.8423 43.3355 34.1128 43.2568 34.389 43.2568C34.6652 43.2568 34.9357 43.3355 35.1687 43.4838C35.4018 43.6321 35.5877 43.8437 35.7047 44.0939Z" fill="#E6E6E6"/>
<path d="M828.356 0.418804L829.241 2.21996C829.293 2.32534 829.37 2.41617 829.465 2.48422C829.561 2.55226 829.672 2.59539 829.789 2.60967L831.779 2.90459C831.911 2.9249 832.034 2.98154 832.136 3.06814C832.237 3.15475 832.312 3.26788 832.352 3.39482C832.393 3.52177 832.397 3.65748 832.365 3.78672C832.332 3.91596 832.265 4.03361 832.169 4.12642L830.736 5.53783C830.652 5.61768 830.589 5.71713 830.552 5.82738C830.515 5.93763 830.506 6.05527 830.526 6.16981L830.863 8.16052C830.888 8.29441 830.875 8.43275 830.824 8.5593C830.774 8.68585 830.688 8.7954 830.578 8.87502C830.467 8.95464 830.336 9.00106 830.2 9.00883C830.064 9.01661 829.929 8.9854 829.81 8.91889L828.03 7.98148C827.928 7.92425 827.814 7.89418 827.698 7.89418C827.581 7.89418 827.467 7.92425 827.366 7.98148L825.575 8.91889C825.456 8.981 825.322 9.00876 825.188 8.99906C825.053 8.98937 824.924 8.94261 824.815 8.86399C824.706 8.78537 824.621 8.67797 824.569 8.55377C824.517 8.42957 824.501 8.29342 824.522 8.16052L824.87 6.16981C824.887 6.05533 824.876 5.93846 824.84 5.82867C824.803 5.71888 824.741 5.61925 824.659 5.53783L823.216 4.12642C823.12 4.03292 823.053 3.91445 823.021 3.78444C822.989 3.65443 822.994 3.51805 823.036 3.39084C823.077 3.26362 823.154 3.15065 823.256 3.0647C823.359 2.97876 823.484 2.92328 823.616 2.90459L825.607 2.60967C825.723 2.59361 825.833 2.54979 825.929 2.48193C826.024 2.41408 826.102 2.32422 826.155 2.21996L827.039 0.418804C827.098 0.293627 827.191 0.187747 827.308 0.113565C827.424 0.0393825 827.56 0 827.698 0C827.836 0 827.971 0.0393825 828.088 0.113565C828.204 0.187747 828.298 0.293627 828.356 0.418804Z" fill="#E6E6E6"/>
<path d="M1038.84 186.849L1038.84 186.849L1038.84 186.855L1040.35 189.925C1040.35 189.925 1040.35 189.925 1040.35 189.925C1040.46 190.152 1040.63 190.348 1040.84 190.495C1041.04 190.641 1041.28 190.734 1041.53 190.765L1044.92 191.267C1044.92 191.267 1044.92 191.267 1044.92 191.267C1045.08 191.293 1045.24 191.364 1045.36 191.473C1045.49 191.582 1045.59 191.724 1045.64 191.884C1045.69 192.044 1045.69 192.214 1045.65 192.377C1045.61 192.54 1045.53 192.688 1045.41 192.804L1045.41 192.804L1045.4 192.806L1042.97 195.21C1042.78 195.382 1042.65 195.595 1042.57 195.832C1042.49 196.07 1042.47 196.324 1042.51 196.571C1042.51 196.571 1042.51 196.571 1042.51 196.571L1043.09 199.964L1043.09 199.964L1043.09 199.97C1043.12 200.138 1043.1 200.312 1043.04 200.472C1042.98 200.631 1042.87 200.769 1042.73 200.869C1042.59 200.969 1042.43 201.027 1042.25 201.037C1042.08 201.047 1041.91 201.008 1041.76 200.924L1041.76 200.924L1041.76 200.92L1038.73 199.324C1038.51 199.201 1038.26 199.137 1038.01 199.137C1037.76 199.137 1037.51 199.201 1037.29 199.324L1034.24 200.919C1034.24 200.919 1034.24 200.92 1034.24 200.92C1034.09 200.998 1033.92 201.033 1033.75 201.021C1033.58 201.009 1033.42 200.949 1033.28 200.85C1033.14 200.751 1033.04 200.615 1032.97 200.458C1032.9 200.301 1032.88 200.13 1032.91 199.963L1033.5 196.572L1033.5 196.572L1033.5 196.564C1033.54 196.319 1033.52 196.069 1033.44 195.834C1033.36 195.6 1033.23 195.387 1033.05 195.212L1033.05 195.211L1030.59 192.805L1030.59 192.805C1030.47 192.687 1030.39 192.538 1030.35 192.375C1030.31 192.211 1030.31 192.04 1030.36 191.88C1030.42 191.72 1030.51 191.577 1030.64 191.469C1030.77 191.361 1030.93 191.291 1031.1 191.268L1031.1 191.268L1031.1 191.268L1034.49 190.765C1034.74 190.73 1034.97 190.637 1035.18 190.491C1035.38 190.346 1035.55 190.153 1035.66 189.929L1035.66 189.929L1035.66 189.925L1037.17 186.855L1037.17 186.855L1037.18 186.849C1037.25 186.691 1037.37 186.557 1037.51 186.463C1037.66 186.37 1037.83 186.32 1038.01 186.32C1038.18 186.32 1038.35 186.37 1038.5 186.463C1038.65 186.557 1038.77 186.691 1038.84 186.849Z" stroke="#E6E6E6" stroke-width="0.639735"/>
<path d="M1188.28 525.491L1189.31 527.602C1189.37 527.725 1189.46 527.832 1189.58 527.911C1189.69 527.991 1189.82 528.042 1189.96 528.058L1192.29 528.404C1192.44 528.428 1192.59 528.494 1192.71 528.596C1192.82 528.697 1192.91 528.83 1192.96 528.978C1193.01 529.127 1193.01 529.286 1192.97 529.438C1192.94 529.589 1192.86 529.727 1192.75 529.836L1191.07 531.49C1190.97 531.583 1190.89 531.7 1190.85 531.829C1190.81 531.958 1190.8 532.096 1190.82 532.23L1191.21 534.563C1191.24 534.72 1191.23 534.882 1191.17 535.031C1191.11 535.179 1191.01 535.307 1190.88 535.401C1190.75 535.494 1190.6 535.548 1190.44 535.558C1190.28 535.567 1190.12 535.53 1189.98 535.452L1187.89 534.354C1187.78 534.287 1187.64 534.251 1187.51 534.251C1187.37 534.251 1187.24 534.287 1187.12 534.354L1185.02 535.452C1184.88 535.525 1184.72 535.557 1184.56 535.546C1184.41 535.535 1184.26 535.48 1184.13 535.388C1184 535.296 1183.9 535.17 1183.84 535.024C1183.78 534.879 1183.76 534.719 1183.78 534.563L1184.19 532.23C1184.21 532.096 1184.2 531.959 1184.16 531.831C1184.11 531.702 1184.04 531.585 1183.94 531.49L1182.25 529.836C1182.14 529.726 1182.06 529.587 1182.02 529.435C1181.99 529.283 1181.99 529.123 1182.04 528.974C1182.09 528.825 1182.18 528.692 1182.3 528.592C1182.42 528.491 1182.57 528.426 1182.72 528.404L1185.06 528.058C1185.19 528.039 1185.32 527.988 1185.43 527.909C1185.54 527.829 1185.63 527.724 1185.7 527.602L1186.73 525.491C1186.8 525.344 1186.91 525.22 1187.05 525.133C1187.18 525.046 1187.34 525 1187.51 525C1187.67 525 1187.83 525.046 1187.96 525.133C1188.1 525.22 1188.21 525.344 1188.28 525.491Z" fill="#E6E6E6"/>
<path d="M1152.24 414.891L1152.24 414.891L1152.24 414.9L1153.68 417.822C1153.68 417.822 1153.68 417.822 1153.68 417.822C1153.8 418.068 1153.98 418.279 1154.2 418.438C1154.42 418.595 1154.68 418.695 1154.95 418.729L1158.17 419.207C1158.17 419.207 1158.17 419.207 1158.17 419.207C1158.29 419.226 1158.4 419.278 1158.5 419.358C1158.59 419.438 1158.66 419.542 1158.7 419.66C1158.73 419.777 1158.74 419.902 1158.71 420.022C1158.68 420.141 1158.62 420.25 1158.53 420.336L1158.53 420.336L1158.52 420.339L1156.2 422.625C1156.01 422.811 1155.86 423.041 1155.78 423.296C1155.69 423.553 1155.67 423.827 1155.72 424.094C1155.72 424.094 1155.72 424.094 1155.72 424.094L1156.26 427.323L1156.26 427.323L1156.27 427.333C1156.29 427.456 1156.28 427.584 1156.23 427.701C1156.18 427.818 1156.1 427.92 1156 427.993C1155.9 428.067 1155.78 428.11 1155.65 428.117C1155.53 428.124 1155.4 428.095 1155.29 428.034L1155.29 428.034L1155.28 428.028L1152.4 426.51C1152.16 426.377 1151.89 426.308 1151.62 426.308C1151.35 426.308 1151.08 426.377 1150.85 426.51L1147.95 428.027C1147.95 428.027 1147.95 428.027 1147.95 428.027C1147.84 428.085 1147.71 428.111 1147.59 428.101C1147.46 428.092 1147.34 428.049 1147.24 427.975C1147.14 427.902 1147.06 427.801 1147.01 427.685C1146.96 427.57 1146.94 427.444 1146.96 427.321L1147.53 424.096L1147.53 424.096L1147.53 424.083C1147.57 423.82 1147.54 423.551 1147.46 423.298C1147.38 423.046 1147.23 422.817 1147.04 422.629L1147.04 422.627L1144.7 420.337L1144.7 420.337C1144.61 420.25 1144.55 420.141 1144.52 420.021C1144.49 419.901 1144.49 419.775 1144.53 419.657C1144.57 419.539 1144.64 419.435 1144.74 419.356C1144.83 419.276 1144.95 419.225 1145.07 419.208L1145.07 419.208L1145.07 419.207L1148.3 418.729C1148.57 418.691 1148.82 418.59 1149.04 418.434C1149.26 418.277 1149.44 418.07 1149.56 417.829L1149.56 417.829L1149.57 417.822L1151 414.9L1151 414.9L1151.01 414.891C1151.06 414.774 1151.15 414.675 1151.26 414.606C1151.37 414.537 1151.49 414.5 1151.62 414.5C1151.75 414.5 1151.88 414.537 1151.99 414.606C1152.1 414.675 1152.18 414.774 1152.24 414.891Z" stroke="#E04048"/>
<path d="M1038.98 549.233L1039.47 550.234C1039.5 550.293 1039.54 550.344 1039.6 550.381C1039.65 550.419 1039.71 550.443 1039.77 550.451L1040.88 550.615C1040.95 550.626 1041.02 550.658 1041.08 550.706C1041.14 550.754 1041.18 550.817 1041.2 550.888C1041.22 550.958 1041.23 551.034 1041.21 551.106C1041.19 551.177 1041.15 551.243 1041.1 551.294L1040.3 552.079C1040.25 552.124 1040.22 552.179 1040.2 552.24C1040.18 552.302 1040.17 552.367 1040.18 552.431L1040.37 553.538C1040.39 553.612 1040.38 553.689 1040.35 553.759C1040.32 553.83 1040.28 553.891 1040.21 553.935C1040.15 553.979 1040.08 554.005 1040 554.009C1039.93 554.014 1039.85 553.996 1039.79 553.959L1038.8 553.438C1038.74 553.406 1038.68 553.39 1038.61 553.39C1038.55 553.39 1038.48 553.406 1038.43 553.438L1037.43 553.959C1037.37 553.994 1037.29 554.009 1037.22 554.004C1037.14 553.999 1037.07 553.973 1037.01 553.929C1036.95 553.885 1036.9 553.825 1036.87 553.756C1036.84 553.687 1036.83 553.612 1036.85 553.538L1037.04 552.431C1037.05 552.367 1037.04 552.302 1037.02 552.241C1037 552.18 1036.97 552.125 1036.92 552.079L1036.12 551.294C1036.07 551.243 1036.03 551.177 1036.01 551.104C1035.99 551.032 1036 550.956 1036.02 550.885C1036.04 550.815 1036.09 550.752 1036.14 550.704C1036.2 550.656 1036.27 550.625 1036.34 550.615L1037.45 550.451C1037.51 550.442 1037.58 550.418 1037.63 550.38C1037.68 550.342 1037.72 550.292 1037.75 550.234L1038.25 549.233C1038.28 549.163 1038.33 549.104 1038.4 549.063C1038.46 549.022 1038.54 549 1038.61 549C1038.69 549 1038.76 549.022 1038.83 549.063C1038.89 549.104 1038.95 549.163 1038.98 549.233Z" fill="#E6E6E6"/>
<path d="M14.2715 407.116L16.6289 411.915C16.7667 412.196 16.9722 412.438 17.227 412.619C17.4819 412.801 17.7779 412.916 18.0883 412.954L23.3927 413.739C23.7436 413.794 24.0725 413.944 24.3423 414.175C24.6121 414.406 24.8122 414.707 24.9201 415.046C25.028 415.384 25.0394 415.746 24.953 416.09C24.8666 416.434 24.6859 416.748 24.4311 416.995L20.6142 420.756C20.3892 420.969 20.2203 421.234 20.1224 421.527C20.0245 421.821 20.0006 422.135 20.0529 422.44L20.951 427.744C21.0186 428.101 20.9829 428.469 20.8483 428.807C20.7136 429.144 20.4857 429.436 20.191 429.648C19.8963 429.86 19.5473 429.984 19.1848 430.004C18.8223 430.025 18.4614 429.942 18.1445 429.765L13.4014 427.267C13.1317 427.114 12.8272 427.034 12.5174 427.034C12.2075 427.034 11.903 427.114 11.6333 427.267L6.86214 429.765C6.54408 429.93 6.18638 430.004 5.82878 429.978C5.47118 429.953 5.12776 429.828 4.83679 429.618C4.54583 429.409 4.31873 429.123 4.18081 428.792C4.04288 428.461 3.99952 428.098 4.05559 427.744L4.9818 422.44C5.02696 422.135 4.99966 421.823 4.90214 421.531C4.80463 421.238 4.63961 420.973 4.42046 420.756L0.575502 416.995C0.320223 416.746 0.139892 416.43 0.0549275 416.084C-0.030037 415.737 -0.0162024 415.374 0.0948399 415.035C0.205882 414.696 0.409692 414.395 0.683163 414.166C0.956633 413.937 1.2888 413.789 1.642 413.739L6.94633 412.954C7.25522 412.911 7.54924 412.794 7.80333 412.613C8.05742 412.432 8.26411 412.193 8.40579 411.915L10.7633 407.116C10.9193 406.782 11.1672 406.5 11.4778 406.303C11.7885 406.105 12.1491 406 12.5174 406C12.8856 406 13.2462 406.105 13.5569 406.303C13.8676 406.5 14.1154 406.782 14.2715 407.116Z" fill="#E6E6E6"/>
<path d="M1091.73 51.8927L1093.52 55.4925C1093.62 55.6993 1093.77 55.8782 1093.96 56.0138C1094.14 56.1494 1094.36 56.2378 1094.59 56.2714L1098.57 56.8608C1098.83 56.8982 1099.08 57.009 1099.29 57.1808C1099.49 57.3526 1099.64 57.5784 1099.73 57.8327C1099.81 58.0869 1099.82 58.3594 1099.76 58.6193C1099.69 58.8791 1099.56 59.1159 1099.37 59.3028L1096.48 62.1237C1096.32 62.2842 1096.19 62.4839 1096.12 62.7044C1096.05 62.925 1096.04 63.1595 1096.08 63.3867L1096.76 67.3444C1096.81 67.612 1096.78 67.8885 1096.68 68.1414C1096.58 68.3943 1096.41 68.6132 1096.19 68.7723C1095.97 68.9315 1095.7 69.0242 1095.43 69.0398C1095.16 69.0553 1094.89 68.993 1094.65 68.8601L1091.09 66.9865C1090.88 66.8826 1090.65 66.8286 1090.42 66.8286C1090.19 66.8286 1089.96 66.8826 1089.75 66.9865L1086.19 68.8601C1085.95 68.993 1085.68 69.0553 1085.41 69.0398C1085.14 69.0242 1084.88 68.9315 1084.65 68.7723C1084.43 68.6132 1084.26 68.3943 1084.16 68.1414C1084.06 67.8885 1084.03 67.612 1084.08 67.3444L1084.76 63.3867C1084.8 63.1578 1084.79 62.921 1084.71 62.6995C1084.64 62.4781 1084.51 62.2797 1084.34 62.1237L1081.43 59.3028C1081.24 59.1159 1081.1 58.8791 1081.04 58.6193C1080.98 58.3594 1080.99 58.0869 1081.07 57.8327C1081.15 57.5784 1081.31 57.3526 1081.51 57.1808C1081.72 57.009 1081.97 56.8982 1082.23 56.8608L1086.21 56.2714C1086.44 56.2378 1086.66 56.1494 1086.84 56.0138C1087.03 55.8782 1087.18 55.6993 1087.28 55.4925L1089.07 51.8927C1089.18 51.6289 1089.36 51.403 1089.6 51.244C1089.84 51.0849 1090.11 51 1090.4 51C1090.68 51 1090.96 51.0849 1091.2 51.244C1091.44 51.403 1091.62 51.6289 1091.73 51.8927V51.8927Z" fill="#E04048" fill-opacity="0.5"/>
<path opacity="0.5" d="M322.154 29.4619C321.894 29.4585 321.638 29.4026 321.401 29.2975C321.163 29.1924 320.95 29.0402 320.773 28.8503C320.596 28.6603 320.459 28.4365 320.372 28.1923C320.284 27.948 320.246 27.6885 320.261 27.4294L320.556 23.1123C320.569 22.9192 320.535 22.7258 320.457 22.5487C320.379 22.3716 320.259 22.2163 320.107 22.096L316.722 19.4048C316.445 19.1857 316.234 18.8934 316.113 18.561C315.993 18.2285 315.968 17.8691 316.041 17.5231C316.114 17.1771 316.282 16.8584 316.526 16.6027C316.77 16.347 317.081 16.1645 317.423 16.0758L321.628 15.0246C321.817 14.9796 321.991 14.8881 322.136 14.7583C322.28 14.6285 322.39 14.4647 322.455 14.2817L323.969 10.2308C324.093 9.89981 324.308 9.61011 324.588 9.39436C324.868 9.17862 325.203 9.04539 325.555 9.0097C325.907 8.97401 326.261 9.03726 326.579 9.19233C326.897 9.3474 327.165 9.58813 327.354 9.88742L329.653 13.5528C329.754 13.7177 329.895 13.8551 330.063 13.9528C330.23 14.0506 330.419 14.1057 330.613 14.1135L334.937 14.3027C335.292 14.3138 335.638 14.4246 335.933 14.6223C336.229 14.82 336.463 15.0967 336.609 15.421C336.755 15.7453 336.807 16.1041 336.759 16.4565C336.712 16.8089 336.566 17.1408 336.339 17.4144L333.535 20.7294C333.404 20.8781 333.311 21.0571 333.266 21.2504C333.221 21.4436 333.224 21.6451 333.276 21.8367L334.432 26.0067C334.528 26.3472 334.527 26.7078 334.428 27.0474C334.329 27.387 334.136 27.6918 333.872 27.927C333.607 28.1635 333.282 28.3215 332.933 28.3834C332.584 28.4453 332.225 28.4086 331.895 28.2775L327.886 26.6585C327.707 26.5863 327.512 26.5587 327.319 26.5782C327.126 26.5978 326.941 26.6638 326.779 26.7706L323.177 29.1605C322.871 29.3552 322.516 29.4597 322.154 29.4619ZM325.763 9.69819H325.637C325.413 9.71723 325.2 9.80001 325.023 9.93667C324.845 10.0733 324.71 10.2581 324.635 10.4691L323.121 14.52C323.015 14.8096 322.84 15.0686 322.61 15.274C322.38 15.4794 322.103 15.6248 321.803 15.6974L317.598 16.7486C317.381 16.8026 317.183 16.9164 317.027 17.0771C316.871 17.2379 316.763 17.4391 316.716 17.658C316.668 17.8769 316.683 18.1048 316.758 18.3157C316.834 18.5265 316.967 18.7121 317.143 18.8512L320.528 21.5424C320.767 21.7339 320.955 21.9808 321.077 22.2617C321.199 22.5425 321.251 22.8489 321.228 23.1543L320.934 27.4715C320.916 27.694 320.961 27.9172 321.066 28.1147C321.17 28.3121 321.329 28.4756 321.523 28.5858C321.712 28.7039 321.931 28.7665 322.154 28.7665C322.377 28.7665 322.595 28.7039 322.784 28.5858L326.394 26.196C326.649 26.0263 326.942 25.9212 327.247 25.8894C327.552 25.8577 327.861 25.9004 328.146 26.0137L332.162 27.6327C332.366 27.712 332.588 27.7338 332.804 27.6956C333.02 27.6575 333.221 27.5609 333.386 27.4164C333.55 27.2719 333.672 27.085 333.738 26.876C333.804 26.667 333.811 26.4439 333.759 26.231L332.603 22.061C332.52 21.7651 332.511 21.4534 332.576 21.1531C332.64 20.8527 332.777 20.5726 332.975 20.3369L335.778 17.022C335.92 16.8496 336.011 16.6413 336.041 16.4202C336.071 16.1991 336.04 15.9739 335.95 15.7698C335.859 15.5656 335.714 15.3905 335.531 15.2639C335.347 15.1373 335.132 15.0641 334.909 15.0526L330.592 14.8704C330.284 14.8565 329.984 14.7682 329.718 14.6132C329.452 14.4582 329.228 14.241 329.064 13.9803L326.772 10.3149C326.673 10.1322 326.528 9.97897 326.351 9.87065C326.173 9.76233 325.971 9.70283 325.763 9.69819Z" fill="white"/>
</svg>
