<svg width="364" height="305" viewBox="0 0 364 305" fill="none" xmlns="http://www.w3.org/2000/svg">
<path d="M24.0191 282L25.5983 284.632C27.3491 287.64 29.9329 290.078 33.038 291.651L35.8104 292.984L33.1784 294.598C30.1701 296.349 27.7326 298.933 26.1598 302.038L24.7912 304.81L23.2121 302.178C21.4471 299.169 18.8519 296.732 15.7372 295.16L13 293.791L15.632 292.212C18.6341 290.438 21.0686 287.845 22.6506 284.737L24.0191 282Z" fill="#9EB4BE"/>
<path d="M296.087 0L297.389 2.17043C298.833 4.65123 300.964 6.66132 303.524 7.95825L305.81 9.05795L303.64 10.3891C301.159 11.8329 299.149 13.9636 297.852 16.5242L296.723 18.8104L295.421 16.64C293.966 14.1582 291.826 12.1486 289.257 10.8522L287 9.72353L289.17 8.42128C291.646 6.95818 293.654 4.82004 294.958 2.25724L296.087 0Z" fill="#83BEDB"/>
<path d="M48.4505 265L49.1491 272.068C49.2696 273.766 49.9992 275.364 51.2036 276.567C52.4351 277.631 53.9943 278.24 55.6209 278.293L61.2093 278.56L55.4566 279.587C53.9589 279.842 52.5791 280.561 51.5118 281.642L51.1831 282.012C50.1958 283.167 49.599 284.606 49.4778 286.121L48.9642 293.25L48.2862 286.634C48.1614 284.949 47.4318 283.366 46.2316 282.176C46.1469 282.119 46.0707 282.049 46.0056 281.971C44.8395 281.004 43.4059 280.416 41.8965 280.286L36 279.669L41.5267 278.991C43.1699 278.843 44.7067 278.115 45.8618 276.937L46.0673 276.731C47.0474 275.571 47.6432 274.136 47.7725 272.622L48.4505 265Z" fill="#83BEDB"/>
<path d="M12.4505 74L13.1491 81.0676C13.2696 82.766 13.9992 84.3637 15.2036 85.5671C16.4351 86.631 17.9943 87.2402 19.6209 87.2929L25.2093 87.56L19.4566 88.5873C17.9589 88.8421 16.5791 89.5607 15.5118 90.6418L15.1831 91.0116C14.1958 92.1674 13.599 93.6055 13.4778 95.1207L12.9642 102.25L12.2862 95.6344C12.1614 93.9491 11.4318 92.3657 10.2316 91.176C10.1469 91.1187 10.0707 91.0495 10.0056 90.9705C8.83948 90.0036 7.40585 89.4158 5.89654 89.2858L0 88.6695L5.52672 87.9914C7.16994 87.8433 8.70673 87.115 9.86182 85.9369L10.0673 85.7315C11.0474 84.5713 11.6432 83.1356 11.7725 81.6224L12.4505 74Z" fill="#83BEDB"/>
<path d="M350.451 177L351.149 184.068C351.27 185.766 351.999 187.364 353.204 188.567C354.435 189.631 355.994 190.24 357.621 190.293L363.209 190.56L357.457 191.587C355.959 191.842 354.579 192.561 353.512 193.642L353.183 194.012C352.196 195.167 351.599 196.606 351.478 198.121L350.964 205.25L350.286 198.634C350.161 196.949 349.432 195.366 348.232 194.176C348.147 194.119 348.071 194.049 348.006 193.971C346.839 193.004 345.406 192.416 343.897 192.286L338 191.669L343.527 190.991C345.17 190.843 346.707 190.115 347.862 188.937L348.067 188.731C349.047 187.571 349.643 186.136 349.773 184.622L350.451 177Z" fill="#83BEDB"/>
</svg>
