<svg width="583" height="468" viewBox="0 0 583 468" fill="none" xmlns="http://www.w3.org/2000/svg">
<path d="M309.89 467.64C416.972 467.64 503.78 462.572 503.78 456.32C503.78 450.068 416.972 445 309.89 445C202.808 445 116 450.068 116 456.32C116 462.572 202.808 467.64 309.89 467.64Z" fill="#DDDDDD"/>
<path d="M582.241 423.136H-0.000244141V423.427H582.241V423.136Z" fill="#6A6A6A"/>
<path d="M523.901 441.873H485.333V442.164H523.901V441.873Z" fill="#6A6A6A"/>
<path d="M385.7 445.04H375.581V445.331H385.7V445.04Z" fill="#6A6A6A"/>
<path d="M484.168 431.066H461.822V431.357H484.168V431.066Z" fill="#6A6A6A"/>
<path d="M111.383 433.022H61.0885V433.314H111.383V433.022Z" fill="#6A6A6A"/>
<path d="M129.129 433.022H121.758V433.314H129.129V433.022Z" fill="#6A6A6A"/>
<path d="M262.183 437.936H153.094V438.227H262.183V437.936Z" fill="#6A6A6A"/>
<path d="M216.093 306.734H76.1919C76.1925 309.206 77.1471 311.582 78.8565 313.368C80.566 315.153 82.8985 316.21 85.368 316.318C100.401 316.993 123.528 319.38 130.864 327.695C144.535 343.206 143.208 397.68 126.835 410.292C121.7 414.251 106.725 422.099 106.725 422.099H185.548C185.548 422.099 171.575 414.088 166.707 410.292C150.404 397.575 149.95 343.136 163.679 327.695C170.736 319.776 192.407 317.214 206.952 316.411C209.424 316.274 211.75 315.194 213.45 313.394C215.151 311.594 216.097 309.21 216.093 306.734V306.734Z" fill="#CBCBCB"/>
<path d="M93.5195 316.83C107.726 317.995 124.763 320.778 130.864 327.695C132.857 330.084 134.432 332.793 135.522 335.707H159.022C160.12 332.797 161.694 330.089 163.68 327.695C169.805 320.813 186.969 317.983 200.943 316.83H93.5195Z" fill="#8E8E8E"/>
<path d="M156.495 306.804L154.596 285.063H182.171L184.07 306.804H156.495Z" fill="#6A6A6A"/>
<path d="M156.495 306.804L154.597 285.063H153.106L155.016 306.804H156.495Z" fill="#FB7777"/>
<path d="M159.115 304.591L157.601 287.276H179.552L181.065 304.591H159.115Z" fill="#9747FF"/>
<path d="M160.803 303.159L159.534 288.696H177.874L179.144 303.159H160.803Z" fill="#FAFAFA"/>
<path d="M147.551 306.734H119.848L122.923 271.602H150.626L147.551 306.734Z" fill="#8E8E8E"/>
<path d="M147.551 306.734H148.879L151.953 271.602H150.626L147.551 306.734Z" fill="#FB7777"/>
<path d="M145.048 303.159H122.992L125.438 275.188H147.493L145.048 303.159Z" fill="#9747FF"/>
<path d="M143.429 300.854H125.007L127.045 277.482H145.467L143.429 300.854Z" fill="#FAFAFA"/>
<path d="M134.125 287.998C134.421 288.297 134.774 288.534 135.163 288.696C135.552 288.858 135.969 288.941 136.39 288.941C136.811 288.941 137.228 288.858 137.616 288.696C138.005 288.534 138.358 288.297 138.655 287.998C139.253 287.396 139.588 286.581 139.588 285.733C139.588 284.884 139.253 284.07 138.655 283.468V283.468C138.052 282.87 137.238 282.534 136.39 282.534C135.541 282.534 134.727 282.87 134.125 283.468C133.826 283.764 133.589 284.117 133.427 284.506C133.265 284.895 133.181 285.312 133.181 285.733C133.181 286.154 133.265 286.571 133.427 286.96C133.589 287.348 133.826 287.701 134.125 287.998Z" fill="#6A6A6A"/>
<path d="M135.476 291.922C135.259 291.702 135.001 291.527 134.716 291.408C134.431 291.288 134.125 291.227 133.817 291.227C133.508 291.227 133.202 291.288 132.917 291.408C132.632 291.527 132.374 291.702 132.157 291.922C131.82 292.247 131.588 292.666 131.493 293.125C131.397 293.584 131.442 294.061 131.622 294.493C131.802 294.926 132.108 295.294 132.501 295.55C132.893 295.806 133.354 295.938 133.822 295.928C134.29 295.935 134.749 295.802 135.139 295.545C135.53 295.288 135.834 294.92 136.013 294.488C136.191 294.055 136.235 293.58 136.14 293.122C136.044 292.664 135.813 292.246 135.476 291.922Z" fill="#9747FF"/>
<path d="M370.305 414.915H343.278L357.496 299.398C357.839 296.984 359.026 294.769 360.847 293.147C362.667 291.525 365.003 290.6 367.441 290.536H485.17L467.877 414.915H370.305Z" fill="#CBCBCB"/>
<path d="M455.836 414.915H482.817L497.001 299.398C497.175 298.287 497.103 297.152 496.791 296.073C496.478 294.993 495.932 293.995 495.191 293.15C494.45 292.304 493.532 291.632 492.503 291.181C491.474 290.729 490.358 290.509 489.234 290.536H479.918C477.48 290.6 475.144 291.525 473.324 293.147C471.503 294.769 470.316 296.984 469.973 299.398L455.836 414.915Z" fill="#9747FF"/>
<path d="M321.805 344.918C321.435 340.685 319.492 336.744 316.36 333.873C313.228 331.002 309.134 329.408 304.885 329.407H344.139C348.388 329.408 352.483 331.002 355.615 333.873C358.747 336.744 360.69 340.685 361.059 344.918L364.937 389.168H325.682L321.805 344.918Z" fill="#8E8E8E"/>
<path d="M287.441 329.407H304.908C309.157 329.408 313.251 331.002 316.383 333.873C319.515 336.744 321.458 340.685 321.828 344.918L325.705 389.168H419.213L423.091 344.918C423.456 340.683 425.397 336.739 428.53 333.867C431.663 330.994 435.76 329.403 440.011 329.407H457.478C458.469 329.406 459.449 329.612 460.356 330.011C461.263 330.409 462.077 330.993 462.746 331.723C463.416 332.454 463.925 333.316 464.243 334.254C464.561 335.193 464.681 336.187 464.593 337.174L463.708 347.363C463.569 348.99 462.875 350.519 461.743 351.695C460.611 352.872 459.11 353.624 457.49 353.826L455.487 354.082C454.276 354.232 453.154 354.792 452.306 355.669C451.458 356.547 450.937 357.688 450.829 358.903L445.938 414.798C445.769 416.764 444.869 418.595 443.416 419.929C441.963 421.264 440.063 422.005 438.09 422.006H306.818C304.843 422.005 302.941 421.264 301.486 419.93C300.031 418.596 299.129 416.765 298.957 414.798L294.066 358.903C293.961 357.687 293.44 356.545 292.592 355.667C291.744 354.789 290.62 354.23 289.409 354.082L287.394 353.826C285.776 353.621 284.277 352.868 283.148 351.692C282.018 350.516 281.326 348.988 281.187 347.363L280.291 337.174C280.205 336.184 280.326 335.188 280.647 334.248C280.968 333.308 281.481 332.445 282.153 331.714C282.826 330.983 283.644 330.401 284.554 330.004C285.464 329.606 286.447 329.403 287.441 329.407V329.407Z" fill="#9747FF"/>
<path d="M129.444 130.746C129.444 130.746 128.081 121.744 134.649 115.98C141.217 110.216 140.634 106.781 138.759 106.327C136.885 105.873 135.15 111.648 132.262 113.244C132.262 113.244 132.18 105.023 135.103 101.995C138.026 98.9672 139.575 91.1535 136.78 91.0254C133.985 90.8973 133.706 95.6834 133.135 99.0371C132.564 102.391 129.444 107.188 129.444 107.188C129.444 107.188 128.838 99.8406 126.952 96.8129C125.065 93.7853 130.107 86.8566 128.116 83.8289C126.125 80.8013 122.713 86.5655 123.004 93.0633C123.295 99.5611 127.662 106.466 126.602 113.255C126.602 113.255 124.693 108.493 122.981 108.062C121.269 107.631 119.487 104.475 118.323 103.311C117.158 102.146 115.738 106.187 118.323 109.937C120.908 113.686 127.557 123.712 126.544 131.817L129.444 130.746Z" fill="#8E8E8E"/>
<path d="M133.368 126.647L135.522 140.132C135.677 141.112 135.617 142.114 135.348 143.068C135.079 144.023 134.606 144.908 133.962 145.663C133.318 146.418 132.518 147.024 131.618 147.44C130.717 147.856 129.737 148.072 128.745 148.074H126.416C125.424 148.073 124.444 147.857 123.544 147.44C122.644 147.024 121.845 146.418 121.202 145.663C120.559 144.908 120.087 144.022 119.819 143.068C119.551 142.113 119.494 141.111 119.65 140.132L121.805 126.647H133.368Z" fill="#8E8E8E"/>
<path d="M100.867 150.903L252.762 150.903V143.101L100.867 143.101V150.903Z" fill="#FB7777"/>
<path d="M239.08 143.101H245.776V114.338H239.08V143.101Z" fill="#6A6A6A"/>
<path d="M206.719 143.101H213.415V114.338H206.719V143.101Z" fill="#6A6A6A"/>
<path d="M165.102 141.959L171.7 143.096L176.586 114.751L169.988 113.614L165.102 141.959Z" fill="#6A6A6A"/>
<path d="M230.789 143.09H237.484V118.111H230.789V143.09Z" fill="#6A6A6A"/>
<path d="M215.406 143.09H222.102V118.111H215.406V143.09Z" fill="#6A6A6A"/>
<path d="M176.582 143.09H183.278V118.111H176.582V143.09Z" fill="#6A6A6A"/>
<path d="M192.528 141.63L199.064 143.082L204.483 118.699L197.947 117.246L192.528 141.63Z" fill="#6A6A6A"/>
<path d="M225.013 143.101H228.355V112.906H225.013V143.101Z" fill="#6A6A6A"/>
<path d="M185.199 143.101H188.541V112.906H185.199V143.101Z" fill="#6A6A6A"/>
<path d="M252.762 201.36H100.867V209.162H252.762V201.36Z" fill="#FB7777"/>
<path d="M114.562 172.586H107.866V201.348H114.562V172.586Z" fill="#6A6A6A"/>
<path d="M146.911 172.586H140.215V201.348H146.911V172.586Z" fill="#6A6A6A"/>
<path d="M183.653 171.865L177.055 173.002L181.941 201.347L188.539 200.21L183.653 171.865Z" fill="#6A6A6A"/>
<path d="M122.853 176.382H116.157V201.36H122.853V176.382Z" fill="#6A6A6A"/>
<path d="M138.236 176.382H131.54V201.36H138.236V176.382Z" fill="#6A6A6A"/>
<path d="M177.048 176.382H170.352V201.36H177.048V176.382Z" fill="#6A6A6A"/>
<path d="M155.724 175.507L149.188 176.96L154.607 201.343L161.143 199.891L155.724 175.507Z" fill="#6A6A6A"/>
<path d="M128.629 171.165H125.287V201.36H128.629V171.165Z" fill="#6A6A6A"/>
<path d="M168.431 171.165H165.089V201.36H168.431V171.165Z" fill="#6A6A6A"/>
<path d="M238.183 178.583H205.578V201.092H238.183V178.583Z" fill="#6A6A6A"/>
<path d="M316.227 104.091L501.752 104.091C503.115 104.091 504.221 102.986 504.221 101.622V98.979C504.221 97.6156 503.115 96.5103 501.752 96.5103L316.227 96.5103C314.863 96.5103 313.758 97.6156 313.758 98.979V101.622C313.758 102.986 314.863 104.091 316.227 104.091Z" fill="#FB7777"/>
<path d="M325.065 251.479L492.902 251.479V102.542L325.065 102.542V251.479Z" fill="#8E8E8E"/>
<path d="M488.698 106.63H329.479V247.474H488.698V106.63Z" fill="#9747FF"/>
<path d="M451.33 106.63L488.698 247.171V181.133L468.972 106.63H451.33Z" fill="#EDF056"/>
<path d="M438.101 106.63L475.796 247.474H481.804L444.11 106.63H438.101Z" fill="#EDF056"/>
<path d="M329.479 195.503V218.012L337.106 247.474H343.126L329.479 195.503Z" fill="#EDF056"/>
<path d="M433.164 250.618H435.843V104.091H433.164V250.618Z" fill="#8E8E8E"/>
<path d="M381.193 250.618H383.871V104.091H381.193V250.618Z" fill="#8E8E8E"/>
<path d="M352.419 98.9438C352.419 98.9438 348.553 149.331 326.346 175.008C326.346 175.008 342.521 239.858 342.509 262.46L312.454 256.918L323.284 175.404L318.102 98.9438H352.419Z" fill="#FB7777"/>
<rect x="305.745" width="223.408" height="445.27" rx="39.8815" fill="#E04048"/>
<circle cx="398.453" cy="10.0494" r="3.09215" fill="#D9D9D9"/>
<rect x="406.957" y="7.73047" width="16.2338" height="3.86519" rx="1.93259" fill="#D9D9D9"/>
</svg>
