<svg width="1320" height="618" viewBox="0 0 1320 618" fill="none" xmlns="http://www.w3.org/2000/svg">
<path d="M1162 550.113C1161.18 553.602 1159.18 556.752 1156.31 559.095C1154.27 560.71 1147.75 563.989 1146.99 559.339C1147.23 556.465 1147.84 553.63 1148.82 550.896C1150.41 547.298 1152.13 549.648 1154.72 550.113C1157.3 550.578 1159.88 548.302 1162 550.113Z" fill="#E04048" fill-opacity="0.13"/>
<path d="M1144.25 177.545C1145.19 180.629 1145.82 183.664 1146.55 186.527C1143.94 190.027 1139.08 188.73 1135.41 190.614C1133.68 191.495 1133.19 194.75 1131.52 195.24C1129.85 195.729 1129.17 193.918 1127.89 193.943C1124.63 193.943 1123.04 200.11 1119.02 198.568C1116.72 200.11 1119.02 205.91 1116.41 206.498C1114.4 206.865 1113.3 204.05 1112.08 202.141C1110.85 200.232 1108.5 198.789 1108.45 197.026C1108.4 195.264 1111.71 192.132 1112.75 190.883C1113.8 189.635 1116.59 186.405 1118.21 185.989C1121.24 185.23 1124.32 186.307 1126.64 185.205C1128.96 184.104 1128.75 180.727 1129.82 179.821C1130.89 178.916 1131.78 179.283 1132.43 178.818C1133.91 177.548 1135 175.919 1135.56 174.11C1136.12 172.301 1136.14 170.382 1135.61 168.563C1134.86 165.7 1130.66 162.567 1133.34 159.067C1135.79 159.616 1138.03 160.796 1139.8 162.474C1141.57 164.152 1142.81 166.261 1143.36 168.563C1143.63 170.325 1142.74 172.087 1142.89 173.947C1143.26 175.174 1143.71 176.376 1144.25 177.545Z" fill="#E04048" fill-opacity="0.13"/>
<path d="M1145.16 149.743C1144.67 151.04 1143.63 150.771 1142.69 151.529C1141.75 152.288 1140.65 154.613 1139.5 154.858C1137.68 155.249 1135.61 152.851 1133.81 153.34C1132.01 153.83 1132.93 155.788 1132.22 157.941C1130.98 157.585 1129.86 156.923 1128.97 156.023C1128.09 155.124 1127.49 154.02 1127.21 152.826C1127.21 151.358 1128.86 150.379 1129.27 148.715C1129.93 145.778 1128.18 144.309 1127.21 141.544C1127.21 141.128 1127.42 141.103 1127.45 140.785C1129.66 140.247 1134.02 144.97 1139.03 145.9C1142.27 146.39 1144.98 146.047 1145.16 149.743Z" fill="#E04048" fill-opacity="0.13"/>
<path d="M1136.76 409.705C1137 411.835 1133.71 411.59 1133.34 410.219C1133.42 408.555 1136.37 408.041 1136.76 409.705Z" fill="#E04048" fill-opacity="0.13"/>
<path d="M1120.84 128.108C1123.09 129.429 1128.54 132.488 1124.71 135.278C1123.33 134.631 1122.21 133.584 1121.51 132.293C1120.81 131.001 1120.58 129.533 1120.84 128.108Z" fill="#E04048" fill-opacity="0.13"/>
<path d="M1110.38 398.447C1112.99 396.832 1115.83 393.332 1120.4 395.094C1119.38 398.276 1115.96 398.227 1113.8 399.72C1111.63 401.213 1109.75 403.783 1106.99 404.076C1106.8 403.655 1106.48 403.296 1106.07 403.048C1106.05 400.185 1108.58 399.524 1110.38 398.447Z" fill="#E04048" fill-opacity="0.13"/>
<path d="M1104.25 350.258C1106.86 350.258 1109.47 349.328 1111.29 350.503C1110.95 356.915 1102.13 352.045 1096.29 353.073C1095.04 353.293 1094.67 354.37 1093.34 353.831C1093.42 352.729 1093.89 351.682 1094.67 350.852C1095.45 350.021 1096.49 349.452 1097.65 349.23C1099.32 349.034 1101.8 350.258 1104.25 350.258Z" fill="#E04048" fill-opacity="0.13"/>
<path d="M1106.52 358.188C1106.78 361.736 1102.47 362.128 1101.3 364.869C1103.2 368.124 1103.91 372.676 1106.1 375.613C1106.1 377.571 1106.44 380.141 1105.4 380.997C1100.83 382.001 1098.38 372.725 1096.52 369.47C1093.03 370.229 1096.24 382.833 1091.54 381.267C1089.24 380.483 1091.54 376.886 1091.07 374.096C1090.6 371.306 1088.46 371.134 1088.46 369.201C1088.46 367.268 1090 365.946 1090.5 364.306C1091.23 361.981 1090.76 357.502 1093.24 357.38C1094.44 357.38 1096.08 360.268 1096.86 360.464C1099.45 361.173 1102.68 357.38 1106.52 358.188Z" fill="#E04048" fill-opacity="0.13"/>
<path d="M1098.12 396.367C1097.25 398.325 1092.58 397.395 1092.19 395.608C1093 393.577 1097.72 394.189 1098.12 396.367Z" fill="#E04048" fill-opacity="0.13"/>
<path d="M1093.78 402.534C1093.52 402.904 1093.21 403.249 1092.87 403.562C1091.15 402.926 1089.3 402.461 1088.77 400.479C1090.05 398.374 1093.73 400.112 1093.78 402.534Z" fill="#E04048" fill-opacity="0.13"/>
<path d="M1087.65 396.122C1086.48 397.958 1082.43 395.975 1081.05 397.909C1078.68 397.909 1076.3 397.909 1075.83 395.608C1076.51 393.724 1078.65 395.021 1080.37 394.85C1083.11 394.483 1086.92 392.378 1087.65 396.122Z" fill="#E04048" fill-opacity="0.13"/>
<path d="M1055.58 494.263C1055.19 492.017 1054.65 489.795 1053.99 487.606C1053.99 486.725 1053.99 485.624 1053.99 484.522C1053.67 483.258 1053.44 481.974 1053.31 480.68C1053.62 478.991 1055.37 478.795 1055.92 477.351C1056.63 474.904 1055.06 474.586 1055.01 471.698C1055.01 469.691 1056.36 468.712 1057.28 466.069C1057.69 464.845 1057.72 462.594 1058.19 461.713C1058.66 460.831 1061.3 459.706 1062.29 459.265C1065.76 457.332 1068.55 453.759 1072.07 453.098C1072.96 452.951 1074.16 453.098 1074.68 453.098C1076.74 452.706 1079.35 450.65 1082.2 450.038C1085.04 449.427 1087.42 449.598 1089.48 448.227C1092.23 446.19 1094.41 443.552 1095.82 440.543C1096.86 437.728 1096.58 435.354 1098.43 434.4C1099.42 433.935 1100.36 434.4 1101.38 434.155C1102.88 433.623 1104.27 432.835 1105.47 431.83C1107.07 430.239 1107.33 427.62 1109.1 425.956C1110.69 424.507 1112.44 423.22 1114.32 422.114C1115.42 421.486 1116.67 421.132 1117.95 421.086C1121.16 421.379 1122.64 426.421 1126.14 425.442C1127.39 425.075 1128.75 422.089 1129.79 420.303C1131.41 417.684 1132.61 414.184 1135.46 413.401C1137.78 412.765 1140.34 414.38 1141.62 412.104C1141.9 410.489 1140.52 409.534 1141.62 408.531C1144.23 408.702 1148.74 412.74 1152.73 412.862C1154.9 412.862 1158.92 410.219 1159.33 413.89C1159.54 415.53 1157.72 416.852 1157.3 418.516C1156.99 419.691 1157.74 420.327 1157.06 421.6C1155.21 422.407 1153.25 422.848 1153.2 425.173C1153.2 428.11 1156.88 429.48 1159.1 431.071C1160.64 432.172 1161.92 433.837 1162.75 434.4C1163.59 434.962 1164.55 435.085 1165.02 435.427C1166.51 436.504 1167.63 438.952 1169.59 439.025C1171.55 439.099 1174.21 435.77 1175.49 432.588C1176.66 428.663 1177.43 424.638 1177.76 420.572C1177.99 419.275 1178.8 418.002 1179.11 416.729C1180 413.205 1181.2 408.482 1183.89 407.233C1186.5 410.488 1187.54 416.778 1187.1 422.114C1188.9 423.656 1192.08 423.142 1192.53 426.715C1192.68 427.963 1191.98 429.529 1192.08 430.802C1192.24 432.98 1193.68 434.865 1193.91 436.7C1194.35 440.126 1193.41 442.941 1194.8 445.413C1196.57 448.546 1200.02 448.448 1202.31 451.825C1202.41 453.409 1202.8 454.965 1203.46 456.426C1203.67 457.209 1203.46 458.482 1203.67 458.996C1204.4 460.709 1206.28 460.88 1207.09 462.324C1207.45 463.034 1207.35 464.38 1207.77 465.653C1208.66 467.454 1209.72 469.174 1210.95 470.792C1212.16 472.375 1213.16 474.093 1213.92 475.907C1214.37 478.355 1212.72 480.215 1212.31 482.32C1212.21 485.15 1211.92 487.971 1211.42 490.763C1209.72 494.196 1207.82 497.538 1205.73 500.773C1204.13 504.058 1201.98 507.082 1199.36 509.731C1197.93 511.028 1196.21 511.786 1194.8 513.059C1192.69 515.256 1190.72 517.569 1188.9 519.985C1186.86 522.433 1184.36 524.293 1182.77 526.397C1180.42 529.432 1179.27 534.351 1175.25 534.841C1173.01 534.846 1170.78 535.193 1168.65 535.869C1165.28 537.386 1163.07 540.152 1161.4 540.225C1159.73 540.298 1158 537.9 1156.39 537.655C1154.77 537.411 1153.12 539.222 1150.46 539.197C1149.39 539.197 1148.84 538.463 1147.3 537.925C1144.04 536.75 1140.47 536.799 1140.02 532.809C1139.76 530.607 1141.25 529.628 1141.15 527.67C1141.04 525.712 1139.35 525.223 1138.54 523.583C1138.89 522.715 1138.97 521.77 1138.77 520.86C1138.57 519.95 1138.1 519.112 1137.41 518.443C1137.28 517.182 1137.61 515.916 1138.33 514.846C1136.74 515.408 1135.21 516.104 1133.76 516.926C1132.12 518.027 1130.92 520.621 1129.01 520.23C1127.11 519.838 1128.59 517.513 1128.31 515.898C1127.49 513.258 1126.18 510.773 1124.45 508.556C1122.03 507.079 1119.39 505.957 1116.62 505.227C1109.6 503.979 1105.11 508.213 1099.55 508.825C1098.12 508.752 1096.68 508.752 1095.25 508.825C1090.68 509.706 1085.59 513.72 1082.72 516.485C1078.02 517.024 1073.27 515.408 1068.39 517.024C1063.51 518.639 1060.83 523.118 1053.42 521.919C1051.93 520.499 1049.32 519.789 1049.32 517.317C1049.32 515.36 1051.93 514.087 1052.71 512.692C1054.07 510.484 1054.96 508.048 1055.32 505.521C1055.32 503.832 1054.3 501.776 1054.41 499.647C1054.75 497.714 1055.61 495.927 1055.58 494.263Z" fill="#E04048" fill-opacity="0.13"/>
<path d="M1051.72 387.41C1052.97 387.214 1053.89 386.186 1055.14 386.137C1057.75 386.137 1060.36 388.34 1063.54 387.924C1064.22 388.756 1063.75 389.441 1063.78 390.738C1066.38 392.353 1070.79 392.06 1072.18 395.094C1070.19 397.542 1067.22 395.78 1064.69 395.339C1062.16 394.899 1059.91 395.168 1057.41 394.85C1054.22 394.434 1051.35 392.402 1048.3 392.035C1046.47 391.766 1044.6 392.329 1042.85 392.035C1041.1 391.742 1033.19 388.413 1033.06 386.137C1032.93 383.861 1036.51 383.102 1039.66 383.69C1043.68 384.179 1046.47 388.242 1051.72 387.41Z" fill="#E04048" fill-opacity="0.13"/>
<path d="M1057.85 369.739C1056.13 369.176 1054.51 369.495 1053.78 368.956C1052.21 367.879 1052.45 364.82 1051.95 363.058C1051.46 361.296 1049.55 360.366 1048.54 357.943C1047.05 354.443 1046.42 346.636 1050.36 345.902C1051.93 345.608 1053.57 346.979 1054.67 346.66C1056.86 346.073 1056.49 342.867 1058.32 341.545C1059.34 340.811 1061.19 341.105 1062.63 340.517C1064.15 339.629 1065.41 338.39 1066.28 336.92C1067.22 335.647 1067.98 333.493 1069.23 332.588C1070.48 331.682 1071.84 331.511 1073.09 330.532C1076.07 327.962 1076.17 324.389 1078.54 321.305C1080.58 318.687 1083.76 323.753 1084 325.906C1085.15 327.546 1087.36 327.938 1088.33 329.749C1087 334.277 1083.11 334.644 1084 341.031C1084.28 342.528 1084.75 343.989 1085.38 345.388C1086.03 346.881 1087.99 348.52 1087.86 349.475C1087.73 351.408 1084.31 351.31 1083.55 353.317C1082.8 355.324 1083.55 355.324 1083.32 358.212C1082.35 360.317 1079.8 360.806 1078.99 363.352C1078.05 366.386 1079.14 370.327 1076.95 372.578C1075.44 372.578 1073.8 374.047 1071.97 373.851C1070.14 373.655 1068.08 370.571 1064.9 370.523C1063.7 370.523 1062.29 371.379 1061.04 371.281C1059.78 371.183 1059.34 370.18 1057.85 369.739Z" fill="#E04048" fill-opacity="0.13"/>
<path d="M1043.13 364.037C1048.93 364.037 1048.93 374.145 1043.13 374.145C1037.34 374.145 1037.37 364.037 1043.13 364.037Z" fill="#E04048" fill-opacity="0.13"/>
<path d="M1034.65 362.813C1036.21 364.198 1037.32 365.973 1037.84 367.928C1037.84 369.739 1035.36 369.641 1034.65 372.04C1033.58 375.711 1035.15 379.896 1033.3 381.829C1032.28 382.539 1030.4 382.319 1028.76 382.343C1024.67 378.887 1021.01 375.012 1017.85 370.792C1016.46 369.381 1015.24 367.839 1014.19 366.191C1013.02 363.743 1012.6 361.051 1011.25 358.848C1009.89 356.646 1007.85 355.422 1006.71 353.219C1005.74 351.433 1005.66 349.059 1004.64 347.321C1003.63 345.584 1002.03 345.021 1001.02 343.748C1000.29 342.891 999.869 341.594 999.19 340.664C996.346 336.797 990.84 334.79 990.553 329.137C991.727 327.644 992.927 329.7 995.093 330.165C996.502 330.459 998.173 330.165 999.19 330.41C1001.25 331.193 1002.69 334.839 1004.88 336.822C1006.11 337.923 1007.7 338.706 1008.98 339.881C1010.25 341.056 1011.3 342.989 1012.37 343.748C1013.86 344.751 1015.92 345.437 1017.85 346.807C1020.46 348.692 1025.15 350.65 1025.68 354.517C1025.83 355.471 1025.26 357.086 1025.44 357.821C1025.75 359.167 1027.27 359.754 1028.05 360.904C1028.83 362.055 1029.41 364.477 1031.03 364.747C1032.64 365.016 1032.93 362.666 1034.65 362.813Z" fill="#E04048" fill-opacity="0.13"/>
<path d="M927.351 308.995C929.308 309.729 935.832 318.785 933.927 323.679C933.512 324.577 932.809 325.33 931.915 325.835C931.022 326.339 929.983 326.57 928.943 326.494C924.429 325.686 925.29 314.404 926.647 309.851C926.688 309.668 926.773 309.496 926.895 309.348C927.017 309.2 927.173 309.079 927.351 308.995Z" fill="#E04048" fill-opacity="0.13"/>
<path d="M776.131 438.658C776.413 436.22 777.436 433.909 779.08 432.001C781.194 430.239 784.012 430.41 786.126 429.187C788.259 428.007 790.115 426.434 791.58 424.561C792.676 422.97 792.754 421.135 793.641 419.96C794.528 418.785 795.624 418.908 796.251 417.904C796.877 416.901 796.772 415.31 797.842 414.331C801.026 412.789 801.913 419.226 802.409 423.802C802.539 425.197 803.192 426.69 803.087 427.376C802.748 429.431 800.765 429.823 800.139 431.242C799.739 436.442 798.425 441.545 796.251 446.343C794.737 450.332 793.876 454.689 792.623 458.139C792.18 459.388 791.214 460.366 790.797 461.468C789.179 465.824 788.553 472.677 785.578 474.537C783.573 475.453 781.422 476.057 779.211 476.324C777.773 476.168 776.425 475.59 775.361 474.671C774.296 473.751 773.57 472.539 773.287 471.208C772.922 469.74 773.287 468.223 773.078 466.583C772.418 464.589 772.032 462.525 771.93 460.44C772.426 455.227 776.94 452.682 777.149 448.399C777.514 445.168 775.818 441.938 776.131 438.658Z" fill="#E04048" fill-opacity="0.13"/>
<path d="M666.533 74.0201C666.794 78.3275 660.714 77.7891 659.931 81.3623C659.592 83.0265 660.636 85.2537 660.401 86.7466C659.931 89.4387 657.609 88.6555 654.712 90.075C653.225 90.8092 651.789 93.4769 650.172 93.6482C648.554 93.8196 647.745 92.6693 646.753 92.8896C645.266 93.2077 645.762 95.3369 643.57 95.7041C641.821 96.0467 638.768 93.9419 638.559 96.4872C638.429 98.1025 641.299 98.9346 643.1 98.7878C644.9 98.6409 645.579 97.5151 646.962 97.5151C649.571 97.5151 651.424 99.7668 653.12 99.8157C657.008 99.9381 660.949 95.753 664.941 96.218C666.794 96.4383 667.89 97.9067 669.273 97.7599C671.465 97.5396 673.318 94.6762 674.936 93.6482C674.257 89.3408 674.936 83.6384 678.589 83.4181C681.042 83.2468 684.721 88.1416 685.165 83.4181C685.207 82.4973 684.884 81.5944 684.257 80.8845C683.63 80.1746 682.745 79.7082 681.772 79.5757C680.468 79.5757 678.745 82.4881 677.676 80.0896C677.676 77.6422 680.024 78.352 681.303 77.6422C682.581 76.9325 682.973 76.027 684.043 75.6109C689.444 73.4572 696.96 77.7157 699.047 72.5272C694.246 67.9261 686 74.2159 680.624 73.7998C679.25 73.6351 677.951 73.1186 676.869 72.307C675.787 71.4954 674.965 70.4199 674.492 69.1987C674.257 68.4155 674.492 67.3387 674.257 65.8703C674.022 64.4018 673.292 62.5173 673.344 61.5139C673.579 56.8883 683.782 56.0072 683.782 50.2314C682.38 49.2496 680.653 48.763 678.907 48.857C677.16 48.951 675.504 49.6196 674.231 50.7453C673.553 51.553 673.605 53.1927 672.639 54.857C670.604 58.3567 664.028 58.7728 661.966 63.0558C661.218 64.6644 660.904 66.4213 661.053 68.1708C661.601 70.814 666.377 71.4258 666.533 74.0201ZM612.412 324.634C605.863 323.557 599.156 326.518 594.668 328.721C592.058 329.994 589.449 331.951 587.179 332.049C584.908 332.147 582.899 330.777 580.811 330.532C577.843 330.275 574.851 330.448 571.939 331.046C569.33 331.56 566.955 333.665 564.659 333.861C560.249 334.228 556.074 329.382 553.281 326.934C551.611 325.441 549.889 324.242 548.297 322.847C546.706 321.452 544.383 320.4 543.078 319.005C541.304 317.047 541.304 313.645 540.469 311.051C539.347 307.991 535.981 305.74 533.423 302.852C531.492 300.674 527.082 297.443 526.586 294.653C526.352 293.234 527.134 291.594 527.056 290.028C526.926 287.8 525.438 286.528 525.464 284.912C525.464 282.661 527.865 280.923 528.413 279.014C528.7 278.06 528.57 276.689 528.857 275.441C529.509 272.822 531.023 271.305 530.683 267.487C530.553 265.97 529.405 264.599 529.326 262.592C529.326 261.246 530.109 260.512 530.005 259.264C529.822 257.086 527.395 256.645 527.056 254.149C526.717 251.652 529.248 249.401 530.683 246.464C531.336 245.142 531.701 243.111 532.275 242.107C533.554 239.929 535.641 238.877 536.607 236.723C537.311 235.132 537.546 232.783 538.199 231.584C538.851 230.384 540.808 229.136 542.296 227.227C543.574 225.612 544.096 223.63 544.905 222.871C546.198 222.138 547.571 221.539 549.002 221.084C553.223 219.083 556.531 215.72 558.318 211.613C557.742 208.597 558.394 205.487 560.144 202.9C561.089 200.321 562.735 198.018 564.92 196.219C567.764 194.408 570.426 194.261 572.409 190.859C573.718 188.903 574.605 186.724 575.018 184.447C574.985 183.148 574.563 181.884 573.802 180.798C573.041 179.712 571.971 178.848 570.713 178.304C568.651 177.912 565.494 180.041 564.346 177.521C563.98 176.713 564.476 174.828 564.346 173.947C564.085 172.259 562.806 171.084 562.754 169.836C562.754 167.388 564.841 164.941 565.363 162.151C566.224 158.382 565.363 155.494 565.155 151.138C568.312 145.484 575.384 148.299 582.429 148.837C583.473 148.837 584.7 148.543 585.848 148.568C590.023 148.69 593.285 150.11 594.694 146.12C595.353 143.252 595.59 140.312 595.399 137.383C594.355 134.702 592.719 132.258 590.597 130.212C588.353 128.597 585.091 129.307 583.786 126.37C584.83 121.328 589.866 125.538 592.893 124.339C594.433 123.727 594.25 120.716 595.503 120.227C596.442 119.909 597.643 121.279 598.921 121.255C601.132 120.549 603.203 119.507 605.054 118.171C606.515 117.07 606.959 114.769 608.237 113.815C609.098 113.179 610.247 113.252 611.212 112.787C613.431 111.654 615.363 110.085 616.875 108.186C618.753 105.738 619.615 102.508 621.885 102.043C624.938 101.406 631.827 102.728 632.323 98.9591C632.819 95.1901 629.531 92.5714 630.731 88.7045C631.67 85.6697 634.123 86.2571 637.542 84.3481C639.212 85.6697 638.716 89.4632 638.925 91.6903C641.038 91.6903 645.318 90.9806 645.735 88.8758C646.257 86.2326 642.656 83.5405 641.873 81.9497C641.091 80.3589 640.83 77.2017 639.134 76.8346C635.689 76.0759 632.323 82.1944 627.991 82.1944C626.506 82.0661 625.094 81.5348 623.926 80.6655C622.758 79.7962 621.886 78.6265 621.415 77.2996C621.205 75.9385 621.126 74.5624 621.18 73.188C620.453 70.8618 620.145 68.4384 620.267 66.0171C622.015 62.6642 626.034 62.1013 628.904 60.3636C630 59.7273 630.888 58.3323 632.088 57.9162C634.123 57.0596 637.15 57.9162 639.134 56.6191C640.412 55.8114 640.047 54.4164 640.96 52.7767C641.534 51.7488 642.917 51.1614 643.57 49.9622C644.092 49.1545 644.144 47.9064 644.692 47.1477C646.675 44.3821 650.276 43.3542 651.737 40.4907C652.39 39.2181 650.615 38.7531 651.059 36.8931C651.502 35.033 654.634 36.4281 656.278 36.1344C658.548 35.7428 660.636 32.6346 663.115 32.0227C665.76 31.8216 668.38 31.3957 670.943 30.7501C672.378 30.1382 673.553 28.6698 675.04 28.4495C675.51 28.4495 676.867 28.7432 677.649 28.6942C678.432 28.6453 679.45 28.0579 680.598 27.9356C682.581 28.0062 684.559 28.1778 686.522 28.4495C690.123 28.4495 693.515 27.2258 696.516 28.6942C698.082 29.4774 697.899 31.4598 699.934 32.2919C700.952 32.708 702.283 32.1206 703.797 32.2919C706.015 32.5367 708.337 34.2499 711.286 34.5925C712.356 34.7149 713.426 34.4456 714.469 34.5925C717.943 35.4341 721.305 36.6409 724.49 38.1902C727.099 39.1936 732.788 40.4662 732.892 43.3052C732.892 46.6826 727.986 47.6616 725.847 47.6616C722.272 47.6616 717.522 45.2142 713.791 46.6337C713.785 47.9284 714.062 49.2105 714.605 50.4008C715.148 51.5911 715.945 52.6644 716.948 53.5543C717.951 54.4442 719.137 55.1318 720.434 55.5748C721.732 56.0177 723.112 56.2066 724.49 56.1296C724.933 53.3885 721.619 54.9059 721.88 52.2627C724.15 50.3537 726.864 53.5599 730.074 53.0459C731.327 52.6543 731.118 50.5985 731.431 49.2035C734.04 47.3434 737.511 44.6268 741.66 46.7561C741.857 46.3405 742.173 45.9846 742.573 45.7282C742.834 42.9137 739.964 41.4452 741.425 38.8265C742.234 36.9909 746.462 37.6273 747.114 39.0712C747.766 40.5152 746.07 40.6131 746.201 42.1549C746.453 42.8632 746.948 43.4732 747.609 43.8894C748.27 44.3057 749.059 44.5048 749.854 44.4555C752.072 44.4555 752.463 42.0081 754.629 40.8578C755.464 40.3928 756.717 40.3194 757.813 39.8544C758.909 39.3894 760.188 38.0923 761.231 37.7986C762.275 37.5049 763.11 37.7986 764.18 37.5294C765.25 37.2601 766.946 35.9875 768.042 36.012C769.138 36.0365 770.391 37.7986 772.139 38.0433C773.078 38.1902 774.174 37.456 775.531 37.2846C776.888 37.1133 777.801 37.4315 778.715 37.2846C780.907 36.9175 782.394 35.6449 784.195 35.7428C785.447 35.7428 787.639 37.7496 788.5 36.7707C789.962 35.1309 786.543 33.9072 787.613 32.4143C791.084 32.708 794.789 32.6101 798.286 33.173C803.505 34.0051 808.385 36.9175 813.056 37.0154C812.612 33.4667 809.011 34.568 807.367 32.9283C806.198 31.2899 805.358 29.4653 804.888 27.544C805.703 25.3918 806.77 23.3314 808.072 21.401C810.055 19.2718 816.631 19.2962 818.509 22.1597C819.814 24.1176 819.371 27.0545 821.249 27.0545C823.128 27.0545 823.702 22.5513 825.581 22.4534C827.46 22.3555 827.877 25.2924 829.443 25.2679C831.009 25.2434 832.627 21.2542 835.106 21.1563C836.463 21.1563 836.906 21.9395 838.994 22.1842C840.403 21.1563 838.498 19.7368 839.203 18.3418C841.812 16.2615 847.553 17.8523 850.815 16.5552C851.702 15.3315 849.641 14.4749 850.58 13.2267C853.372 10.9996 858.095 10.7793 862.871 9.89824C865.767 9.33534 868.533 7.03478 870.699 6.81451C872.865 6.59425 875.37 8.38086 877.536 8.35639C878.959 8.25993 880.349 7.91111 881.633 7.32846C882.912 6.76556 883.773 5.37056 885.051 5.02792C887.318 4.86865 889.595 4.86865 891.862 5.02792C893.931 4.44071 896.07 4.09545 898.229 4C899.873 4.29369 901.204 6.27608 902.77 6.4474C907.571 7.30399 912.503 5.63977 916.861 6.96137C917.644 7.20611 918.427 8.11164 919.47 8.50322C922.393 9.70245 924.402 9.33534 924.95 13.398C927.247 14.328 928.578 16.702 931.291 17.5097C933.118 18.0481 934.945 17.2404 936.98 17.2404C939.8 17.2045 942.618 17.3763 945.409 17.7544C946.713 17.9747 947.783 19.0515 949.036 19.2962C950.288 19.541 951.176 19.2962 952.22 19.2962C953.491 19.616 954.78 19.8693 956.082 20.0549C958.456 20.0549 960.283 17.6075 962.214 17.2404C963.372 17.2742 964.521 17.4469 965.632 17.7544C969.468 18.1215 973.878 17.1915 977.01 18.0236C979.374 19.0213 981.529 20.4052 983.377 22.1108C984.708 23.2611 985.517 25.0966 986.769 25.9532C988.371 27.0786 990.261 27.7877 992.249 28.009C993.684 27.7398 993.763 25.9287 995.198 25.1945C999.712 24.0687 1007.72 26.8098 1011.35 24.9253C1012.73 24.1911 1012.47 22.4779 1013.62 21.5968C1020.43 21.2297 1027.24 21.915 1033.64 22.1108C1035.82 21.8747 1038.02 21.7929 1040.21 21.866C1042.48 22.3066 1044.13 24.8519 1046.34 25.7085C1047.86 26.2714 1050.47 25.9777 1052.71 26.4671C1054.22 26.8098 1055.48 27.8132 1056.57 28.009C1058.94 28.1352 1061.32 27.9624 1063.64 27.495C1068.86 27.03 1075.57 26.7119 1080.68 29.0369C1083.29 30.2606 1084.57 32.757 1087.52 33.1241C1091.72 33.6625 1098.22 32.7325 1102.53 33.1241C1103.38 33.3474 1104.25 33.519 1105.14 33.638C1106.6 33.5156 1107.46 32.1451 1109.23 32.0961C1111.48 32.0961 1115.08 36.0609 1118.34 35.4491C1119.75 34.3722 1117.22 33.0017 1118.55 31.8514C1119.88 30.7011 1121.6 31.8514 1123.56 31.8514C1124.63 31.8514 1125.96 31.2395 1126.98 31.3374C1129.59 31.5822 1131.86 34.103 1134.94 34.9351C1137.83 35.6229 1140.84 35.7973 1143.81 35.4491C1145.8 34.9076 1147.87 34.6437 1149.94 34.6659C1150.96 34.8372 1151.85 35.6449 1152.89 35.963C1153.93 36.2812 1154.82 35.963 1155.63 36.2078C1156.44 36.4525 1157.14 37.2357 1157.9 37.4804C1162.13 38.851 1167.76 39.5118 1172.23 41.0781C1174.83 41.9837 1177.44 43.8192 1179.74 43.8926C1180.81 43.8926 1181.78 43.3786 1183.13 43.3786C1190.02 43.3786 1198.09 46.6582 1197.46 53.878C1189.42 55.8849 1182.69 47.6616 1174.26 50.0356C1173.5 50.3339 1172.85 50.8328 1172.39 51.4714C1171.92 52.11 1171.67 52.861 1171.65 53.6333C1171.96 58.0875 1182.09 57.7204 1182.79 62.0768C1181.15 63.4718 1179.35 62.0768 1178.02 62.346C1175.4 63.1391 1173.05 64.5461 1171.18 66.4332C1169.64 68.0729 1168.31 72.2335 1166.64 72.6006C1164.97 72.9677 1161.42 70.3245 1158.45 71.0588C1157.33 71.328 1156.26 72.8943 1155.26 73.1146C1152.65 73.653 1149.57 71.5727 1148.01 74.9012C1148.84 77.3486 1148.32 80.5057 1150.04 81.8273C1151.17 82.6594 1152.65 81.9986 1153.91 82.586C1155.16 83.1734 1156.39 85.4495 1157.77 86.6976C1159.15 87.9458 1160.12 87.7255 1160.74 88.9982C1160.74 90.8827 1160.06 91.0785 1160.27 92.3266C1160.64 94.4803 1163.61 94.9699 1163.69 96.4138C1163.69 98.2738 1161.81 97.8823 1161.42 99.7423C1161.27 100.942 1162.65 101.26 1162.78 102.826C1162.78 103.878 1162.02 104.955 1162.1 106.154C1162.1 107.868 1163.41 108.993 1163.22 110.511C1163.13 111.094 1162.91 111.651 1162.55 112.139C1162.2 112.627 1161.73 113.033 1161.19 113.325C1156.83 110.193 1152.91 105.836 1148.14 101.798C1143.36 97.7599 1135.74 92.5714 1134.96 83.8586C1134.96 82.5371 1137.57 81.4113 1137.91 79.5023C1138.09 78.6946 1137.62 77.5444 1137.7 76.443C1137.86 73.4327 1140.05 70.5448 1139.97 68.7582C1139.21 66.1747 1137.42 63.966 1134.96 62.5907C1133.63 63.3739 1134.96 65.0381 1134.73 66.1884C1134.56 67.0204 1134.15 67.7935 1133.55 68.4235C1132.95 69.0536 1132.17 69.5164 1131.31 69.7616C1127.03 70.2022 1126.53 63.5208 1119.72 65.4297C1118.37 66.0984 1117.29 67.1578 1116.64 68.4501C1115.99 69.7425 1115.79 71.1983 1116.1 72.6006C1116.28 73.7019 1119.02 74.9256 1118.7 76.443C1118.39 77.9604 1112.52 78.352 1111.22 78.2296C1107.54 77.9115 1105.66 74.8033 1102.34 74.9012C1100.73 74.9012 1099.29 76.443 1098.01 76.6877C1090.86 78.1562 1080.21 72.723 1077.79 79.7715C1077.45 80.7505 1077.63 82.0721 1077.32 83.1C1076.87 84.5684 1075.83 85.7432 1075.52 86.6976C1075.2 87.6521 1075.28 89.145 1074.81 90.2708C1074.34 91.3966 1070.12 95.7775 1073.93 96.9278C1074.81 97.2214 1075.26 96.4872 1076.54 96.683C1078.47 96.9767 1081.75 100.501 1084.02 100.525C1085.41 100.525 1087.29 98.7878 1088.33 98.7388C1090.44 98.6165 1091.98 100.158 1093.55 101.039C1095.11 101.92 1097.41 103.658 1098.56 103.487C1100.7 103.487 1099.68 101.7 1101.74 101.039C1105.66 102.337 1107.51 107.036 1111.29 110.829C1112.65 112.175 1114.66 113.276 1116.51 115.185C1117.53 116.213 1120.71 118.979 1120.84 120.3C1120.97 121.622 1119.96 122.038 1119.7 123.115C1119.33 124.681 1120.19 125.832 1119.25 126.957C1115.63 125.44 1114.79 121.426 1112.18 118C1111.22 116.727 1110.25 115.21 1108.79 113.374C1108.11 112.567 1105.71 109.679 1104.22 110.315C1101.38 111.539 1105.79 116.409 1106.52 117.486C1108.31 119.771 1109.54 122.393 1110.15 125.171C1110.15 126.688 1109.26 129.478 1109.23 132.097C1109.23 133.859 1109.62 135.45 1109.47 136.992C1109.04 138.652 1108.51 140.287 1107.88 141.886C1107.33 143.746 1107.22 145.998 1106.75 147.246C1106.26 148.414 1105.5 149.464 1104.52 150.32C1103.54 151.175 1102.37 151.814 1101.09 152.19C1099.19 152.19 1098.48 150.55 1096.52 150.648C1093.73 150.795 1093.21 153.707 1091.54 156.032C1091.67 158.48 1092.37 159.41 1091.98 161.148C1091.38 163.864 1088.02 164.329 1088.12 167.046C1088.23 169.762 1091.2 170.032 1092.66 171.157C1095.52 173.391 1098.05 175.976 1100.18 178.842C1101.79 180.96 1102.81 183.427 1103.13 186.013C1102.97 188.461 1096.5 192.058 1093.81 191.128C1091.12 190.198 1092.14 187.506 1091.54 184.985C1091.07 183.052 1089.71 182.195 1088.93 180.629C1088.57 179.797 1088.75 178.475 1088.25 177.545C1086.87 174.951 1084.47 176.37 1081.65 174.731C1079.8 173.654 1080.35 171.402 1079.61 169.346C1078.62 166.581 1074.4 165.284 1071.21 166.018C1068.76 166.556 1068 168.857 1065.73 169.346C1062.39 167.119 1066.41 161.637 1062.34 161.148C1059.18 160.78 1057.12 166.214 1055.27 167.804C1054.04 168.881 1051.8 169.102 1051.64 170.619C1051.38 173.458 1054.25 172.871 1056.62 173.972C1059 175.073 1059.03 177.667 1060.96 177.814C1062.89 177.961 1063.57 175.905 1065.29 175.759C1067.79 175.691 1070.22 176.513 1072.1 178.059C1070.98 181.167 1064.84 183.443 1064.82 187.555C1064.82 190.002 1067.27 190.32 1069.15 191.911C1071.03 193.502 1072.83 196.977 1075.05 199.596C1076.01 200.722 1077.66 201.456 1078.02 202.044C1079.07 203.757 1078.91 205.813 1080.06 206.938C1080.27 208.358 1079.48 208.7 1079.61 210.022C1080.16 211.858 1082.69 211.515 1083.24 213.351C1082.77 217.78 1084.42 221.941 1081.21 223.605C1079.72 231.535 1078.05 237.727 1073.25 242.059C1068.92 245.925 1063.23 247.076 1058.01 248.96C1056.65 249.45 1055.58 251.065 1054.38 251.53C1051.35 252.68 1045.95 251.995 1045.74 256.156C1045.61 258.187 1048.04 259.435 1048.22 261.515C1048.51 264.721 1045.98 267.952 1044.13 268.197C1043.05 268.238 1042 267.885 1041.2 267.214C1040.39 266.543 1039.9 265.605 1039.82 264.599C1039.64 261.54 1043.19 260.292 1043.45 258.456C1043.56 257.675 1043.49 256.88 1043.25 256.127C1043 255.373 1042.58 254.679 1042.02 254.092C1041.46 253.506 1040.77 253.04 1040 252.729C1039.22 252.417 1038.39 252.267 1037.55 252.289C1034.55 252.558 1027.71 259.337 1027.56 263.057C1027.42 265.847 1032.44 271.623 1034.13 273.312C1040.52 279.651 1047.31 283.444 1046.19 298.936C1044.6 302.852 1040.5 303.684 1037.31 305.862C1034.89 307.502 1033.69 312.593 1029.49 313.033C1027.84 312.397 1028.81 309.509 1028.34 308.138C1027.71 306.303 1024.48 305.397 1022.44 303.513C1020.41 301.628 1020.07 299.548 1018.79 298.128C1017.51 296.709 1014.82 295.999 1012.89 294.8C1011.66 294.066 1010.7 291.423 1009.47 291.472C1007.46 291.472 1008.17 293.748 1007.64 297.37C1007.12 300.992 1004.83 303.684 1005.61 307.869C1005.92 309.607 1007.83 311.002 1008.79 312.764C1010.36 315.676 1010.59 319.054 1012.19 320.718C1013.26 321.819 1015.08 322.04 1016.28 323.019C1019.33 325.374 1021.88 328.247 1023.8 331.487C1024.79 334.179 1023.8 337.36 1024.48 340.199C1025.23 343.479 1029.04 345.828 1026.75 349.157C1024.56 348.434 1022.55 347.302 1020.85 345.828C1017.98 343.846 1015.7 341.198 1014.25 338.143C1013.56 337.157 1012.95 336.127 1012.42 335.06C1011.64 332.759 1011.79 330.165 1011.06 327.375C1009.98 324.361 1008.28 321.576 1006.05 319.176C1004.46 317.487 1001.62 316.484 1001.51 314.061C1001.36 310.61 1002.53 306.572 1002.43 302.509C1002.43 301.653 1001.88 300.772 1001.75 299.695C1001.51 297.737 1001.9 295.338 1001.51 293.552C1000.97 291.966 1000.28 290.427 999.451 288.951C998.851 287.458 998.225 285.989 997.651 284.056C996.737 281.095 995.694 275.368 993.554 275.074C991.414 274.78 989.013 279.969 986.038 279.969C985.178 279.882 984.365 279.553 983.708 279.024C983.052 278.495 982.581 277.792 982.359 277.007C982.072 275.441 983.09 273.85 983.064 272.113C983.064 268.662 980.793 267.34 979.175 264.917C978.523 263.963 978.367 262.47 977.819 261.858C976.775 260.463 974.818 259.68 973.487 258.26C972.212 256.866 971.142 255.319 970.303 253.659C969.442 251.652 969.155 249.058 967.824 248.764C966.493 248.471 965.058 250.575 963.727 251.065C961.726 251.684 959.662 252.11 957.569 252.338C953.028 252.705 949.323 251.334 949.74 257.477C949.036 260.243 946.452 260.267 944.73 261.564C942.564 263.229 940.973 266.581 938.598 269.249C937.45 270.571 935.78 271.378 934.736 272.578C933.692 273.777 933.614 275.221 932.701 276.175C930.274 278.77 926.62 278.99 924.872 282.587C924.872 286.846 926.646 290.077 926.229 294.115C926.02 295.95 924.794 297.59 924.637 299.499C924.81 301.199 924.888 302.906 924.872 304.614C924.663 305.544 923.75 306.034 923.045 307.184C922.341 308.334 922.158 309.631 921.689 310.268C920.906 311.369 919.653 312.128 918.949 313.082C917.8 314.624 917.539 315.725 916.339 315.897C911.355 316.704 910.129 306.107 907.937 301.555C906.919 299.499 904.857 297.639 903.84 295.143C902.822 292.646 902.3 288.657 900.656 285.353C899.003 282.629 897.555 279.799 896.324 276.885C895.515 274.438 894.811 271.403 894.054 268.686C893.178 265.845 892.567 262.938 892.227 259.998C892.045 256.67 892.802 254.614 890.401 253.317C888.235 253.904 887.243 256.4 884.738 256.4C882.233 256.4 875.788 251.652 877.693 247.418C876.101 244.971 872.108 243.502 869.055 240.517C867.307 238.803 865.715 234.716 862.688 234.374C861.757 234.448 860.838 234.62 859.948 234.888C858.017 235.059 854.729 234.692 852.433 234.888C849.282 235.412 846.075 235.577 842.882 235.377C840.664 235.108 837.898 234.618 835.628 234.374C832.576 234.25 829.637 233.26 827.199 231.535C826.207 230.507 825.79 227.129 824.015 226.64C822.241 226.15 820.754 227.913 818.797 228.426C814.621 229.503 811.151 227.448 808.359 225.343C806.349 223.85 804.549 223.067 803.14 222.014C799.669 219.396 799.043 211.564 793.798 211.515C792.655 211.493 791.538 211.834 790.628 212.483C789.719 213.131 789.07 214.05 788.787 215.088C789.173 217.213 790.065 219.23 791.397 220.986C794.006 225.049 798.651 226.566 800.06 232C801 232.416 802.905 231.07 803.922 232.269C804.784 234.594 803.922 238.926 805.958 239.954C815.404 241.716 818.118 235.867 822.345 231.755C824.798 233.566 823.989 235.132 824.824 237.139C825.502 238.984 826.876 240.534 828.686 241.496C829.835 241.985 831.296 241.496 833.018 242.254C835.496 244.086 837.451 246.466 838.707 249.18C837.9 252.007 836.595 254.687 834.845 257.11C833.932 258.383 832.549 259.043 832.105 260.194C831.661 261.344 831.896 262.959 831.661 263.522C831.244 264.55 829.182 265.97 828.008 267.12C826.781 268.289 825.492 269.4 824.146 270.448C822.711 271.672 821.824 273.385 820.284 274.022C817.257 275.294 814.387 274.756 811.881 276.469C810.237 277.668 810.237 280.385 808.228 281.853C806.219 283.322 802.618 283.371 799.591 284.937C797.66 285.916 796.485 287.849 794.815 288.51C794.137 288.779 793.276 288.51 792.545 288.779C791.032 289.195 789.649 290.419 788.213 290.811C786.778 291.202 785.917 290.982 784.821 291.325C781.298 292.475 778.089 296.489 774.592 294.139C772.922 289.832 772.661 284.35 770.704 280.556C769.738 278.623 767.781 278.109 767.077 275.955C767.077 274.315 768.747 274.756 768.903 273.508C768.303 270.742 766.007 269.469 764.571 267.12C763.893 265.97 763.554 264.33 762.771 263.008C760.161 258.578 754.708 256.253 753.664 250.771C753.377 249.254 753.664 248.079 753.429 246.904C752.933 244.978 752.047 243.158 750.819 241.545C749.932 240.394 748.21 239.636 747.166 237.947C746.514 236.846 746.357 235.279 745.809 234.104C743.579 229.547 740.495 225.402 736.702 221.867C734.849 222.186 732.866 222.333 731.953 223.679C732.862 226.796 734.158 229.802 735.815 232.636C737.493 235.251 738.934 237.993 740.121 240.835C740.486 241.912 740.408 243.282 740.799 244.433C742.234 248.495 746.723 249.743 747.636 254.418C748.236 257.575 747.505 259.729 748.314 262.886C749.123 266.043 753.038 267.781 754.681 270.571C756.012 273.018 756.012 276.273 756.952 278.5C758.309 281.804 762.171 283.224 764.911 285.426C767.2 287.682 769.327 290.077 771.278 292.597C772.478 293.845 774.174 294.066 774.461 295.412C774.853 297.149 773.809 297.737 773.548 299.254C775.296 301.31 776.993 305.104 779.915 305.422C781.116 305.422 782.525 304.174 784.456 303.88C785.395 303.733 786.413 304.027 787.196 303.88C788.396 303.635 789.466 302.411 790.823 302.093C793.145 301.53 795.859 301.751 798.782 301.31C801.704 300.87 803.479 298.251 805.619 299.01C807.941 301.897 806.271 305.177 805.619 307.967C805.384 308.97 805.384 309.974 805.175 310.806C803.923 315.358 800.713 318.736 799.251 322.847C798.782 324.095 798.86 325.637 798.338 326.934C796.243 331.091 793.567 334.968 790.379 338.462C789.001 340.276 787.484 341.994 785.839 343.601C784.195 345.094 782.212 346.049 780.359 347.444C776.479 350.737 773.115 354.527 770.364 358.702C769.373 360.243 768.903 362.03 767.755 363.327C766.268 365.187 763.997 366.117 762.771 367.928C761.703 370.097 760.788 372.329 760.031 374.61C758.778 377.522 756.169 379.504 756.612 383.567C756.795 385.109 758.022 386.015 758.439 387.679C758.907 390.311 758.827 393.004 758.204 395.608C759.483 399.133 760.422 402.951 762.771 405.398C763.032 410.586 762.379 415.604 762.771 420.082C763.006 422.872 763.971 424.977 762.98 427.425C761.537 430.364 759.447 432.983 756.847 435.109C754.708 436.676 751.42 437.092 749.019 438.976C747.401 440.273 746.07 442.574 744.452 444.091C741.843 446.539 738.111 448.986 737.876 451.434C738.087 453.187 738.543 454.907 739.233 456.549C740.514 460.896 740.595 465.478 739.468 469.862C737.824 474.292 729.474 473.387 728.534 478.061C728.274 479.481 729.109 480.631 729.004 482.173C728.496 484.682 727.736 487.14 726.734 489.515C725.716 491.644 723.446 492.599 721.959 494.41C720.106 496.686 719.14 499.99 717.183 502.364C714.241 505.798 710.965 508.969 707.398 511.835C703.644 514.775 699.071 516.643 694.22 517.22C691.454 517.44 688.479 516.485 685.582 516.975C684.512 517.146 683.338 518.248 681.929 518.517C681.12 518.664 680.285 518.345 679.32 518.517C677.91 518.786 676.554 520.059 675.249 520.034C672.3 520.034 668.516 516.045 668.412 512.105C668.412 510.587 669.56 509.143 669.56 507.748C669.56 506.353 667.76 504.053 666.377 501.091C664.994 498.13 664.524 494.973 663.193 492.623C661.862 490.274 659.905 488.952 658.861 486.994C656.774 483.054 656.617 478.379 655.912 473.656C655.678 472.114 654.738 470.45 654.529 468.541C654.583 466.23 654.514 463.919 654.321 461.615C653.534 459.924 652.618 458.288 651.581 456.72C649.989 453.391 648.971 449.06 647.484 446.49C645.996 443.92 643.622 441.595 643.413 438.805C643.364 436.399 643.512 433.994 643.857 431.61C644.092 429.823 645.292 428.403 645.683 426.495C645.944 425.246 645.683 423.778 645.892 422.407C647.066 416.534 652.781 414.404 652.05 407.282C651.711 404.248 649.832 402.755 649.441 399.328C649.31 397.713 650.145 396.318 650.119 394.727C649.62 392.177 648.742 389.706 647.51 387.385C645.214 381.732 643.804 376.568 640.464 372.26C638.664 369.935 636.263 368.271 634.776 366.117C633.46 364.164 632.573 361.984 632.166 359.705C632.166 358.261 633.158 357.258 633.523 355.863C633.993 353.978 634.019 350.405 634.645 347.419C635.623 345.253 636.282 342.972 636.602 340.64C636.278 339.185 635.623 337.814 634.682 336.618C633.74 335.423 632.535 334.432 631.148 333.714C627.965 332.833 624.703 334.864 620.711 334.497C617.136 331.903 617.396 325.441 612.412 324.634ZM738.163 416.362C739.207 414.478 740.538 409.191 738.163 407.919H737.694C736.676 410.048 735.606 415.163 738.163 416.362ZM734.98 362.813C735.737 361.027 737.589 359.167 737.25 356.915C736.598 352.02 728.404 354.468 727.465 357.943C726.838 360.39 727.856 362.201 727.021 364.6C727.908 366.509 730.152 366.876 732.918 366.656C734.458 365.897 734.275 364.428 734.98 362.813ZM721.097 389.221C722.011 387.336 719.662 386.088 719.297 384.081C718.827 381.634 719.793 378.942 717.914 377.669H717.235C715.591 381.878 717.914 388.805 721.097 389.221ZM876.179 134.691C875.318 132.758 872.865 135.254 873.909 136.992C875.448 137.187 875.996 136.184 876.179 134.765V134.691ZM823.207 145.19C826.886 144.383 823.207 137.848 820.467 138.534C816.839 139.635 820.675 145.802 823.207 145.264V145.19ZM806.375 178.255C807.497 169.371 801.365 168.685 800.243 162.347C800.765 162.347 800.478 161.613 800.922 161.588C802.409 160.78 804.679 162.885 805.462 160.829C805.448 160.082 805.231 159.35 804.832 158.702C804.432 158.055 803.864 157.514 803.18 157.129C802.496 156.745 801.719 156.53 800.922 156.505C800.125 156.48 799.335 156.646 798.625 156.987C797.66 156.228 797.529 154.54 797.268 152.875C794.659 151.162 788.318 147.369 788.396 143.918C788.396 141.054 791.736 139.464 795.468 139.561C797.033 138.215 796.016 134.104 794.554 133.149C792.394 132.377 790.041 132.208 787.781 132.664C785.521 133.12 783.45 134.181 781.82 135.719C780.02 137.163 778.036 138.166 777.045 139.048C775.889 140.155 775.164 141.594 774.983 143.135C775.14 144.725 777.149 145.582 777.958 147.76C778.35 148.837 778.271 150.208 778.637 151.089C779.628 153.536 782.159 155.151 784.09 157.232C785.447 158.7 789.309 161.882 789.309 163.644C789.309 165.406 788.161 165.43 787.744 166.972C787.185 169.067 786.947 171.227 787.039 173.385C787.561 176.199 790.144 176.297 792.493 177.472C794.841 178.646 797.112 180.751 799.539 180.8C800.801 180.878 802.067 180.698 803.247 180.271C804.428 179.844 805.495 179.181 806.375 178.328V178.255ZM752.933 159.801C759.092 158.553 756.273 152.679 753.168 150.575C750.793 148.984 747.949 147.589 745.209 145.68C743.591 144.579 737.511 142.498 737.381 140.296C737.25 138.093 741.895 137.114 739.99 132.953C736.885 132.121 729.552 133.467 729.996 137.31C730.283 139.561 732.605 138.313 733.179 140.663C730.935 141.544 728.221 143.893 725.899 143.477C723.107 142.988 722.402 139.121 720.889 136.82C718.723 136.82 717.314 134.373 714.756 134.765C712.199 135.156 710.659 139.464 709.303 141.691C708.572 142.841 707.424 143.453 707.032 144.505C706.797 145.142 707.032 146.145 706.797 146.953C706.015 149.816 703.823 150.844 704.057 153.365C704.292 155.886 706.406 156.571 706.667 158.48C706.928 160.389 703.718 159.434 704.057 161.833C708.128 165.602 708.337 160.046 710.425 159.385C712.095 158.749 715.357 159.899 717.47 159.385C719.166 158.969 720.523 157.134 722.454 156.302C723.82 155.716 725.288 155.368 726.786 155.274C734.014 154.931 738.685 160.169 745.052 160.413C747.692 160.471 750.331 160.29 752.933 159.875V159.801ZM738.372 190.1C738.503 187.359 737.459 185.205 737.25 181.387C733.049 178.549 729.917 184.055 725.638 183.443C723.028 183.076 721.15 179.625 718.384 180.115C716.844 180.384 716.087 182.562 714.495 182.929C711.26 183.615 709.772 179.992 706.328 181.387C701.448 177.227 699.282 170.399 698.134 162.689C695.524 158.774 691.428 161.955 689.497 164.476C688.296 164.476 686.887 163.742 686.548 165.259C685.661 169.983 692.497 170.497 692.445 173.703C692.445 175.807 689.836 175.612 688.583 177.031C687.331 178.451 688.166 179.919 686.548 180.874C682.06 181.485 680.572 178.72 680.624 174.217C678.693 170.913 676.24 168.49 674.492 165.773C673.606 164.526 672.986 163.13 672.665 161.661C672.509 160.462 673.187 158.945 672.9 157.574C672.404 155.127 668.36 153.267 665.855 151.921C663.015 150.691 660.343 149.146 657.896 147.32C656.539 146.047 655.912 143.82 654.712 142.963C653.512 142.107 652.442 142.4 651.529 141.691C650.615 140.981 650.485 139.047 648.789 138.607C647.954 138.24 646.623 139.561 646.179 140.394C645.057 145.998 649.102 146.365 650.954 148.862C652.207 150.55 652.833 153.12 654.138 154.246C655.443 155.372 657.374 155.2 659.122 156.032C660.349 156.595 661.131 158.309 662.306 159.092C664.472 160.585 667.968 160.854 668.229 163.717C666.872 164.745 663.819 162.2 662.775 164.745C662.514 166.409 663.95 167.193 663.898 168.832C663.898 171.28 661.288 174.119 659.122 173.727C658.913 172.234 660.323 171.011 660.27 169.371C660.27 166.116 654.347 161.148 651.398 159.581C650.015 158.896 648.345 158.847 647.066 158.064C644.215 156.119 641.691 153.784 639.577 151.138C637.959 148.69 636.55 144.212 632.975 144.481C631.514 144.481 630.366 146.072 629.113 146.781C627.925 147.393 626.783 148.08 625.695 148.837C624.39 149.816 623.294 150.819 622.067 150.868C619.223 151.015 616.848 148.421 614.239 149.082C613.404 149.278 612.725 150.11 611.629 151.138C611.629 152.631 612.021 153.585 611.864 155.225C611.108 156.669 608.916 156.595 607.298 157.55C604.878 159.4 602.737 161.549 600.931 163.938C599.76 164.919 598.864 166.154 598.321 167.535C598.321 168.392 598.973 169.983 598.791 171.133C598.037 173.023 596.79 174.706 595.164 176.028C594.355 176.664 593.285 176.737 592.554 177.325C590.754 178.524 589.945 180.066 588.457 180.384C584.491 181.216 577.263 179.503 577.315 184.226C577.315 187.408 581.151 187.433 583.473 187.31C586.683 187.163 589.397 188.069 591.302 187.579C592.528 187.212 593.911 185.67 595.164 185.132C595.973 184.716 596.808 184.716 597.434 184.349C598.791 183.59 599.574 182.342 600.618 181.901C603.199 180.769 605.972 180.073 608.811 179.846C611.864 179.65 615.074 180.188 619.04 179.846C620.45 179.846 621.833 178.695 623.346 178.573C625.956 178.353 629.087 179.674 631.175 179.601C632.558 179.601 634.097 178.035 635.715 178.059C636.615 178.108 637.48 178.399 638.207 178.898C638.934 179.398 639.491 180.084 639.812 180.874C639.995 181.632 639.421 182.831 639.577 183.957C639.838 185.817 641.247 186.576 641.169 187.8C641.038 189.391 637.516 191.544 637.985 193.429C638.298 194.652 640.856 195.876 642.082 196.757C643.558 197.836 645.255 198.619 647.066 199.058C648.371 199.229 649.493 198.666 650.72 198.813C653.02 199.213 655.196 200.091 657.087 201.383C659.227 203.071 658.913 205.788 661.419 206.743C662.462 207.159 664.367 206.938 665.724 207.257C669.038 208.064 671.491 211.172 673.918 210.854C677.728 210.34 675.979 206.302 676.527 203.512C677.493 196.977 688.844 197.271 691.062 201.725C692.745 201.898 694.417 202.151 696.072 202.484C697.168 202.9 697.977 204.246 699.021 204.54C700.012 204.589 701.005 204.589 701.996 204.54C706.354 205.103 710.294 208.749 714.026 208.138C716.427 207.722 718.149 205.225 720.393 205.054C724.751 204.76 727.543 208.7 732.24 206.84C735.684 205.47 734.849 201.456 736.102 197.369C736.702 194.187 738.372 192.254 738.372 190.1ZM923.933 13.8875C922.053 13.9856 920.275 14.7154 918.922 15.9433C918.061 16.4573 916.313 16.7265 916.887 18.2439C919.053 17.8768 923.411 16.751 923.933 13.8141V13.8875ZM827.982 45.41C833.331 46.805 835.81 40.0013 832.288 36.1833C831.453 35.2778 828.686 34.9351 827.512 32.8549C826.129 30.4075 826.312 27.0055 822.972 27.7398C822.972 28.0335 822.972 28.4495 822.737 28.4985C822.424 34.103 829.678 35.498 829.574 40.0257C829.522 42.3263 827.277 42.571 827.982 45.3366V45.41Z" fill="#E04048" fill-opacity="0.13"/>
<path d="M753.168 35.5959C752.49 32.8304 757.161 33.1486 756.352 35.8652C756.128 36.0519 755.866 36.1937 755.581 36.2817C755.297 36.3697 754.996 36.402 754.698 36.3768C754.399 36.3516 754.11 36.2693 753.847 36.135C753.584 36.0007 753.353 35.8172 753.168 35.5959Z" fill="#E04048" fill-opacity="0.13"/>
<path d="M725.325 188.901C725.325 186.772 729.709 186.013 730.544 187.873C730.152 189.856 726.082 191.348 725.325 188.901Z" fill="#E04048" fill-opacity="0.13"/>
<path d="M647.197 175C649.571 172.822 654.843 174.29 658.131 174.217C657.504 176.175 657.426 178.72 656.069 179.846C652.259 179.111 648.867 178.059 647.197 175Z" fill="#E04048" fill-opacity="0.13"/>
<path d="M630.601 161.417C633.732 157.746 636.994 159.679 635.819 166.777C635.063 168.906 631.801 171.671 630.34 168.588C630.72 166.215 630.807 163.809 630.601 161.417Z" fill="#E04048" fill-opacity="0.13"/>
<path d="M635.141 153.218C635.327 153.934 635.275 154.687 634.99 155.374C634.705 156.061 634.202 156.65 633.549 157.06C630.574 156.449 632.845 150.403 635.141 153.218Z" fill="#E04048" fill-opacity="0.13"/>
<path d="M591.041 101.186C591.104 100.398 590.95 99.6085 590.594 98.8927C590.237 98.1768 589.69 97.5591 589.005 97.0991C588.249 96.6096 587.1 96.8299 586.396 96.3159C584.178 94.9454 583.369 92.0819 582.09 91.4211C582.247 88.6311 581.386 86.5263 582.09 84.7642C583.285 82.7643 584.999 81.0804 587.074 79.8694C589.058 79.0862 591.145 79.8694 592.293 78.0828C592.488 78.0439 592.689 78.0456 592.883 78.0879C593.077 78.1302 593.259 78.212 593.415 78.3275C593.415 79.9428 592.215 80.212 592.058 81.6805C592.345 84.0055 595.973 82.5371 596.364 84.7397C596.025 87.1871 594.12 87.6032 594.094 89.3653C594.068 91.1274 596.86 93.7706 598.191 95.753C599.182 97.2459 600.8 98.3472 601.844 99.8646C602.888 101.382 602.783 102.777 603.436 103.438C604.61 104.735 607.324 104.931 607.507 106.791C607.794 109.238 604.897 110.193 605.236 112.934C602.131 115.699 596.912 114.255 591.824 114.99C589.527 115.308 586.996 117.902 584.543 115.748C583.995 114.035 586.578 113.79 586.813 112.175C586.657 110.658 584.935 110.853 584.543 109.728C585.222 107.721 587.283 107.28 587.153 104.343C588.222 102.704 590.649 103.242 591.041 101.186Z" fill="#E04048" fill-opacity="0.13"/>
<path d="M573.975 95.0433C577.002 92.9385 582.299 94.5538 582.612 97.0991C582.821 99.0081 580.994 99.3018 580.316 101.455C579.637 103.609 580.446 105.738 579.637 107.084C578.828 108.431 577.028 108.186 575.775 108.626C572.931 109.581 567.399 113.374 565.102 109.14C565.416 106.864 567.373 106.399 568.051 104.515C568.051 103.046 566.694 102.263 566.903 100.672C567.112 99.0815 568.469 99.4241 570.321 98.6409C571.678 98.0536 572.252 96.2425 573.975 95.0433Z" fill="#E04048" fill-opacity="0.13"/>
<path d="M418.684 39.4383C419.154 41.7144 412.709 44.7002 412.082 41.7389C411.586 39.3894 417.04 36.4525 418.684 39.4383Z" fill="#E04048" fill-opacity="0.13"/>
<path d="M411.169 617H407.777C408.864 616.584 410.082 616.584 411.169 617Z" fill="#E04048" fill-opacity="0.13"/>
<path d="M400.94 21.2542C401.03 21.1676 401.137 21.0988 401.256 21.0518C401.375 21.0048 401.502 20.9806 401.631 20.9806C401.76 20.9806 401.888 21.0048 402.007 21.0518C402.125 21.0988 402.233 21.1676 402.323 21.2542C402.088 21.8415 401.905 22.5023 400.94 22.2821V21.2542Z" fill="#E04048" fill-opacity="0.13"/>
<path d="M380.716 61.9789C380.716 63.3984 376.202 65.7234 375.706 63.0068C375.649 62.6224 375.704 62.2308 375.865 61.8732C376.025 61.5156 376.286 61.2055 376.619 60.9754C377.82 60.1189 380.664 60.6083 380.716 61.9789Z" fill="#E04048" fill-opacity="0.13"/>
<path d="M286.122 300.037C286.122 300.405 285.783 300.674 285.679 301.065C283.252 300.967 285.418 297.492 286.122 300.037Z" fill="#E04048" fill-opacity="0.13"/>
<path d="M193.799 120.912C195.391 119.884 196.93 122.503 195.86 123.751C194.086 124.118 193.642 121.867 193.799 120.912Z" fill="#E04048" fill-opacity="0.13"/>
<path d="M441.648 130.408C440.578 130.115 439.038 130.163 437.786 129.894C436.533 129.625 435.176 129.258 434.158 129.111C431.34 128.744 428.313 129.674 426.643 127.838C429.512 123.716 432.788 119.857 436.429 116.311C437.446 115.259 439.691 114.549 439.038 112.469C437.107 110.56 434.733 112.469 432.906 113.741C431.034 115.229 428.872 116.359 426.539 117.07C422.781 117.706 417.797 115.846 414.718 118.098C414.3 120.031 418.215 119.297 417.667 122.209C416.974 122.453 416.223 122.508 415.498 122.369C414.774 122.231 414.105 121.904 413.57 121.426C412.526 120.349 413.126 118.759 412.448 118.098C410.123 117.015 407.49 116.655 404.932 117.07C403.749 117.233 402.651 117.742 401.794 118.524C400.936 119.306 400.364 120.321 400.157 121.426C403.027 122.944 407.751 119.884 408.794 123.751C407.229 126.933 403.575 128.646 404.019 132.953C404.163 133.827 404.526 134.656 405.08 135.371C405.634 136.086 406.361 136.667 407.203 137.065C408.481 137.31 409.186 135.915 410.386 136.037C411.586 136.16 411.378 137.824 412.996 137.579C415.188 136.527 416.388 133.051 418.919 133.223C421.92 137.334 416.31 139.341 412.996 140.565C409.368 142.033 404.619 142.841 401.853 144.138C400.392 144.823 394.912 150.82 394.025 146.194C393.477 142.841 396.634 143.746 397.443 141.054C393.92 140.296 390.632 142.768 387.423 144.138C382.856 146.096 375.106 147.32 374.01 153.12C373.801 154.27 374.453 156.449 373.775 157.207C373.097 157.966 369.991 157.941 368.556 158.48C366.364 159.336 364.459 161.148 363.102 161.564C361.745 161.98 360.493 161.784 359.919 162.078C358.118 162.861 357.44 165.626 355.378 167.462C354.517 168.221 352.769 168.759 351.96 169.518C350.785 170.839 350.629 174.143 348.541 174.633C347.237 174.633 346.141 173.507 344.914 174.388C344.758 177.643 345.932 182.097 344.679 185.401C341.864 187.791 338.825 189.937 335.598 191.813C333.667 193.013 331.971 193.331 329.675 194.628C328.031 195.533 326.543 197.736 324.665 198.984C320.333 201.848 315.088 205.274 315.114 212.567C315.114 214.134 315.844 215.847 316.027 217.682C316.027 218.759 316.027 219.836 316.027 221.011C316.288 223.703 318.01 227.105 316.027 228.965C312.974 227.545 309.086 227.056 306.946 224.609C306.346 222.161 308.12 219.983 307.859 217.682C307.625 215.822 305.25 212.543 303.971 212.298C302.693 212.053 301.362 213.718 299.901 213.571C298.439 213.424 296.613 210.805 294.421 210.512C291.237 210.096 288.862 211.319 285.34 210.756C281.895 212.837 280.903 216.508 276.702 216.141C275.215 216.141 273.858 214.746 272.162 214.354C270.023 213.723 267.801 213.377 265.56 213.326C261.672 213.62 258.879 216.752 255.539 218.71C252.617 220.424 248.468 222.577 247.58 226.053C247.111 227.961 247.58 230.678 246.902 232.44C246.371 233.586 245.761 234.698 245.075 235.769C241.871 241.892 240.952 248.847 242.466 255.519C243.46 258.522 244.753 261.431 246.328 264.207C248.039 266.138 250.391 267.474 253.008 268.001C254.791 267.753 256.541 267.326 258.227 266.728C260.223 266.508 262.202 266.165 264.151 265.7C269.056 263.914 268.091 256.425 272.997 253.904C275.653 252.82 278.53 252.294 281.425 252.362C282.031 253.034 282.484 253.815 282.758 254.656C283.031 255.498 283.12 256.382 283.017 257.257C282.516 258.747 281.905 260.202 281.19 261.613C280.669 263.253 280.564 265.162 280.068 266.508C279.39 268.246 277.876 269.494 277.459 271.134C277.12 272.186 277.302 273.581 277.015 274.462C276.493 276.151 274.406 277.326 275.424 279.063C280.277 281.241 286.175 278.451 290.428 279.332C291.849 279.714 293.121 280.474 294.09 281.521C295.058 282.569 295.681 283.857 295.882 285.231C295.882 287.556 294.29 289.073 294.055 291.618C293.794 294.849 292.594 298.765 292.463 301.408C292.255 305.666 297.996 313.009 302.014 312.935C306.033 312.862 308.851 308.04 314.07 310.635C315.792 311.467 317.619 314.624 319.524 314.477C321.429 314.33 323.49 311.247 324.534 309.093C325.813 306.474 325.891 304.198 328.161 302.95C330.431 301.702 332.545 302.216 335.677 300.894C337.079 300.2 338.377 299.336 339.539 298.324C340.635 297.492 341.809 295.241 343.166 296.807C344.992 298.838 340.948 299.988 342.487 302.191C345.645 304.051 347.263 298.667 349.533 298.593C351.206 299.188 352.753 300.058 354.099 301.163C355.874 302.46 356.474 304.32 358.405 304.736C359.658 305.03 361.667 304.198 363.415 304.492C365.738 304.859 367.121 307.11 368.869 306.939C371.009 306.939 372.027 304.247 373.879 303.88C377.898 303.048 379.385 304.369 381.134 307.208C383.117 307.6 383.195 304.614 385.022 305.666C384.03 307.894 385.361 308.921 386.144 310.806C386.666 312.005 386.588 312.837 387.057 313.253C388.153 314.428 390.241 314.428 391.833 315.554C393.589 317.345 395.113 319.325 396.373 321.452C398.194 324.083 400.979 325.998 404.202 326.836C406.811 327.008 408.742 326.029 410.804 326.322C415.501 326.983 418.423 329.627 421.711 332.49C423.564 334.081 425.208 335.182 425.808 337.091C426.226 338.413 426.017 340.199 426.487 341.692C427.504 344.898 431.706 346.44 430.14 351.947C430.818 353.562 432.358 354.149 434.002 355.275C435.646 356.401 436.429 358.09 437.864 358.359C438.777 358.53 439.795 358.041 440.473 358.09C442.809 358.473 445.048 359.262 447.075 360.415C448.495 360.794 449.868 361.31 451.172 361.957C452.321 362.838 452.477 365.775 453.912 366.558C454.826 367.072 456.913 366.362 458.453 366.558C460.88 366.876 464.194 368.565 466.281 368.614C467.612 368.614 468.734 368.002 469.908 368.1C475.493 368.589 478.65 376.078 484.026 378.354C485.67 379.04 488.331 378.55 489.48 379.113C491.489 380.092 493.185 387.042 493.342 390.126C493.785 399.426 487.444 402.363 483.791 408.58C483.034 409.877 482.591 411.908 481.521 413.695C479.329 417.317 476.902 418.075 477.189 424.732C477.189 426.543 478.102 428.33 478.102 430.361C478.133 433.027 477.906 435.689 477.424 438.316C477.032 440.004 475.806 441.375 475.597 442.917C475.388 444.458 476.015 445.682 475.832 447.028C475.186 448.989 474.311 450.877 473.222 452.657C471.109 457.038 470.613 462.178 466.412 463.915C463.802 464.968 460.514 464.38 457.774 465.457C456.652 465.898 455.165 467.048 453.886 467.758C449.946 469.838 444.309 472.653 443.213 477.254C442.248 481.341 444.57 484.596 443.892 489.295C443.075 490.799 442.16 492.253 441.152 493.651C440.186 495.095 439.691 496.808 438.542 498.277C437.186 500.186 435.072 501.042 434.237 503.637C433.95 504.518 434.237 505.57 433.793 506.965C433.793 507.503 432.802 508.287 432.41 509.29C432.019 510.294 432.071 511.346 431.732 512.105C430.688 514.552 427.609 519.838 425.365 520.573C420.641 522.041 415.657 518.297 412.317 519.006C412.787 521.576 414.457 521.307 415.527 523.118C416.034 524.356 416.636 525.558 417.327 526.716C418.345 528.037 419.258 528.527 419.389 530.044C419.403 531.425 419.106 532.793 418.517 534.058C417.928 535.324 417.06 536.458 415.97 537.386C413.928 538.457 411.688 539.155 409.368 539.442C407.698 539.76 403.34 539.785 402.558 540.984C401.383 542.77 403.158 547.151 402.323 548.938C400.627 552.682 396.06 548.816 393.685 549.941C393.521 550.836 393.602 551.754 393.922 552.611C394.242 553.467 394.789 554.233 395.512 554.836C396.921 555.791 399.113 554.567 400.053 556.378C399.583 558.825 397.156 559.266 396.634 561.762C396.634 564.21 397.365 564.846 397.104 566.363C396.504 569.667 391.885 569.521 392.094 573.045C392.276 578.282 401.018 576.129 401.201 581.244C401.201 584.327 398.591 584.376 397.782 587.387C397.286 589.002 398.069 589.369 397.782 590.715C397.391 592.526 395.512 593.162 395.512 595.071C395.512 597.519 398.696 600.211 400.287 602.242C401.831 604.555 403.74 606.635 405.95 608.41C409.16 610.392 413.909 609.927 415.292 613.525C414.848 615.679 412.996 616.241 411.195 616.853H410.725C409.638 616.437 408.42 616.437 407.333 616.853H404.149C401.096 615.262 397.417 614.235 393.711 612.742C392.355 612.203 390.841 610.931 389.38 610.294C387.918 609.658 387.057 609.511 386.196 608.997C384.239 607.847 382.047 604.102 380.064 602.609C378.864 601.704 376.985 601.214 376.202 600.284C375.517 599.037 374.907 597.754 374.375 596.442C373.645 595.267 372.288 594.411 371.427 593.114C369.548 590.299 367.121 586.481 367.095 584.401C367.069 582.321 368.843 580.95 368.243 579.041C367.643 577.132 364.198 577.621 363.702 575.443C363.389 574.122 364.694 571.919 364.59 570.059C364.59 568.982 362.763 567.612 363.468 565.947C364.172 564.283 365.816 566.094 367.095 565.189C366.155 561.493 367.095 555.546 363.911 554.42C362.241 556.011 365.633 559.609 362.789 560.588C360.023 559.193 360.675 555.13 360.18 552.12C359.562 550.19 359.108 548.218 358.823 546.221C358.823 545.12 359.214 543.774 359.058 542.648C358.562 539.197 355.169 536.358 354.961 532.859C355.197 531.202 355.572 529.565 356.083 527.964C356.265 526.765 356.083 525.516 356.083 524.121C356.083 522.726 357.1 520.989 357.231 519.52C357.446 516.178 357.297 512.824 356.787 509.51C356.213 506.549 354.178 504.028 353.812 500.798C353.812 499.647 354.152 497.689 354.047 496.197C353.943 494.704 353.264 493.431 353.134 491.84C353.189 490.291 353.345 488.746 353.604 487.215C353.839 484.008 353.03 480.411 353.134 477.229C353.134 476.275 353.604 475.589 353.604 474.659C353.604 472.016 352.795 469.349 352.69 466.73C352.876 462.454 352.798 458.172 352.456 453.905C352.109 450.258 351.348 446.657 350.185 443.161C347.94 440.04 345.09 437.342 341.783 435.207C340.191 434.204 338.286 433.861 336.564 432.907C332.858 430.851 325.682 426.519 324.064 422.407C323.595 421.208 323.647 419.617 323.151 418.296C321.829 415.749 320.311 413.295 318.611 410.954C315.792 406.059 313.522 400.063 310.782 395.07C309.508 392.538 308.061 390.085 306.45 387.728C305.511 386.529 302.51 385.28 302.145 383.616C301.623 381.169 300.057 377.987 300.318 376.274C300.631 373.827 304.859 371.844 304.859 369.617C304.859 367.39 302.614 366.631 302.249 365.016C301.101 361.1 302.901 358.799 304.284 355.52C304.728 354.468 305.172 352.73 305.641 351.947C306.476 350.527 308.251 350.136 309.295 348.618C309.895 347.762 310.286 345.975 311.095 344.776C312.844 342.182 315.636 341.203 316.314 338.878C317.041 334.011 317.111 329.077 316.523 324.193C315.75 322.446 314.879 320.739 313.913 319.078C312.87 315.97 312.635 312.593 309.817 312.666C308.068 312.666 306.842 314.869 305.72 316.239C305.459 318.075 305.72 320.057 303.893 320.596C301.284 321.452 300.318 317.536 297.317 316.508C296.117 316.092 294.186 316.117 293.455 315.725C291.237 314.624 290.532 311.002 288.236 309.582C285.94 308.163 284.635 308.824 283.461 307.012C283.189 305.32 283.111 303.605 283.226 301.897C280.616 300.258 278.633 294.115 275.737 292.671C273.884 291.692 271.013 291.692 268.665 290.811C267.642 290.306 266.578 289.88 265.481 289.538C264.075 289.359 262.698 289.014 261.384 288.51C256.896 286.063 254.469 277.815 248.885 277.986C246.51 277.986 244.214 280.581 242.074 280.434C239.063 279.843 236.201 278.713 233.646 277.105C230.854 275.637 227.774 274.854 225.452 273.508C223.599 272.455 222.321 270.497 220.677 269.665C219.45 269.053 217.623 268.931 216.606 268.393C214.909 267.291 213.296 266.081 211.778 264.77C209.936 263.541 208.636 261.721 208.125 259.655C208.125 257.648 209.769 255.935 209.952 254.002C210.526 247.908 206.533 243.527 204.028 239.905C202.175 237.237 199.983 235.01 198.131 232.563C198.235 231.365 198.235 230.162 198.131 228.965C196.606 227.014 195.237 224.961 194.034 222.822C192.677 220.742 190.041 218.515 189.702 216.165C189.284 213.277 190.694 210.756 189.702 207.966C188.084 203.316 182.369 205.519 183.126 211.539C183.335 213.228 185.422 215.504 186.075 217.193C186.727 218.882 186.597 221.011 187.197 223.067C187.797 225.123 189.545 226.762 190.172 228.965C191.137 232.489 191.111 236.307 191.998 238.461C192.886 240.615 195.652 242.254 194.034 244.604C191.868 245.093 191.059 242.67 189.702 241.275C188.971 240.492 186.257 238.999 185.84 237.164C185.422 235.328 186.701 233.639 186.31 231.779C185.527 228.182 179.055 228.084 179.029 224.437C179.029 221.99 181.639 221.819 181.639 219.542C181.639 217.266 178.664 214.966 178.011 212.886C177.481 210.352 177.176 207.782 177.098 205.201C177.12 202.747 176.972 200.294 176.655 197.859C175.772 195.788 174.267 194.002 172.323 192.719C170.34 191.471 168.748 192.009 167.782 190.272C166.92 188.134 166.384 185.893 166.19 183.615C165.851 180.531 166.19 177.153 165.956 173.825C165.655 170.503 165.655 167.162 165.956 163.84C167.078 161.392 169.139 160.12 170.287 157.672C171.07 155.959 171.201 153.854 172.088 152.043C173.758 148.69 177.307 145.607 179.916 142.254C182.623 138.874 184.834 135.17 186.492 131.24C187.492 129.218 188.11 127.049 188.319 124.828C188.032 122.381 183.909 120.325 184.222 117.486C184.431 115.675 186.832 115.699 187.406 113.913C187.825 112.401 188.052 110.849 188.084 109.287C188.084 106.84 186.962 104.245 187.406 101.602C187.797 99.3507 190.772 98.4452 189.232 95.9733C187.693 93.5014 185.005 97.2949 183.309 95.7041C181.613 94.1133 183.622 92.498 183.778 89.8303C183.778 88.7535 183.23 87.5297 183.309 86.7466C183.465 85.5963 185.448 83.6629 184.9 82.9042C183.674 81.142 182.291 76.6878 179.682 75.2193C176.341 73.3348 172.74 74.6075 168.095 73.6775C165.225 73.1146 163.894 70.1043 161.259 70.349C159.641 70.4958 158.649 72.5761 156.483 73.6775C154.317 74.7788 151.264 74.3872 149.203 74.9501C147.141 75.513 145.993 77.2017 143.749 77.0059C141.505 76.8101 141.87 74.9501 139.652 74.7054C138.35 74.8892 137.061 75.1425 135.79 75.4641C131.332 76.0307 126.808 75.9482 122.377 75.2193C119.245 74.3293 116.259 73.0361 113.505 71.3769C110.896 69.9574 105.677 68.2198 106.016 65.9926C106.146 64.5487 110.765 63.0313 112.592 62.395C115.566 61.3915 117.393 59.7518 119.663 59.5805C120.525 59.5805 121.673 60.1923 122.821 60.0944C123.969 59.9965 125.43 58.7973 126.918 58.5526C130.101 58.0631 134.59 58.7483 134.198 55.2241C131.797 53.0704 121.96 56.8149 121.699 52.1648C121.542 49.3259 125.43 48.4693 128.301 47.8085C131.168 46.9441 134.14 46.4259 137.147 46.2666C139.756 46.4134 143.175 49.693 144.662 45.9974C145.393 43.4031 143.775 41.1026 143.305 39.0957C145.236 36.0854 148.785 36.4525 151.473 36.012C154.488 35.5922 157.412 34.7248 160.136 33.4422C162.861 32.2064 165.776 31.3805 168.774 30.9948C171.853 30.5298 174.854 29.2082 177.646 28.939C179.847 28.8924 182.043 28.7207 184.222 28.425C186.187 27.6411 188.26 27.122 190.38 26.8832C191.79 26.8832 192.99 28.1314 194.451 28.425C195.913 28.7187 197.348 28.4251 198.783 28.6698C200.218 28.9145 200.871 29.7711 201.967 29.9669C203.689 30.2606 205.542 29.6977 207.186 29.9669C208.829 30.2361 210.03 31.2885 211.517 31.4843C215.014 31.9982 219.033 31.2885 222.425 32.0227C223.73 32.2919 224.878 33.0017 226.287 33.2954C227.696 33.5891 229.079 33.2954 230.384 33.5401C232.184 33.9562 233.698 35.9875 235.603 36.1099C239.1 36.526 243.066 34.3967 246.719 34.0541C249.461 34.0861 252.2 33.9143 254.913 33.5401C257.283 32.7578 259.718 32.1602 262.193 31.7535C263.446 31.7535 264.464 32.1696 265.612 32.0227C266.76 31.8759 268.221 30.2361 269.474 30.4809C271.17 30.7746 270.857 33.1975 272.657 33.8094C274.641 32.6346 276.598 33.8094 278.79 33.8094C280.982 33.8094 282.808 32.6101 285.157 33.0262C289.306 33.7604 295.073 38.337 298.204 35.8652C299.039 35.2288 298.831 34.152 299.587 32.5122C300.579 30.3096 302.562 27.6174 302.197 24.5826C297.63 24.5826 293.272 27.1769 288.08 27.3971C282.861 23.7016 289.489 21.401 293.299 19.7123C296.456 18.3173 298.935 15.2091 302.849 14.5973C306.033 14.0588 309.529 15.3804 313.287 15.8699C315.479 16.1636 317.697 15.6986 318.95 16.1146C321.194 16.8733 322.342 19.3697 324.169 19.9571C324.952 20.2263 326.282 20.2018 327.352 20.471C329.388 21.0094 331.214 22.2331 333.25 20.471C334.868 20.8136 335.05 22.7226 336.668 23.0408C338.182 22.1352 339.278 19.7858 341.678 19.1984C342.67 18.9536 343.74 19.3942 344.862 19.1984C346.715 18.8557 349.168 16.0412 350.316 18.6844C349.846 20.5444 347.367 20.8136 345.984 22.2821C344.451 23.8578 343.428 25.8103 343.035 27.9111C343.296 30.3585 346.558 29.404 346.662 32.5122C346.193 34.3233 344.34 33.5156 342.8 34.3233C341.261 35.1309 340.896 36.5504 339.408 36.7707C335.259 37.6517 331.841 35.6204 328.266 35.7672C328.083 37.5049 330.04 38.5328 330.875 39.0957C334.137 41.0047 336.773 40.7355 341.313 40.6131C343.662 40.6131 346.349 41.4208 348.359 39.8544C349.637 38.8755 349.559 36.6973 350.629 35.4981C351.395 34.6758 352.342 34.0199 353.406 33.5761C354.469 33.1323 355.623 32.9113 356.787 32.9283C357.428 33.0972 358.009 33.425 358.468 33.8772C358.927 34.3295 359.248 34.8894 359.397 35.4981C359.397 37.8231 356.474 37.0889 356.448 39.6097C358.379 40.9068 363.468 38.1902 363.728 36.012C363.911 34.4212 362.085 33.5646 362.137 31.9248C362.137 29.2327 365.477 29.2817 365.085 26.5406C363.52 25.1456 361.902 26.8343 360.31 26.5406C358.092 26.1 356.083 23.0897 355.091 21.1563C356.083 19.7613 358.144 20.6913 359.632 20.8871C361.302 18.2928 364.407 17.2649 368.739 16.7999C370.252 16.6286 372.314 15.9433 373.044 17.5586C373.41 20.006 369.861 21.45 370.435 24.2156C373.514 25.0966 374.506 20.4465 377.037 18.5865C378.4 17.7603 379.852 17.0712 381.369 16.5307C382.752 15.9433 384.317 14.4504 385.465 14.4994C386.614 14.5483 386.927 15.6986 388.075 16.286C389.223 16.8733 390.684 15.9188 391.024 17.5586C388.414 22.6981 378.576 19.7613 376.019 24.9008C376.593 28.4006 374.48 31.7535 376.254 34.1275C377.507 35.7917 380.377 34.6659 381.029 36.428C381.917 38.8754 378.263 38.8754 379.203 41.5431C381.63 43.1829 384.422 40.0013 386.718 38.7286C389.014 37.456 392.12 35.7673 392.407 32.5857C391.206 29.9914 386.718 31.9983 386.04 29.2572C386.103 27.3417 386.726 25.4794 387.84 23.8729C389.977 21.7614 392.551 20.0817 395.405 18.937C398.259 17.7923 401.332 17.2066 404.436 17.216C405.585 17.216 406.733 18.097 407.855 18.2439C411.769 18.6844 416.388 16.3349 419.467 18.2439C421.92 16.6041 424.895 18.4642 428.313 17.9747C430.923 19.7368 430.244 23.4813 434.237 25.1455C435.333 25.6105 436.69 25.2924 438.099 25.6595C439.508 26.0266 440.291 27.3482 441.517 28.1069C443.24 28.988 444.544 28.7677 444.91 30.1383C445.275 31.5088 443.683 32.3409 443.787 33.7359C444.779 34.6415 443.944 36.012 444.466 37.3091C445.458 39.7565 447.937 39.5118 450.363 40.6376C452.112 41.4452 455.765 43.8926 455.582 45.7771C455.582 47.0498 452.138 49.2769 451.042 49.8643C449.256 51.0335 447.244 51.8648 445.118 52.3117C442.979 51.9446 442.144 47.0498 439.221 47.1721C438.843 47.1681 438.468 47.2413 438.123 47.3866C437.778 47.5318 437.47 47.7457 437.222 48.0135C436.974 48.2812 436.791 48.5963 436.685 48.937C436.58 49.2777 436.555 49.6359 436.611 49.9867C436.611 53.3641 439.952 53.4864 440.004 56.3988C440.004 59.8741 438.334 60.1189 435.698 62.2971C433.905 61.1708 431.892 60.3889 429.775 59.9965C428.339 61.93 432.175 62.6397 430.923 65.1116C427.269 65.9926 424.477 63.9613 421.137 62.811C420.093 62.4439 418.528 62.5908 417.745 62.0523C416.44 61.1957 416.075 58.6994 415.135 57.4267C413.807 55.5871 411.766 54.3053 409.447 53.8536C406.628 53.8536 402.584 57.7938 400.366 54.0983C401.905 48.2245 409.186 52.5809 413.987 50.5006C415.788 49.7419 416.414 47.6127 417.875 46.6582C420.798 44.7737 425.704 44.5045 425.13 40.76C424.921 38.8999 422.52 38.9244 421.268 37.9455C419.493 36.6483 418.136 32.0227 415.605 31.8025C414.274 31.6801 413.335 32.9283 411.952 33.0751C409.003 33.3933 405.741 31.7535 403.08 33.0751C401.853 33.8828 402.688 35.1554 401.723 36.6728C400.757 38.1902 399.113 38.2636 398.304 39.4873C397.495 40.711 397.626 42.7179 396.478 43.8437C394.625 45.7037 390.684 45.9974 388.31 46.9274C387.24 47.319 385.909 48.714 384.891 48.714C383.013 48.714 382.282 45.875 380.116 46.9274C379.933 49.6685 382.726 50.7698 384.448 52.0425C386.535 53.2164 388.136 55.0197 388.988 57.1575C387.136 61.5873 384.187 56.9373 381.16 56.9128C378.133 56.8883 373.331 63.8389 370.461 58.1854C371.139 55.1996 374.062 54.7346 374.793 51.7977C371.583 52.4096 368.765 55.4444 365.007 56.3988C363.415 56.7904 361.876 56.6925 360.467 57.1575C357.727 58.0631 355.848 60.3392 352.951 61.5384C351.829 62.0034 350.498 61.8565 349.324 62.2971C346.227 63.5807 343.258 65.1204 340.452 66.8982C337.668 68.4584 335.047 70.2611 332.623 72.2825C331.084 73.8256 329.918 75.6622 329.205 77.6667C329.205 79.1841 331.814 79.6981 331.814 81.2644C331.814 82.1944 330.327 84.2502 331.345 85.6208C332.362 86.9913 334.163 85.841 336.12 86.1347C339.591 86.5997 341.887 89.8548 344.549 91.519C346.747 92.9624 349.218 94.0006 351.829 94.5783C354.935 95.0188 358.431 93.5504 358.875 96.3649C359.318 99.1794 355.926 100.06 355.691 101.749C357.361 104.197 354.543 105.469 354.543 107.647C354.543 109.434 356.5 112.102 358.17 112.248C360.467 112.469 363.833 109.801 364.772 107.133C365.92 104.05 365.425 99.7912 367.512 97.662C378.107 97.9801 387.057 92.2288 386.379 79.9673C386.07 78.6246 385.921 77.2537 385.935 75.8801C386.248 73.8978 389.275 72.2335 388.884 69.7372C391.859 68.7092 391.728 63.325 394.807 62.5418C397.417 61.9055 400.287 64.5976 403.654 64.3529C404.75 64.3529 406.263 63.1537 407.307 63.325C409.525 63.6676 410.856 66.7513 412.526 68.2198C414.196 69.6882 415.553 69.0764 415.944 70.6672C415.501 73.5551 413.7 73.6285 413.883 76.3207C413.984 77.2674 414.355 78.1713 414.956 78.9376C415.558 79.704 416.368 80.3047 417.301 80.677C419.324 80.7447 421.317 80.2045 422.99 79.1352C426.043 77.5199 428.626 72.6251 431.184 73.237C433.167 73.7264 434.759 80.8973 435.046 83.4915C435.333 86.0858 434.706 88.3863 434.811 90.8337C435.098 95.1411 440.03 94.7006 442.326 96.9767C443.031 97.662 443.318 99.4241 443.918 100.305C445.066 102.043 446.527 102.043 446.527 103.878C446.971 108.308 442.979 108.773 443.344 113.668C442.535 115.601 440.447 115.479 440.734 118.024C440.995 122.087 446.136 118.979 447.545 122.136C448.302 123.825 447.545 125.097 446.867 127.52C448.615 129.968 448.615 133.663 445.51 133.663C444.075 133.223 443.5 130.922 441.648 130.408ZM193.799 120.912C195.391 119.884 196.93 122.503 195.86 123.751C194.086 124.118 193.642 121.867 193.799 120.912ZM354.569 147.05C353.63 146.023 350.525 146.316 348.411 146.537C346.923 146.708 345.175 147.075 345.018 148.348C347.367 149.571 353.812 150.452 354.569 147.05ZM342.748 142.694C343.132 142.31 343.417 141.849 343.581 141.346C343.746 140.843 343.785 140.312 343.697 139.792C343.609 139.273 343.395 138.779 343.073 138.349C342.75 137.918 342.327 137.563 341.835 137.31C341.078 137.09 340.087 137.946 338.86 137.848C337.634 137.75 336.251 136.404 335.233 136.306C334.41 136.246 333.584 136.378 332.828 136.69C332.072 137.002 331.41 137.484 330.901 138.093C330.901 139.635 331.919 139.88 331.814 141.421C329.623 143.208 330.797 149.155 332.963 149.376C335.129 149.596 336.459 142.792 339.565 142.18C340.687 141.984 341.261 142.914 342.748 142.694ZM339.565 152.949C336.329 151.652 333.328 153.83 330.692 154.246C329.101 154.466 326.23 153.879 326.596 156.546C326.883 158.7 329.857 157.917 331.606 157.305C334.577 156.438 337.298 154.948 339.565 152.949ZM329.544 133.37C334.085 131.216 328.657 124.51 326.596 123.898C322.916 122.821 317.671 126.957 313.548 128.254C311.147 128.989 308.851 129.062 308.329 131.338C310.495 135.352 314.748 130.457 317.88 131.069C319.472 131.387 320.489 133.835 321.977 134.153C324.517 134.154 327.051 133.925 329.544 133.467V133.37ZM326.361 137.506C325.421 136.257 320.333 137.652 318.871 138.778C317.861 140.066 316.988 141.443 316.262 142.89C315.192 144.334 313.992 145.46 313.078 146.732C312.165 148.005 307.651 155.347 311.252 156.204C312.791 156.571 315.975 152.973 316.262 151.603C316.809 147.567 319.008 143.89 322.394 141.348C324.143 140.149 326.074 140.32 326.361 137.506ZM297.943 108.871C300.553 108.871 302.197 100.33 297.943 101.529C295.099 102.19 294.394 109.018 297.943 108.871ZM285.679 301.065C285.679 300.674 285.992 300.405 286.122 300.037C285.418 297.492 283.252 300.967 285.679 301.065ZM189.493 86.5997C189.493 86.1103 189.232 86.0124 189.258 85.5718C188.554 85.5718 187.771 85.425 187.901 86.3305C187.943 86.4859 188.031 86.6268 188.156 86.7362C188.281 86.8456 188.437 86.9188 188.605 86.9473C188.773 86.9757 188.946 86.958 189.104 86.8964C189.261 86.8347 189.396 86.7317 189.493 86.5997ZM428.47 46.3645C429.592 46.5113 430.218 46.1198 430.062 44.8226C429.044 44.015 427.557 45.0674 428.47 46.3645ZM402.375 21.2542C402.285 21.1676 402.177 21.0988 402.059 21.0518C401.94 21.0048 401.812 20.9806 401.683 20.9806C401.555 20.9806 401.427 21.0048 401.308 21.0518C401.189 21.0988 401.082 21.1676 400.992 21.2542V22.2821C401.905 22.4779 402.088 21.8415 402.323 21.2542L402.375 21.2542ZM315.975 40.9802C316.732 40.4173 317.88 39.6831 317.332 38.4104C314.722 37.0888 310.573 38.0923 306.894 37.6517C304.78 34.2988 301.284 33.7849 300.97 39.1936C305.198 43.0605 311.539 37.3825 315.923 40.9802H315.975ZM275.267 67.3632C276.546 66.8737 278.346 67.1184 278.659 65.5766C277.616 64.6221 276.52 63.325 275.267 63.276C273.597 63.276 272.814 64.8424 271.17 65.7234C269.526 66.6045 266.577 67.1674 266.395 69.0763C269.455 69.4131 272.549 68.8121 275.215 67.3632H275.267ZM274.119 48.9098C275.58 48.6406 277.068 49.3748 277.981 47.9064C276.911 42.2529 269.97 45.7037 265.925 46.0953C264.821 47.6545 264.05 49.4 263.655 51.2348C266.734 52.1159 270.544 49.5951 274.067 48.9098H274.119ZM342.331 310.782C344.131 310.439 343.609 305.887 341.417 306.915C339.721 307.796 340.582 311.1 342.279 310.806L342.331 310.782Z" fill="#E04048" fill-opacity="0.13"/>
<path d="M189.258 85.5718C189.258 86.0124 189.545 86.1103 189.493 86.5997C189.396 86.7317 189.261 86.8347 189.104 86.8964C188.946 86.958 188.773 86.9757 188.605 86.9473C188.437 86.9188 188.281 86.8456 188.156 86.7362C188.031 86.6268 187.943 86.4859 187.901 86.3305C187.771 85.425 188.554 85.5474 189.258 85.5718Z" fill="#E04048" fill-opacity="0.13"/>
<path d="M182.552 100.795C182.303 101.504 181.885 102.151 181.328 102.686C180.772 103.22 180.093 103.628 179.342 103.878C178.913 103.5 178.536 103.072 178.22 102.606C178.22 100.036 181.273 98.3473 182.552 100.795Z" fill="#E04048" fill-opacity="0.13"/>
<path d="M306 200.5C437.667 131.167 710.9 77.8001 750.5 419" stroke="#E04048" stroke-dasharray="17 17"/>
<path d="M461 452C480.5 273.163 643.5 202.859 812 214.166" stroke="#E04048" stroke-dasharray="17 17"/>
<path d="M545 248C626.508 224.315 705.054 312.842 750.714 421.247" stroke="#E04048" stroke-dasharray="17 17"/>
<path d="M329 45.5003C416.5 -10.4997 657.5 17.5001 688 162" stroke="#E04048" stroke-dasharray="17 17"/>
<path d="M177.5 171C265 115 476 129.5 542 248.399" stroke="#E04048" stroke-dasharray="17 17"/>
<path d="M691 156.5C812.5 63.5002 997.5 80.5002 1065 235" stroke="#E04048" stroke-dasharray="17 17"/>
<path d="M314 378.193C346 339.5 586 266.5 659.5 431" stroke="#E04048" stroke-dasharray="17 17"/>
<circle cx="306" cy="200" r="9" fill="#E04048" fill-opacity="0.19"/>
<circle cx="306" cy="200" r="6" fill="#E04048"/>
<circle cx="751" cy="419" r="8" fill="#E04048" fill-opacity="0.19"/>
<circle cx="751" cy="419" r="5" fill="#E04048"/>
<circle cx="920" cy="292" r="8" fill="#E04048" fill-opacity="0.19"/>
<circle cx="920" cy="292" r="5" fill="#E04048"/>
<circle cx="688" cy="157" r="8" fill="#E04048" fill-opacity="0.19"/>
<circle cx="688" cy="157" r="5" fill="#E04048"/>
<circle cx="461" cy="454" r="8" fill="#E04048" fill-opacity="0.19"/>
<circle cx="461" cy="454" r="5" fill="#E04048"/>
<circle cx="543" cy="248" r="8" fill="#E04048" fill-opacity="0.19"/>
<circle cx="543" cy="248" r="5" fill="#E04048"/>
<circle cx="1065" cy="235" r="8" fill="#E04048" fill-opacity="0.19"/>
<circle cx="1065" cy="235" r="5" fill="#E04048"/>
<circle cx="1078" cy="112" r="8" fill="#E04048" fill-opacity="0.19"/>
<circle cx="1078" cy="112" r="5" fill="#E04048"/>
<circle cx="715" cy="61" r="8" fill="#E04048" fill-opacity="0.19"/>
<circle cx="715" cy="61" r="5" fill="#E04048"/>
<circle cx="660" cy="432" r="8" fill="#E04048" fill-opacity="0.19"/>
<circle cx="660" cy="432" r="5" fill="#E04048"/>
<circle cx="813" cy="214" r="8" fill="#E04048" fill-opacity="0.19"/>
<circle cx="813" cy="214" r="5" fill="#E04048"/>
<circle cx="907" cy="37" r="8" fill="#E04048" fill-opacity="0.19"/>
<circle cx="907" cy="37" r="5" fill="#E04048"/>
<circle cx="175" cy="173" r="8" fill="#E04048" fill-opacity="0.19"/>
<circle cx="175" cy="173" r="5" fill="#E04048"/>
<circle cx="314" cy="379" r="8" fill="#E04048" fill-opacity="0.19"/>
<circle cx="314" cy="379" r="5" fill="#E04048"/>
<circle cx="327" cy="45" r="8" fill="#E04048" fill-opacity="0.19"/>
<circle cx="327" cy="45" r="5" fill="#E04048"/>
<path d="M718 60.9296C739.5 7.00024 861 -11.4998 905 33.9998" stroke="#E04048" stroke-dasharray="17 17"/>
<path d="M907 36.5001C954 14.5 1066 50.5 1076.5 109.5" stroke="#E04048" stroke-dasharray="17 17"/>
<path d="M920 290.748C926.001 202.5 1002.5 181.5 1064.5 234" stroke="#E04048" stroke-dasharray="17 17"/>
<path d="M811.999 212.484C878.499 192.984 920.5 236.484 917.527 289.654" stroke="#E04048" stroke-dasharray="17 17"/>
<circle cx="647.5" cy="293.5" r="121.5" fill="#E04048"/>
<path d="M619.755 223.27C618.966 223.454 619.47 223.42 618.815 223.504C616.01 224.104 618.093 224.638 619.755 223.27ZM669.088 224.388C669.289 224.255 669.995 223.57 667.795 222.903C667.929 223.587 667.341 223.52 667.341 223.904C668.97 225.373 669.642 227.926 671.725 228.46C672.128 226.624 669.877 225.723 669.088 224.388ZM618.261 222.736C618.513 224.221 619.638 221.167 619.655 220.082C619.218 220.333 618.781 220.583 618.328 220.783C619.386 221.317 618.462 221.885 617.32 222.736C615.002 225.606 619.487 220.5 618.261 222.736ZM647 204.145C623.249 204.145 604 223.27 604 246.868C604 270.449 623.249 289.591 647 289.591C670.751 289.591 690 270.449 690 246.868C690 223.27 670.751 204.145 647 204.145ZM648.142 218.464L648.344 218.53C647.537 219.565 652.543 222.586 648.948 222.836C645.589 223.787 650.359 221.968 647.756 222.285C649.133 220.383 646.664 220.349 648.142 218.464ZM627.751 221.201C626.541 220.199 622.745 222.569 624.072 222.002C627.364 220.717 624.291 222.135 625.063 223.67C624.358 225.122 624.828 222.235 623.081 223.954C621.821 224.238 618.731 227.075 619.117 226.207C619.016 227.559 615.439 229.161 614.952 231.414C613.776 234.535 614.666 231.297 614.448 230.079C612.768 227.96 609.711 233.667 610.618 235.92C612.146 233.25 612.029 235.636 610.92 236.821C612.046 238.874 609.896 241.544 612.029 243.063C612.97 243.28 614.851 239.925 614.028 243.413C614.599 240.393 615.607 244.131 617.236 243.297C617.337 244.882 618.328 244.148 618.546 246.067C621.267 245.867 623.753 250.439 620.511 251.307C620.998 251.174 621.956 252.025 623.064 251.374C624.946 252.859 629.901 253.043 630.035 256.714C626.625 258.333 629.195 262.772 626.239 264.358C622.846 263.857 625.08 268.513 623.652 267.979C624.223 271.334 620.226 267.545 621.771 269.398C624.61 271.134 620.528 270.783 621.805 272.051C620.377 271.751 622.695 274.688 623.081 275.773C625.13 279.077 621.318 275.039 620.192 273.937C619.117 271.801 616.581 267.712 615.875 264.358C615.472 259.485 611.676 256.214 610.803 251.457C609.929 248.804 613.205 244.548 611.441 243.063C609.912 241.878 610.534 237.823 609.627 235.686C611.895 225.923 619.1 217.696 627.751 212.823C626.861 213.474 632.84 211.137 632.152 211.705C631.967 212.122 635.645 210.119 637.863 209.819C637.627 209.852 632.101 211.821 633.63 211.554C631.261 212.706 633.395 212.055 634.57 211.471C632.219 213.19 630.405 212.706 627.734 214.225C625.046 214.926 625.601 217.696 623.686 219.081C624.811 219.281 627.633 216.194 629.279 215.109C633.059 213.29 627.364 218.414 630.959 216.211C629.75 217.329 630.002 219.114 629.262 219.615C628.893 219.515 630.724 220.483 627.751 221.201ZM633.63 213.524C633.243 214.041 632.706 215.159 632.387 214.475C631.95 214.692 631.782 215.626 630.959 214.875C631.446 214.525 631.95 213.691 630.993 214.208C631.429 213.741 635.326 212.422 635.108 211.922C635.796 211.488 635.729 211.271 634.94 211.538C634.537 211.404 635.897 210.269 637.711 210.119C637.963 210.119 638.064 210.286 637.611 210.236C634.873 211.07 636.048 210.837 637.896 210.236C637.191 210.636 636.704 210.753 636.586 210.937C638.434 210.269 636.485 211.421 636.905 211.337C636.384 211.604 636.989 211.688 635.981 212.072C636.166 211.922 634.335 213.157 635.427 212.789C634.369 213.791 633.898 213.807 633.63 213.524ZM635.242 215.91C635.276 214.308 637.594 213.29 637.308 213.207C640.164 211.871 636.317 213.257 638.568 212.055C639.408 211.972 641.188 209.301 643.657 209.134C646.379 208.317 645.119 209.185 647.134 208.417L646.731 208.751C646.379 208.801 646.815 209.418 645.539 210.353C645.404 211.805 643.103 211.137 644.245 212.689C643.506 211.638 642.398 212.656 643.792 212.756C642.297 213.891 638.82 214.091 637.157 215.977C636.082 217.512 635.091 217.028 635.242 215.91ZM647.185 221.251C646.043 223.988 644.934 220.85 646.95 220.349C647.454 220.616 647.655 220.7 647.185 221.251ZM642.885 215.777C642.549 214.542 642.818 215.193 644.816 214.608C646.194 215.593 643.59 216.244 642.885 215.777ZM674.161 264.758C672.582 262.055 676.075 259.552 677.251 257.282C677.1 259.935 676.764 262.556 674.161 264.758ZM680.107 233.867C678.393 234.001 676.848 234.401 675.303 233.433C671.742 229.562 675.958 237.806 677.134 234.435C681.366 236.037 677.066 242.946 674.396 242.229C672.901 239.024 671.053 235.503 667.795 233.934C670.297 236.688 671.54 240.076 674.228 242.562C674.413 246.034 677.957 241.294 677.738 243.981C678.074 248.604 672.481 251.374 673.455 256.013C675.538 260.236 669.441 261.003 670.129 264.792C667.677 267.512 665.057 271.184 660.656 270.6C660.656 268.296 659.48 266.344 659.211 263.974C656.826 260.97 661.731 257.749 658.691 254.612C655.18 253.827 659.413 249.021 655.802 249.471C653.635 247.319 650.46 249.405 647.353 249.421C643.456 249.789 639.441 244.665 641.171 241.044C639.794 237.272 645.539 236.17 645.69 232.849C648.445 230.563 652.358 230.847 656.087 230.313C655.818 232.966 658.64 232.983 660.773 233.867C661.966 230.997 665.678 234.335 668.214 232.516C669.088 228.277 665.745 230.83 663.83 229.478C661.513 226.107 668.786 227.743 668.03 225.974C665.208 225.957 666.804 222.519 664.805 224.438C666.602 224.755 664.486 226.157 664.536 224.555C661.815 223.771 664.435 227.626 663.058 227.993C660.958 227.125 661.949 228.978 662.168 229.261C661.261 231.214 660.152 226.391 657.582 226.524C655.029 224.205 656.574 227.576 658.791 228.126C658.321 228.26 659.06 230.179 658.472 229.361C656.641 226.858 653.164 225.189 651.098 228.26C650.88 231.13 645.001 231.948 645.942 228.594C644.564 225.122 650.208 228.494 649.688 225.723C646.059 223.337 650.679 224.104 651.905 221.868C654.693 221.952 652.022 219.598 653.332 218.914C653.198 221.468 655.466 220.984 657.263 220.5C656.826 219.031 658.338 219.081 657.414 217.863C661.58 216.211 654.239 218.63 655.718 215.009C653.92 213.774 654.962 217.729 655.718 218.146C655.768 219.365 654.727 220.867 653.299 218.313C651.216 219.665 651.434 216.945 651.3 217.229C651.065 216.177 652.879 216.127 652.896 214.291C652.745 213.123 652.778 212.506 653.618 212.439C653.685 212.606 657.061 212.656 658.254 214.041C654.995 213.39 657.767 214.575 659.228 215.243C657.666 214.024 659.85 215.243 658.573 213.857C659.077 213.958 657.179 211.955 659.127 213.707C658.069 212.456 661.193 212.823 659.346 211.888C662.05 212.639 660.454 211.955 658.859 211.271C654.458 208.667 666.636 214.792 661.664 212.072C664.838 212.756 654.878 209.635 659.413 211.004C657.683 210.253 659.362 210.67 660.925 211.154C658.12 210.286 653.92 208.667 654.088 208.6C655.063 208.667 656.02 208.884 656.944 209.151C659.816 210.002 656.121 208.951 656.91 208.968C666.787 211.488 675.437 218.063 680.695 226.658C681.921 227.943 685.263 236.437 683.516 232.666C684.306 235.67 684.423 238.907 684.843 241.978C683.97 241.01 682.996 237.439 682.156 235.453C681.803 236.221 681.4 234.368 680.107 233.867Z" fill="white"/>
<path d="M638.996 310.543V339H632.883V317.496L626.281 319.508V314.781L638.391 310.543H638.996ZM653.391 326.188L648.547 325.035L650.207 310.562H666.496V315.387H655.207L654.523 321.383C654.875 321.174 655.428 320.947 656.184 320.699C656.939 320.439 657.785 320.309 658.723 320.309C660.116 320.309 661.353 320.523 662.434 320.953C663.514 321.383 664.426 322.008 665.168 322.828C665.923 323.635 666.49 324.632 666.867 325.816C667.258 327.001 667.453 328.349 667.453 329.859C667.453 331.109 667.258 332.307 666.867 333.453C666.477 334.586 665.878 335.602 665.07 336.5C664.276 337.385 663.267 338.089 662.043 338.609C660.819 339.13 659.38 339.391 657.727 339.391C656.477 339.391 655.266 339.202 654.094 338.824C652.922 338.447 651.867 337.9 650.93 337.184C650.005 336.454 649.27 335.569 648.723 334.527C648.189 333.486 647.915 332.314 647.902 331.012H653.996C654.061 331.767 654.25 332.418 654.562 332.965C654.875 333.499 655.298 333.915 655.832 334.215C656.366 334.501 656.984 334.645 657.688 334.645C658.365 334.645 658.938 334.514 659.406 334.254C659.875 333.98 660.246 333.609 660.52 333.141C660.806 332.672 661.014 332.125 661.145 331.5C661.275 330.875 661.34 330.204 661.34 329.488C661.34 328.746 661.255 328.082 661.086 327.496C660.917 326.897 660.656 326.389 660.305 325.973C659.953 325.543 659.504 325.217 658.957 324.996C658.423 324.762 657.779 324.645 657.023 324.645C656.034 324.645 655.259 324.807 654.699 325.133C654.139 325.458 653.703 325.81 653.391 326.188Z" fill="white"/>
<path d="M612.678 362.322H615.363C615.292 363.273 615.028 364.116 614.572 364.852C614.117 365.581 613.482 366.154 612.668 366.57C611.854 366.987 610.868 367.195 609.709 367.195C608.817 367.195 608.013 367.039 607.297 366.727C606.587 366.408 605.979 365.955 605.471 365.369C604.969 364.777 604.585 364.067 604.318 363.24C604.051 362.407 603.918 361.473 603.918 360.438V359.354C603.918 358.318 604.055 357.384 604.328 356.551C604.602 355.717 604.992 355.008 605.5 354.422C606.014 353.829 606.63 353.374 607.346 353.055C608.068 352.736 608.876 352.576 609.768 352.576C610.926 352.576 611.906 352.791 612.707 353.221C613.508 353.644 614.13 354.227 614.572 354.969C615.015 355.711 615.282 356.564 615.373 357.527H612.688C612.635 356.928 612.505 356.421 612.297 356.004C612.095 355.587 611.789 355.271 611.379 355.057C610.975 354.835 610.438 354.725 609.768 354.725C609.247 354.725 608.788 354.822 608.391 355.018C608 355.213 607.674 355.506 607.414 355.896C607.154 356.281 606.958 356.762 606.828 357.342C606.698 357.915 606.633 358.579 606.633 359.334V360.438C606.633 361.16 606.691 361.808 606.809 362.381C606.926 362.954 607.108 363.439 607.355 363.836C607.603 364.233 607.922 364.536 608.312 364.744C608.703 364.952 609.169 365.057 609.709 365.057C610.367 365.057 610.9 364.952 611.311 364.744C611.727 364.536 612.043 364.23 612.258 363.826C612.479 363.423 612.619 362.921 612.678 362.322ZM616.789 361.824V361.619C616.789 360.844 616.9 360.132 617.121 359.48C617.342 358.823 617.665 358.253 618.088 357.771C618.511 357.29 619.029 356.915 619.641 356.648C620.253 356.375 620.949 356.238 621.73 356.238C622.525 356.238 623.228 356.375 623.84 356.648C624.458 356.915 624.979 357.29 625.402 357.771C625.826 358.253 626.148 358.823 626.369 359.48C626.59 360.132 626.701 360.844 626.701 361.619V361.824C626.701 362.592 626.59 363.305 626.369 363.963C626.148 364.614 625.826 365.184 625.402 365.672C624.979 366.154 624.462 366.528 623.85 366.795C623.238 367.062 622.538 367.195 621.75 367.195C620.969 367.195 620.269 367.062 619.65 366.795C619.032 366.528 618.511 366.154 618.088 365.672C617.665 365.184 617.342 364.614 617.121 363.963C616.9 363.305 616.789 362.592 616.789 361.824ZM619.367 361.619V361.824C619.367 362.286 619.413 362.719 619.504 363.123C619.595 363.527 619.735 363.882 619.924 364.188C620.113 364.493 620.357 364.734 620.656 364.91C620.962 365.079 621.327 365.164 621.75 365.164C622.167 365.164 622.525 365.079 622.824 364.91C623.124 364.734 623.368 364.493 623.557 364.188C623.752 363.882 623.895 363.527 623.986 363.123C624.077 362.719 624.123 362.286 624.123 361.824V361.619C624.123 361.163 624.077 360.737 623.986 360.34C623.895 359.936 623.752 359.581 623.557 359.275C623.368 358.963 623.12 358.719 622.814 358.543C622.515 358.361 622.154 358.27 621.73 358.27C621.314 358.27 620.956 358.361 620.656 358.543C620.357 358.719 620.113 358.963 619.924 359.275C619.735 359.581 619.595 359.936 619.504 360.34C619.413 360.737 619.367 361.163 619.367 361.619ZM634.865 364.49V356.434H637.463V367H635.021L634.865 364.49ZM635.197 362.303L635.998 362.283C635.998 362.993 635.92 363.647 635.764 364.246C635.607 364.845 635.363 365.366 635.031 365.809C634.706 366.245 634.292 366.587 633.791 366.834C633.29 367.075 632.697 367.195 632.014 367.195C631.493 367.195 631.018 367.124 630.588 366.98C630.158 366.831 629.787 366.6 629.475 366.287C629.169 365.968 628.931 365.561 628.762 365.066C628.592 364.565 628.508 363.963 628.508 363.26V356.434H631.086V363.279C631.086 363.631 631.125 363.924 631.203 364.158C631.288 364.393 631.402 364.585 631.545 364.734C631.695 364.878 631.867 364.982 632.062 365.047C632.264 365.105 632.479 365.135 632.707 365.135C633.332 365.135 633.824 365.011 634.182 364.764C634.546 364.51 634.807 364.171 634.963 363.748C635.119 363.318 635.197 362.837 635.197 362.303ZM642.277 358.689V367H639.699V356.434H642.121L642.277 358.689ZM641.867 361.336H641.105C641.112 360.568 641.216 359.871 641.418 359.246C641.62 358.621 641.903 358.084 642.268 357.635C642.639 357.186 643.078 356.84 643.586 356.6C644.094 356.359 644.66 356.238 645.285 356.238C645.793 356.238 646.252 356.31 646.662 356.453C647.072 356.596 647.424 356.824 647.717 357.137C648.016 357.449 648.244 357.859 648.4 358.367C648.563 358.868 648.645 359.487 648.645 360.223V367H646.047V360.203C646.047 359.721 645.975 359.34 645.832 359.061C645.695 358.781 645.493 358.582 645.227 358.465C644.966 358.348 644.644 358.289 644.26 358.289C643.863 358.289 643.514 358.37 643.215 358.533C642.922 358.689 642.674 358.908 642.473 359.188C642.277 359.467 642.128 359.79 642.023 360.154C641.919 360.519 641.867 360.913 641.867 361.336ZM655.92 356.434V358.289H649.865V356.434H655.92ZM651.486 353.836H654.074V363.953C654.074 364.266 654.117 364.507 654.201 364.676C654.286 364.845 654.413 364.959 654.582 365.018C654.751 365.076 654.953 365.105 655.188 365.105C655.357 365.105 655.513 365.096 655.656 365.076C655.799 365.057 655.92 365.037 656.018 365.018L656.027 366.951C655.812 367.023 655.568 367.081 655.295 367.127C655.028 367.173 654.725 367.195 654.387 367.195C653.807 367.195 653.299 367.098 652.863 366.902C652.427 366.701 652.089 366.378 651.848 365.936C651.607 365.486 651.486 364.894 651.486 364.158V353.836ZM660.217 358.592V367H657.639V356.434H660.08L660.217 358.592ZM663.43 356.365L663.391 358.768C663.247 358.742 663.085 358.722 662.902 358.709C662.727 358.696 662.561 358.689 662.404 358.689C662.007 358.689 661.659 358.745 661.359 358.855C661.06 358.96 660.809 359.113 660.607 359.314C660.412 359.516 660.262 359.764 660.158 360.057C660.054 360.343 659.995 360.669 659.982 361.033L659.426 360.965C659.426 360.294 659.494 359.673 659.631 359.1C659.768 358.527 659.966 358.025 660.227 357.596C660.487 357.166 660.812 356.834 661.203 356.6C661.6 356.359 662.056 356.238 662.57 356.238C662.714 356.238 662.867 356.251 663.029 356.277C663.199 356.297 663.332 356.326 663.43 356.365ZM667.58 356.434V367H664.992V356.434H667.58ZM664.816 353.67C664.816 353.286 664.947 352.967 665.207 352.713C665.474 352.459 665.832 352.332 666.281 352.332C666.73 352.332 667.085 352.459 667.346 352.713C667.613 352.967 667.746 353.286 667.746 353.67C667.746 354.048 667.613 354.363 667.346 354.617C667.085 354.871 666.73 354.998 666.281 354.998C665.832 354.998 665.474 354.871 665.207 354.617C664.947 354.363 664.816 354.048 664.816 353.67ZM674.787 367.195C673.986 367.195 673.267 367.065 672.629 366.805C671.991 366.544 671.447 366.183 670.998 365.721C670.555 365.252 670.214 364.708 669.973 364.09C669.738 363.465 669.621 362.794 669.621 362.078V361.688C669.621 360.874 669.738 360.135 669.973 359.471C670.207 358.8 670.539 358.224 670.969 357.742C671.398 357.26 671.913 356.889 672.512 356.629C673.111 356.368 673.771 356.238 674.494 356.238C675.243 356.238 675.904 356.365 676.477 356.619C677.049 356.867 677.528 357.218 677.912 357.674C678.296 358.13 678.586 358.676 678.781 359.314C678.977 359.946 679.074 360.646 679.074 361.414V362.498H670.793V360.721H676.535V360.525C676.522 360.115 676.444 359.741 676.301 359.402C676.158 359.057 675.936 358.784 675.637 358.582C675.337 358.374 674.95 358.27 674.475 358.27C674.09 358.27 673.755 358.354 673.469 358.523C673.189 358.686 672.954 358.921 672.766 359.227C672.583 359.526 672.447 359.884 672.355 360.301C672.264 360.717 672.219 361.18 672.219 361.688V362.078C672.219 362.521 672.277 362.931 672.395 363.309C672.518 363.686 672.697 364.015 672.932 364.295C673.173 364.568 673.459 364.783 673.791 364.939C674.13 365.089 674.514 365.164 674.943 365.164C675.484 365.164 675.972 365.06 676.408 364.852C676.851 364.637 677.235 364.321 677.561 363.904L678.859 365.252C678.638 365.577 678.339 365.89 677.961 366.189C677.59 366.489 677.141 366.733 676.613 366.922C676.086 367.104 675.477 367.195 674.787 367.195ZM686.613 364.109C686.613 363.888 686.555 363.689 686.438 363.514C686.32 363.338 686.099 363.178 685.773 363.035C685.454 362.885 684.986 362.745 684.367 362.615C683.82 362.498 683.316 362.352 682.854 362.176C682.391 362 681.994 361.788 681.662 361.541C681.33 361.287 681.07 360.991 680.881 360.652C680.699 360.307 680.607 359.91 680.607 359.461C680.607 359.025 680.702 358.615 680.891 358.23C681.079 357.84 681.353 357.498 681.711 357.205C682.069 356.906 682.505 356.671 683.02 356.502C683.534 356.326 684.113 356.238 684.758 356.238C685.656 356.238 686.428 356.385 687.072 356.678C687.723 356.971 688.221 357.374 688.566 357.889C688.911 358.396 689.084 358.969 689.084 359.607H686.506C686.506 359.327 686.441 359.074 686.311 358.846C686.187 358.618 685.995 358.436 685.734 358.299C685.474 358.156 685.145 358.084 684.748 358.084C684.39 358.084 684.087 358.143 683.84 358.26C683.599 358.377 683.417 358.53 683.293 358.719C683.169 358.908 683.107 359.116 683.107 359.344C683.107 359.513 683.14 359.666 683.205 359.803C683.277 359.933 683.391 360.053 683.547 360.164C683.703 360.275 683.915 360.376 684.182 360.467C684.455 360.558 684.79 360.646 685.188 360.73C685.975 360.887 686.662 361.095 687.248 361.355C687.84 361.609 688.303 361.948 688.635 362.371C688.967 362.794 689.133 363.335 689.133 363.992C689.133 364.461 689.032 364.891 688.83 365.281C688.628 365.665 688.335 366.001 687.951 366.287C687.567 366.574 687.108 366.798 686.574 366.961C686.04 367.117 685.438 367.195 684.768 367.195C683.798 367.195 682.977 367.023 682.307 366.678C681.636 366.326 681.128 365.883 680.783 365.35C680.438 364.809 680.266 364.249 680.266 363.67H682.736C682.756 364.08 682.867 364.409 683.068 364.656C683.27 364.904 683.524 365.083 683.83 365.193C684.143 365.298 684.471 365.35 684.816 365.35C685.207 365.35 685.536 365.298 685.803 365.193C686.07 365.083 686.271 364.936 686.408 364.754C686.545 364.565 686.613 364.35 686.613 364.109Z" fill="white"/>
</svg>
