<svg width="467" height="416" viewBox="0 0 467 416" fill="none" xmlns="http://www.w3.org/2000/svg">
<path d="M386.38 317.59C379.64 314.76 371.99 314.92 364.89 316.68C361.08 317.62 357.15 319.09 354.75 322.2C352.35 325.31 352.26 330.45 355.47 332.7C357.38 334.04 359.9 334.07 362.23 333.86C367.85 333.35 374.01 331.86 378.77 334.86C381.49 336.59 383.45 339.67 386.59 340.38C389.73 341.09 392.9 339.03 394.28 336.2C395.524 333.267 395.588 329.968 394.46 326.99C393.926 324.908 392.919 322.977 391.517 321.347C390.116 319.717 388.358 318.431 386.38 317.59Z" fill="#EBEBEB"/>
<path d="M411.31 301.11C406.76 306.32 399.31 303.63 396.1 299.81C392.89 295.99 391.94 290.81 391.1 285.94C389.1 274.73 387.21 262.99 390.73 252.18C391.65 248.884 393.459 245.905 395.96 243.57C398.55 241.37 402.28 240.29 405.45 241.51C409.21 242.94 411.21 246.99 412.56 250.78C416.533 261.971 417.964 273.907 416.75 285.72C416.18 291.22 414.91 296.91 411.33 301.11" fill="#EBEBEB"/>
<path d="M420.1 319.05C416.58 313.84 416.57 306.79 419 301C421.43 295.21 426 290.56 431.13 286.9C437.144 282.606 443.938 279.525 451.13 277.83C453.928 277.032 456.866 276.851 459.74 277.3C461.168 277.538 462.516 278.117 463.672 278.987C464.828 279.858 465.757 280.994 466.38 282.3C467.95 286.3 465.56 290.66 463.11 294.17C458.791 300.368 453.986 306.213 448.74 311.65C444.53 316.03 439.79 320.28 433.91 321.83C428.03 323.38 422.21 322.5 419.64 318.26" fill="#EBEBEB"/>
<path d="M405.93 373.05C405.649 372.227 405.462 371.375 405.37 370.51C405.04 368.65 404.63 366.32 404.13 363.51C403.515 360.084 402.721 356.693 401.75 353.35C400.515 349.3 398.96 345.354 397.1 341.55C395.254 337.738 392.877 334.206 390.04 331.06C387.732 328.496 384.879 326.48 381.69 325.16C379.532 324.294 377.251 323.775 374.93 323.62C374.064 323.657 373.196 323.604 372.34 323.46C373.195 323.279 374.067 323.196 374.94 323.21C377.33 323.205 379.7 323.629 381.94 324.46C385.289 325.727 388.298 327.753 390.73 330.38C393.681 333.565 396.141 337.171 398.03 341.08C399.936 344.936 401.502 348.952 402.71 353.08C403.643 356.467 404.374 359.907 404.9 363.38C405.35 366.38 405.63 368.74 405.8 370.38C405.942 371.263 405.986 372.158 405.93 373.05Z" fill="#E0E0E0"/>
<path d="M402.54 380.75C402.52 380.349 402.54 379.947 402.6 379.55C402.7 378.66 402.82 377.55 402.98 376.16C403.3 373.21 403.76 368.94 404.16 363.65C405.04 353.08 405.35 341.65 405.31 325.45C405.31 310.23 404.92 292.45 403.79 280.85C403.56 278.21 403.3 275.85 403.04 273.73C402.78 271.61 402.61 269.83 402.38 268.37C402.15 266.91 402.06 265.87 401.94 264.98C401.869 264.584 401.842 264.182 401.86 263.78C402.006 264.153 402.103 264.542 402.15 264.94C402.32 265.82 402.53 266.94 402.79 268.3C403.05 269.66 403.34 271.56 403.63 273.65C403.92 275.74 404.26 278.13 404.53 280.77C406 294.544 406.731 308.387 406.72 322.24C406.72 338.46 405.98 353.14 404.91 363.72C404.41 369.01 403.84 373.27 403.39 376.21C403.15 377.58 402.96 378.7 402.81 379.59C402.772 379.987 402.681 380.377 402.54 380.75Z" fill="#E0E0E0"/>
<path d="M405.271 358.7C405.309 357.581 405.436 356.468 405.65 355.37C406.01 353.24 406.65 350.17 407.65 346.45C408.861 342.088 410.316 337.798 412.01 333.6C414.009 328.422 416.406 323.407 419.18 318.6C424.91 308.26 432.06 300.07 438.04 295.17C439.371 294.041 440.771 292.996 442.23 292.04C442.861 291.61 443.43 291.17 444 290.84L445.581 289.98C446.538 289.402 447.541 288.904 448.581 288.49C448.721 288.72 444.32 290.71 438.5 295.71C431.063 302.395 424.823 310.302 420.051 319.09C417.325 323.87 414.923 328.828 412.861 333.93C410.861 338.61 409.461 342.93 408.331 346.62C407.201 350.31 406.511 353.32 406.051 355.42C405.879 356.532 405.618 357.629 405.271 358.7Z" fill="#E0E0E0"/>
<path d="M377.6 366.12L380.44 404.99H430.37L433.21 366.12H377.6Z" fill="#E0E0E0"/>
<path d="M439.17 350.8H372.78V366.12H439.17V350.8Z" fill="#E0E0E0"/>
<path d="M372.78 403.5V407.75H375.9H438.07V403.5H372.78Z" fill="#EBEBEB"/>
<path d="M378.95 415.22L375.9 407.75H435.69L432.12 415.22H378.95Z" fill="#E0E0E0"/>
<path d="M432.28 378.82C432.218 378.948 432.141 379.069 432.05 379.18L431.3 380.18L428.39 383.9L428.26 384.07L428.14 383.89L420.99 374.01H421.4L414.4 384.01L414.18 384.33L413.93 384.03C411.33 380.94 408.51 377.59 405.59 374.1H406.07L405.61 374.67L398.1 383.98L397.85 384.29L397.62 383.97L390.62 373.97H391.03L382.36 383.85L382.2 384.03L382.09 383.83L379.37 379.27L378.68 378.06C378.589 377.923 378.515 377.775 378.46 377.62C378.46 377.62 378.58 377.75 378.75 378.01C378.92 378.27 379.21 378.7 379.52 379.18C380.22 380.26 381.17 381.77 382.37 383.65H382.1C384.33 381.05 387.22 377.65 390.63 373.65L390.85 373.4L391.04 373.67L398.15 383.59H397.67L405.11 374.23L405.57 373.65L405.81 373.35L406.05 373.64L414.37 383.59H413.91C416.47 380.01 418.86 376.67 421.01 373.68L421.22 373.39L421.42 373.68L428.42 383.68H428.1L431.1 380.05L431.91 379.12C432.021 379.006 432.146 378.905 432.28 378.82Z" fill="#F5F5F5"/>
<path d="M425.9 372.86C425.9 373.03 413.39 373.17 397.96 373.17C382.53 373.17 370.021 373.03 370.021 372.86C370.021 372.69 382.52 372.55 397.96 372.55C413.4 372.55 425.9 372.69 425.9 372.86Z" fill="#F5F5F5"/>
<path d="M428.43 415.17C428.43 415.34 414.83 415.48 398.06 415.48C381.29 415.48 367.69 415.34 367.69 415.17C367.69 415 381.28 414.86 398.06 414.86C414.84 414.86 428.43 414.99 428.43 415.17Z" fill="#F5F5F5"/>
<path d="M167.42 2.08008H14.1802V255.73H167.42V2.08008Z" fill="#E0E0E0"/>
<path d="M162.33 2.08008H9.09009V255.73H162.33V2.08008Z" fill="#EBEBEB"/>
<path d="M155.8 7.22998H15.6101V250.59H155.8V7.22998Z" fill="white"/>
<path d="M128.5 38.8501H42.3V218.97H128.5V38.8501Z" fill="#EBEBEB"/>
<path d="M42.3001 155.23C42.1001 138.4 57.2301 121.98 73.8901 119.63C81.8301 118.51 90.2801 120.09 97.7001 117.04C110.95 111.61 115.17 94.0398 128.5 88.7798L129.11 218.97H42.3001V155.23Z" fill="#E0E0E0"/>
<path d="M427.62 0.0400391H297.66V135.52H427.62V0.0400391Z" fill="#E0E0E0"/>
<path d="M418.82 0.0400391H288.86V135.52H418.82V0.0400391Z" fill="#FAFAFA"/>
<path d="M418.87 135.55H288.87V0H418.87V135.55ZM288.87 135.47H418.79V0.0800018H288.9L288.87 135.47Z" fill="#E0E0E0"/>
<path d="M401.35 18.25H306.33V117.3H401.35V18.25Z" fill="white"/>
<path d="M306.33 117.96C305.661 118.96 304.876 119.876 303.99 120.69C302.47 122.29 300.34 124.45 297.99 126.81C295.64 129.17 293.4 131.26 291.78 132.75C290.959 133.621 290.035 134.39 289.03 135.04C289.701 134.045 290.486 133.132 291.37 132.32C292.88 130.72 295.02 128.55 297.42 126.19C299.82 123.83 302.02 121.72 303.64 120.19C304.449 119.346 305.351 118.598 306.33 117.96Z" fill="#E0E0E0"/>
<path d="M401.36 117.72C402.355 118.391 403.268 119.177 404.08 120.06C405.68 121.58 407.85 123.71 410.21 126.06C412.57 128.41 414.66 130.65 416.15 132.27C417.016 133.092 417.785 134.012 418.44 135.01C417.438 134.352 416.524 133.569 415.72 132.68C414.12 131.17 411.95 129.03 409.58 126.68C407.21 124.33 405.12 122.08 403.63 120.46C402.766 119.642 402.004 118.722 401.36 117.72Z" fill="#E0E0E0"/>
<path d="M401.1 117.34C401.088 117.18 401.088 117.02 401.1 116.86C401.1 116.52 401.1 116.07 401.1 115.48C401.1 114.23 401.1 112.48 401.1 110.13C401.1 105.44 401.05 98.6101 401.01 89.9401C400.96 72.5901 400.9 47.8801 400.82 18.2901L401.19 18.6501L306.43 18.7101L306.85 18.2901C306.85 54.6401 306.85 88.6601 306.79 117.34L306.43 116.98L375.05 117.16L394.32 117.26H399.42H400.74H401.2H400.78H399.5H394.5L375.31 117.36L306.46 117.54H306.1V117.34C306.1 88.6601 306.1 54.6401 306.04 18.2901V17.8701H306.47H401.23H401.59V18.2401C401.52 47.9301 401.45 72.7201 401.41 90.1301C401.36 98.7601 401.33 105.56 401.31 110.23C401.31 112.52 401.31 114.23 401.31 115.51C401.31 116.08 401.31 116.51 401.31 116.85C401.31 117.19 401.1 117.34 401.1 117.34Z" fill="#E0E0E0"/>
<path d="M369.7 51.9199H337.99V83.6299H369.7V51.9199Z" fill="#EBEBEB"/>
<path d="M457.18 414.45C457.18 414.59 354.83 414.71 228.6 414.71C102.37 414.71 0 414.59 0 414.45C0 414.31 102.33 414.19 228.6 414.19C354.87 414.19 457.18 414.34 457.18 414.45Z" fill="#263238"/>
</svg>
