<svg width="13" height="18" viewBox="0 0 13 18" fill="none" xmlns="http://www.w3.org/2000/svg">
<path d="M12.8571 7.2C12.8571 12.6 6.42857 18 6.42857 18C6.42857 18 0 12.6 0 7.2C0 5.29044 0.677294 3.45909 1.88288 2.10883C3.08848 0.758569 4.72361 0 6.42857 0C8.13353 0 9.76867 0.758569 10.9743 2.10883C12.1798 3.45909 12.8571 5.29044 12.8571 7.2Z" fill="#454545"/>
<path d="M6.42885 9.00003C7.84901 9.00003 9.00028 7.84877 9.00028 6.42861C9.00028 5.00845 7.84901 3.85718 6.42885 3.85718C5.00869 3.85718 3.85742 5.00845 3.85742 6.42861C3.85742 7.84877 5.00869 9.00003 6.42885 9.00003Z" fill="white"/>
</svg>
