<svg width="1176" height="706" viewBox="0 0 1176 706" fill="none" xmlns="http://www.w3.org/2000/svg">
<path d="M1120.8 628.965C1119.94 632.984 1117.82 636.612 1114.77 639.31C1112.61 641.17 1105.68 644.947 1104.88 639.591C1105.13 636.281 1105.78 633.016 1106.82 629.867C1108.51 625.723 1110.34 628.429 1113.08 628.965C1115.82 629.5 1118.56 626.879 1120.8 628.965Z" fill="#F1F1F1" fill-opacity="0.5"/>
<path d="M1101.97 199.874C1102.97 203.426 1103.63 206.921 1104.41 210.219C1101.64 214.249 1096.49 212.756 1092.58 214.926C1090.75 215.941 1090.23 219.69 1088.46 220.253C1086.68 220.817 1085.96 218.731 1084.61 218.759C1081.14 218.759 1079.45 225.863 1075.19 224.087C1072.75 225.863 1075.19 232.543 1072.42 233.219C1070.29 233.642 1069.12 230.401 1067.82 228.202C1066.52 226.003 1064.03 224.34 1063.97 222.311C1063.92 220.282 1067.43 216.674 1068.54 215.236C1069.65 213.798 1072.61 210.078 1074.33 209.599C1077.54 208.725 1080.81 209.965 1083.28 208.697C1085.74 207.428 1085.52 203.538 1086.65 202.495C1087.79 201.453 1088.73 201.875 1089.42 201.34C1091 199.877 1092.15 198.001 1092.74 195.918C1093.34 193.834 1093.36 191.624 1092.8 189.529C1092 186.232 1087.54 182.624 1090.39 178.593C1092.99 179.224 1095.37 180.583 1097.25 182.516C1099.12 184.449 1100.44 186.878 1101.03 189.529C1101.31 191.559 1100.36 193.588 1100.53 195.731C1100.92 197.143 1101.4 198.528 1101.97 199.874Z" fill="#F1F1F1" fill-opacity="0.5"/>
<path d="M1102.94 167.854C1102.41 169.348 1101.31 169.038 1100.31 169.911C1099.31 170.785 1098.15 173.463 1096.93 173.745C1094.99 174.196 1092.8 171.433 1090.89 171.997C1088.98 172.561 1089.95 174.816 1089.2 177.296C1087.88 176.886 1086.69 176.123 1085.76 175.087C1084.82 174.052 1084.18 172.78 1083.89 171.405C1083.89 169.714 1085.63 168.587 1086.07 166.67C1086.77 163.287 1084.91 161.596 1083.89 158.411C1083.89 157.932 1084.11 157.904 1084.13 157.537C1086.49 156.917 1091.11 162.357 1096.43 163.428C1099.87 163.992 1102.75 163.597 1102.94 167.854Z" fill="#F1F1F1" fill-opacity="0.5"/>
<path d="M1094.02 467.256C1094.27 469.708 1090.78 469.427 1090.39 467.848C1090.48 465.931 1093.61 465.339 1094.02 467.256Z" fill="#F1F1F1" fill-opacity="0.5"/>
<path d="M1077.13 142.936C1079.51 144.458 1085.3 147.982 1081.23 151.195C1079.76 150.45 1078.57 149.244 1077.83 147.756C1077.09 146.269 1076.85 144.579 1077.13 142.936Z" fill="#F1F1F1" fill-opacity="0.5"/>
<path d="M1066.02 454.29C1068.79 452.43 1071.81 448.399 1076.66 450.428C1075.58 454.093 1071.95 454.036 1069.65 455.756C1067.35 457.475 1065.36 460.435 1062.42 460.773C1062.22 460.288 1061.88 459.875 1061.45 459.589C1061.42 456.291 1064.11 455.53 1066.02 454.29Z" fill="#F1F1F1" fill-opacity="0.5"/>
<path d="M1059.51 398.79C1062.28 398.79 1065.05 397.719 1066.99 399.072C1066.63 406.457 1057.27 400.847 1051.07 402.031C1049.74 402.285 1049.35 403.525 1047.94 402.905C1048.02 401.635 1048.52 400.43 1049.34 399.474C1050.17 398.517 1051.28 397.861 1052.51 397.606C1054.28 397.381 1056.91 398.79 1059.51 398.79Z" fill="#F1F1F1" fill-opacity="0.5"/>
<path d="M1061.92 407.922C1062.2 412.01 1057.63 412.461 1056.38 415.617C1058.4 419.366 1059.15 424.609 1061.48 427.992C1061.48 430.247 1061.84 433.206 1060.73 434.193C1055.88 435.348 1053.28 424.666 1051.31 420.917C1047.6 421.79 1051.01 436.307 1046.02 434.503C1043.59 433.601 1046.02 429.457 1045.53 426.244C1045.03 423.031 1042.76 422.833 1042.76 420.607C1042.76 418.38 1044.39 416.858 1044.92 414.969C1045.69 412.291 1045.19 407.133 1047.82 406.992C1049.1 406.992 1050.84 410.318 1051.67 410.544C1054.42 411.361 1057.85 406.992 1061.92 407.922Z" fill="#F1F1F1" fill-opacity="0.5"/>
<path d="M1053 451.894C1052.09 454.149 1047.13 453.078 1046.72 451.02C1047.58 448.681 1052.59 449.386 1053 451.894Z" fill="#F1F1F1" fill-opacity="0.5"/>
<path d="M1048.41 458.997C1048.12 459.423 1047.8 459.82 1047.44 460.181C1045.61 459.448 1043.64 458.913 1043.09 456.63C1044.45 454.206 1048.35 456.207 1048.41 458.997Z" fill="#F1F1F1" fill-opacity="0.5"/>
<path d="M1041.9 451.612C1040.65 453.726 1036.36 451.443 1034.89 453.67C1032.37 453.67 1029.85 453.67 1029.35 451.02C1030.07 448.85 1032.34 450.344 1034.17 450.147C1037.08 449.724 1041.12 447.3 1041.9 451.612Z" fill="#F1F1F1" fill-opacity="0.5"/>
<path d="M1007.86 564.642C1007.44 562.056 1006.88 559.496 1006.17 556.975C1006.17 555.961 1006.17 554.692 1006.17 553.424C1005.83 551.968 1005.59 550.489 1005.45 548.998C1005.78 547.053 1007.64 546.828 1008.22 545.165C1008.97 542.346 1007.3 541.98 1007.25 538.654C1007.25 536.342 1008.69 535.215 1009.66 532.171C1010.1 530.761 1010.13 528.168 1010.63 527.153C1011.13 526.139 1013.92 524.842 1014.98 524.335C1018.66 522.108 1021.62 517.993 1025.36 517.232C1026.3 517.062 1027.58 517.232 1028.13 517.232C1030.32 516.781 1033.09 514.413 1036.11 513.708C1039.13 513.004 1041.65 513.201 1043.84 511.622C1046.76 509.276 1049.07 506.237 1050.57 502.772C1051.67 499.53 1051.37 496.796 1053.34 495.697C1054.39 495.161 1055.39 495.697 1056.47 495.415C1058.07 494.803 1059.54 493.895 1060.81 492.737C1062.5 490.905 1062.78 487.889 1064.66 485.972C1066.35 484.304 1068.21 482.821 1070.2 481.547C1071.37 480.824 1072.69 480.416 1074.05 480.363C1077.46 480.701 1079.04 486.508 1082.75 485.38C1084.08 484.957 1085.52 481.519 1086.63 479.461C1088.34 476.445 1089.62 472.414 1092.64 471.512C1095.1 470.779 1097.82 472.64 1099.17 470.018C1099.48 468.158 1098.01 467.059 1099.17 465.903C1101.94 466.1 1106.73 470.751 1110.97 470.892C1113.27 470.892 1117.54 467.848 1117.98 472.076C1118.2 473.965 1116.26 475.487 1115.82 477.403C1115.49 478.756 1116.29 479.489 1115.57 480.955C1113.6 481.885 1111.53 482.392 1111.47 485.07C1111.47 488.453 1115.38 490.031 1117.73 491.863C1119.36 493.132 1120.72 495.048 1121.61 495.697C1122.49 496.345 1123.52 496.486 1124.02 496.881C1125.6 498.121 1126.79 500.94 1128.86 501.024C1130.94 501.109 1133.77 497.275 1135.12 493.611C1136.37 489.09 1137.18 484.454 1137.53 479.771C1137.78 478.277 1138.64 476.811 1138.97 475.346C1139.91 471.287 1141.19 465.847 1144.04 464.409C1146.81 468.158 1147.92 475.402 1147.45 481.547C1149.36 483.323 1152.74 482.731 1153.21 486.846C1153.38 488.284 1152.63 490.087 1152.74 491.553C1152.9 494.062 1154.43 496.232 1154.68 498.346C1155.15 502.292 1154.15 505.534 1155.62 508.381C1157.5 511.989 1161.16 511.876 1163.6 515.766C1163.7 517.59 1164.12 519.382 1164.81 521.065C1165.04 521.967 1164.81 523.433 1165.04 524.025C1165.81 525.998 1167.81 526.195 1168.66 527.858C1169.05 528.676 1168.94 530.226 1169.38 531.692C1170.33 533.766 1171.46 535.747 1172.76 537.611C1174.05 539.433 1175.11 541.412 1175.92 543.502C1176.39 546.321 1174.65 548.463 1174.2 550.887C1174.1 554.146 1173.79 557.395 1173.26 560.611C1171.46 564.565 1169.45 568.414 1167.22 572.14C1165.53 575.923 1163.24 579.406 1160.47 582.456C1158.94 583.95 1157.11 584.824 1155.62 586.29C1153.38 588.82 1151.29 591.484 1149.36 594.267C1147.2 597.085 1144.54 599.228 1142.85 601.652C1140.36 605.147 1139.14 610.812 1134.87 611.376C1132.49 611.382 1130.12 611.782 1127.87 612.56C1124.29 614.308 1121.94 617.493 1120.17 617.577C1118.39 617.662 1116.57 614.9 1114.85 614.618C1113.13 614.336 1111.39 616.422 1108.56 616.394C1107.43 616.394 1106.85 615.548 1105.21 614.928C1101.75 613.575 1097.95 613.631 1097.48 609.037C1097.21 606.5 1098.79 605.372 1098.68 603.117C1098.56 600.862 1096.76 600.299 1095.91 598.41C1096.28 597.41 1096.37 596.323 1096.15 595.275C1095.94 594.226 1095.44 593.261 1094.71 592.491C1094.58 591.039 1094.92 589.581 1095.68 588.347C1094 588.995 1092.38 589.797 1090.84 590.743C1089.09 592.012 1087.82 595 1085.8 594.549C1083.77 594.098 1085.35 591.42 1085.05 589.559C1084.18 586.519 1082.79 583.657 1080.95 581.103C1078.39 579.403 1075.59 578.11 1072.64 577.27C1065.19 575.832 1060.43 580.709 1054.53 581.413C1053 581.329 1051.48 581.329 1049.96 581.413C1045.11 582.428 1039.71 587.051 1036.66 590.236C1031.68 590.856 1026.64 588.996 1021.46 590.856C1016.28 592.716 1013.43 597.875 1005.56 596.494C1003.98 594.859 1001.21 594.041 1001.21 591.194C1001.21 588.939 1003.98 587.474 1004.81 585.867C1006.25 583.324 1007.2 580.518 1007.58 577.608C1007.58 575.663 1006.5 573.296 1006.61 570.843C1006.97 568.617 1007.89 566.559 1007.86 564.642Z" fill="#F1F1F1" fill-opacity="0.5"/>
<path d="M1003.76 441.578C1005.09 441.352 1006.06 440.168 1007.39 440.112C1010.16 440.112 1012.93 442.649 1016.31 442.17C1017.03 443.128 1016.53 443.917 1016.56 445.411C1019.33 447.272 1024.01 446.933 1025.47 450.429C1023.37 453.247 1020.21 451.218 1017.52 450.71C1014.84 450.203 1012.46 450.513 1009.8 450.147C1006.42 449.667 1003.37 447.328 1000.13 446.905C998.193 446.595 996.199 447.243 994.343 446.905C992.487 446.567 984.095 442.733 983.957 440.112C983.818 437.491 987.613 436.617 990.964 437.293C995.229 437.857 998.193 442.536 1003.76 441.578Z" fill="#F1F1F1" fill-opacity="0.5"/>
<path d="M1010.27 421.227C1008.44 420.578 1006.72 420.945 1005.95 420.325C1004.29 419.085 1004.54 415.561 1004.01 413.532C1003.48 411.502 1001.46 410.431 1000.38 407.641C998.802 403.61 998.137 394.618 1002.32 393.773C1003.98 393.434 1005.73 395.013 1006.89 394.646C1009.22 393.97 1008.83 390.277 1010.77 388.755C1011.85 387.91 1013.81 388.248 1015.34 387.571C1016.95 386.548 1018.29 385.122 1019.21 383.428C1020.21 381.962 1021.01 379.482 1022.34 378.439C1023.67 377.396 1025.11 377.199 1026.44 376.071C1029.6 373.111 1029.71 368.996 1032.23 365.445C1034.39 362.429 1037.77 368.263 1038.02 370.744C1039.24 372.632 1041.59 373.083 1042.62 375.169C1041.21 380.384 1037.08 380.807 1038.02 388.163C1038.32 389.887 1038.81 391.57 1039.49 393.181C1040.18 394.9 1042.26 396.789 1042.12 397.888C1041.98 400.115 1038.35 400.002 1037.55 402.313C1036.75 404.625 1037.55 404.625 1037.3 407.951C1036.28 410.375 1033.56 410.938 1032.7 413.87C1031.71 417.365 1032.87 421.903 1030.54 424.496C1028.94 424.496 1027.19 426.188 1025.25 425.962C1023.31 425.737 1021.13 422.185 1017.75 422.129C1016.47 422.129 1014.98 423.115 1013.65 423.002C1012.32 422.89 1011.85 421.734 1010.27 421.227Z" fill="#F1F1F1" fill-opacity="0.5"/>
<path d="M994.648 414.659C1000.8 414.659 1000.8 426.3 994.648 426.3C988.499 426.3 988.527 414.659 994.648 414.659Z" fill="#F1F1F1" fill-opacity="0.5"/>
<path d="M985.646 413.25C987.302 414.845 988.475 416.889 989.025 419.141C989.025 421.227 986.394 421.114 985.646 423.876C984.511 428.104 986.172 432.924 984.206 435.151C983.126 435.969 981.132 435.715 979.387 435.743C975.052 431.762 971.169 427.299 967.81 422.439C966.341 420.814 965.041 419.038 963.932 417.14C962.686 414.321 962.243 411.22 960.803 408.684C959.362 406.147 957.202 404.737 955.983 402.201C954.959 400.143 954.876 397.409 953.796 395.407C952.715 393.406 951.026 392.758 949.946 391.292C949.17 390.306 948.727 388.812 948.007 387.741C944.988 383.287 939.144 380.976 938.839 374.464C940.086 372.745 941.36 375.113 943.659 375.648C945.154 375.987 946.927 375.648 948.007 375.93C950.195 376.832 951.718 381.032 954.045 383.315C955.346 384.584 957.036 385.486 958.393 386.839C959.75 388.192 960.858 390.418 961.994 391.292C963.572 392.448 965.76 393.237 967.81 394.815C970.579 396.986 975.565 399.241 976.119 403.694C976.285 404.794 975.676 406.654 975.87 407.5C976.202 409.05 977.808 409.726 978.639 411.051C979.47 412.376 980.079 415.167 981.796 415.477C983.514 415.787 983.818 413.081 985.646 413.25Z" fill="#F1F1F1" fill-opacity="0.5"/>
<path d="M871.759 351.267C873.836 352.112 880.76 362.541 878.739 368.179C878.298 369.212 877.551 370.08 876.603 370.661C875.655 371.242 874.552 371.508 873.448 371.42C868.657 370.49 869.571 357.496 871.011 352.253C871.055 352.042 871.145 351.844 871.275 351.673C871.404 351.502 871.57 351.363 871.759 351.267Z" fill="#F1F1F1" fill-opacity="0.5"/>
<path d="M711.259 500.601C711.557 497.793 712.644 495.131 714.388 492.934C716.632 490.905 719.623 491.102 721.866 489.693C724.131 488.335 726.1 486.522 727.655 484.366C728.818 482.533 728.901 480.419 729.843 479.066C730.785 477.713 731.948 477.854 732.612 476.699C733.277 475.543 733.167 473.711 734.302 472.583C737.681 470.808 738.623 478.221 739.149 483.492C739.287 485.098 739.98 486.818 739.869 487.607C739.509 489.975 737.404 490.426 736.739 492.061C736.315 498.05 734.92 503.926 732.612 509.452C731.006 514.047 730.092 519.064 728.763 523.038C728.292 524.476 727.267 525.603 726.824 526.872C725.107 531.889 724.442 539.781 721.285 541.923C719.157 542.979 716.874 543.674 714.527 543.981C713.001 543.803 711.57 543.136 710.441 542.077C709.311 541.019 708.54 539.623 708.24 538.09C707.852 536.399 708.24 534.651 708.018 532.763C707.317 530.467 706.908 528.089 706.8 525.688C707.326 519.684 712.117 516.752 712.339 511.82C712.727 508.099 710.926 504.378 711.259 500.601Z" fill="#F1F1F1" fill-opacity="0.5"/>
<path d="M594.934 80.643C595.211 85.604 588.758 84.9838 587.927 89.0992C587.567 91.0159 588.675 93.5809 588.425 95.3003C587.927 98.4009 585.462 97.4989 582.388 99.1337C580.809 99.9793 579.286 103.052 577.568 103.249C575.851 103.446 574.993 102.122 573.94 102.375C572.362 102.742 572.888 105.194 570.561 105.617C568.706 106.011 565.465 103.587 565.244 106.519C565.105 108.379 568.152 109.337 570.063 109.168C571.974 108.999 572.694 107.703 574.162 107.703C576.931 107.703 578.898 110.296 580.698 110.352C584.825 110.493 589.007 105.673 593.245 106.209C595.211 106.462 596.374 108.154 597.842 107.984C600.169 107.731 602.135 104.433 603.852 103.249C603.132 98.2881 603.852 91.7205 607.73 91.4669C610.333 91.2695 614.238 96.9069 614.709 91.4669C614.754 90.4063 614.411 89.3665 613.746 88.5489C613.081 87.7313 612.141 87.1942 611.109 87.0415C609.724 87.0415 607.896 90.3957 606.76 87.6334C606.76 84.8147 609.253 85.6321 610.61 84.8147C611.967 83.9973 612.383 82.9544 613.518 82.4752C619.251 79.9948 627.228 84.8993 629.444 78.9236C624.348 73.6245 615.595 80.8686 609.89 80.3894C608.432 80.1997 607.053 79.6048 605.904 78.6701C604.756 77.7353 603.883 76.4967 603.381 75.0902C603.132 74.1882 603.381 72.948 603.132 71.2568C602.883 69.5655 602.107 67.3951 602.163 66.2395C602.412 60.9121 613.241 59.8974 613.241 53.2453C611.753 52.1146 609.921 51.5541 608.067 51.6624C606.213 51.7706 604.456 52.5407 603.104 53.8372C602.384 54.7674 602.44 56.6559 601.415 58.5726C599.255 62.6034 592.275 63.0825 590.087 68.0153C589.293 69.868 588.96 71.8914 589.118 73.9063C589.699 76.9505 594.768 77.6552 594.934 80.643ZM537.492 369.278C530.54 368.038 523.422 371.448 518.658 373.985C515.889 375.451 513.119 377.706 510.709 377.819C508.3 377.931 506.167 376.353 503.952 376.071C500.801 375.775 497.625 375.975 494.535 376.663C491.765 377.255 489.245 379.679 486.807 379.905C482.127 380.327 477.695 374.746 474.732 371.928C472.959 370.208 471.131 368.827 469.442 367.22C467.752 365.614 465.287 364.402 463.903 362.795C462.019 360.54 462.019 356.622 461.133 353.634C459.942 350.111 456.369 347.518 453.655 344.192C451.605 341.683 446.925 337.962 446.399 334.749C446.149 333.114 446.98 331.226 446.897 329.422C446.759 326.857 445.18 325.391 445.208 323.531C445.208 320.937 447.756 318.936 448.337 316.737C448.642 315.638 448.504 314.06 448.808 312.622C449.501 309.606 451.107 307.859 450.747 303.461C450.608 301.714 449.39 300.135 449.307 297.824C449.307 296.274 450.138 295.428 450.027 293.991C449.833 291.482 447.257 290.975 446.897 288.099C446.537 285.224 449.224 282.631 450.747 279.249C451.439 277.727 451.827 275.387 452.436 274.231C453.794 271.723 456.009 270.511 457.034 268.03C457.782 266.198 458.031 263.492 458.723 262.111C459.416 260.73 461.493 259.292 463.072 257.094C464.429 255.233 464.983 252.95 465.841 252.076C467.213 251.233 468.671 250.543 470.19 250.019C474.67 247.714 478.181 243.84 480.077 239.11C479.466 235.637 480.158 232.056 482.016 229.076C483.019 226.106 484.766 223.453 487.085 221.381C490.103 219.295 492.928 219.126 495.033 215.208C496.423 212.955 497.364 210.445 497.803 207.823C497.767 206.327 497.32 204.871 496.512 203.62C495.705 202.37 494.568 201.375 493.233 200.748C491.045 200.297 487.694 202.749 486.475 199.846C486.087 198.916 486.614 196.745 486.475 195.731C486.198 193.786 484.841 192.433 484.786 190.995C484.786 188.177 487.001 185.358 487.555 182.145C488.469 177.804 487.555 174.478 487.334 169.46C490.685 162.949 498.191 166.191 505.669 166.811C506.777 166.811 508.078 166.473 509.297 166.501C513.728 166.642 517.19 168.276 518.686 163.682C519.386 160.378 519.637 156.992 519.434 153.619C518.326 150.531 516.59 147.717 514.338 145.36C511.956 143.5 508.494 144.318 507.109 140.935C508.217 135.129 513.562 139.977 516.775 138.596C518.409 137.891 518.215 134.424 519.545 133.86C520.542 133.494 521.816 135.072 523.173 135.044C525.519 134.231 527.718 133.031 529.681 131.492C531.232 130.224 531.703 127.574 533.06 126.475C533.974 125.742 535.193 125.827 536.218 125.291C538.573 123.987 540.624 122.179 542.228 119.992C544.222 117.173 545.136 113.453 547.546 112.917C550.786 112.184 558.098 113.706 558.624 109.366C559.15 105.025 555.661 102.009 556.935 97.5553C557.932 94.0601 560.535 94.7366 564.163 92.538C565.936 94.0601 565.41 98.4291 565.631 100.994C567.875 100.994 572.417 100.177 572.86 97.7526C573.414 94.7084 569.592 91.6078 568.761 89.7757C567.93 87.9435 567.653 84.3074 565.853 83.8846C562.197 83.0108 558.624 90.0575 554.027 90.0575C552.451 89.9097 550.951 89.2978 549.712 88.2966C548.472 87.2954 547.546 85.9483 547.047 84.4201C546.824 82.8525 546.74 81.2676 546.798 79.6847C546.026 77.0056 545.699 74.2145 545.828 71.4259C547.684 67.5643 551.949 66.916 554.996 64.9147C556.159 64.1818 557.101 62.5752 558.375 62.096C560.535 61.1094 563.748 62.096 565.853 60.6021C567.21 59.6719 566.822 58.0653 567.792 56.1767C568.401 54.9929 569.869 54.3164 570.561 52.9352C571.115 52.005 571.171 50.5675 571.752 49.6937C573.857 46.5086 577.679 45.3247 579.23 42.0268C579.923 40.5611 578.039 40.0256 578.51 37.8834C578.981 35.7411 582.305 37.3478 584.049 37.0096C586.459 36.5586 588.675 32.9788 591.306 32.2741C594.113 32.0425 596.894 31.5519 599.615 30.8084C601.138 30.1038 602.384 28.4125 603.963 28.1588C604.462 28.1588 605.902 28.4971 606.733 28.4407C607.564 28.3843 608.644 27.7078 609.862 27.5669C611.967 27.6482 614.066 27.8458 616.149 28.1588C619.972 28.1588 623.572 26.7495 626.757 28.4407C628.419 29.3427 628.225 31.6258 630.385 32.5842C631.465 33.0634 632.878 32.3869 634.484 32.5842C636.839 32.8661 639.304 34.8391 642.433 35.2338C643.569 35.3747 644.704 35.0646 645.812 35.2338C649.499 36.203 653.067 37.593 656.448 39.3773C659.217 40.5329 665.255 41.9986 665.366 45.2683C665.366 49.1581 660.159 50.2856 657.888 50.2856C654.093 50.2856 649.053 47.4669 645.092 49.1018C645.086 50.5929 645.38 52.0695 645.956 53.4404C646.532 54.8113 647.379 56.0474 648.443 57.0723C649.507 58.0972 650.767 58.8892 652.143 59.3993C653.52 59.9095 654.985 60.127 656.448 60.0383C656.918 56.8814 653.401 58.629 653.678 55.5848C656.088 53.3862 658.968 57.0787 662.375 56.4868C663.704 56.0358 663.482 53.6681 663.815 52.0614C666.584 49.9192 670.268 46.7904 674.672 49.2427C674.881 48.7641 675.216 48.3542 675.641 48.0589C675.918 44.8174 672.872 43.1261 674.423 40.1101C675.281 37.9961 679.768 38.729 680.46 40.392C681.153 42.055 679.352 42.1678 679.491 43.9435C679.759 44.7593 680.284 45.4618 680.986 45.9412C681.687 46.4206 682.525 46.6498 683.368 46.5931C685.723 46.5931 686.138 43.7744 688.437 42.4496C689.323 41.9141 690.653 41.8296 691.816 41.294C692.979 40.7584 694.336 39.2645 695.444 38.9263C696.552 38.588 697.438 38.9263 698.574 38.6162C699.709 38.3061 701.51 36.8404 702.673 36.8686C703.836 36.8968 705.165 38.9263 707.021 39.2081C708.018 39.3773 709.181 38.5317 710.622 38.3344C712.062 38.137 713.031 38.5035 714.001 38.3344C716.327 37.9115 717.906 36.4458 719.817 36.5586C721.146 36.5586 723.473 38.8699 724.387 37.7424C725.938 35.8539 722.309 34.4445 723.445 32.7251C727.129 33.0634 731.062 32.9506 734.773 33.5989C740.312 34.5573 745.491 37.9115 750.449 38.0243C749.978 33.9372 746.156 35.2056 744.411 33.3171C743.171 31.4301 742.279 29.3287 741.78 27.1159C742.645 24.6372 743.778 22.2642 745.159 20.041C747.264 17.5887 754.243 17.6169 756.237 20.9148C757.622 23.1697 757.151 26.5522 759.146 26.5522C761.14 26.5522 761.749 21.3658 763.743 21.253C765.737 21.1403 766.18 24.5227 767.842 24.4945C769.504 24.4663 771.221 19.8719 773.852 19.7591C775.293 19.7591 775.763 20.6611 777.979 20.943C779.475 19.7591 777.453 18.1243 778.201 16.5176C780.97 14.1217 787.064 15.9539 790.526 14.46C791.467 13.0506 789.279 12.0641 790.276 10.6265C793.24 8.0615 798.253 7.80781 803.321 6.79308C806.396 6.14478 809.331 3.49519 811.63 3.24151C813.929 2.98783 816.588 5.04549 818.887 5.01731C820.397 4.90622 821.872 4.50447 823.235 3.83344C824.592 3.18513 825.506 1.57849 826.863 1.18387C829.269 1.00043 831.686 1.00043 834.092 1.18387C836.288 0.507571 838.558 0.109926 840.85 0C842.595 0.338244 844.007 2.62139 845.669 2.8187C850.765 3.80525 856 1.88855 860.625 3.41065C861.456 3.69252 862.287 4.73543 863.395 5.18642C866.497 6.56758 868.629 6.14478 869.211 10.8238C871.648 11.8949 873.061 14.6291 875.941 15.5592C877.88 16.1794 879.819 15.2492 881.979 15.2492C884.971 15.2077 887.963 15.4057 890.925 15.8411C892.31 16.0948 893.445 17.335 894.775 17.6169C896.104 17.8988 897.046 17.6169 898.154 17.6169C899.503 17.9851 900.871 18.2768 902.253 18.4907C904.773 18.4907 906.712 15.672 908.761 15.2492C909.991 15.288 911.21 15.487 912.389 15.8411C916.461 16.2639 921.142 15.1928 924.465 16.1511C926.974 17.3002 929.262 18.8941 931.223 20.8584C932.635 22.1832 933.494 24.2972 934.823 25.2838C936.524 26.5799 938.53 27.3966 940.64 27.6515C942.163 27.3414 942.246 25.2556 943.769 24.41C948.561 23.1134 957.064 26.2703 960.913 24.0999C962.381 23.2543 962.104 21.2812 963.323 20.2665C970.552 19.8437 977.781 20.6329 984.566 20.8584C986.882 20.5865 989.215 20.4923 991.546 20.5765C993.955 21.0839 995.7 24.0154 998.054 25.0019C999.661 25.6502 1002.43 25.312 1004.81 25.8757C1006.42 26.2703 1007.75 27.426 1008.91 27.6515C1011.43 27.7968 1013.95 27.5978 1016.42 27.0595C1021.96 26.524 1029.07 26.1575 1034.5 28.8353C1037.27 30.2447 1038.63 33.1198 1041.76 33.5426C1046.22 34.1627 1053.11 33.0916 1057.68 33.5426C1058.59 33.7997 1059.52 33.9974 1060.45 34.1345C1062.01 33.9935 1062.92 32.4151 1064.8 32.3587C1067.18 32.3587 1071.01 36.925 1074.47 36.2203C1075.96 34.9801 1073.28 33.4016 1074.69 32.0768C1076.1 30.752 1077.93 32.0768 1080.01 32.0768C1081.14 32.0768 1082.56 31.3721 1083.64 31.4849C1086.41 31.7668 1088.82 34.67 1092.08 35.6284C1095.16 36.4205 1098.35 36.6213 1101.5 36.2203C1103.61 35.5967 1105.81 35.2928 1108.01 35.3183C1109.09 35.5156 1110.03 36.4458 1111.14 36.8122C1112.25 37.1787 1113.19 36.8122 1114.05 37.0941C1114.91 37.376 1115.65 38.278 1116.46 38.5599C1120.94 40.1383 1126.93 40.8994 1131.66 42.7034C1134.43 43.7463 1137.2 45.8603 1139.64 45.9448C1140.77 45.9448 1141.8 45.3529 1143.24 45.3529C1150.55 45.3529 1159.11 49.13 1158.44 57.4451C1149.91 59.7565 1142.77 50.2856 1133.82 53.0198C1133.02 53.3634 1132.32 53.9379 1131.83 54.6734C1131.34 55.4089 1131.07 56.2739 1131.05 57.1633C1131.38 62.2933 1142.13 61.8705 1142.88 66.8878C1141.13 68.4944 1139.22 66.8878 1137.81 67.1978C1135.04 68.1113 1132.54 69.7318 1130.55 71.9051C1128.92 73.7936 1127.51 78.5854 1125.73 79.0082C1123.96 79.431 1120.2 76.3868 1117.04 77.2324C1115.85 77.5425 1114.71 79.3465 1113.66 79.6001C1110.89 80.2203 1107.62 77.8243 1105.96 81.6578C1106.85 84.4765 1106.29 88.1126 1108.12 89.6347C1109.31 90.5931 1110.89 89.832 1112.22 90.5085C1113.55 91.185 1114.85 93.8064 1116.32 95.2439C1117.79 96.6815 1118.81 96.4278 1119.47 97.8935C1119.47 100.064 1118.75 100.289 1118.98 101.727C1119.36 104.207 1122.52 104.771 1122.6 106.434C1122.6 108.576 1120.61 108.125 1120.2 110.268C1120.03 111.649 1121.5 112.015 1121.64 113.819C1121.64 115.031 1120.83 116.271 1120.92 117.653C1120.92 119.626 1122.3 120.922 1122.11 122.67C1122.01 123.342 1121.77 123.983 1121.39 124.545C1121.02 125.107 1120.52 125.574 1119.95 125.911C1115.32 122.303 1111.17 117.286 1106.1 112.635C1101.03 107.984 1092.94 102.009 1092.11 91.9742C1092.11 90.4521 1094.88 89.1555 1095.24 86.957C1095.43 86.0268 1094.94 84.702 1095.02 83.4336C1095.19 79.9666 1097.51 76.6405 1097.43 74.5829C1096.62 71.6075 1094.71 69.0636 1092.11 67.4797C1090.7 68.3817 1092.11 70.2984 1091.86 71.6232C1091.68 72.5814 1091.25 73.4718 1090.61 74.1974C1089.97 74.923 1089.15 75.4561 1088.23 75.7385C1083.69 76.2459 1083.17 68.5508 1075.94 70.7494C1074.51 71.5195 1073.36 72.7397 1072.66 74.2281C1071.97 75.7164 1071.77 77.3932 1072.09 79.0082C1072.28 80.2766 1075.19 81.686 1074.86 83.4336C1074.52 85.1812 1068.29 85.6321 1066.91 85.4912C1063 85.1248 1061.01 81.545 1057.49 81.6578C1055.77 81.6578 1054.25 83.4335 1052.89 83.7154C1045.3 85.4066 1034 79.1491 1031.43 87.267C1031.07 88.3945 1031.26 89.9166 1030.93 91.1004C1030.46 92.7917 1029.35 94.1446 1029.02 95.2439C1028.69 96.3432 1028.77 98.0626 1028.27 99.3592C1027.77 100.656 1023.29 105.701 1027.33 107.026C1028.27 107.364 1028.74 106.519 1030.1 106.744C1032.15 107.082 1035.64 111.141 1038.05 111.17C1039.52 111.17 1041.51 109.168 1042.62 109.112C1044.86 108.971 1046.5 110.747 1048.16 111.762C1049.82 112.776 1052.26 114.778 1053.47 114.58C1055.75 114.58 1054.67 112.523 1056.85 111.762C1061.01 113.255 1062.97 118.667 1066.99 123.036C1068.43 124.587 1070.56 125.855 1072.53 128.054C1073.61 129.237 1076.99 132.423 1077.13 133.945C1077.27 135.467 1076.19 135.946 1075.91 137.186C1075.52 138.99 1076.43 140.315 1075.44 141.612C1071.59 139.864 1070.7 135.241 1067.93 131.295C1066.91 129.829 1065.88 128.082 1064.33 125.968C1063.61 125.038 1061.06 121.712 1059.48 122.444C1056.47 123.854 1061.15 129.463 1061.92 130.703C1063.82 133.335 1065.13 136.355 1065.77 139.554C1065.77 141.302 1064.83 144.515 1064.8 147.531C1064.8 149.56 1065.22 151.392 1065.05 153.168C1064.6 155.081 1064.04 156.963 1063.36 158.806C1062.78 160.948 1062.67 163.541 1062.17 164.979C1061.65 166.324 1060.84 167.533 1059.8 168.518C1058.76 169.503 1057.52 170.239 1056.16 170.672C1054.14 170.672 1053.39 168.784 1051.31 168.897C1048.35 169.066 1047.8 172.42 1046.02 175.098C1046.16 177.916 1046.91 178.988 1046.5 180.989C1045.86 184.118 1042.29 184.653 1042.4 187.782C1042.51 190.911 1045.66 191.221 1047.22 192.517C1050.25 195.09 1052.94 198.067 1055.19 201.368C1056.91 203.807 1057.98 206.649 1058.32 209.627C1058.16 212.446 1051.29 216.589 1048.43 215.518C1045.58 214.447 1046.66 211.346 1046.02 208.443C1045.53 206.216 1044.09 205.23 1043.25 203.426C1042.87 202.467 1043.06 200.945 1042.53 199.874C1041.07 196.886 1038.52 198.521 1035.53 196.633C1033.56 195.392 1034.14 192.799 1033.37 190.431C1032.31 187.246 1027.83 185.752 1024.45 186.598C1021.85 187.218 1021.04 189.868 1018.63 190.431C1015.09 187.866 1019.35 181.553 1015.03 180.989C1011.68 180.566 1009.49 186.824 1007.53 188.656C1006.22 189.896 1003.84 190.15 1003.68 191.897C1003.4 195.167 1006.45 194.49 1008.97 195.759C1011.49 197.027 1011.51 200.015 1013.56 200.184C1015.61 200.353 1016.33 197.986 1018.16 197.816C1020.81 197.738 1023.4 198.685 1025.39 200.466C1024.2 204.046 1017.69 206.667 1017.66 211.403C1017.66 214.221 1020.27 214.588 1022.26 216.42C1024.26 218.252 1026.17 222.255 1028.52 225.271C1029.54 226.567 1031.29 227.413 1031.68 228.089C1032.79 230.062 1032.62 232.43 1033.84 233.727C1034.06 235.362 1033.23 235.756 1033.37 237.278C1033.95 239.392 1036.64 238.998 1037.22 241.112C1036.72 246.214 1038.46 251.005 1035.06 252.922C1033.48 262.055 1031.71 269.186 1026.61 274.175C1022.01 278.629 1015.97 279.953 1010.43 282.124C1008.99 282.688 1007.86 284.548 1006.58 285.083C1003.37 286.408 997.639 285.619 997.417 290.411C997.279 292.75 999.854 294.188 1000.05 296.584C1000.35 300.276 997.667 303.997 995.7 304.279C994.559 304.326 993.445 303.92 992.592 303.147C991.74 302.374 991.215 301.294 991.13 300.135C990.936 296.612 994.703 295.174 994.98 293.06C995.101 292.161 995.028 291.246 994.766 290.378C994.505 289.51 994.061 288.71 993.465 288.035C992.87 287.359 992.137 286.823 991.318 286.464C990.498 286.106 989.612 285.932 988.721 285.957C985.535 286.267 978.279 294.075 978.113 298.36C977.974 301.573 983.292 308.225 985.092 310.17C991.878 317.47 999.079 321.839 997.888 339.682C996.199 344.192 991.85 345.15 988.471 347.659C985.896 349.547 984.622 355.41 980.162 355.917C978.418 355.185 979.442 351.858 978.944 350.28C978.279 348.166 974.845 347.123 972.684 344.953C970.524 342.782 970.164 340.386 968.807 338.752C967.45 337.117 964.597 336.299 962.548 334.918C961.246 334.073 960.221 331.028 958.919 331.085C956.787 331.085 957.534 333.706 956.981 337.878C956.427 342.049 953.989 345.15 954.82 349.97C955.153 351.971 957.174 353.578 958.199 355.607C959.861 358.962 960.11 362.851 961.8 364.768C962.935 366.037 964.874 366.29 966.148 367.418C969.384 370.131 972.09 373.439 974.125 377.17C975.177 380.271 974.125 383.935 974.845 387.205C975.648 390.982 979.692 393.688 977.254 397.521C974.934 396.69 972.804 395.385 970.995 393.688C967.945 391.405 965.531 388.355 963.988 384.837C963.26 383.702 962.612 382.515 962.049 381.286C961.218 378.636 961.384 375.648 960.609 372.435C959.46 368.964 957.653 365.756 955.291 362.992C953.602 361.047 950.583 359.892 950.472 357.101C950.306 353.127 951.552 348.476 951.441 343.797C951.441 342.81 950.86 341.796 950.721 340.556C950.472 338.301 950.887 335.538 950.472 333.481C949.892 331.654 949.16 329.881 948.284 328.181C947.647 326.462 946.982 324.771 946.373 322.544C945.403 319.133 944.296 312.538 942.025 312.199C939.753 311.861 937.205 317.837 934.048 317.837C933.135 317.737 932.272 317.358 931.575 316.749C930.878 316.14 930.378 315.33 930.143 314.426C929.838 312.622 930.918 310.79 930.891 308.789C930.891 304.814 928.481 303.292 926.764 300.502C926.071 299.402 925.905 297.683 925.324 296.978C924.216 295.372 922.139 294.47 920.726 292.835C919.373 291.229 918.237 289.447 917.347 287.536C916.433 285.224 916.128 282.237 914.716 281.898C913.303 281.56 911.78 283.984 910.368 284.548C908.243 285.261 906.053 285.752 903.831 286.014C899.012 286.436 895.079 284.858 895.522 291.933C894.775 295.118 892.033 295.146 890.205 296.64C887.906 298.557 886.216 302.418 883.696 305.491C882.477 307.013 880.705 307.943 879.597 309.324C878.489 310.705 878.406 312.368 877.437 313.468C874.861 316.456 870.983 316.709 869.128 320.853C869.128 325.757 871.011 329.478 870.568 334.129C870.346 336.243 869.045 338.131 868.879 340.33C869.061 342.288 869.145 344.254 869.128 346.221C868.906 347.292 867.937 347.856 867.189 349.181C866.441 350.506 866.247 351.999 865.749 352.732C864.918 354.001 863.589 354.875 862.841 355.974C861.622 357.75 861.345 359.018 860.071 359.215C854.781 360.145 853.479 347.94 851.153 342.698C850.073 340.33 847.885 338.188 846.805 335.313C845.724 332.438 845.17 327.843 843.426 324.038C841.671 320.9 840.134 317.642 838.828 314.285C837.969 311.466 837.222 307.971 836.418 304.843C835.489 301.57 834.84 298.222 834.48 294.836C834.286 291.003 835.089 288.635 832.541 287.141C830.242 287.818 829.19 290.693 826.531 290.693C823.872 290.693 817.031 285.224 819.053 280.348C817.363 277.529 813.126 275.838 809.885 272.399C808.03 270.426 806.34 265.719 803.127 265.324C802.139 265.41 801.164 265.608 800.219 265.916C798.17 266.114 794.68 265.691 792.243 265.916C788.899 266.52 785.495 266.71 782.106 266.48C779.752 266.17 776.816 265.606 774.406 265.324C771.168 265.181 768.048 264.041 765.46 262.055C764.408 260.871 763.965 256.981 762.081 256.417C760.198 255.854 758.619 257.883 756.542 258.475C752.111 259.715 748.427 257.347 745.464 254.923C743.331 253.204 741.42 252.302 739.924 251.09C736.241 248.074 735.576 239.054 730.009 238.998C728.796 238.972 727.611 239.365 726.645 240.112C725.68 240.859 724.991 241.917 724.691 243.113C725.1 245.561 726.047 247.883 727.461 249.906C730.231 254.585 735.161 256.333 736.656 262.59C737.653 263.069 739.675 261.519 740.755 262.9C741.669 265.578 740.755 270.567 742.916 271.751C752.942 273.78 755.822 267.044 760.309 262.308C762.912 264.394 762.054 266.198 762.94 268.51C763.66 270.635 765.117 272.419 767.039 273.527C768.258 274.091 769.809 273.527 771.637 274.401C774.266 276.51 776.341 279.251 777.674 282.378C776.818 285.633 775.433 288.72 773.575 291.51C772.606 292.976 771.138 293.737 770.667 295.062C770.196 296.386 770.446 298.247 770.196 298.895C769.753 300.079 767.565 301.714 766.319 303.039C765.017 304.386 763.648 305.665 762.22 306.872C760.697 308.281 759.755 310.254 758.121 310.987C754.908 312.453 751.862 311.833 749.203 313.806C747.458 315.187 747.458 318.316 745.325 320.007C743.193 321.698 739.37 321.755 736.158 323.559C734.108 324.686 732.862 326.913 731.089 327.674C730.369 327.984 729.455 327.674 728.68 327.984C727.073 328.463 725.605 329.873 724.082 330.324C722.559 330.775 721.645 330.521 720.482 330.916C716.742 332.24 713.336 336.863 709.625 334.157C707.852 329.196 707.575 322.882 705.498 318.513C704.473 316.286 702.396 315.695 701.648 313.214C701.648 311.326 703.421 311.833 703.587 310.395C702.95 307.21 700.513 305.745 698.989 303.039C698.269 301.714 697.909 299.825 697.078 298.303C694.309 293.201 688.52 290.524 687.412 284.21C687.107 282.462 687.412 281.109 687.163 279.756C686.636 277.537 685.696 275.442 684.393 273.583C683.451 272.258 681.624 271.385 680.516 269.44C679.823 268.171 679.657 266.367 679.076 265.014C676.709 259.765 673.435 254.992 669.409 250.921C667.443 251.287 665.338 251.456 664.369 253.007C665.334 256.597 666.71 260.059 668.468 263.323C670.249 266.334 671.778 269.493 673.038 272.766C673.425 274.006 673.342 275.584 673.758 276.909C675.281 281.588 680.045 283.026 681.014 288.41C681.651 292.046 680.876 294.526 681.734 298.162C682.593 301.798 686.747 303.8 688.492 307.013C689.905 309.832 689.905 313.581 690.902 316.146C692.342 319.951 696.441 321.586 699.349 324.122C701.779 326.72 704.037 329.479 706.107 332.381C707.381 333.819 709.181 334.073 709.486 335.623C709.901 337.624 708.794 338.301 708.517 340.048C710.372 342.416 712.173 346.785 715.275 347.151C716.549 347.151 718.044 345.714 720.094 345.375C721.091 345.206 722.171 345.545 723.002 345.375C724.276 345.094 725.411 343.684 726.852 343.318C729.317 342.67 732.197 342.923 735.299 342.416C738.401 341.908 740.284 338.892 742.555 339.766C745.02 343.092 743.248 346.869 742.555 350.083C742.306 351.238 742.306 352.394 742.085 353.352C740.755 358.595 737.349 362.485 735.798 367.22C735.299 368.658 735.382 370.434 734.828 371.928C732.605 376.716 729.764 381.18 726.381 385.204C724.918 387.294 723.308 389.272 721.562 391.123C719.817 392.842 717.712 393.942 715.745 395.548C711.628 399.341 708.057 403.706 705.138 408.514C704.085 410.29 703.587 412.348 702.368 413.842C700.789 415.984 698.38 417.055 697.078 419.141C695.945 421.639 694.974 424.209 694.17 426.836C692.841 430.19 690.071 432.473 690.542 437.152C690.736 438.928 692.037 439.971 692.481 441.888C692.977 444.92 692.892 448.021 692.231 451.02C693.588 455.079 694.585 459.476 697.078 462.295C697.355 468.271 696.663 474.049 697.078 479.207C697.327 482.421 698.352 484.845 697.3 487.663C695.769 491.048 693.55 494.065 690.791 496.514C688.52 498.318 685.03 498.797 682.482 500.968C680.765 502.462 679.352 505.111 677.635 506.859C674.866 509.678 670.905 512.496 670.656 515.315C670.88 517.334 671.364 519.315 672.096 521.206C673.455 526.213 673.541 531.49 672.345 536.54C670.6 541.642 661.738 540.599 660.741 545.982C660.464 547.617 661.35 548.942 661.239 550.718C660.699 553.607 659.893 556.439 658.83 559.174C657.749 561.626 655.34 562.725 653.761 564.811C651.795 567.433 650.77 571.238 648.693 573.972C645.57 577.928 642.093 581.58 638.307 584.881C634.323 588.266 629.469 590.418 624.32 591.082C621.384 591.335 618.227 590.236 615.152 590.8C614.017 590.997 612.77 592.266 611.275 592.576C610.416 592.745 609.53 592.378 608.505 592.576C607.01 592.886 605.569 594.351 604.185 594.323C601.055 594.323 597.039 589.729 596.928 585.191C596.928 583.443 598.147 581.78 598.147 580.173C598.147 578.567 596.236 575.917 594.768 572.506C593.3 569.096 592.801 565.46 591.389 562.754C589.976 560.048 587.899 558.526 586.791 556.271C584.576 551.733 584.409 546.349 583.662 540.909C583.412 539.133 582.415 537.216 582.194 535.018C582.251 532.357 582.177 529.694 581.972 527.041C581.137 525.093 580.165 523.209 579.064 521.403C577.375 517.57 576.294 512.581 574.716 509.621C573.137 506.662 570.617 503.984 570.395 500.77C570.343 498 570.5 495.229 570.866 492.484C571.115 490.426 572.389 488.791 572.805 486.592C573.082 485.155 572.805 483.464 573.026 481.885C574.273 475.12 580.338 472.668 579.563 464.466C579.203 460.97 577.208 459.251 576.793 455.305C576.654 453.445 577.541 451.838 577.513 450.006C576.983 447.069 576.051 444.222 574.743 441.55C572.306 435.038 570.81 429.091 567.265 424.13C565.354 421.452 562.806 419.536 561.228 417.055C559.831 414.805 558.89 412.295 558.458 409.67C558.458 408.007 559.51 406.851 559.898 405.245C560.397 403.074 560.424 398.959 561.089 395.52C562.127 393.026 562.826 390.399 563.166 387.712C562.822 386.037 562.127 384.457 561.128 383.081C560.129 381.704 558.85 380.563 557.378 379.735C553.999 378.721 550.537 381.06 546.299 380.637C542.505 377.65 542.782 370.208 537.492 369.278ZM670.961 474.923C672.068 472.753 673.481 466.664 670.961 465.198H670.462C669.382 467.651 668.246 473.542 670.961 474.923ZM667.582 413.25C668.385 411.192 670.351 409.05 669.991 406.457C669.299 400.819 660.602 403.638 659.605 407.641C658.94 410.459 660.02 412.545 659.134 415.307C660.076 417.506 662.458 417.929 665.394 417.675C667.028 416.801 666.834 415.11 667.582 413.25ZM652.847 443.664C653.816 441.493 651.324 440.056 650.936 437.744C650.438 434.926 651.462 431.825 649.468 430.359H648.748C647.003 435.207 649.468 443.184 652.847 443.664ZM817.446 150.519C816.532 148.292 813.929 151.167 815.037 153.168C816.671 153.394 817.253 152.238 817.446 150.603V150.519ZM761.223 162.611C765.128 161.681 761.223 154.155 758.315 154.944C754.465 156.212 758.536 163.316 761.223 162.695V162.611ZM743.359 200.692C744.55 190.46 738.041 189.67 736.85 182.37C737.404 182.37 737.099 181.524 737.57 181.496C739.149 180.566 741.558 182.99 742.389 180.622C742.374 179.761 742.144 178.918 741.72 178.173C741.296 177.427 740.693 176.804 739.967 176.361C739.241 175.918 738.417 175.671 737.571 175.642C736.725 175.614 735.886 175.805 735.133 176.197C734.108 175.323 733.97 173.378 733.693 171.462C730.923 169.489 724.193 165.12 724.276 161.145C724.276 157.847 727.821 156.015 731.782 156.128C733.443 154.578 732.363 149.842 730.812 148.743C728.52 147.853 726.022 147.659 723.623 148.184C721.224 148.709 719.027 149.932 717.296 151.703C715.385 153.366 713.281 154.521 712.228 155.536C711.002 156.812 710.231 158.469 710.04 160.243C710.206 162.075 712.339 163.062 713.197 165.571C713.613 166.811 713.53 168.389 713.917 169.404C714.97 172.223 717.656 174.083 719.706 176.479C721.146 178.17 725.245 181.834 725.245 183.864C725.245 185.893 724.027 185.922 723.584 187.697C722.99 190.11 722.738 192.597 722.836 195.082C723.39 198.324 726.132 198.437 728.624 199.79C731.117 201.143 733.526 203.567 736.102 203.623C737.442 203.713 738.786 203.505 740.039 203.013C741.292 202.522 742.425 201.758 743.359 200.776V200.692ZM686.637 179.439C693.173 178.001 690.182 171.236 686.886 168.812C684.366 166.98 681.347 165.373 678.438 163.175C676.721 161.906 670.268 159.51 670.13 156.973C669.991 154.437 674.921 153.309 672.899 148.517C669.603 147.559 661.821 149.109 662.292 153.535C662.596 156.128 665.061 154.69 665.671 157.396C663.289 158.411 660.408 161.117 657.943 160.638C654.98 160.074 654.232 155.621 652.625 152.971C650.327 152.971 648.831 150.152 646.117 150.603C643.403 151.054 641.768 156.015 640.328 158.58C639.553 159.905 638.334 160.61 637.919 161.822C637.669 162.555 637.919 163.71 637.669 164.64C636.839 167.938 634.512 169.122 634.761 172.025C635.011 174.929 637.254 175.718 637.531 177.916C637.808 180.115 634.401 179.016 634.761 181.778C639.082 186.119 639.304 179.72 641.519 178.959C643.292 178.227 646.754 179.551 648.997 178.959C650.798 178.48 652.238 176.366 654.287 175.408C655.737 174.734 657.295 174.332 658.885 174.224C666.557 173.829 671.514 179.861 678.272 180.143C681.073 180.209 683.874 180.002 686.637 179.523V179.439ZM671.182 214.334C671.321 211.177 670.213 208.697 669.991 204.299C665.532 201.03 662.208 207.372 657.666 206.667C654.897 206.244 652.902 202.27 649.967 202.834C648.333 203.144 647.529 205.652 645.84 206.075C642.406 206.864 640.827 202.693 637.171 204.299C631.992 199.508 629.693 191.643 628.474 182.765C625.705 178.255 621.356 181.919 619.307 184.822C618.033 184.822 616.537 183.977 616.177 185.724C615.235 191.164 622.492 191.756 622.436 195.449C622.436 197.873 619.667 197.647 618.337 199.282C617.008 200.917 617.894 202.608 616.177 203.708C611.413 204.412 609.835 201.227 609.89 196.041C607.841 192.235 605.237 189.445 603.381 186.316C602.441 184.88 601.783 183.272 601.443 181.581C601.276 180.2 601.997 178.452 601.692 176.874C601.166 174.055 596.873 171.913 594.214 170.362C591.2 168.946 588.364 167.167 585.767 165.063C584.326 163.597 583.662 161.032 582.388 160.046C581.114 159.059 579.978 159.398 579.009 158.58C578.039 157.763 577.901 155.536 576.101 155.029C575.214 154.606 573.802 156.128 573.331 157.086C572.14 163.541 576.433 163.964 578.399 166.839C579.729 168.784 580.393 171.743 581.778 173.04C583.163 174.337 585.213 174.139 587.068 175.098C588.37 175.746 589.201 177.719 590.447 178.621C592.746 180.341 596.457 180.651 596.734 183.948C595.294 185.132 592.054 182.201 590.946 185.132C590.669 187.049 592.192 187.951 592.137 189.84C592.137 192.658 589.367 195.928 587.068 195.477C586.847 193.758 588.342 192.348 588.287 190.46C588.287 186.711 582 180.989 578.87 179.185C577.402 178.396 575.63 178.339 574.273 177.437C571.246 175.197 568.567 172.509 566.324 169.46C564.607 166.642 563.111 161.483 559.317 161.793C557.766 161.793 556.547 163.626 555.217 164.443C553.957 165.148 552.745 165.939 551.589 166.811C550.204 167.938 549.041 169.094 547.739 169.15C544.721 169.319 542.2 166.332 539.431 167.093C538.544 167.318 537.824 168.276 536.661 169.46C536.661 171.18 537.076 172.279 536.91 174.168C536.107 175.831 533.781 175.746 532.063 176.845C529.495 178.977 527.222 181.451 525.305 184.202C524.063 185.332 523.112 186.755 522.536 188.346C522.536 189.332 523.228 191.164 523.034 192.489C522.235 194.666 520.911 196.605 519.185 198.127C518.326 198.859 517.19 198.944 516.415 199.62C514.504 201.002 513.645 202.777 512.067 203.144C507.857 204.102 500.185 202.129 500.24 207.569C500.24 211.233 504.312 211.262 506.777 211.121C510.183 210.952 513.064 211.995 515.086 211.431C516.387 211.008 517.855 209.232 519.185 208.612C520.043 208.133 520.929 208.133 521.594 207.71C523.034 206.836 523.865 205.399 524.973 204.891C527.713 203.588 530.657 202.786 533.67 202.524C536.91 202.298 540.317 202.918 544.527 202.524C546.022 202.524 547.49 201.199 549.097 201.058C551.866 200.804 555.19 202.326 557.406 202.242C558.873 202.242 560.508 200.438 562.225 200.466C563.179 200.522 564.098 200.858 564.87 201.433C565.641 202.008 566.233 202.798 566.573 203.708C566.767 204.581 566.158 205.962 566.324 207.259C566.601 209.401 568.096 210.275 568.013 211.684C567.875 213.517 564.136 215.997 564.634 218.168C564.967 219.577 567.681 220.986 568.983 222.001C570.549 223.243 572.35 224.145 574.273 224.65C575.657 224.848 576.848 224.2 578.15 224.369C580.592 224.829 582.901 225.84 584.908 227.328C587.179 229.273 586.847 232.402 589.506 233.501C590.613 233.98 592.635 233.727 594.075 234.093C597.593 235.023 600.196 238.603 602.772 238.237C606.816 237.645 604.96 232.994 605.542 229.781C606.567 222.255 618.614 222.593 620.969 227.723C622.755 227.922 624.53 228.213 626.286 228.597C627.45 229.076 628.308 230.626 629.416 230.964C630.468 231.021 631.522 231.021 632.573 230.964C637.199 231.613 641.381 235.813 645.341 235.108C647.889 234.629 649.717 231.754 652.099 231.556C656.725 231.218 659.688 235.756 664.673 233.614C668.329 232.036 667.443 227.413 668.772 222.706C669.409 219.041 671.182 216.815 671.182 214.334ZM868.131 11.3876C866.136 11.5005 864.248 12.3411 862.813 13.7553C861.899 14.3472 860.043 14.6573 860.653 16.4049C862.951 15.9821 867.577 14.6854 868.131 11.303V11.3876ZM766.291 47.6924C771.969 49.2991 774.6 41.4631 770.861 37.0659C769.975 36.023 767.039 35.6284 765.793 33.2325C764.325 30.4138 764.519 26.4958 760.974 27.3414C760.974 27.6796 760.974 28.1589 760.724 28.2152C760.392 34.6701 768.092 36.2767 767.981 41.4913C767.925 44.1409 765.543 44.4227 766.291 47.6079V47.6924Z" fill="#F1F1F1" fill-opacity="0.5"/>
<path d="M686.886 36.3895C686.166 33.2043 691.123 33.5708 690.265 36.6995C690.027 36.9146 689.749 37.0779 689.447 37.1792C689.145 37.2806 688.826 37.3179 688.509 37.2888C688.193 37.2597 687.885 37.1649 687.606 37.0103C687.327 36.8556 687.082 36.6443 686.886 36.3895Z" fill="#F1F1F1" fill-opacity="0.5"/>
<path d="M657.334 212.953C657.334 210.501 661.987 209.627 662.873 211.769C662.458 214.052 658.137 215.772 657.334 212.953Z" fill="#F1F1F1" fill-opacity="0.5"/>
<path d="M574.411 196.943C576.931 194.434 582.526 196.125 586.016 196.041C585.351 198.296 585.268 201.227 583.828 202.524C579.784 201.678 576.184 200.466 574.411 196.943Z" fill="#F1F1F1" fill-opacity="0.5"/>
<path d="M556.796 181.299C560.12 177.071 563.582 179.298 562.335 187.472C561.532 189.924 558.07 193.109 556.519 189.558C556.923 186.825 557.016 184.054 556.796 181.299Z" fill="#F1F1F1" fill-opacity="0.5"/>
<path d="M561.615 171.856C561.813 172.681 561.757 173.548 561.455 174.34C561.153 175.131 560.619 175.809 559.926 176.282C556.768 175.577 559.178 168.615 561.615 171.856Z" fill="#F1F1F1" fill-opacity="0.5"/>
<path d="M514.809 111.931C514.876 111.023 514.713 110.114 514.334 109.289C513.956 108.465 513.375 107.753 512.648 107.223C511.845 106.66 510.626 106.913 509.879 106.321C507.524 104.743 506.666 101.445 505.309 100.684C505.475 97.4707 504.561 95.0466 505.309 93.0171C506.576 90.7138 508.396 88.7745 510.599 87.3797C512.704 86.4778 514.919 87.3797 516.138 85.3221C516.345 85.2773 516.558 85.2793 516.764 85.328C516.97 85.3767 517.163 85.471 517.329 85.604C517.329 87.4643 516.055 87.7744 515.889 89.4656C516.193 92.1434 520.043 90.4521 520.459 92.989C520.099 95.8077 518.077 96.2868 518.049 98.3163C518.021 100.346 520.985 103.39 522.397 105.673C523.45 107.393 525.167 108.661 526.275 110.409C527.383 112.156 527.272 113.763 527.964 114.524C529.211 116.018 532.091 116.243 532.285 118.385C532.59 121.204 529.515 122.303 529.875 125.46C526.58 128.646 521.04 126.983 515.639 127.828C513.202 128.195 510.516 131.182 507.912 128.702C507.331 126.729 510.072 126.447 510.322 124.587C510.156 122.839 508.328 123.064 507.912 121.768C508.632 119.457 510.82 118.949 510.682 115.567C511.817 113.678 514.393 114.298 514.809 111.931Z" fill="#F1F1F1" fill-opacity="0.5"/>
<path d="M496.695 104.856C499.908 102.432 505.53 104.292 505.863 107.223C506.084 109.422 504.145 109.76 503.425 112.241C502.705 114.721 503.564 117.173 502.705 118.724C501.847 120.274 499.936 119.992 498.606 120.5C495.587 121.599 489.716 125.968 487.278 121.091C487.611 118.47 489.688 117.935 490.408 115.764C490.408 114.073 488.968 113.171 489.189 111.339C489.411 109.507 490.851 109.901 492.818 108.999C494.258 108.323 494.867 106.237 496.695 104.856Z" fill="#F1F1F1" fill-opacity="0.5"/>
<path d="M331.874 40.8148C332.373 43.4362 325.532 46.875 324.867 43.4644C324.341 40.7584 330.129 37.376 331.874 40.8148Z" fill="#F1F1F1" fill-opacity="0.5"/>
<path d="M323.898 706H320.297C321.451 705.521 322.744 705.521 323.898 706Z" fill="#F1F1F1" fill-opacity="0.5"/>
<path d="M313.041 19.8719C313.136 19.7721 313.25 19.6929 313.376 19.6387C313.502 19.5846 313.638 19.5568 313.775 19.5568C313.912 19.5568 314.047 19.5846 314.173 19.6387C314.299 19.6929 314.413 19.7721 314.509 19.8719C314.259 20.5483 314.066 21.3094 313.041 21.0557V19.8719Z" fill="#F1F1F1" fill-opacity="0.5"/>
<path d="M291.576 66.775C291.576 68.4099 286.785 71.0876 286.258 67.9589C286.198 67.5162 286.256 67.0651 286.427 66.6533C286.597 66.2415 286.874 65.8843 287.228 65.6194C288.502 64.6328 291.521 65.1966 291.576 66.775Z" fill="#F1F1F1" fill-opacity="0.5"/>
<path d="M191.177 340.95C191.177 341.373 190.817 341.683 190.706 342.134C188.13 342.021 190.429 338.019 191.177 340.95Z" fill="#F1F1F1" fill-opacity="0.5"/>
<path d="M93.1872 134.649C94.8767 133.465 96.5108 136.482 95.3752 137.919C93.4919 138.342 93.021 135.749 93.1872 134.649Z" fill="#F1F1F1" fill-opacity="0.5"/>
<path d="M356.247 145.586C355.111 145.248 353.477 145.304 352.148 144.994C350.819 144.684 349.378 144.261 348.298 144.092C345.307 143.669 342.094 144.74 340.322 142.626C343.366 137.879 346.843 133.434 350.708 129.35C351.788 128.138 354.17 127.321 353.477 124.925C351.428 122.726 348.908 124.925 346.969 126.391C344.982 128.103 342.687 129.405 340.211 130.224C336.223 130.957 330.933 128.815 327.664 131.408C327.221 133.635 331.376 132.789 330.794 136.143C330.059 136.423 329.262 136.487 328.493 136.328C327.724 136.168 327.014 135.792 326.446 135.241C325.338 134.001 325.975 132.169 325.255 131.408C322.787 130.161 319.993 129.746 317.278 130.224C316.022 130.412 314.857 130.998 313.947 131.899C313.037 132.799 312.429 133.969 312.21 135.241C315.256 136.989 320.269 133.466 321.377 137.919C319.716 141.583 315.838 143.556 316.309 148.517C316.461 149.523 316.848 150.478 317.435 151.301C318.023 152.125 318.795 152.794 319.688 153.253C321.045 153.535 321.793 151.928 323.067 152.069C324.341 152.21 324.119 154.127 325.836 153.845C328.163 152.633 329.437 148.63 332.124 148.827C335.309 153.563 329.354 155.874 325.836 157.284C321.987 158.975 316.946 159.905 314.01 161.399C312.459 162.188 306.643 169.094 305.701 163.767C305.12 159.905 308.471 160.948 309.329 157.847C305.59 156.973 302.101 159.82 298.694 161.399C293.847 163.654 285.621 165.063 284.458 171.743C284.237 173.068 284.929 175.577 284.209 176.451C283.489 177.325 280.193 177.296 278.67 177.916C276.343 178.903 274.321 180.989 272.881 181.468C271.441 181.947 270.111 181.722 269.502 182.06C267.591 182.962 266.871 186.147 264.683 188.261C263.769 189.135 261.913 189.755 261.055 190.629C259.808 192.151 259.642 195.956 257.427 196.52C256.042 196.52 254.878 195.223 253.577 196.238C253.411 199.987 254.657 205.117 253.327 208.922C250.34 211.674 247.114 214.146 243.689 216.307C241.64 217.688 239.839 218.055 237.402 219.549C235.657 220.592 234.078 223.128 232.084 224.566C227.487 227.864 221.92 231.81 221.948 240.21C221.948 242.014 222.723 243.987 222.917 246.101C222.917 247.341 222.917 248.581 222.917 249.934C223.194 253.035 225.022 256.953 222.917 259.095C219.676 257.46 215.55 256.896 213.279 254.078C212.642 251.259 214.525 248.75 214.248 246.101C213.999 243.959 211.478 240.182 210.121 239.9C208.764 239.618 207.352 241.535 205.801 241.365C204.25 241.196 202.311 238.18 199.984 237.842C196.605 237.363 194.085 238.772 190.346 238.124C186.69 240.52 185.638 244.748 181.178 244.325C179.6 244.325 178.16 242.718 176.359 242.267C174.09 241.541 171.731 241.143 169.352 241.084C165.225 241.422 162.262 245.03 158.717 247.285C155.615 249.258 151.211 251.738 150.269 255.741C149.771 257.939 150.269 261.068 149.549 263.098C148.986 264.417 148.339 265.698 147.611 266.931C144.21 273.983 143.234 281.994 144.841 289.678C145.896 293.137 147.268 296.487 148.94 299.684C150.756 301.908 153.253 303.446 156.03 304.053C157.923 303.768 159.78 303.276 161.569 302.588C163.688 302.334 165.789 301.938 167.857 301.404C173.063 299.346 172.039 290.721 177.246 287.818C180.065 286.57 183.118 285.964 186.192 286.042C186.834 286.816 187.315 287.715 187.606 288.684C187.896 289.653 187.99 290.672 187.881 291.679C187.349 293.395 186.701 295.071 185.942 296.697C185.388 298.585 185.278 300.784 184.751 302.334C184.031 304.335 182.425 305.773 181.982 307.661C181.622 308.873 181.815 310.48 181.511 311.495C180.957 313.44 178.741 314.793 179.821 316.794C184.973 319.302 191.232 316.089 195.747 317.104C197.255 317.543 198.605 318.419 199.633 319.625C200.661 320.831 201.322 322.315 201.535 323.897C201.535 326.575 199.846 328.322 199.597 331.254C199.32 334.974 198.046 339.484 197.907 342.529C197.686 347.433 203.779 355.889 208.044 355.805C212.309 355.72 215.3 350.167 220.84 353.155C222.668 354.113 224.606 357.75 226.628 357.58C228.65 357.411 230.838 353.86 231.946 351.379C233.303 348.363 233.386 345.742 235.796 344.304C238.205 342.867 240.449 343.459 243.772 341.937C245.26 341.138 246.639 340.143 247.871 338.977C249.035 338.019 250.281 335.425 251.721 337.229C253.66 339.569 249.367 340.894 251.001 343.431C254.352 345.573 256.069 339.372 258.479 339.287C260.255 339.972 261.897 340.974 263.326 342.247C265.209 343.741 265.846 345.883 267.896 346.362C269.225 346.7 271.358 345.742 273.213 346.08C275.678 346.503 277.146 349.096 279.002 348.899C281.273 348.899 282.353 345.798 284.32 345.375C288.585 344.417 290.164 345.939 292.019 349.209C294.124 349.66 294.207 346.221 296.146 347.433C295.094 349.998 296.506 351.182 297.337 353.352C297.891 354.734 297.808 355.692 298.306 356.171C299.47 357.524 301.685 357.524 303.375 358.821C305.239 360.883 306.857 363.164 308.194 365.614C310.127 368.644 313.082 370.849 316.503 371.815C319.272 372.012 321.322 370.885 323.51 371.223C328.495 371.984 331.597 375.028 335.087 378.326C337.053 380.158 338.798 381.427 339.435 383.625C339.879 385.147 339.657 387.205 340.155 388.924C341.236 392.617 345.695 394.393 344.033 400.735C344.753 402.595 346.387 403.272 348.132 404.568C349.877 405.865 350.708 407.81 352.231 408.12C353.2 408.317 354.281 407.753 355.001 407.81C357.48 408.251 359.856 409.159 362.008 410.487C363.514 410.924 364.971 411.519 366.356 412.263C367.575 413.278 367.741 416.66 369.264 417.562C370.234 418.154 372.449 417.337 374.083 417.562C376.659 417.929 380.177 419.874 382.392 419.93C383.805 419.93 384.996 419.225 386.242 419.338C392.169 419.902 395.52 428.527 401.226 431.149C402.971 431.938 405.796 431.374 407.014 432.022C409.147 433.15 410.947 441.155 411.113 444.707C411.584 455.418 404.854 458.8 400.977 465.96C400.173 467.453 399.703 469.793 398.567 471.851C396.241 476.022 393.665 476.896 393.969 484.563C393.969 486.649 394.939 488.706 394.939 491.046C394.972 494.115 394.731 497.182 394.219 500.207C393.803 502.152 392.502 503.73 392.28 505.506C392.058 507.282 392.723 508.691 392.529 510.241C391.844 512.5 390.915 514.674 389.76 516.724C387.516 521.77 386.99 527.689 382.531 529.69C379.761 530.902 376.271 530.226 373.363 531.466C372.172 531.974 370.594 533.298 369.237 534.116C365.054 536.512 359.072 539.753 357.909 545.052C356.884 549.76 359.349 553.508 358.629 558.92C357.762 560.652 356.791 562.328 355.721 563.938C354.696 565.601 354.17 567.574 352.951 569.265C351.511 571.464 349.268 572.45 348.381 575.438C348.077 576.453 348.381 577.665 347.91 579.271C347.91 579.891 346.858 580.793 346.443 581.949C346.027 583.105 346.082 584.317 345.722 585.191C344.615 588.009 341.346 594.098 338.965 594.943C333.952 596.635 328.661 592.322 325.116 593.139C325.615 596.099 327.387 595.789 328.523 597.875C329.062 599.301 329.7 600.686 330.434 602.018C331.514 603.54 332.484 604.104 332.622 605.852C332.637 607.442 332.322 609.017 331.697 610.475C331.072 611.932 330.15 613.238 328.994 614.308C326.827 615.542 324.449 616.345 321.987 616.676C320.214 617.042 315.589 617.07 314.758 618.451C313.512 620.509 315.395 625.554 314.509 627.612C312.708 631.925 307.862 627.471 305.341 628.768C305.167 629.798 305.253 630.856 305.592 631.842C305.931 632.829 306.512 633.711 307.28 634.405C308.776 635.504 311.102 634.095 312.099 636.181C311.601 639 309.025 639.507 308.471 642.382C308.471 645.201 309.246 645.934 308.969 647.681C308.332 651.487 303.43 651.317 303.652 655.376C303.846 661.408 313.124 658.928 313.318 664.819C313.318 668.37 310.548 668.427 309.689 671.894C309.163 673.754 309.994 674.177 309.689 675.727C309.274 677.813 307.28 678.546 307.28 680.745C307.28 683.563 310.659 686.664 312.348 689.003C313.986 691.667 316.013 694.062 318.358 696.107C321.765 698.39 326.806 697.854 328.274 701.998C327.803 704.478 325.836 705.126 323.925 705.831H323.427C322.273 705.352 320.98 705.352 319.826 705.831H316.447C313.207 703.999 309.302 702.815 305.369 701.096C303.929 700.475 302.322 699.01 300.771 698.277C299.22 697.544 298.306 697.375 297.392 696.783C295.315 695.458 292.989 691.146 290.884 689.426C289.61 688.383 287.616 687.82 286.785 686.748C286.058 685.311 285.411 683.834 284.846 682.323C284.07 680.97 282.63 679.984 281.716 678.49C279.722 675.248 277.146 670.851 277.119 668.455C277.091 666.059 278.974 664.481 278.337 662.282C277.7 660.083 274.044 660.647 273.518 658.139C273.186 656.617 274.571 654.08 274.46 651.937C274.46 650.697 272.521 649.119 273.269 647.202C274.017 645.285 275.761 647.371 277.119 646.328C276.122 642.072 277.119 635.223 273.74 633.926C271.967 635.758 275.568 639.902 272.549 641.029C269.613 639.422 270.305 634.743 269.779 631.276C269.124 629.054 268.642 626.783 268.339 624.483C268.339 623.215 268.754 621.665 268.588 620.368C268.062 616.394 264.461 613.124 264.24 609.093C264.491 607.185 264.889 605.3 265.431 603.456C265.625 602.075 265.431 600.637 265.431 599.03C265.431 597.424 266.511 595.422 266.649 593.731C266.877 589.882 266.72 586.019 266.179 582.203C265.569 578.792 263.409 575.889 263.021 572.168C263.021 570.843 263.381 568.588 263.27 566.869C263.16 565.15 262.44 563.684 262.301 561.852C262.359 560.067 262.526 558.288 262.8 556.524C263.049 552.832 262.19 548.688 262.301 545.024C262.301 543.925 262.8 543.136 262.8 542.065C262.8 539.02 261.941 535.948 261.83 532.932C262.028 528.008 261.945 523.076 261.581 518.162C261.213 513.962 260.405 509.813 259.171 505.788C256.789 502.193 253.763 499.085 250.253 496.627C248.564 495.471 246.542 495.077 244.714 493.977C240.781 491.61 233.165 486.621 231.447 481.885C230.949 480.504 231.004 478.672 230.478 477.15C229.075 474.216 227.464 471.39 225.659 468.694C222.668 463.056 220.258 456.15 217.35 450.4C215.998 447.484 214.462 444.659 212.752 441.944C211.755 440.563 208.57 439.126 208.182 437.209C207.628 434.39 205.967 430.726 206.244 428.753C206.576 425.934 211.063 423.651 211.063 421.086C211.063 418.521 208.681 417.647 208.293 415.787C207.075 411.277 208.986 408.627 210.454 404.85C210.924 403.638 211.395 401.637 211.894 400.735C212.78 399.1 214.663 398.649 215.771 396.901C216.408 395.915 216.824 393.857 217.682 392.476C219.538 389.488 222.501 388.361 223.222 385.683C223.993 380.077 224.067 374.395 223.443 368.771C222.623 366.759 221.698 364.792 220.673 362.88C219.566 359.3 219.316 355.41 216.325 355.495C214.469 355.495 213.168 358.031 211.977 359.61C211.7 361.724 211.977 364.007 210.038 364.627C207.268 365.614 206.244 361.104 203.059 359.92C201.785 359.441 199.735 359.469 198.96 359.018C196.605 357.75 195.858 353.578 193.42 351.943C190.983 350.308 189.598 351.069 188.352 348.983C188.064 347.034 187.98 345.059 188.103 343.092C185.333 341.204 183.228 334.129 180.154 332.466C178.187 331.338 175.141 331.338 172.648 330.324C171.563 329.742 170.433 329.252 169.269 328.858C167.776 328.652 166.315 328.254 164.921 327.674C160.157 324.855 157.581 315.356 151.654 315.554C149.134 315.554 146.697 318.541 144.425 318.372C141.229 317.692 138.191 316.391 135.48 314.539C132.516 312.848 129.248 311.946 126.783 310.395C124.816 309.183 123.459 306.928 121.714 305.97C120.413 305.265 118.474 305.124 117.394 304.504C115.593 303.236 113.881 301.842 112.27 300.333C110.314 298.916 108.935 296.821 108.393 294.442C108.393 292.13 110.137 290.157 110.331 287.93C110.941 280.912 106.703 275.866 104.044 271.695C102.078 268.622 99.7513 266.057 97.7848 263.238C97.8958 261.86 97.8958 260.474 97.7848 259.095C96.167 256.848 94.7137 254.484 93.4365 252.02C91.9963 249.624 89.199 247.059 88.8389 244.353C88.3958 241.027 89.8914 238.124 88.8389 234.911C87.1217 229.555 81.0562 232.092 81.8594 239.026C82.081 240.971 84.2967 243.592 84.9891 245.537C85.6815 247.482 85.543 249.934 86.18 252.302C86.8171 254.67 88.6727 256.558 89.3374 259.095C90.3622 263.154 90.3345 267.551 91.2762 270.032C92.2178 272.512 95.1537 274.401 93.4365 277.107C91.1377 277.67 90.2791 274.88 88.8389 273.273C88.0634 272.371 85.183 270.652 84.7398 268.538C84.2967 266.424 85.6538 264.479 85.2384 262.337C84.4075 258.193 77.5388 258.08 77.5111 253.88C77.5111 251.062 80.2807 250.864 80.2807 248.243C80.2807 245.622 77.1233 242.972 76.4309 240.576C75.8684 237.658 75.5442 234.698 75.4616 231.725C75.4847 228.899 75.3274 226.075 74.9907 223.269C74.0544 220.884 72.457 218.828 70.3931 217.35C68.2882 215.913 66.5987 216.533 65.574 214.531C64.659 212.069 64.0903 209.488 63.8845 206.864C63.5244 203.313 63.8845 199.423 63.6352 195.59C63.3166 191.763 63.3166 187.916 63.6352 184.089C64.8262 181.271 67.0142 179.805 68.2328 176.986C69.0637 175.013 69.2022 172.589 70.1439 170.503C71.9164 166.642 75.6831 163.09 78.4528 159.228C81.325 155.336 83.6723 151.07 85.4322 146.544C86.4935 144.215 87.1495 141.717 87.371 139.159C87.0663 136.341 82.6903 133.973 83.0227 130.703C83.2442 128.617 85.7923 128.646 86.4016 126.588C86.8463 124.847 87.0879 123.059 87.1217 121.261C87.1217 118.442 85.9308 115.454 86.4016 112.41C86.8171 109.817 89.9744 108.774 88.3404 105.927C86.7063 103.08 83.8536 107.449 82.0533 105.617C80.253 103.785 82.3857 101.924 82.5518 98.8519C82.5518 97.6117 81.9702 96.2023 82.0533 95.3003C82.2195 93.9755 84.3244 91.7487 83.7428 90.875C82.441 88.8455 80.9731 83.7155 78.2035 82.0242C74.6584 79.8538 70.8363 81.3195 65.9063 80.2484C62.8597 79.6001 61.4472 76.1331 58.6499 76.415C56.9327 76.5841 55.8802 78.98 53.5814 80.2484C51.2826 81.5169 48.0422 81.0659 45.8542 81.7142C43.6662 82.3625 42.4475 84.3074 40.0656 84.0819C37.6838 83.8564 38.0715 81.7142 35.7173 81.4323C34.3357 81.644 32.9672 81.9357 31.6183 82.3061C26.887 82.9587 22.0851 82.8636 17.3823 82.0242C14.0575 80.9991 10.8885 79.5098 7.96559 77.5989C5.19595 75.964 -0.343316 73.9627 0.0167363 71.3977C0.155218 69.7347 5.05747 67.9871 6.99621 67.2542C10.1536 66.0986 12.0923 64.21 14.5019 64.0127C15.4159 64.0127 16.6345 64.7174 17.8532 64.6046C19.0718 64.4919 20.6228 63.1108 22.2015 62.8289C25.5805 62.2651 30.3442 63.0544 29.9288 58.9954C27.3807 56.515 16.9392 60.8276 16.6622 55.4721C16.4961 52.2024 20.6228 51.2158 23.6694 50.4548C26.7122 49.4593 29.8673 48.8625 33.0585 48.679C35.8281 48.8481 39.4563 52.6252 41.035 48.3689C41.8105 45.3811 40.0933 42.7315 39.5948 40.4202C41.6443 36.9532 45.411 37.376 48.2638 36.8686C51.4638 36.3852 54.5677 35.3861 57.4589 33.909C60.3505 32.4856 63.4442 31.5344 66.6264 31.0903C69.8946 30.5547 73.0797 29.0326 76.0432 28.7226C78.3793 28.6689 80.71 28.4712 83.0227 28.1306C85.1082 27.2278 87.3088 26.6299 89.559 26.3549C91.0546 26.3549 92.3286 27.7924 93.8796 28.1306C95.4306 28.4689 96.9539 28.1307 98.4772 28.4125C100.001 28.6944 100.693 29.6809 101.856 29.9064C103.684 30.2447 105.651 29.5964 107.395 29.9064C109.14 30.2165 110.414 31.4285 111.993 31.654C115.704 32.2459 119.97 31.4285 123.57 32.2741C124.955 32.5842 126.174 33.4016 127.669 33.7399C129.165 34.0781 130.633 33.7399 132.017 34.0218C133.929 34.5009 135.535 36.8405 137.557 36.9814C141.268 37.4606 145.478 35.0083 149.355 34.6137C152.265 34.6505 155.173 34.4526 158.052 34.0218C160.568 33.1207 163.152 32.4324 165.779 31.9641C167.109 31.9641 168.189 32.4433 169.408 32.2741C170.626 32.105 172.177 30.2165 173.507 30.4984C175.307 30.8366 174.975 33.6271 176.886 34.3318C178.99 32.9788 181.068 34.3318 183.394 34.3318C185.721 34.3318 187.659 32.9506 190.152 33.4298C194.556 34.2754 200.677 39.5464 204 36.6995C204.887 35.9667 204.665 34.7264 205.468 32.8379C206.521 30.3011 208.626 27.2005 208.238 23.7053C203.391 23.7053 198.766 26.6931 193.254 26.9468C187.715 22.6905 194.75 20.041 198.793 18.0961C202.145 16.4894 204.776 12.9097 208.93 12.205C212.309 11.5849 216.02 13.107 220.009 13.6707C222.335 14.009 224.689 13.4734 226.019 13.9526C228.401 14.8264 229.619 17.7015 231.558 18.378C232.389 18.688 233.802 18.6598 234.937 18.9699C237.097 19.59 239.036 20.9993 241.196 18.9699C242.914 19.3645 243.107 21.5631 244.825 21.9295C246.431 20.8866 247.594 18.1807 250.142 17.5042C251.195 17.2223 252.33 17.7297 253.521 17.5042C255.488 17.1095 258.091 13.868 259.31 16.9122C258.811 19.0544 256.18 19.3645 254.712 21.0557C253.085 22.8705 252 25.1192 251.583 27.5387C251.86 30.3574 255.322 29.2582 255.432 32.8379C254.934 34.9237 252.967 33.9935 251.333 34.9237C249.699 35.8539 249.311 37.4887 247.733 37.7424C243.329 38.7572 239.701 36.4176 235.906 36.5867C235.713 38.588 237.79 39.7719 238.676 40.4202C242.138 42.6188 244.935 42.3087 249.755 42.1678C252.247 42.1678 255.1 43.098 257.233 41.294C258.59 40.1665 258.507 37.6579 259.642 36.2767C260.455 35.3297 261.461 34.5743 262.59 34.0632C263.718 33.5521 264.943 33.2975 266.179 33.3171C266.859 33.5117 267.475 33.8892 267.963 34.41C268.45 34.9308 268.79 35.5757 268.948 36.2767C268.948 38.9545 265.846 38.1089 265.818 41.0121C267.868 42.506 273.269 39.3773 273.546 36.8686C273.74 35.0365 271.801 34.0499 271.856 32.1614C271.856 29.0608 275.401 29.1172 274.986 25.9603C273.324 24.3536 271.607 26.2985 269.918 25.9603C267.563 25.4529 265.431 21.9859 264.378 19.7591C265.431 18.1525 267.619 19.2236 269.197 19.4491C270.97 16.4613 274.266 15.2774 278.863 14.7418C280.47 14.5445 282.658 13.7553 283.433 15.6156C283.821 18.4343 280.054 20.0974 280.664 23.2825C283.932 24.2972 284.984 18.9417 287.671 16.7995C289.117 15.8479 290.658 15.0542 292.268 14.4318C293.736 13.7553 295.398 12.0359 296.617 12.0922C297.835 12.1486 298.168 13.4734 299.386 14.1499C300.605 14.8264 302.156 13.7271 302.516 15.6156C299.746 21.5349 289.305 18.1525 286.591 24.0717C287.2 28.1025 284.957 31.9641 286.84 34.6982C288.169 36.6149 291.216 35.3183 291.908 37.3478C292.85 40.1665 288.973 40.1665 289.97 43.2389C292.545 45.1274 295.509 41.4631 297.946 39.9974C300.384 38.5317 303.679 36.5868 303.984 32.9225C302.71 29.9346 297.946 32.246 297.226 29.089C297.294 26.883 297.955 24.7381 299.137 22.8879C301.405 20.4561 304.138 18.5215 307.167 17.2031C310.196 15.8847 313.458 15.2102 316.752 15.221C317.971 15.221 319.189 16.2358 320.38 16.4049C324.535 16.9122 329.437 14.2063 332.705 16.4049C335.309 14.5163 338.466 16.6586 342.094 16.0948C344.864 18.1243 344.144 22.4369 348.381 24.3536C349.545 24.8891 350.985 24.5227 352.48 24.9455C353.976 25.3683 354.807 26.8904 356.109 27.7642C357.937 28.779 359.321 28.5253 359.709 30.1038C360.097 31.6822 358.407 32.6406 358.518 34.2473C359.571 35.2902 358.684 36.8686 359.238 38.3625C360.291 41.1812 362.922 40.8994 365.498 42.196C367.353 43.1261 371.231 45.9449 371.037 48.1153C371.037 49.581 367.381 52.146 366.218 52.8225C364.322 54.1691 362.186 55.1265 359.931 55.6412C357.66 55.2184 356.773 49.581 353.671 49.7219C353.27 49.7173 352.872 49.8016 352.506 49.9689C352.14 50.1362 351.813 50.3825 351.55 50.6909C351.286 50.9992 351.092 51.3621 350.98 51.7546C350.868 52.147 350.841 52.5595 350.902 52.9634C350.902 56.8532 354.447 56.9942 354.502 60.3484C354.502 64.351 352.73 64.6329 349.932 67.1415C348.029 65.8443 345.892 64.9438 343.645 64.4919C342.122 66.7187 346.193 67.5361 344.864 70.383C340.986 71.3977 338.023 69.0582 334.478 67.7334C333.37 67.3106 331.708 67.4797 330.877 66.8596C329.492 65.8731 329.105 62.998 328.108 61.5323C326.698 59.4135 324.532 57.9373 322.07 57.417C319.079 57.417 314.786 61.9551 312.431 57.6988C314.066 50.9339 321.793 55.9512 326.889 53.5553C328.8 52.6815 329.465 50.2293 331.016 49.13C334.118 46.9596 339.325 46.6495 338.715 42.3369C338.494 40.1947 335.946 40.2229 334.616 39.0954C332.733 37.6015 331.293 32.2741 328.606 32.0205C327.194 31.8795 326.197 33.3171 324.729 33.4862C321.599 33.8526 318.137 31.9641 315.312 33.4862C314.01 34.4164 314.896 35.8821 313.872 37.6297C312.847 39.3773 311.102 39.4618 310.243 40.8712C309.385 42.2805 309.523 44.5919 308.305 45.8885C306.338 48.0307 302.156 48.3689 299.636 49.4401C298.5 49.891 297.088 51.4977 296.007 51.4977C294.013 51.4977 293.238 48.228 290.939 49.4401C290.745 52.597 293.709 53.8654 295.537 55.3311C297.752 56.6831 299.451 58.76 300.356 61.2222C298.389 66.3241 295.26 60.9685 292.047 60.9404C288.834 60.9122 283.738 68.9173 280.691 62.4061C281.412 58.9672 284.514 58.4317 285.289 55.0492C281.882 55.7539 278.891 59.2491 274.903 60.3484C273.213 60.7994 271.579 60.6867 270.084 61.2222C267.176 62.2651 265.181 64.8865 262.107 66.2677C260.916 66.8033 259.504 66.6341 258.257 67.1415C254.97 68.6198 251.819 70.3932 248.841 72.4406C245.886 74.2376 243.104 76.3138 240.532 78.6418C238.898 80.4191 237.66 82.5343 236.904 84.8429C236.904 86.5905 239.673 87.1825 239.673 88.9864C239.673 90.0575 238.094 92.4252 239.175 94.0037C240.255 95.5822 242.166 94.2574 244.243 94.5956C247.927 95.1312 250.364 98.8801 253.189 100.797C255.522 102.459 258.144 103.655 260.916 104.32C264.212 104.828 267.923 103.136 268.394 106.378C268.865 109.619 265.265 110.634 265.015 112.579C266.788 115.398 263.797 116.863 263.797 119.372C263.797 121.43 265.874 124.502 267.646 124.671C270.084 124.925 273.657 121.852 274.654 118.78C275.872 115.229 275.346 110.324 277.562 107.872C288.806 108.238 298.306 101.614 297.586 87.4925C297.258 85.9461 297.1 84.3673 297.115 82.7853C297.448 80.5022 300.66 78.5854 300.245 75.7103C303.402 74.5265 303.264 68.3253 306.532 67.4233C309.302 66.6905 312.348 69.7911 315.921 69.5092C317.084 69.5092 318.691 68.128 319.799 68.3253C322.153 68.72 323.565 72.2715 325.338 73.9627C327.111 75.654 328.551 74.9493 328.966 76.7814C328.495 80.1075 326.584 80.1921 326.778 83.2926C326.886 84.383 327.279 85.424 327.918 86.3066C328.556 87.1892 329.415 87.8811 330.406 88.3099C332.553 88.3879 334.669 87.7657 336.444 86.5341C339.685 84.6738 342.427 79.0364 345.141 79.7411C347.246 80.3048 348.935 88.5636 349.24 91.5514C349.544 94.5392 348.88 97.1888 348.991 100.008C349.295 104.968 354.53 104.461 356.967 107.082C357.715 107.872 358.02 109.901 358.657 110.916C359.875 112.917 361.426 112.917 361.426 115.031C361.897 120.133 357.66 120.669 358.047 126.306C357.189 128.533 354.973 128.392 355.278 131.323C355.555 136.002 361.011 132.423 362.506 136.059C363.31 138.004 362.506 139.469 361.786 142.26C363.642 145.079 363.642 149.335 360.346 149.335C358.823 148.827 358.213 146.178 356.247 145.586ZM93.1872 134.649C94.8767 133.465 96.5108 136.482 95.3752 137.919C93.4919 138.342 93.021 135.749 93.1872 134.649ZM263.824 164.753C262.827 163.569 259.531 163.908 257.288 164.161C255.709 164.358 253.854 164.781 253.688 166.247C256.18 167.656 263.021 168.671 263.824 164.753ZM251.278 159.736C251.685 159.294 251.987 158.763 252.162 158.183C252.337 157.604 252.379 156.992 252.285 156.394C252.192 155.795 251.965 155.227 251.622 154.731C251.28 154.236 250.83 153.826 250.309 153.535C249.505 153.281 248.453 154.268 247.151 154.155C245.849 154.042 244.382 152.492 243.301 152.379C242.428 152.31 241.551 152.462 240.749 152.821C239.947 153.18 239.244 153.735 238.704 154.437C238.704 156.212 239.784 156.494 239.673 158.27C237.347 160.328 238.593 167.177 240.892 167.431C243.191 167.685 244.603 159.849 247.899 159.144C249.09 158.918 249.699 159.989 251.278 159.736ZM247.899 171.546C244.465 170.052 241.28 172.561 238.482 173.04C236.793 173.294 233.746 172.617 234.134 175.69C234.439 178.17 237.596 177.268 239.452 176.563C242.605 175.565 245.494 173.849 247.899 171.546ZM237.264 148.997C242.083 146.516 236.322 138.793 234.134 138.088C230.229 136.848 224.662 141.612 220.286 143.105C217.738 143.951 215.3 144.036 214.746 146.657C217.045 151.28 221.56 145.642 224.883 146.347C226.573 146.713 227.653 149.532 229.232 149.899C231.928 149.9 234.618 149.636 237.264 149.109V148.997ZM233.885 153.76C232.888 152.323 227.487 153.929 225.936 155.226C224.864 156.709 223.936 158.295 223.166 159.961C222.031 161.624 220.757 162.921 219.787 164.387C218.818 165.852 214.026 174.309 217.848 175.295C219.483 175.718 222.861 171.574 223.166 169.996C223.746 165.348 226.081 161.113 229.675 158.186C231.53 156.804 233.58 157.002 233.885 153.76ZM203.723 120.781C206.493 120.781 208.238 110.944 203.723 112.325C200.704 113.086 199.957 120.951 203.723 120.781ZM190.706 342.134C190.706 341.683 191.038 341.373 191.177 340.95C190.429 338.019 188.13 342.021 190.706 342.134ZM88.6173 95.1312C88.6173 94.5674 88.3404 94.4547 88.368 93.9473C87.6202 93.9473 86.7894 93.7782 86.9278 94.8211C86.9719 95.0001 87.0657 95.1623 87.1981 95.2883C87.3305 95.4143 87.4958 95.4987 87.6742 95.5314C87.8526 95.5642 88.0364 95.5438 88.2037 95.4728C88.371 95.4018 88.5146 95.2832 88.6173 95.1312ZM342.26 48.7917C343.451 48.9608 344.116 48.5099 343.95 47.016C342.87 46.0858 341.291 47.2978 342.26 48.7917ZM314.564 19.8719C314.469 19.7721 314.354 19.6929 314.228 19.6388C314.102 19.5846 313.967 19.5568 313.83 19.5568C313.693 19.5568 313.558 19.5846 313.432 19.6388C313.306 19.6929 313.192 19.7721 313.096 19.8719V21.0557C314.066 21.2812 314.259 20.5483 314.509 19.8719L314.564 19.8719ZM222.861 42.5906C223.665 41.9423 224.883 41.0967 224.302 39.6309C221.532 38.1088 217.128 39.2645 213.223 38.7572C210.98 34.8955 207.268 34.3036 206.936 40.5329C211.423 44.9865 218.153 38.4471 222.806 42.5906H222.861ZM179.655 72.9762C181.012 72.4124 182.923 72.6943 183.256 70.9185C182.148 69.8193 180.985 68.3253 179.655 68.269C177.883 68.269 177.052 70.0729 175.307 71.0877C173.562 72.1024 170.432 72.7507 170.238 74.9493C173.486 75.3371 176.77 74.6449 179.6 72.9762H179.655ZM178.437 51.7232C179.988 51.4131 181.566 52.2587 182.536 50.5675C181.4 44.0563 174.033 48.0307 169.74 48.4817C168.568 50.2775 167.75 52.2878 167.33 54.401C170.598 55.4157 174.642 52.5124 178.381 51.7232H178.437ZM250.835 353.324C252.746 352.93 252.192 347.687 249.865 348.871C248.065 349.885 248.979 353.691 250.779 353.352L250.835 353.324Z" fill="#F1F1F1" fill-opacity="0.5"/>
<path d="M88.368 93.9473C88.368 94.4547 88.6727 94.5674 88.6173 95.1312C88.5146 95.2832 88.371 95.4018 88.2037 95.4728C88.0364 95.5438 87.8526 95.5642 87.6742 95.5314C87.4958 95.4987 87.3305 95.4143 87.1981 95.2883C87.0657 95.1623 86.9719 95.0001 86.9278 94.8211C86.7894 93.7782 87.6202 93.9191 88.368 93.9473Z" fill="#F1F1F1" fill-opacity="0.5"/>
<path d="M81.2501 111.48C80.9862 112.297 80.542 113.042 79.9515 113.658C79.361 114.273 78.6399 114.743 77.8434 115.031C77.388 114.595 76.9879 114.103 76.6525 113.566C76.6525 110.606 79.893 108.661 81.2501 111.48Z" fill="#F1F1F1" fill-opacity="0.5"/>
</svg>
