<svg width="1320" height="722" viewBox="0 0 1320 722" fill="none" xmlns="http://www.w3.org/2000/svg">
<path d="M1162 655.113C1161.18 658.602 1159.18 661.752 1156.31 664.095C1154.27 665.71 1147.75 668.989 1146.99 664.339C1147.23 661.465 1147.84 658.63 1148.82 655.896C1150.41 652.298 1152.13 654.648 1154.72 655.113C1157.3 655.578 1159.88 653.302 1162 655.113Z" fill="#E04048" fill-opacity="0.13"/>
<path d="M1144.25 282.545C1145.19 285.629 1145.82 288.664 1146.55 291.527C1143.94 295.027 1139.08 293.73 1135.41 295.614C1133.68 296.495 1133.19 299.75 1131.52 300.24C1129.85 300.729 1129.17 298.918 1127.89 298.943C1124.63 298.943 1123.04 305.11 1119.02 303.568C1116.72 305.11 1119.02 310.91 1116.41 311.498C1114.4 311.865 1113.3 309.05 1112.08 307.141C1110.85 305.232 1108.5 303.789 1108.45 302.026C1108.4 300.264 1111.71 297.132 1112.76 295.883C1113.8 294.635 1116.59 291.405 1118.21 290.989C1121.24 290.23 1124.32 291.307 1126.64 290.205C1128.96 289.104 1128.75 285.727 1129.82 284.821C1130.89 283.916 1131.78 284.283 1132.43 283.818C1133.91 282.548 1135 280.919 1135.56 279.11C1136.12 277.301 1136.14 275.382 1135.61 273.563C1134.86 270.7 1130.66 267.567 1133.34 264.067C1135.79 264.616 1138.03 265.796 1139.8 267.474C1141.57 269.152 1142.81 271.261 1143.36 273.563C1143.63 275.325 1142.74 277.087 1142.89 278.947C1143.26 280.174 1143.71 281.376 1144.25 282.545Z" fill="#E04048" fill-opacity="0.13"/>
<path d="M1145.16 254.743C1144.67 256.04 1143.63 255.771 1142.69 256.529C1141.75 257.288 1140.65 259.613 1139.5 259.858C1137.68 260.249 1135.61 257.851 1133.81 258.34C1132.01 258.83 1132.93 260.788 1132.22 262.941C1130.98 262.585 1129.86 261.923 1128.97 261.023C1128.09 260.124 1127.49 259.02 1127.21 257.826C1127.21 256.358 1128.86 255.379 1129.27 253.715C1129.93 250.778 1128.18 249.309 1127.21 246.544C1127.21 246.128 1127.42 246.103 1127.45 245.785C1129.66 245.247 1134.02 249.97 1139.03 250.9C1142.27 251.39 1144.98 251.047 1145.16 254.743Z" fill="#E04048" fill-opacity="0.13"/>
<path d="M1136.76 514.705C1137 516.835 1133.71 516.59 1133.34 515.219C1133.42 513.555 1136.37 513.041 1136.76 514.705Z" fill="#E04048" fill-opacity="0.13"/>
<path d="M1120.84 233.108C1123.09 234.429 1128.54 237.488 1124.71 240.278C1123.33 239.631 1122.21 238.584 1121.51 237.293C1120.81 236.001 1120.58 234.533 1120.84 233.108Z" fill="#E04048" fill-opacity="0.13"/>
<path d="M1110.38 503.447C1112.99 501.832 1115.83 498.332 1120.4 500.094C1119.38 503.276 1115.96 503.227 1113.8 504.72C1111.63 506.213 1109.75 508.783 1106.99 509.076C1106.8 508.655 1106.48 508.296 1106.07 508.048C1106.05 505.185 1108.58 504.524 1110.38 503.447Z" fill="#E04048" fill-opacity="0.13"/>
<path d="M1104.25 455.258C1106.86 455.258 1109.47 454.328 1111.29 455.503C1110.95 461.915 1102.13 457.045 1096.29 458.073C1095.04 458.293 1094.67 459.37 1093.34 458.831C1093.42 457.729 1093.89 456.682 1094.67 455.852C1095.45 455.021 1096.49 454.452 1097.65 454.23C1099.32 454.034 1101.8 455.258 1104.25 455.258Z" fill="#E04048" fill-opacity="0.13"/>
<path d="M1106.52 463.188C1106.78 466.736 1102.47 467.128 1101.3 469.869C1103.2 473.124 1103.91 477.676 1106.1 480.613C1106.1 482.571 1106.44 485.141 1105.4 485.997C1100.83 487.001 1098.38 477.725 1096.52 474.47C1093.03 475.229 1096.24 487.833 1091.54 486.267C1089.24 485.483 1091.54 481.886 1091.07 479.096C1090.6 476.306 1088.46 476.134 1088.46 474.201C1088.46 472.268 1090 470.946 1090.5 469.306C1091.23 466.981 1090.76 462.502 1093.24 462.38C1094.44 462.38 1096.08 465.268 1096.86 465.464C1099.45 466.173 1102.68 462.38 1106.52 463.188Z" fill="#E04048" fill-opacity="0.13"/>
<path d="M1098.12 501.367C1097.25 503.325 1092.58 502.395 1092.19 500.608C1093 498.577 1097.72 499.189 1098.12 501.367Z" fill="#E04048" fill-opacity="0.13"/>
<path d="M1093.78 507.534C1093.52 507.904 1093.21 508.249 1092.87 508.562C1091.15 507.926 1089.3 507.461 1088.77 505.479C1090.05 503.374 1093.73 505.112 1093.78 507.534Z" fill="#E04048" fill-opacity="0.13"/>
<path d="M1087.65 501.122C1086.48 502.958 1082.43 500.975 1081.05 502.909C1078.68 502.909 1076.3 502.909 1075.83 500.608C1076.51 498.724 1078.65 500.021 1080.37 499.85C1083.11 499.483 1086.92 497.378 1087.65 501.122Z" fill="#E04048" fill-opacity="0.13"/>
<path d="M1055.58 599.263C1055.19 597.017 1054.65 594.795 1053.99 592.606C1053.99 591.725 1053.99 590.624 1053.99 589.522C1053.67 588.258 1053.44 586.974 1053.31 585.68C1053.62 583.991 1055.37 583.795 1055.92 582.351C1056.62 579.904 1055.06 579.586 1055.01 576.698C1055.01 574.691 1056.36 573.712 1057.28 571.069C1057.69 569.845 1057.72 567.594 1058.19 566.713C1058.66 565.831 1061.3 564.706 1062.29 564.265C1065.76 562.332 1068.55 558.759 1072.07 558.098C1072.96 557.951 1074.16 558.098 1074.68 558.098C1076.74 557.706 1079.35 555.65 1082.2 555.038C1085.04 554.427 1087.42 554.598 1089.48 553.227C1092.23 551.19 1094.41 548.552 1095.82 545.543C1096.86 542.728 1096.58 540.354 1098.43 539.4C1099.42 538.935 1100.36 539.4 1101.38 539.155C1102.88 538.623 1104.27 537.835 1105.47 536.83C1107.07 535.239 1107.33 532.62 1109.1 530.956C1110.69 529.507 1112.44 528.22 1114.32 527.114C1115.42 526.486 1116.67 526.132 1117.95 526.086C1121.16 526.379 1122.64 531.421 1126.14 530.442C1127.39 530.075 1128.75 527.089 1129.79 525.303C1131.41 522.684 1132.61 519.184 1135.46 518.401C1137.78 517.765 1140.34 519.38 1141.62 517.104C1141.9 515.488 1140.52 514.534 1141.62 513.531C1144.23 513.702 1148.74 517.74 1152.73 517.862C1154.9 517.862 1158.92 515.219 1159.33 518.89C1159.54 520.53 1157.72 521.852 1157.3 523.516C1156.99 524.691 1157.74 525.327 1157.06 526.6C1155.21 527.407 1153.25 527.848 1153.2 530.173C1153.2 533.11 1156.88 534.48 1159.1 536.071C1160.64 537.172 1161.92 538.837 1162.75 539.4C1163.59 539.962 1164.55 540.085 1165.02 540.427C1166.51 541.504 1167.63 543.952 1169.59 544.025C1171.55 544.099 1174.21 540.77 1175.49 537.589C1176.66 533.663 1177.43 529.638 1177.76 525.572C1177.99 524.275 1178.8 523.002 1179.11 521.729C1180 518.205 1181.2 513.482 1183.89 512.233C1186.5 515.488 1187.54 521.778 1187.1 527.114C1188.9 528.656 1192.08 528.142 1192.53 531.715C1192.68 532.963 1191.98 534.529 1192.08 535.802C1192.24 537.98 1193.68 539.865 1193.91 541.7C1194.35 545.126 1193.41 547.941 1194.8 550.413C1196.57 553.546 1200.02 553.448 1202.31 556.825C1202.41 558.409 1202.8 559.965 1203.46 561.426C1203.67 562.209 1203.46 563.482 1203.67 563.996C1204.4 565.709 1206.28 565.88 1207.09 567.324C1207.45 568.034 1207.35 569.38 1207.77 570.653C1208.66 572.454 1209.72 574.174 1210.95 575.792C1212.16 577.375 1213.16 579.093 1213.92 580.907C1214.37 583.355 1212.72 585.215 1212.31 587.32C1212.21 590.15 1211.92 592.971 1211.42 595.763C1209.72 599.196 1207.82 602.538 1205.73 605.773C1204.13 609.058 1201.98 612.082 1199.36 614.731C1197.93 616.028 1196.21 616.786 1194.8 618.059C1192.69 620.256 1190.72 622.569 1188.9 624.985C1186.86 627.432 1184.36 629.292 1182.77 631.397C1180.42 634.432 1179.27 639.351 1175.25 639.841C1173.01 639.846 1170.78 640.193 1168.65 640.869C1165.28 642.386 1163.07 645.152 1161.4 645.225C1159.73 645.299 1158 642.9 1156.39 642.655C1154.77 642.411 1153.12 644.222 1150.46 644.197C1149.39 644.197 1148.84 643.463 1147.3 642.924C1144.04 641.75 1140.47 641.799 1140.02 637.809C1139.76 635.607 1141.25 634.628 1141.15 632.67C1141.04 630.712 1139.35 630.223 1138.54 628.583C1138.89 627.715 1138.97 626.77 1138.77 625.86C1138.57 624.95 1138.1 624.112 1137.41 623.443C1137.28 622.182 1137.61 620.916 1138.33 619.846C1136.74 620.408 1135.21 621.104 1133.76 621.926C1132.12 623.027 1130.92 625.621 1129.01 625.23C1127.11 624.838 1128.59 622.513 1128.31 620.898C1127.49 618.258 1126.18 615.773 1124.45 613.556C1122.03 612.079 1119.39 610.957 1116.62 610.227C1109.6 608.979 1105.11 613.213 1099.55 613.825C1098.12 613.752 1096.68 613.752 1095.25 613.825C1090.68 614.706 1085.59 618.72 1082.72 621.485C1078.02 622.024 1073.27 620.408 1068.39 622.024C1063.51 623.639 1060.83 628.118 1053.42 626.919C1051.93 625.499 1049.32 624.789 1049.32 622.317C1049.32 620.36 1051.93 619.087 1052.71 617.692C1054.07 615.484 1054.96 613.048 1055.32 610.521C1055.32 608.832 1054.3 606.776 1054.41 604.647C1054.75 602.714 1055.61 600.927 1055.58 599.263Z" fill="#E04048" fill-opacity="0.13"/>
<path d="M1051.72 492.41C1052.97 492.214 1053.89 491.186 1055.14 491.137C1057.75 491.137 1060.36 493.34 1063.54 492.924C1064.22 493.756 1063.75 494.441 1063.78 495.738C1066.38 497.353 1070.79 497.06 1072.18 500.094C1070.19 502.542 1067.22 500.78 1064.69 500.339C1062.16 499.899 1059.91 500.168 1057.41 499.85C1054.22 499.434 1051.35 497.402 1048.3 497.035C1046.47 496.766 1044.6 497.329 1042.85 497.035C1041.1 496.742 1033.19 493.413 1033.06 491.137C1032.93 488.861 1036.51 488.102 1039.66 488.69C1043.68 489.179 1046.47 493.242 1051.72 492.41Z" fill="#E04048" fill-opacity="0.13"/>
<path d="M1057.85 474.739C1056.13 474.176 1054.51 474.495 1053.78 473.956C1052.21 472.879 1052.45 469.82 1051.95 468.058C1051.46 466.296 1049.55 465.366 1048.54 462.943C1047.05 459.443 1046.42 451.636 1050.36 450.902C1051.93 450.608 1053.57 451.979 1054.67 451.66C1056.86 451.073 1056.49 447.867 1058.32 446.545C1059.34 445.811 1061.19 446.105 1062.63 445.517C1064.15 444.629 1065.41 443.39 1066.28 441.92C1067.22 440.647 1067.98 438.493 1069.23 437.588C1070.48 436.682 1071.84 436.511 1073.09 435.532C1076.07 432.962 1076.17 429.389 1078.54 426.305C1080.58 423.687 1083.76 428.753 1084 430.906C1085.15 432.546 1087.36 432.938 1088.33 434.749C1087 439.277 1083.11 439.644 1084 446.031C1084.28 447.528 1084.75 448.989 1085.38 450.388C1086.03 451.881 1087.99 453.52 1087.86 454.475C1087.73 456.408 1084.31 456.31 1083.55 458.317C1082.8 460.324 1083.55 460.324 1083.32 463.212C1082.35 465.317 1079.8 465.806 1078.99 468.352C1078.05 471.386 1079.14 475.327 1076.95 477.578C1075.44 477.578 1073.8 479.047 1071.97 478.851C1070.14 478.655 1068.08 475.571 1064.9 475.522C1063.7 475.522 1062.29 476.379 1061.04 476.281C1059.78 476.183 1059.34 475.18 1057.85 474.739Z" fill="#E04048" fill-opacity="0.13"/>
<path d="M1043.13 469.037C1048.93 469.037 1048.93 479.145 1043.13 479.145C1037.34 479.145 1037.37 469.037 1043.13 469.037Z" fill="#E04048" fill-opacity="0.13"/>
<path d="M1034.65 467.813C1036.21 469.198 1037.32 470.973 1037.84 472.928C1037.84 474.739 1035.36 474.641 1034.65 477.04C1033.58 480.711 1035.15 484.896 1033.3 486.829C1032.28 487.539 1030.4 487.319 1028.76 487.343C1024.67 483.887 1021.01 480.012 1017.85 475.792C1016.46 474.381 1015.24 472.839 1014.19 471.191C1013.02 468.743 1012.6 466.051 1011.25 463.848C1009.89 461.646 1007.85 460.422 1006.71 458.219C1005.74 456.433 1005.66 454.059 1004.64 452.321C1003.63 450.584 1002.03 450.021 1001.02 448.748C1000.29 447.891 999.869 446.594 999.19 445.664C996.346 441.797 990.84 439.79 990.553 434.137C991.727 432.644 992.927 434.7 995.093 435.165C996.502 435.459 998.173 435.165 999.19 435.41C1001.25 436.193 1002.69 439.839 1004.88 441.822C1006.11 442.923 1007.7 443.706 1008.98 444.881C1010.25 446.056 1011.3 447.989 1012.37 448.748C1013.86 449.751 1015.92 450.437 1017.85 451.807C1020.46 453.692 1025.15 455.65 1025.68 459.517C1025.83 460.471 1025.26 462.086 1025.44 462.82C1025.75 464.167 1027.27 464.754 1028.05 465.904C1028.83 467.055 1029.41 469.477 1031.03 469.747C1032.64 470.016 1032.93 467.666 1034.65 467.813Z" fill="#E04048" fill-opacity="0.13"/>
<path d="M927.351 413.995C929.308 414.729 935.832 423.785 933.927 428.679C933.512 429.577 932.809 430.33 931.915 430.835C931.022 431.339 929.983 431.57 928.943 431.494C924.429 430.686 925.29 419.404 926.647 414.852C926.688 414.668 926.773 414.496 926.895 414.348C927.017 414.2 927.173 414.079 927.351 413.995Z" fill="#E04048" fill-opacity="0.13"/>
<path d="M776.131 543.658C776.413 541.22 777.436 538.909 779.08 537.001C781.194 535.239 784.012 535.41 786.126 534.187C788.259 533.007 790.115 531.434 791.58 529.561C792.676 527.97 792.754 526.135 793.641 524.96C794.528 523.785 795.624 523.908 796.251 522.904C796.877 521.901 796.772 520.31 797.842 519.331C801.026 517.789 801.913 524.226 802.409 528.802C802.539 530.197 803.192 531.69 803.087 532.376C802.748 534.431 800.765 534.823 800.139 536.242C799.739 541.442 798.425 546.545 796.251 551.343C794.737 555.332 793.876 559.689 792.623 563.139C792.18 564.388 791.214 565.366 790.797 566.468C789.179 570.824 788.553 577.677 785.578 579.537C783.573 580.453 781.422 581.057 779.211 581.324C777.773 581.168 776.425 580.59 775.361 579.671C774.296 578.751 773.57 577.539 773.287 576.208C772.922 574.74 773.287 573.223 773.078 571.583C772.418 569.59 772.032 567.525 771.93 565.44C772.426 560.227 776.94 557.682 777.149 553.399C777.514 550.168 775.818 546.938 776.131 543.658Z" fill="#E04048" fill-opacity="0.13"/>
<path d="M666.533 179.02C666.794 183.328 660.714 182.789 659.931 186.362C659.592 188.027 660.636 190.254 660.401 191.747C659.931 194.439 657.609 193.656 654.712 195.075C653.225 195.809 651.789 198.477 650.172 198.648C648.554 198.82 647.745 197.669 646.753 197.89C645.266 198.208 645.762 200.337 643.57 200.704C641.821 201.047 638.768 198.942 638.559 201.487C638.429 203.103 641.299 203.935 643.1 203.788C644.9 203.641 645.579 202.515 646.962 202.515C649.571 202.515 651.424 204.767 653.12 204.816C657.008 204.938 660.949 200.753 664.941 201.218C666.794 201.438 667.89 202.907 669.273 202.76C671.465 202.54 673.318 199.676 674.936 198.648C674.257 194.341 674.936 188.638 678.589 188.418C681.042 188.247 684.721 193.142 685.165 188.418C685.207 187.497 684.884 186.594 684.257 185.885C683.63 185.175 682.745 184.708 681.772 184.576C680.468 184.576 678.745 187.488 677.676 185.09C677.676 182.642 680.024 183.352 681.303 182.642C682.581 181.932 682.973 181.027 684.043 180.611C689.444 178.457 696.96 182.716 699.047 177.527C694.246 172.926 686 179.216 680.624 178.8C679.25 178.635 677.951 178.119 676.869 177.307C675.787 176.495 674.965 175.42 674.492 174.199C674.257 173.416 674.492 172.339 674.257 170.87C674.022 169.402 673.292 167.517 673.344 166.514C673.579 161.888 683.782 161.007 683.782 155.231C682.38 154.25 680.653 153.763 678.907 153.857C677.16 153.951 675.504 154.62 674.231 155.745C673.553 156.553 673.605 158.193 672.639 159.857C670.604 163.357 664.028 163.773 661.966 168.056C661.218 169.664 660.904 171.421 661.053 173.171C661.601 175.814 666.377 176.426 666.533 179.02ZM612.412 429.634C605.863 428.557 599.156 431.518 594.668 433.721C592.058 434.994 589.449 436.951 587.179 437.049C584.908 437.147 582.899 435.777 580.811 435.532C577.843 435.275 574.851 435.448 571.939 436.046C569.33 436.56 566.955 438.665 564.659 438.861C560.249 439.228 556.074 434.382 553.281 431.934C551.611 430.441 549.889 429.242 548.297 427.847C546.706 426.452 544.383 425.4 543.078 424.005C541.304 422.047 541.304 418.645 540.469 416.051C539.347 412.991 535.981 410.74 533.423 407.852C531.492 405.674 527.082 402.443 526.586 399.653C526.352 398.234 527.134 396.594 527.056 395.028C526.926 392.8 525.438 391.528 525.464 389.912C525.464 387.661 527.865 385.923 528.413 384.014C528.7 383.06 528.57 381.689 528.857 380.441C529.509 377.822 531.023 376.305 530.683 372.487C530.553 370.97 529.405 369.599 529.326 367.592C529.326 366.246 530.109 365.512 530.005 364.264C529.822 362.086 527.395 361.645 527.056 359.149C526.717 356.652 529.248 354.401 530.683 351.464C531.336 350.142 531.701 348.111 532.275 347.107C533.554 344.929 535.641 343.877 536.607 341.723C537.311 340.132 537.546 337.783 538.199 336.584C538.851 335.384 540.808 334.136 542.296 332.227C543.574 330.612 544.096 328.63 544.905 327.871C546.198 327.138 547.571 326.539 549.002 326.084C553.223 324.083 556.531 320.72 558.318 316.613C557.742 313.597 558.394 310.487 560.144 307.9C561.089 305.321 562.735 303.018 564.92 301.219C567.764 299.408 570.426 299.261 572.409 295.859C573.718 293.903 574.605 291.724 575.018 289.447C574.985 288.148 574.563 286.884 573.802 285.798C573.041 284.712 571.971 283.848 570.713 283.304C568.651 282.912 565.494 285.041 564.346 282.521C563.98 281.713 564.476 279.828 564.346 278.947C564.085 277.259 562.806 276.084 562.754 274.836C562.754 272.388 564.841 269.941 565.363 267.151C566.224 263.382 565.363 260.494 565.155 256.138C568.312 250.484 575.384 253.299 582.429 253.837C583.473 253.837 584.7 253.543 585.848 253.568C590.023 253.69 593.285 255.11 594.694 251.12C595.353 248.252 595.59 245.312 595.399 242.383C594.355 239.702 592.719 237.258 590.597 235.212C588.353 233.597 585.091 234.307 583.786 231.37C584.83 226.328 589.866 230.538 592.893 229.339C594.433 228.727 594.25 225.716 595.503 225.227C596.442 224.909 597.643 226.279 598.921 226.255C601.132 225.549 603.203 224.507 605.054 223.171C606.515 222.07 606.959 219.769 608.237 218.815C609.098 218.179 610.247 218.252 611.212 217.787C613.431 216.654 615.363 215.085 616.875 213.186C618.753 210.738 619.615 207.508 621.885 207.043C624.938 206.406 631.827 207.728 632.323 203.959C632.819 200.19 629.531 197.571 630.731 193.704C631.67 190.67 634.123 191.257 637.542 189.348C639.212 190.67 638.716 194.463 638.925 196.69C641.038 196.69 645.318 195.981 645.735 193.876C646.257 191.233 642.656 188.54 641.873 186.95C641.091 185.359 640.83 182.202 639.134 181.835C635.689 181.076 632.323 187.194 627.991 187.194C626.506 187.066 625.094 186.535 623.926 185.665C622.758 184.796 621.885 183.627 621.415 182.3C621.205 180.938 621.126 179.562 621.18 178.188C620.453 175.862 620.145 173.438 620.267 171.017C622.015 167.664 626.034 167.101 628.904 165.364C630 164.727 630.888 163.332 632.088 162.916C634.123 162.06 637.15 162.916 639.134 161.619C640.412 160.811 640.047 159.416 640.96 157.777C641.534 156.749 642.917 156.161 643.57 154.962C644.092 154.155 644.144 152.906 644.692 152.148C646.675 149.382 650.276 148.354 651.737 145.491C652.39 144.218 650.615 143.753 651.059 141.893C651.502 140.033 654.634 141.428 656.278 141.134C658.548 140.743 660.636 137.635 663.115 137.023C665.76 136.822 668.38 136.396 670.943 135.75C672.378 135.138 673.553 133.67 675.04 133.45C675.51 133.45 676.867 133.743 677.649 133.694C678.432 133.645 679.45 133.058 680.598 132.936C682.581 133.006 684.559 133.178 686.522 133.45C690.123 133.45 693.515 132.226 696.516 133.694C698.082 134.477 697.899 136.46 699.934 137.292C700.952 137.708 702.283 137.121 703.797 137.292C706.015 137.537 708.337 139.25 711.286 139.592C712.356 139.715 713.426 139.446 714.469 139.592C717.943 140.434 721.305 141.641 724.49 143.19C727.099 144.194 732.788 145.466 732.892 148.305C732.892 151.683 727.986 152.662 725.847 152.662C722.272 152.662 717.522 150.214 713.791 151.634C713.785 152.928 714.062 154.21 714.605 155.401C715.148 156.591 715.945 157.664 716.948 158.554C717.951 159.444 719.137 160.132 720.434 160.575C721.732 161.018 723.112 161.207 724.49 161.13C724.933 158.389 721.619 159.906 721.88 157.263C724.15 155.354 726.864 158.56 730.074 158.046C731.327 157.654 731.118 155.598 731.431 154.203C734.04 152.343 737.511 149.627 741.66 151.756C741.857 151.341 742.173 150.985 742.573 150.728C742.834 147.914 739.964 146.445 741.425 143.826C742.234 141.991 746.462 142.627 747.114 144.071C747.766 145.515 746.07 145.613 746.201 147.155C746.453 147.863 746.948 148.473 747.609 148.889C748.27 149.306 749.059 149.505 749.854 149.456C752.072 149.456 752.463 147.008 754.629 145.858C755.464 145.393 756.717 145.319 757.813 144.854C758.909 144.389 760.188 143.092 761.231 142.799C762.275 142.505 763.11 142.799 764.18 142.529C765.25 142.26 766.946 140.988 768.042 141.012C769.138 141.036 770.391 142.799 772.139 143.043C773.078 143.19 774.174 142.456 775.531 142.285C776.888 142.113 777.802 142.431 778.715 142.285C780.907 141.918 782.394 140.645 784.195 140.743C785.447 140.743 787.639 142.75 788.5 141.771C789.962 140.131 786.543 138.907 787.613 137.414C791.084 137.708 794.789 137.61 798.286 138.173C803.505 139.005 808.385 141.918 813.056 142.015C812.612 138.467 809.011 139.568 807.367 137.928C806.198 136.29 805.358 134.465 804.888 132.544C805.703 130.392 806.77 128.331 808.072 126.401C810.055 124.272 816.631 124.296 818.509 127.16C819.814 129.118 819.371 132.054 821.249 132.054C823.128 132.054 823.702 127.551 825.581 127.453C827.46 127.356 827.878 130.292 829.443 130.268C831.009 130.243 832.627 126.254 835.106 126.156C836.463 126.156 836.906 126.939 838.994 127.184C840.403 126.156 838.498 124.737 839.203 123.342C841.812 121.261 847.553 122.852 850.815 121.555C851.702 120.331 849.641 119.475 850.58 118.227C853.372 116 858.095 115.779 862.871 114.898C865.767 114.335 868.533 112.035 870.699 111.815C872.865 111.594 875.37 113.381 877.536 113.356C878.959 113.26 880.349 112.911 881.633 112.328C882.912 111.766 883.773 110.371 885.051 110.028C887.318 109.869 889.595 109.869 891.862 110.028C893.931 109.441 896.07 109.095 898.229 109C899.873 109.294 901.204 111.276 902.77 111.447C907.571 112.304 912.503 110.64 916.861 111.961C917.644 112.206 918.427 113.112 919.47 113.503C922.393 114.702 924.402 114.335 924.95 118.398C927.247 119.328 928.578 121.702 931.291 122.51C933.118 123.048 934.945 122.24 936.98 122.24C939.8 122.204 942.618 122.376 945.409 122.754C946.714 122.975 947.783 124.052 949.036 124.296C950.289 124.541 951.176 124.296 952.22 124.296C953.491 124.616 954.78 124.869 956.081 125.055C958.456 125.055 960.283 122.608 962.214 122.24C963.372 122.274 964.521 122.447 965.632 122.754C969.468 123.122 973.878 122.191 977.01 123.024C979.374 124.021 981.529 125.405 983.377 127.111C984.708 128.261 985.517 130.097 986.769 130.953C988.371 132.079 990.261 132.788 992.249 133.009C993.684 132.74 993.763 130.929 995.198 130.194C999.712 129.069 1007.72 131.81 1011.35 129.925C1012.73 129.191 1012.47 127.478 1013.62 126.597C1020.43 126.23 1027.24 126.915 1033.64 127.111C1035.82 126.875 1038.02 126.793 1040.21 126.866C1042.48 127.307 1044.13 129.852 1046.34 130.708C1047.86 131.271 1050.47 130.978 1052.71 131.467C1054.22 131.81 1055.48 132.813 1056.57 133.009C1058.94 133.135 1061.32 132.962 1063.64 132.495C1068.86 132.03 1075.57 131.712 1080.68 134.037C1083.29 135.261 1084.57 137.757 1087.52 138.124C1091.72 138.663 1098.22 137.732 1102.53 138.124C1103.38 138.347 1104.25 138.519 1105.14 138.638C1106.6 138.516 1107.46 137.145 1109.23 137.096C1111.48 137.096 1115.08 141.061 1118.34 140.449C1119.75 139.372 1117.22 138.002 1118.55 136.851C1119.88 135.701 1121.6 136.851 1123.56 136.851C1124.63 136.851 1125.96 136.24 1126.98 136.337C1129.59 136.582 1131.86 139.103 1134.94 139.935C1137.83 140.623 1140.84 140.797 1143.81 140.449C1145.8 139.908 1147.87 139.644 1149.94 139.666C1150.96 139.837 1151.85 140.645 1152.89 140.963C1153.93 141.281 1154.82 140.963 1155.63 141.208C1156.44 141.453 1157.14 142.236 1157.9 142.48C1162.13 143.851 1167.76 144.512 1172.23 146.078C1174.83 146.984 1177.44 148.819 1179.74 148.893C1180.81 148.893 1181.78 148.379 1183.13 148.379C1190.02 148.379 1198.09 151.658 1197.46 158.878C1189.42 160.885 1182.69 152.662 1174.26 155.036C1173.5 155.334 1172.85 155.833 1172.39 156.471C1171.92 157.11 1171.67 157.861 1171.65 158.633C1171.96 163.088 1182.09 162.72 1182.79 167.077C1181.15 168.472 1179.35 167.077 1178.02 167.346C1175.4 168.139 1173.05 169.546 1171.18 171.433C1169.64 173.073 1168.31 177.233 1166.64 177.601C1164.97 177.968 1161.42 175.325 1158.45 176.059C1157.33 176.328 1156.26 177.894 1155.26 178.115C1152.65 178.653 1149.57 176.573 1148.01 179.901C1148.84 182.349 1148.32 185.506 1150.04 186.827C1151.17 187.659 1152.65 186.999 1153.91 187.586C1155.16 188.173 1156.39 190.449 1157.77 191.698C1159.15 192.946 1160.12 192.726 1160.74 193.998C1160.74 195.883 1160.06 196.078 1160.27 197.327C1160.64 199.48 1163.61 199.97 1163.69 201.414C1163.69 203.274 1161.81 202.882 1161.42 204.742C1161.27 205.942 1162.65 206.26 1162.78 207.826C1162.78 208.878 1162.02 209.955 1162.1 211.154C1162.1 212.868 1163.41 213.993 1163.22 215.511C1163.13 216.094 1162.91 216.651 1162.55 217.139C1162.2 217.627 1161.73 218.033 1161.19 218.325C1156.83 215.193 1152.92 210.836 1148.14 206.798C1143.36 202.76 1135.74 197.571 1134.96 188.859C1134.96 187.537 1137.57 186.411 1137.91 184.502C1138.09 183.695 1137.62 182.544 1137.7 181.443C1137.86 178.433 1140.05 175.545 1139.97 173.758C1139.21 171.175 1137.42 168.966 1134.96 167.591C1133.63 168.374 1134.96 170.038 1134.73 171.188C1134.56 172.02 1134.15 172.793 1133.55 173.424C1132.95 174.054 1132.17 174.516 1131.31 174.762C1127.03 175.202 1126.53 168.521 1119.72 170.43C1118.37 171.098 1117.29 172.158 1116.64 173.45C1115.99 174.742 1115.79 176.198 1116.1 177.601C1116.28 178.702 1119.02 179.926 1118.7 181.443C1118.39 182.96 1112.52 183.352 1111.22 183.23C1107.54 182.911 1105.66 179.803 1102.34 179.901C1100.73 179.901 1099.29 181.443 1098.01 181.688C1090.86 183.156 1080.21 177.723 1077.79 184.771C1077.45 185.75 1077.63 187.072 1077.32 188.1C1076.87 189.568 1075.83 190.743 1075.52 191.698C1075.2 192.652 1075.28 194.145 1074.81 195.271C1074.34 196.397 1070.12 200.777 1073.93 201.928C1074.81 202.221 1075.26 201.487 1076.54 201.683C1078.47 201.977 1081.75 205.501 1084.02 205.525C1085.41 205.525 1087.29 203.788 1088.33 203.739C1090.44 203.616 1091.98 205.158 1093.55 206.039C1095.11 206.92 1097.41 208.658 1098.56 208.487C1100.7 208.487 1099.68 206.7 1101.74 206.039C1105.66 207.337 1107.51 212.036 1111.29 215.829C1112.65 217.175 1114.66 218.276 1116.51 220.185C1117.53 221.213 1120.71 223.979 1120.84 225.3C1120.97 226.622 1119.96 227.038 1119.7 228.115C1119.33 229.681 1120.19 230.832 1119.25 231.957C1115.63 230.44 1114.79 226.426 1112.18 223C1111.22 221.727 1110.25 220.21 1108.79 218.374C1108.11 217.567 1105.71 214.679 1104.22 215.315C1101.38 216.539 1105.79 221.409 1106.52 222.486C1108.31 224.771 1109.54 227.393 1110.15 230.171C1110.15 231.688 1109.26 234.478 1109.23 237.097C1109.23 238.859 1109.62 240.45 1109.47 241.992C1109.04 243.652 1108.51 245.287 1107.88 246.886C1107.33 248.746 1107.22 250.998 1106.75 252.246C1106.26 253.414 1105.5 254.464 1104.52 255.32C1103.54 256.175 1102.37 256.814 1101.09 257.19C1099.19 257.19 1098.48 255.55 1096.52 255.648C1093.73 255.795 1093.21 258.707 1091.54 261.032C1091.67 263.48 1092.37 264.41 1091.98 266.148C1091.38 268.864 1088.02 269.329 1088.12 272.046C1088.23 274.762 1091.2 275.032 1092.66 276.157C1095.52 278.391 1098.05 280.976 1100.18 283.842C1101.79 285.96 1102.81 288.427 1103.13 291.013C1102.97 293.461 1096.5 297.058 1093.81 296.128C1091.12 295.198 1092.14 292.506 1091.54 289.985C1091.07 288.052 1089.71 287.195 1088.93 285.629C1088.57 284.797 1088.75 283.475 1088.25 282.545C1086.87 279.951 1084.47 281.37 1081.65 279.731C1079.8 278.654 1080.35 276.402 1079.61 274.346C1078.62 271.581 1074.4 270.284 1071.21 271.018C1068.76 271.556 1068 273.857 1065.73 274.346C1062.39 272.119 1066.41 266.637 1062.34 266.148C1059.18 265.78 1057.12 271.214 1055.27 272.804C1054.04 273.881 1051.8 274.102 1051.64 275.619C1051.38 278.458 1054.25 277.871 1056.62 278.972C1059 280.073 1059.03 282.667 1060.96 282.814C1062.89 282.961 1063.57 280.905 1065.29 280.758C1067.79 280.691 1070.22 281.513 1072.1 283.059C1070.98 286.167 1064.84 288.443 1064.82 292.555C1064.82 295.002 1067.27 295.32 1069.15 296.911C1071.03 298.502 1072.83 301.977 1075.05 304.596C1076.01 305.722 1077.66 306.456 1078.02 307.044C1079.07 308.757 1078.91 310.813 1080.06 311.938C1080.27 313.358 1079.48 313.7 1079.61 315.022C1080.16 316.858 1082.69 316.515 1083.24 318.351C1082.77 322.78 1084.42 326.941 1081.21 328.605C1079.72 336.535 1078.05 342.727 1073.25 347.059C1068.92 350.925 1063.23 352.076 1058.01 353.96C1056.65 354.45 1055.58 356.065 1054.38 356.53C1051.35 357.68 1045.95 356.995 1045.74 361.156C1045.61 363.187 1048.04 364.435 1048.22 366.515C1048.51 369.721 1045.98 372.952 1044.13 373.197C1043.05 373.238 1042 372.885 1041.2 372.214C1040.39 371.543 1039.9 370.605 1039.82 369.599C1039.64 366.54 1043.19 365.292 1043.45 363.456C1043.56 362.675 1043.49 361.88 1043.25 361.127C1043 360.373 1042.58 359.679 1042.02 359.092C1041.46 358.506 1040.77 358.04 1040 357.729C1039.22 357.417 1038.39 357.267 1037.55 357.289C1034.55 357.558 1027.71 364.337 1027.56 368.057C1027.42 370.847 1032.44 376.623 1034.13 378.312C1040.52 384.651 1047.31 388.444 1046.19 403.936C1044.6 407.852 1040.5 408.684 1037.31 410.862C1034.89 412.502 1033.69 417.593 1029.49 418.033C1027.84 417.397 1028.81 414.509 1028.34 413.138C1027.71 411.303 1024.48 410.397 1022.44 408.513C1020.41 406.628 1020.07 404.548 1018.79 403.128C1017.51 401.709 1014.82 400.999 1012.89 399.8C1011.66 399.066 1010.7 396.423 1009.47 396.472C1007.46 396.472 1008.17 398.748 1007.64 402.37C1007.12 405.992 1004.83 408.684 1005.61 412.869C1005.92 414.607 1007.83 416.002 1008.79 417.764C1010.36 420.676 1010.59 424.054 1012.19 425.718C1013.26 426.819 1015.08 427.04 1016.28 428.018C1019.33 430.374 1021.88 433.247 1023.8 436.487C1024.79 439.179 1023.8 442.36 1024.48 445.199C1025.23 448.479 1029.04 450.828 1026.75 454.157C1024.56 453.434 1022.55 452.302 1020.85 450.828C1017.98 448.846 1015.7 446.198 1014.25 443.143C1013.56 442.157 1012.95 441.127 1012.42 440.06C1011.64 437.759 1011.79 435.165 1011.06 432.375C1009.98 429.361 1008.28 426.576 1006.05 424.176C1004.46 422.487 1001.62 421.484 1001.51 419.061C1001.36 415.61 1002.53 411.572 1002.43 407.509C1002.43 406.653 1001.88 405.772 1001.75 404.695C1001.51 402.737 1001.9 400.338 1001.51 398.552C1000.97 396.966 1000.28 395.427 999.451 393.951C998.851 392.458 998.225 390.989 997.651 389.056C996.737 386.095 995.694 380.368 993.554 380.074C991.414 379.78 989.013 384.969 986.038 384.969C985.178 384.882 984.365 384.553 983.708 384.024C983.052 383.495 982.581 382.792 982.359 382.007C982.072 380.441 983.09 378.85 983.064 377.113C983.064 373.662 980.793 372.34 979.175 369.917C978.523 368.963 978.367 367.47 977.819 366.858C976.775 365.463 974.818 364.68 973.487 363.26C972.212 361.866 971.142 360.319 970.303 358.659C969.442 356.652 969.155 354.058 967.824 353.764C966.493 353.471 965.058 355.575 963.727 356.065C961.726 356.684 959.662 357.11 957.569 357.338C953.028 357.705 949.323 356.334 949.74 362.477C949.036 365.243 946.453 365.267 944.73 366.564C942.564 368.229 940.973 371.581 938.598 374.249C937.45 375.571 935.78 376.378 934.736 377.578C933.692 378.777 933.614 380.221 932.701 381.175C930.274 383.77 926.62 383.99 924.872 387.587C924.872 391.846 926.646 395.077 926.229 399.115C926.02 400.95 924.794 402.59 924.637 404.499C924.81 406.199 924.888 407.906 924.872 409.614C924.663 410.544 923.75 411.034 923.045 412.184C922.341 413.334 922.158 414.631 921.689 415.268C920.906 416.369 919.653 417.128 918.949 418.082C917.8 419.624 917.539 420.725 916.339 420.897C911.355 421.704 910.129 411.107 907.937 406.555C906.919 404.499 904.857 402.639 903.84 400.143C902.822 397.646 902.3 393.657 900.656 390.353C899.003 387.629 897.555 384.799 896.324 381.885C895.515 379.438 894.811 376.403 894.054 373.686C893.178 370.845 892.567 367.938 892.227 364.998C892.045 361.67 892.802 359.614 890.401 358.317C888.235 358.904 887.243 361.4 884.738 361.4C882.233 361.4 875.788 356.652 877.693 352.418C876.101 349.971 872.108 348.502 869.055 345.517C867.307 343.803 865.715 339.716 862.688 339.374C861.757 339.448 860.838 339.62 859.948 339.888C858.017 340.059 854.729 339.692 852.433 339.888C849.282 340.412 846.075 340.577 842.882 340.377C840.664 340.108 837.898 339.618 835.628 339.374C832.576 339.25 829.637 338.26 827.199 336.535C826.207 335.507 825.79 332.129 824.016 331.64C822.241 331.15 820.754 332.913 818.797 333.426C814.621 334.503 811.151 332.448 808.359 330.343C806.349 328.85 804.549 328.067 803.14 327.014C799.669 324.396 799.043 316.564 793.798 316.515C792.655 316.493 791.538 316.834 790.628 317.483C789.719 318.131 789.07 319.05 788.787 320.088C789.173 322.213 790.065 324.23 791.397 325.986C794.006 330.049 798.651 331.566 800.06 337C801 337.416 802.905 336.07 803.922 337.269C804.784 339.594 803.922 343.926 805.958 344.954C815.404 346.716 818.118 340.867 822.345 336.755C824.798 338.566 823.989 340.132 824.824 342.139C825.502 343.984 826.876 345.534 828.686 346.496C829.835 346.985 831.296 346.496 833.018 347.254C835.496 349.086 837.451 351.466 838.707 354.18C837.9 357.007 836.595 359.687 834.845 362.11C833.932 363.383 832.549 364.044 832.105 365.194C831.661 366.344 831.896 367.959 831.661 368.522C831.244 369.55 829.182 370.97 828.008 372.12C826.781 373.289 825.492 374.4 824.146 375.448C822.711 376.672 821.824 378.385 820.284 379.022C817.257 380.294 814.387 379.756 811.881 381.469C810.237 382.668 810.237 385.385 808.228 386.853C806.219 388.322 802.618 388.371 799.591 389.937C797.66 390.916 796.485 392.849 794.815 393.51C794.137 393.779 793.276 393.51 792.545 393.779C791.032 394.195 789.649 395.419 788.213 395.811C786.778 396.202 785.917 395.982 784.821 396.325C781.298 397.475 778.089 401.489 774.592 399.139C772.922 394.832 772.661 389.35 770.704 385.556C769.738 383.623 767.781 383.109 767.077 380.955C767.077 379.315 768.747 379.756 768.903 378.508C768.303 375.742 766.007 374.469 764.571 372.12C763.893 370.97 763.554 369.33 762.771 368.008C760.161 363.578 754.708 361.253 753.664 355.771C753.377 354.254 753.664 353.079 753.429 351.904C752.933 349.978 752.047 348.158 750.819 346.545C749.932 345.394 748.21 344.636 747.166 342.947C746.514 341.846 746.357 340.279 745.809 339.104C743.579 334.547 740.495 330.402 736.702 326.867C734.849 327.186 732.866 327.333 731.953 328.679C732.862 331.796 734.158 334.802 735.815 337.636C737.493 340.251 738.934 342.993 740.121 345.835C740.486 346.912 740.408 348.282 740.799 349.433C742.234 353.495 746.723 354.743 747.636 359.418C748.236 362.575 747.505 364.729 748.314 367.886C749.123 371.043 753.037 372.781 754.681 375.571C756.012 378.018 756.012 381.273 756.952 383.5C758.309 386.804 762.171 388.224 764.911 390.426C767.2 392.682 769.327 395.077 771.278 397.597C772.478 398.845 774.174 399.066 774.461 400.412C774.853 402.15 773.809 402.737 773.548 404.254C775.296 406.31 776.993 410.104 779.915 410.422C781.116 410.422 782.525 409.174 784.456 408.88C785.395 408.733 786.413 409.027 787.196 408.88C788.396 408.635 789.466 407.411 790.823 407.093C793.145 406.53 795.859 406.751 798.782 406.31C801.704 405.87 803.479 403.251 805.619 404.01C807.941 406.897 806.271 410.177 805.619 412.967C805.384 413.97 805.384 414.974 805.175 415.806C803.922 420.358 800.713 423.736 799.251 427.847C798.782 429.095 798.86 430.637 798.338 431.934C796.243 436.091 793.567 439.968 790.379 443.462C789.001 445.276 787.484 446.994 785.839 448.601C784.195 450.094 782.212 451.049 780.359 452.444C776.479 455.737 773.115 459.527 770.365 463.702C769.373 465.243 768.903 467.03 767.755 468.327C766.268 470.187 763.997 471.117 762.771 472.928C761.703 475.097 760.788 477.329 760.031 479.61C758.778 482.522 756.169 484.504 756.612 488.567C756.795 490.109 758.022 491.015 758.439 492.679C758.906 495.311 758.827 498.004 758.204 500.608C759.483 504.133 760.422 507.951 762.771 510.398C763.032 515.586 762.379 520.604 762.771 525.082C763.006 527.872 763.971 529.977 762.98 532.425C761.537 535.364 759.447 537.983 756.847 540.109C754.708 541.676 751.42 542.092 749.019 543.976C747.401 545.273 746.07 547.574 744.452 549.091C741.843 551.539 738.111 553.986 737.876 556.434C738.087 558.187 738.543 559.907 739.233 561.549C740.514 565.896 740.595 570.478 739.468 574.862C737.824 579.292 729.474 578.387 728.534 583.061C728.273 584.481 729.109 585.631 729.004 587.173C728.496 589.682 727.736 592.14 726.734 594.515C725.716 596.644 723.446 597.599 721.959 599.41C720.106 601.686 719.14 604.99 717.183 607.364C714.241 610.798 710.965 613.969 707.398 616.835C703.644 619.775 699.071 621.643 694.22 622.22C691.454 622.44 688.479 621.485 685.582 621.975C684.512 622.146 683.338 623.247 681.929 623.517C681.12 623.664 680.285 623.345 679.32 623.517C677.91 623.786 676.554 625.059 675.249 625.034C672.3 625.034 668.516 621.045 668.412 617.105C668.412 615.587 669.56 614.143 669.56 612.748C669.56 611.353 667.76 609.053 666.377 606.091C664.994 603.13 664.524 599.973 663.193 597.623C661.862 595.274 659.905 593.952 658.861 591.994C656.774 588.054 656.617 583.379 655.912 578.656C655.678 577.114 654.738 575.45 654.529 573.541C654.583 571.23 654.514 568.919 654.321 566.615C653.534 564.924 652.618 563.288 651.581 561.72C649.989 558.391 648.971 554.06 647.484 551.49C645.996 548.92 643.622 546.595 643.413 543.805C643.364 541.399 643.512 538.994 643.857 536.61C644.091 534.823 645.292 533.403 645.683 531.495C645.944 530.246 645.683 528.778 645.892 527.407C647.066 521.534 652.781 519.404 652.05 512.282C651.711 509.248 649.832 507.755 649.441 504.328C649.31 502.713 650.146 501.318 650.119 499.727C649.62 497.177 648.742 494.706 647.51 492.385C645.214 486.732 643.804 481.568 640.464 477.26C638.664 474.935 636.263 473.271 634.776 471.117C633.46 469.164 632.573 466.984 632.166 464.705C632.166 463.261 633.158 462.258 633.523 460.863C633.993 458.978 634.019 455.405 634.645 452.419C635.623 450.253 636.282 447.972 636.602 445.64C636.278 444.185 635.623 442.814 634.682 441.618C633.74 440.423 632.535 439.432 631.148 438.714C627.965 437.833 624.703 439.864 620.711 439.497C617.136 436.903 617.396 430.441 612.412 429.634ZM738.163 521.362C739.207 519.478 740.538 514.191 738.163 512.919H737.694C736.676 515.048 735.606 520.163 738.163 521.362ZM734.98 467.813C735.737 466.027 737.589 464.167 737.25 461.915C736.598 457.02 728.404 459.468 727.465 462.943C726.838 465.39 727.856 467.201 727.021 469.6C727.908 471.509 730.152 471.876 732.918 471.656C734.458 470.897 734.275 469.428 734.98 467.813ZM721.097 494.221C722.011 492.336 719.662 491.088 719.297 489.081C718.827 486.634 719.793 483.942 717.914 482.669H717.235C715.591 486.878 717.914 493.805 721.097 494.221ZM876.179 239.691C875.318 237.758 872.865 240.254 873.909 241.992C875.448 242.187 875.996 241.184 876.179 239.765V239.691ZM823.207 250.19C826.886 249.383 823.207 242.848 820.467 243.534C816.839 244.635 820.675 250.802 823.207 250.264V250.19ZM806.375 283.255C807.497 274.371 801.365 273.685 800.243 267.347C800.765 267.347 800.478 266.613 800.922 266.588C802.409 265.78 804.679 267.885 805.462 265.829C805.448 265.082 805.231 264.35 804.832 263.702C804.432 263.055 803.864 262.514 803.18 262.129C802.496 261.745 801.719 261.53 800.922 261.505C800.125 261.48 799.335 261.646 798.625 261.987C797.66 261.228 797.529 259.54 797.268 257.875C794.659 256.162 788.318 252.369 788.396 248.918C788.396 246.054 791.736 244.464 795.468 244.561C797.033 243.215 796.016 239.104 794.554 238.149C792.394 237.377 790.041 237.208 787.781 237.664C785.521 238.12 783.45 239.181 781.82 240.719C780.02 242.163 778.036 243.166 777.045 244.048C775.889 245.155 775.164 246.594 774.983 248.135C775.14 249.725 777.149 250.582 777.958 252.76C778.35 253.837 778.271 255.208 778.637 256.089C779.628 258.536 782.159 260.151 784.09 262.232C785.447 263.7 789.309 266.882 789.309 268.644C789.309 270.406 788.161 270.43 787.744 271.972C787.185 274.067 786.947 276.227 787.039 278.385C787.561 281.199 790.144 281.297 792.493 282.472C794.841 283.646 797.112 285.751 799.539 285.8C800.801 285.878 802.067 285.698 803.247 285.271C804.428 284.844 805.495 284.181 806.375 283.328V283.255ZM752.933 264.801C759.091 263.553 756.273 257.68 753.168 255.575C750.793 253.984 747.949 252.589 745.209 250.68C743.591 249.579 737.511 247.498 737.381 245.296C737.25 243.093 741.895 242.114 739.99 237.953C736.885 237.121 729.552 238.467 729.996 242.31C730.283 244.561 732.605 243.313 733.179 245.663C730.935 246.544 728.221 248.893 725.899 248.477C723.107 247.988 722.402 244.121 720.889 241.82C718.723 241.82 717.314 239.373 714.756 239.765C712.199 240.156 710.659 244.464 709.303 246.691C708.572 247.841 707.424 248.453 707.032 249.505C706.797 250.142 707.032 251.145 706.797 251.953C706.015 254.816 703.823 255.844 704.057 258.365C704.292 260.886 706.406 261.571 706.667 263.48C706.928 265.389 703.718 264.434 704.057 266.833C708.128 270.602 708.337 265.046 710.425 264.385C712.095 263.749 715.357 264.899 717.47 264.385C719.166 263.969 720.523 262.134 722.454 261.302C723.82 260.716 725.288 260.368 726.786 260.274C734.014 259.931 738.685 265.169 745.052 265.413C747.692 265.471 750.331 265.29 752.933 264.875V264.801ZM738.372 295.1C738.503 292.359 737.459 290.205 737.25 286.387C733.049 283.549 729.917 289.055 725.638 288.443C723.028 288.076 721.15 284.625 718.384 285.115C716.844 285.384 716.087 287.562 714.495 287.929C711.26 288.615 709.772 284.992 706.328 286.387C701.448 282.227 699.282 275.399 698.134 267.689C695.524 263.774 691.428 266.955 689.497 269.476C688.296 269.476 686.887 268.742 686.548 270.259C685.661 274.983 692.497 275.497 692.445 278.703C692.445 280.807 689.836 280.612 688.583 282.031C687.331 283.451 688.166 284.919 686.548 285.874C682.06 286.485 680.572 283.72 680.624 279.217C678.693 275.913 676.24 273.49 674.492 270.773C673.606 269.526 672.986 268.13 672.665 266.661C672.509 265.462 673.187 263.945 672.9 262.574C672.404 260.127 668.36 258.267 665.855 256.921C663.015 255.691 660.343 254.146 657.896 252.32C656.539 251.047 655.912 248.82 654.712 247.963C653.512 247.107 652.442 247.4 651.529 246.691C650.615 245.981 650.485 244.047 648.789 243.607C647.954 243.24 646.623 244.561 646.179 245.394C645.057 250.998 649.102 251.365 650.954 253.862C652.207 255.55 652.833 258.12 654.138 259.246C655.443 260.372 657.374 260.2 659.122 261.032C660.349 261.595 661.131 263.309 662.306 264.092C664.472 265.585 667.968 265.854 668.229 268.717C666.872 269.745 663.819 267.2 662.775 269.745C662.514 271.409 663.95 272.193 663.898 273.832C663.898 276.28 661.288 279.119 659.122 278.727C658.913 277.234 660.323 276.011 660.27 274.371C660.27 271.116 654.347 266.148 651.398 264.581C650.015 263.896 648.345 263.847 647.066 263.064C644.215 261.119 641.69 258.784 639.577 256.138C637.959 253.69 636.55 249.212 632.975 249.481C631.514 249.481 630.366 251.072 629.113 251.781C627.925 252.393 626.783 253.08 625.695 253.837C624.39 254.816 623.294 255.82 622.067 255.868C619.223 256.015 616.848 253.421 614.239 254.082C613.404 254.278 612.725 255.11 611.629 256.138C611.629 257.631 612.021 258.585 611.864 260.225C611.108 261.669 608.916 261.595 607.298 262.55C604.878 264.4 602.737 266.549 600.931 268.938C599.76 269.919 598.864 271.154 598.321 272.535C598.321 273.392 598.973 274.983 598.791 276.133C598.037 278.023 596.79 279.706 595.164 281.028C594.355 281.664 593.285 281.737 592.554 282.325C590.754 283.524 589.945 285.066 588.457 285.384C584.491 286.216 577.263 284.503 577.315 289.226C577.315 292.408 581.151 292.433 583.473 292.31C586.683 292.163 589.397 293.069 591.302 292.579C592.528 292.212 593.911 290.67 595.164 290.132C595.973 289.716 596.808 289.716 597.434 289.349C598.791 288.59 599.574 287.342 600.617 286.901C603.199 285.769 605.972 285.073 608.811 284.846C611.864 284.65 615.074 285.188 619.041 284.846C620.45 284.846 621.833 283.695 623.346 283.573C625.956 283.353 629.087 284.674 631.175 284.601C632.558 284.601 634.097 283.035 635.715 283.059C636.615 283.108 637.48 283.399 638.207 283.898C638.934 284.398 639.491 285.084 639.812 285.874C639.995 286.632 639.421 287.831 639.577 288.957C639.838 290.817 641.247 291.576 641.169 292.8C641.038 294.391 637.516 296.544 637.985 298.429C638.298 299.652 640.856 300.876 642.082 301.757C643.558 302.836 645.255 303.619 647.066 304.058C648.371 304.229 649.493 303.666 650.72 303.813C653.02 304.213 655.196 305.091 657.087 306.383C659.227 308.071 658.913 310.788 661.419 311.743C662.462 312.159 664.367 311.938 665.724 312.257C669.038 313.064 671.491 316.172 673.918 315.854C677.728 315.34 675.979 311.302 676.527 308.512C677.493 301.977 688.844 302.271 691.062 306.725C692.745 306.898 694.417 307.151 696.073 307.484C697.168 307.9 697.977 309.246 699.021 309.54C700.012 309.589 701.005 309.589 701.996 309.54C706.354 310.103 710.294 313.749 714.026 313.138C716.427 312.722 718.149 310.225 720.393 310.054C724.751 309.76 727.543 313.7 732.24 311.84C735.684 310.47 734.849 306.456 736.102 302.369C736.702 299.187 738.372 297.254 738.372 295.1ZM923.933 118.887C922.053 118.986 920.275 119.715 918.922 120.943C918.061 121.457 916.313 121.726 916.887 123.244C919.053 122.877 923.411 121.751 923.933 118.814V118.887ZM827.982 150.41C833.331 151.805 835.81 145.001 832.288 141.183C831.453 140.278 828.686 139.935 827.512 137.855C826.129 135.407 826.312 132.006 822.972 132.74C822.972 133.033 822.972 133.45 822.737 133.498C822.424 139.103 829.678 140.498 829.574 145.026C829.522 147.326 827.277 147.571 827.982 150.337V150.41Z" fill="#E04048" fill-opacity="0.13"/>
<path d="M753.168 140.596C752.49 137.83 757.161 138.149 756.352 140.865C756.128 141.052 755.866 141.194 755.581 141.282C755.297 141.37 754.996 141.402 754.698 141.377C754.399 141.352 754.11 141.269 753.847 141.135C753.583 141.001 753.353 140.817 753.168 140.596Z" fill="#E04048" fill-opacity="0.13"/>
<path d="M725.325 293.901C725.325 291.772 729.709 291.013 730.544 292.873C730.152 294.856 726.082 296.348 725.325 293.901Z" fill="#E04048" fill-opacity="0.13"/>
<path d="M647.197 280C649.571 277.822 654.843 279.29 658.131 279.217C657.504 281.175 657.426 283.72 656.069 284.846C652.259 284.111 648.867 283.059 647.197 280Z" fill="#E04048" fill-opacity="0.13"/>
<path d="M630.601 266.417C633.732 262.746 636.994 264.679 635.819 271.777C635.063 273.906 631.801 276.671 630.34 273.588C630.72 271.215 630.807 268.809 630.601 266.417Z" fill="#E04048" fill-opacity="0.13"/>
<path d="M635.141 258.218C635.327 258.934 635.275 259.687 634.99 260.374C634.705 261.061 634.202 261.65 633.549 262.06C630.574 261.449 632.845 255.403 635.141 258.218Z" fill="#E04048" fill-opacity="0.13"/>
<path d="M591.041 206.186C591.104 205.398 590.95 204.609 590.594 203.893C590.237 203.177 589.69 202.559 589.005 202.099C588.249 201.61 587.1 201.83 586.396 201.316C584.178 199.945 583.369 197.082 582.09 196.421C582.247 193.631 581.386 191.526 582.09 189.764C583.285 187.764 584.999 186.08 587.074 184.869C589.058 184.086 591.145 184.869 592.293 183.083C592.488 183.044 592.689 183.046 592.883 183.088C593.077 183.13 593.259 183.212 593.415 183.328C593.415 184.943 592.215 185.212 592.058 186.68C592.345 189.005 595.973 187.537 596.364 189.74C596.025 192.187 594.12 192.603 594.094 194.365C594.068 196.127 596.86 198.771 598.191 200.753C599.182 202.246 600.8 203.347 601.844 204.865C602.888 206.382 602.783 207.777 603.436 208.438C604.61 209.735 607.324 209.931 607.507 211.791C607.794 214.238 604.897 215.193 605.236 217.934C602.131 220.699 596.912 219.255 591.824 219.99C589.527 220.308 586.996 222.902 584.543 220.748C583.995 219.035 586.578 218.79 586.813 217.175C586.657 215.658 584.935 215.853 584.543 214.728C585.222 212.721 587.283 212.28 587.153 209.343C588.223 207.704 590.649 208.242 591.041 206.186Z" fill="#E04048" fill-opacity="0.13"/>
<path d="M573.975 200.043C577.002 197.938 582.299 199.554 582.612 202.099C582.821 204.008 580.994 204.302 580.316 206.455C579.637 208.609 580.446 210.738 579.637 212.084C578.828 213.431 577.028 213.186 575.775 213.626C572.931 214.581 567.399 218.374 565.102 214.14C565.416 211.864 567.373 211.399 568.051 209.515C568.051 208.046 566.694 207.263 566.903 205.672C567.112 204.081 568.469 204.424 570.321 203.641C571.678 203.054 572.252 201.242 573.975 200.043Z" fill="#E04048" fill-opacity="0.13"/>
<path d="M418.684 144.438C419.154 146.714 412.709 149.7 412.082 146.739C411.586 144.389 417.04 141.452 418.684 144.438Z" fill="#E04048" fill-opacity="0.13"/>
<path d="M411.169 722H407.777C408.864 721.584 410.082 721.584 411.169 722Z" fill="#E04048" fill-opacity="0.13"/>
<path d="M400.94 126.254C401.03 126.168 401.137 126.099 401.256 126.052C401.375 126.005 401.502 125.981 401.631 125.981C401.76 125.981 401.888 126.005 402.007 126.052C402.125 126.099 402.233 126.168 402.323 126.254C402.088 126.842 401.905 127.502 400.94 127.282V126.254Z" fill="#E04048" fill-opacity="0.13"/>
<path d="M380.716 166.979C380.716 168.398 376.202 170.723 375.706 168.007C375.649 167.622 375.704 167.231 375.865 166.873C376.025 166.516 376.286 166.205 376.619 165.975C377.82 165.119 380.664 165.608 380.716 166.979Z" fill="#E04048" fill-opacity="0.13"/>
<path d="M286.122 405.037C286.122 405.405 285.783 405.674 285.679 406.065C283.252 405.967 285.418 402.492 286.122 405.037Z" fill="#E04048" fill-opacity="0.13"/>
<path d="M193.799 225.912C195.391 224.884 196.93 227.503 195.86 228.751C194.086 229.118 193.642 226.867 193.799 225.912Z" fill="#E04048" fill-opacity="0.13"/>
<path d="M441.648 235.408C440.578 235.115 439.038 235.163 437.786 234.894C436.533 234.625 435.176 234.258 434.159 234.111C431.34 233.744 428.313 234.674 426.643 232.838C429.512 228.716 432.788 224.857 436.429 221.311C437.446 220.259 439.691 219.549 439.038 217.469C437.107 215.56 434.733 217.469 432.906 218.741C431.034 220.229 428.872 221.359 426.539 222.07C422.781 222.706 417.797 220.846 414.718 223.098C414.3 225.031 418.215 224.297 417.667 227.209C416.974 227.453 416.223 227.508 415.498 227.369C414.774 227.231 414.105 226.904 413.57 226.426C412.526 225.349 413.126 223.759 412.448 223.098C410.123 222.015 407.49 221.655 404.932 222.07C403.749 222.233 402.651 222.742 401.794 223.524C400.936 224.306 400.364 225.321 400.157 226.426C403.027 227.944 407.751 224.884 408.794 228.751C407.229 231.933 403.575 233.646 404.019 237.953C404.163 238.827 404.526 239.656 405.08 240.371C405.634 241.086 406.361 241.667 407.203 242.065C408.481 242.31 409.186 240.915 410.386 241.037C411.586 241.16 411.378 242.824 412.996 242.579C415.188 241.527 416.388 238.051 418.919 238.223C421.92 242.334 416.31 244.341 412.996 245.565C409.368 247.033 404.619 247.841 401.853 249.138C400.392 249.823 394.912 255.82 394.025 251.194C393.477 247.841 396.634 248.747 397.443 246.054C393.92 245.296 390.632 247.768 387.423 249.138C382.856 251.096 375.106 252.32 374.01 258.12C373.801 259.27 374.453 261.449 373.775 262.207C373.097 262.966 369.991 262.941 368.556 263.48C366.364 264.336 364.459 266.148 363.102 266.564C361.745 266.98 360.493 266.784 359.919 267.078C358.118 267.861 357.44 270.626 355.378 272.462C354.517 273.221 352.769 273.759 351.96 274.518C350.785 275.839 350.629 279.143 348.541 279.633C347.237 279.633 346.141 278.507 344.914 279.388C344.758 282.643 345.932 287.097 344.679 290.401C341.864 292.791 338.825 294.937 335.598 296.813C333.667 298.013 331.971 298.331 329.675 299.628C328.031 300.533 326.543 302.736 324.665 303.984C320.333 306.848 315.088 310.274 315.114 317.567C315.114 319.134 315.844 320.847 316.027 322.682C316.027 323.759 316.027 324.836 316.027 326.011C316.288 328.703 318.01 332.105 316.027 333.965C312.974 332.545 309.086 332.056 306.946 329.609C306.346 327.161 308.12 324.983 307.859 322.682C307.625 320.822 305.25 317.543 303.971 317.298C302.693 317.053 301.362 318.718 299.901 318.571C298.439 318.424 296.613 315.805 294.421 315.512C291.237 315.096 288.862 316.319 285.34 315.756C281.895 317.837 280.903 321.508 276.702 321.141C275.215 321.141 273.858 319.746 272.162 319.354C270.023 318.723 267.801 318.377 265.56 318.326C261.672 318.62 258.879 321.752 255.539 323.71C252.617 325.424 248.468 327.577 247.58 331.053C247.111 332.961 247.58 335.678 246.902 337.44C246.371 338.586 245.761 339.698 245.075 340.769C241.871 346.892 240.952 353.847 242.466 360.519C243.46 363.522 244.753 366.431 246.328 369.207C248.039 371.138 250.391 372.474 253.008 373.001C254.791 372.753 256.541 372.326 258.227 371.728C260.223 371.508 262.202 371.165 264.151 370.7C269.056 368.914 268.091 361.425 272.997 358.904C275.653 357.82 278.53 357.294 281.425 357.362C282.031 358.034 282.484 358.815 282.758 359.656C283.031 360.498 283.12 361.382 283.017 362.257C282.516 363.747 281.905 365.202 281.191 366.613C280.669 368.253 280.564 370.162 280.068 371.508C279.39 373.246 277.876 374.494 277.459 376.134C277.12 377.186 277.302 378.581 277.015 379.462C276.493 381.151 274.406 382.326 275.424 384.063C280.277 386.241 286.175 383.451 290.428 384.332C291.849 384.714 293.121 385.474 294.09 386.521C295.058 387.569 295.681 388.857 295.882 390.231C295.882 392.556 294.29 394.073 294.055 396.618C293.794 399.849 292.594 403.765 292.463 406.408C292.255 410.666 297.996 418.009 302.014 417.935C306.033 417.862 308.851 413.04 314.07 415.635C315.792 416.467 317.619 419.624 319.524 419.477C321.429 419.33 323.49 416.246 324.534 414.093C325.813 411.474 325.891 409.198 328.161 407.95C330.431 406.702 332.545 407.216 335.677 405.894C337.079 405.2 338.377 404.336 339.539 403.324C340.635 402.492 341.809 400.241 343.166 401.807C344.992 403.838 340.948 404.988 342.487 407.191C345.645 409.051 347.263 403.667 349.533 403.593C351.206 404.188 352.753 405.058 354.099 406.163C355.874 407.46 356.474 409.32 358.405 409.736C359.658 410.03 361.667 409.198 363.415 409.492C365.738 409.859 367.121 412.11 368.869 411.939C371.009 411.939 372.027 409.247 373.879 408.88C377.898 408.048 379.385 409.369 381.134 412.208C383.117 412.6 383.195 409.614 385.022 410.666C384.03 412.894 385.361 413.921 386.144 415.806C386.666 417.005 386.588 417.837 387.057 418.253C388.153 419.428 390.241 419.428 391.833 420.554C393.589 422.345 395.113 424.325 396.373 426.452C398.194 429.083 400.979 430.998 404.202 431.836C406.811 432.008 408.742 431.029 410.804 431.322C415.501 431.983 418.423 434.627 421.711 437.49C423.564 439.081 425.208 440.182 425.808 442.091C426.226 443.413 426.017 445.199 426.487 446.692C427.504 449.898 431.706 451.44 430.14 456.947C430.818 458.562 432.358 459.149 434.002 460.275C435.646 461.401 436.429 463.09 437.864 463.359C438.777 463.53 439.795 463.041 440.473 463.09C442.809 463.473 445.048 464.262 447.075 465.415C448.495 465.794 449.868 466.31 451.172 466.957C452.321 467.838 452.477 470.775 453.912 471.558C454.826 472.072 456.913 471.362 458.453 471.558C460.88 471.876 464.194 473.565 466.281 473.614C467.612 473.614 468.734 473.002 469.908 473.1C475.493 473.589 478.65 481.078 484.026 483.354C485.67 484.04 488.331 483.55 489.48 484.113C491.489 485.092 493.185 492.042 493.342 495.126C493.785 504.426 487.444 507.363 483.791 513.58C483.034 514.877 482.591 516.908 481.521 518.695C479.329 522.317 476.902 523.076 477.189 529.732C477.189 531.543 478.102 533.33 478.102 535.361C478.133 538.027 477.906 540.689 477.424 543.316C477.032 545.004 475.806 546.375 475.597 547.917C475.388 549.458 476.015 550.682 475.832 552.028C475.186 553.989 474.311 555.877 473.223 557.657C471.109 562.038 470.613 567.178 466.412 568.915C463.802 569.968 460.514 569.38 457.774 570.457C456.652 570.898 455.165 572.048 453.886 572.758C449.946 574.838 444.309 577.653 443.213 582.254C442.248 586.341 444.57 589.596 443.892 594.295C443.075 595.799 442.16 597.253 441.152 598.651C440.186 600.095 439.691 601.808 438.542 603.277C437.186 605.186 435.072 606.042 434.237 608.637C433.95 609.518 434.237 610.57 433.793 611.965C433.793 612.503 432.802 613.287 432.41 614.29C432.019 615.294 432.071 616.346 431.732 617.105C430.688 619.552 427.609 624.838 425.365 625.573C420.641 627.041 415.657 623.297 412.317 624.006C412.787 626.576 414.457 626.307 415.527 628.118C416.034 629.356 416.636 630.558 417.327 631.716C418.345 633.037 419.258 633.527 419.389 635.044C419.403 636.425 419.106 637.793 418.517 639.058C417.928 640.324 417.06 641.458 415.97 642.386C413.928 643.457 411.688 644.155 409.368 644.442C407.698 644.76 403.34 644.785 402.558 645.984C401.383 647.77 403.158 652.151 402.323 653.938C400.627 657.682 396.06 653.816 393.685 654.941C393.521 655.836 393.602 656.754 393.922 657.611C394.242 658.467 394.789 659.233 395.512 659.836C396.921 660.791 399.113 659.567 400.053 661.378C399.583 663.825 397.156 664.266 396.634 666.762C396.634 669.21 397.365 669.846 397.104 671.363C396.504 674.667 391.885 674.521 392.094 678.045C392.276 683.282 401.018 681.129 401.201 686.244C401.201 689.327 398.591 689.376 397.782 692.387C397.286 694.002 398.069 694.369 397.782 695.715C397.391 697.526 395.512 698.162 395.512 700.071C395.512 702.519 398.696 705.211 400.287 707.242C401.831 709.555 403.74 711.635 405.95 713.41C409.16 715.392 413.909 714.927 415.292 718.525C414.848 720.679 412.996 721.241 411.195 721.853H410.725C409.638 721.437 408.42 721.437 407.333 721.853H404.149C401.096 720.262 397.417 719.235 393.711 717.742C392.355 717.203 390.841 715.931 389.38 715.294C387.918 714.658 387.057 714.511 386.196 713.997C384.239 712.847 382.047 709.102 380.064 707.609C378.864 706.704 376.985 706.214 376.202 705.284C375.517 704.036 374.907 702.754 374.375 701.442C373.645 700.267 372.288 699.411 371.427 698.114C369.548 695.299 367.121 691.481 367.095 689.401C367.069 687.32 368.843 685.95 368.243 684.041C367.643 682.132 364.198 682.621 363.702 680.443C363.389 679.122 364.694 676.919 364.59 675.059C364.59 673.982 362.763 672.612 363.468 670.947C364.172 669.283 365.816 671.094 367.095 670.189C366.155 666.493 367.095 660.546 363.911 659.42C362.241 661.011 365.633 664.609 362.789 665.588C360.023 664.193 360.675 660.13 360.18 657.12C359.562 655.19 359.108 653.218 358.823 651.221C358.823 650.12 359.214 648.774 359.058 647.648C358.562 644.197 355.169 641.358 354.961 637.859C355.197 636.202 355.572 634.565 356.083 632.964C356.265 631.765 356.083 630.516 356.083 629.121C356.083 627.726 357.1 625.989 357.231 624.52C357.446 621.178 357.297 617.824 356.787 614.51C356.213 611.549 354.178 609.028 353.812 605.798C353.812 604.647 354.152 602.689 354.047 601.197C353.943 599.704 353.264 598.431 353.134 596.84C353.189 595.291 353.345 593.746 353.604 592.215C353.839 589.008 353.03 585.411 353.134 582.229C353.134 581.275 353.604 580.589 353.604 579.659C353.604 577.016 352.795 574.349 352.69 571.73C352.876 567.454 352.798 563.172 352.456 558.905C352.109 555.258 351.348 551.657 350.185 548.161C347.94 545.04 345.09 542.342 341.783 540.207C340.191 539.204 338.286 538.861 336.564 537.907C332.858 535.851 325.682 531.519 324.064 527.407C323.595 526.208 323.647 524.617 323.151 523.296C321.829 520.749 320.311 518.295 318.611 515.954C315.792 511.059 313.522 505.063 310.782 500.07C309.508 497.538 308.061 495.085 306.45 492.728C305.511 491.529 302.51 490.28 302.145 488.616C301.623 486.169 300.057 482.987 300.318 481.274C300.631 478.827 304.859 476.844 304.859 474.617C304.859 472.39 302.614 471.631 302.249 470.016C301.101 466.1 302.901 463.799 304.284 460.52C304.728 459.468 305.172 457.73 305.641 456.947C306.476 455.527 308.251 455.136 309.295 453.618C309.895 452.762 310.286 450.975 311.095 449.776C312.844 447.182 315.636 446.203 316.314 443.878C317.041 439.011 317.111 434.077 316.523 429.193C315.75 427.446 314.879 425.739 313.913 424.078C312.87 420.97 312.635 417.593 309.817 417.666C308.068 417.666 306.842 419.869 305.72 421.239C305.459 423.075 305.72 425.057 303.893 425.596C301.284 426.452 300.318 422.536 297.317 421.508C296.117 421.092 294.186 421.117 293.455 420.725C291.237 419.624 290.532 416.002 288.236 414.582C285.94 413.163 284.635 413.824 283.461 412.012C283.189 410.32 283.111 408.605 283.226 406.897C280.616 405.258 278.633 399.115 275.737 397.671C273.884 396.692 271.014 396.692 268.665 395.811C267.643 395.306 266.578 394.88 265.481 394.538C264.075 394.359 262.698 394.014 261.385 393.51C256.896 391.063 254.469 382.815 248.885 382.986C246.51 382.986 244.214 385.581 242.074 385.434C239.063 384.843 236.201 383.713 233.646 382.105C230.854 380.637 227.774 379.854 225.452 378.508C223.599 377.455 222.321 375.497 220.677 374.665C219.45 374.053 217.623 373.931 216.606 373.393C214.909 372.291 213.296 371.081 211.778 369.77C209.936 368.541 208.636 366.721 208.125 364.655C208.125 362.648 209.769 360.935 209.952 359.002C210.526 352.908 206.533 348.527 204.028 344.905C202.175 342.237 199.983 340.01 198.131 337.563C198.235 336.365 198.235 335.162 198.131 333.965C196.606 332.014 195.237 329.961 194.034 327.822C192.677 325.742 190.041 323.515 189.702 321.165C189.284 318.277 190.694 315.756 189.702 312.966C188.084 308.316 182.369 310.519 183.126 316.539C183.335 318.228 185.422 320.504 186.075 322.193C186.727 323.882 186.597 326.011 187.197 328.067C187.797 330.123 189.545 331.762 190.172 333.965C191.137 337.489 191.111 341.307 191.998 343.461C192.886 345.615 195.652 347.254 194.034 349.604C191.868 350.093 191.059 347.67 189.702 346.275C188.971 345.492 186.257 343.999 185.84 342.164C185.422 340.328 186.701 338.639 186.31 336.779C185.527 333.182 179.055 333.084 179.029 329.437C179.029 326.99 181.639 326.819 181.639 324.542C181.639 322.266 178.664 319.966 178.011 317.886C177.481 315.352 177.176 312.782 177.098 310.201C177.12 307.747 176.972 305.294 176.655 302.859C175.772 300.788 174.267 299.002 172.323 297.719C170.34 296.471 168.748 297.009 167.782 295.272C166.92 293.134 166.384 290.893 166.19 288.615C165.851 285.531 166.19 282.153 165.956 278.825C165.655 275.503 165.655 272.162 165.956 268.84C167.078 266.392 169.139 265.12 170.287 262.672C171.07 260.959 171.201 258.854 172.088 257.043C173.758 253.69 177.307 250.607 179.916 247.254C182.623 243.874 184.834 240.17 186.492 236.24C187.492 234.218 188.11 232.049 188.319 229.828C188.032 227.381 183.909 225.325 184.222 222.486C184.431 220.675 186.832 220.699 187.406 218.913C187.825 217.401 188.052 215.849 188.084 214.287C188.084 211.84 186.962 209.245 187.406 206.602C187.797 204.351 190.772 203.445 189.232 200.973C187.693 198.501 185.005 202.295 183.309 200.704C181.613 199.113 183.622 197.498 183.778 194.83C183.778 193.753 183.23 192.53 183.309 191.747C183.465 190.596 185.448 188.663 184.9 187.904C183.674 186.142 182.291 181.688 179.682 180.219C176.341 178.335 172.74 179.607 168.095 178.677C165.225 178.115 163.894 175.104 161.259 175.349C159.641 175.496 158.649 177.576 156.483 178.677C154.317 179.779 151.264 179.387 149.203 179.95C147.141 180.513 145.993 182.202 143.749 182.006C141.505 181.81 141.87 179.95 139.652 179.705C138.35 179.889 137.061 180.142 135.79 180.464C131.332 181.031 126.808 180.948 122.377 180.219C119.245 179.329 116.259 178.036 113.505 176.377C110.896 174.957 105.677 173.22 106.016 170.993C106.146 169.549 110.765 168.031 112.592 167.395C115.566 166.392 117.393 164.752 119.663 164.58C120.525 164.58 121.673 165.192 122.821 165.094C123.969 164.996 125.43 163.797 126.918 163.553C130.101 163.063 134.59 163.748 134.198 160.224C131.797 158.07 121.96 161.815 121.699 157.165C121.542 154.326 125.43 153.469 128.301 152.808C131.168 151.944 134.14 151.426 137.147 151.267C139.756 151.413 143.175 154.693 144.662 150.997C145.393 148.403 143.775 146.103 143.305 144.096C145.236 141.085 148.785 141.453 151.473 141.012C154.488 140.592 157.412 139.725 160.136 138.442C162.861 137.206 165.776 136.38 168.774 135.995C171.853 135.53 174.854 134.208 177.646 133.939C179.847 133.892 182.043 133.721 184.222 133.425C186.187 132.641 188.26 132.122 190.38 131.883C191.79 131.883 192.99 133.131 194.451 133.425C195.913 133.719 197.348 133.425 198.783 133.67C200.218 133.915 200.871 134.771 201.967 134.967C203.689 135.261 205.542 134.698 207.186 134.967C208.829 135.236 210.03 136.289 211.517 136.484C215.014 136.998 219.033 136.289 222.425 137.023C223.73 137.292 224.878 138.002 226.287 138.295C227.696 138.589 229.079 138.295 230.384 138.54C232.184 138.956 233.698 140.988 235.603 141.11C239.1 141.526 243.066 139.397 246.719 139.054C249.461 139.086 252.201 138.914 254.913 138.54C257.283 137.758 259.718 137.16 262.193 136.754C263.446 136.754 264.464 137.17 265.612 137.023C266.76 136.876 268.221 135.236 269.474 135.481C271.17 135.775 270.857 138.198 272.657 138.809C274.641 137.635 276.598 138.809 278.79 138.809C280.982 138.809 282.808 137.61 285.157 138.026C289.306 138.76 295.073 143.337 298.204 140.865C299.039 140.229 298.831 139.152 299.587 137.512C300.579 135.31 302.562 132.617 302.197 129.583C297.63 129.583 293.272 132.177 288.08 132.397C282.861 128.702 289.489 126.401 293.299 124.712C296.456 123.317 298.935 120.209 302.849 119.597C306.033 119.059 309.529 120.38 313.287 120.87C315.479 121.164 317.697 120.699 318.95 121.115C321.194 121.873 322.342 124.37 324.169 124.957C324.952 125.226 326.282 125.202 327.352 125.471C329.388 126.009 331.214 127.233 333.25 125.471C334.868 125.814 335.05 127.723 336.668 128.041C338.182 127.135 339.278 124.786 341.678 124.198C342.67 123.954 343.74 124.394 344.862 124.198C346.715 123.856 349.168 121.041 350.316 123.684C349.846 125.544 347.367 125.814 345.984 127.282C344.451 128.858 343.428 130.81 343.035 132.911C343.296 135.359 346.558 134.404 346.662 137.512C346.193 139.323 344.34 138.516 342.8 139.323C341.261 140.131 340.896 141.55 339.408 141.771C335.259 142.652 331.841 140.62 328.266 140.767C328.083 142.505 330.04 143.533 330.875 144.096C334.137 146.005 336.773 145.735 341.313 145.613C343.662 145.613 346.349 146.421 348.359 144.854C349.637 143.875 349.559 141.697 350.629 140.498C351.395 139.676 352.342 139.02 353.406 138.576C354.469 138.132 355.623 137.911 356.787 137.928C357.428 138.097 358.009 138.425 358.468 138.877C358.927 139.329 359.248 139.889 359.397 140.498C359.397 142.823 356.474 142.089 356.448 144.61C358.379 145.907 363.468 143.19 363.728 141.012C363.911 139.421 362.085 138.565 362.137 136.925C362.137 134.233 365.477 134.282 365.085 131.541C363.52 130.146 361.902 131.834 360.31 131.541C358.092 131.1 356.083 128.09 355.091 126.156C356.083 124.761 358.144 125.691 359.632 125.887C361.302 123.293 364.407 122.265 368.739 121.8C370.252 121.629 372.314 120.943 373.044 122.559C373.41 125.006 369.861 126.45 370.435 129.216C373.514 130.097 374.506 125.447 377.037 123.587C378.4 122.76 379.852 122.071 381.369 121.531C382.752 120.943 384.317 119.45 385.465 119.499C386.614 119.548 386.927 120.699 388.075 121.286C389.223 121.873 390.684 120.919 391.024 122.559C388.414 127.698 378.576 124.761 376.019 129.901C376.593 133.401 374.48 136.754 376.254 139.127C377.507 140.792 380.377 139.666 381.029 141.428C381.917 143.875 378.263 143.875 379.203 146.543C381.63 148.183 384.422 145.001 386.718 143.729C389.014 142.456 392.12 140.767 392.407 137.586C391.206 134.991 386.718 136.998 386.04 134.257C386.103 132.342 386.726 130.479 387.84 128.873C389.977 126.761 392.551 125.082 395.405 123.937C398.259 122.792 401.332 122.207 404.436 122.216C405.585 122.216 406.733 123.097 407.855 123.244C411.769 123.684 416.388 121.335 419.467 123.244C421.92 121.604 424.895 123.464 428.313 122.975C430.923 124.737 430.244 128.481 434.237 130.146C435.333 130.611 436.69 130.292 438.099 130.66C439.508 131.027 440.291 132.348 441.517 133.107C443.24 133.988 444.544 133.768 444.91 135.138C445.275 136.509 443.683 137.341 443.787 138.736C444.779 139.641 443.944 141.012 444.466 142.309C445.458 144.757 447.937 144.512 450.363 145.638C452.112 146.445 455.765 148.893 455.582 150.777C455.582 152.05 452.138 154.277 451.042 154.864C449.256 156.033 447.244 156.865 445.118 157.312C442.979 156.945 442.144 152.05 439.221 152.172C438.843 152.168 438.468 152.241 438.123 152.387C437.778 152.532 437.47 152.746 437.222 153.013C436.974 153.281 436.791 153.596 436.685 153.937C436.58 154.278 436.555 154.636 436.611 154.987C436.611 158.364 439.952 158.486 440.004 161.399C440.004 164.874 438.334 165.119 435.698 167.297C433.905 166.171 431.892 165.389 429.775 164.997C428.339 166.93 432.175 167.64 430.923 170.112C427.269 170.993 424.477 168.961 421.137 167.811C420.093 167.444 418.528 167.591 417.745 167.052C416.44 166.196 416.075 163.699 415.135 162.427C413.807 160.587 411.766 159.305 409.447 158.854C406.628 158.854 402.584 162.794 400.366 159.098C401.905 153.225 409.186 157.581 413.987 155.501C415.788 154.742 416.414 152.613 417.875 151.658C420.798 149.774 425.704 149.504 425.13 145.76C424.921 143.9 422.52 143.924 421.268 142.945C419.493 141.648 418.136 137.023 415.605 136.802C414.274 136.68 413.335 137.928 411.952 138.075C409.003 138.393 405.741 136.754 403.08 138.075C401.853 138.883 402.688 140.155 401.723 141.673C400.757 143.19 399.113 143.264 398.304 144.487C397.495 145.711 397.626 147.718 396.478 148.844C394.625 150.704 390.685 150.997 388.31 151.927C387.24 152.319 385.909 153.714 384.891 153.714C383.013 153.714 382.282 150.875 380.116 151.927C379.933 154.668 382.726 155.77 384.448 157.042C386.535 158.216 388.136 160.02 388.988 162.158C387.136 166.587 384.187 161.937 381.16 161.913C378.133 161.888 373.331 168.839 370.461 163.185C371.139 160.2 374.062 159.735 374.793 156.798C371.583 157.41 368.765 160.444 365.007 161.399C363.415 161.79 361.876 161.693 360.467 162.158C357.727 163.063 355.848 165.339 352.951 166.538C351.829 167.003 350.498 166.857 349.324 167.297C346.227 168.581 343.258 170.12 340.452 171.898C337.668 173.458 335.047 175.261 332.623 177.282C331.084 178.826 329.918 180.662 329.205 182.667C329.205 184.184 331.814 184.698 331.814 186.264C331.814 187.194 330.327 189.25 331.345 190.621C332.362 191.991 334.163 190.841 336.12 191.135C339.591 191.6 341.887 194.855 344.549 196.519C346.747 197.962 349.218 199.001 351.829 199.578C354.935 200.019 358.431 198.55 358.875 201.365C359.318 204.179 355.926 205.06 355.691 206.749C357.361 209.197 354.543 210.469 354.543 212.647C354.543 214.434 356.5 217.102 358.17 217.248C360.467 217.469 363.833 214.801 364.772 212.133C365.92 209.05 365.425 204.791 367.512 202.662C378.107 202.98 387.057 197.229 386.379 184.967C386.07 183.625 385.921 182.254 385.935 180.88C386.248 178.898 389.275 177.233 388.884 174.737C391.859 173.709 391.728 168.325 394.807 167.542C397.417 166.905 400.287 169.598 403.654 169.353C404.75 169.353 406.263 168.154 407.307 168.325C409.525 168.668 410.856 171.751 412.526 173.22C414.196 174.688 415.553 174.076 415.944 175.667C415.501 178.555 413.7 178.629 413.883 181.321C413.984 182.267 414.355 183.171 414.956 183.938C415.558 184.704 416.368 185.305 417.301 185.677C419.324 185.745 421.317 185.204 422.99 184.135C426.043 182.52 428.626 177.625 431.184 178.237C433.167 178.726 434.759 185.897 435.046 188.492C435.333 191.086 434.706 193.386 434.811 195.834C435.098 200.141 440.03 199.701 442.326 201.977C443.031 202.662 443.318 204.424 443.918 205.305C445.066 207.043 446.527 207.043 446.527 208.878C446.971 213.308 442.979 213.773 443.344 218.668C442.535 220.601 440.447 220.479 440.734 223.024C440.995 227.087 446.136 223.979 447.545 227.136C448.302 228.825 447.545 230.097 446.867 232.52C448.615 234.968 448.615 238.663 445.51 238.663C444.075 238.223 443.5 235.922 441.648 235.408ZM193.799 225.912C195.391 224.884 196.93 227.503 195.86 228.751C194.086 229.118 193.642 226.867 193.799 225.912ZM354.569 252.05C353.63 251.023 350.525 251.316 348.411 251.537C346.923 251.708 345.175 252.075 345.018 253.348C347.367 254.571 353.812 255.452 354.569 252.05ZM342.748 247.694C343.132 247.31 343.417 246.849 343.581 246.346C343.746 245.843 343.785 245.312 343.697 244.792C343.609 244.273 343.395 243.779 343.073 243.349C342.75 242.918 342.327 242.563 341.835 242.31C341.078 242.09 340.087 242.946 338.86 242.848C337.634 242.75 336.251 241.404 335.233 241.306C334.41 241.246 333.584 241.378 332.828 241.69C332.072 242.002 331.41 242.484 330.901 243.093C330.901 244.635 331.919 244.88 331.814 246.421C329.623 248.208 330.797 254.155 332.963 254.376C335.129 254.596 336.459 247.792 339.565 247.18C340.687 246.984 341.261 247.914 342.748 247.694ZM339.565 257.949C336.329 256.652 333.328 258.83 330.692 259.246C329.101 259.466 326.23 258.879 326.596 261.546C326.883 263.7 329.857 262.917 331.606 262.305C334.577 261.438 337.298 259.948 339.565 257.949ZM329.544 238.37C334.085 236.216 328.657 229.51 326.596 228.898C322.916 227.821 317.671 231.957 313.548 233.254C311.147 233.989 308.851 234.062 308.329 236.338C310.495 240.352 314.748 235.457 317.88 236.069C319.472 236.387 320.489 238.835 321.977 239.153C324.517 239.154 327.051 238.925 329.544 238.467V238.37ZM326.361 242.506C325.421 241.257 320.333 242.652 318.871 243.778C317.861 245.066 316.988 246.443 316.262 247.89C315.192 249.334 313.992 250.46 313.078 251.732C312.165 253.005 307.651 260.347 311.252 261.204C312.791 261.571 315.975 257.973 316.262 256.603C316.809 252.567 319.008 248.89 322.394 246.348C324.143 245.149 326.074 245.32 326.361 242.506ZM297.943 213.871C300.553 213.871 302.197 205.33 297.943 206.529C295.099 207.19 294.395 214.018 297.943 213.871ZM285.679 406.065C285.679 405.674 285.992 405.405 286.122 405.037C285.418 402.492 283.252 405.967 285.679 406.065ZM189.493 191.6C189.493 191.11 189.232 191.012 189.258 190.572C188.554 190.572 187.771 190.425 187.901 191.331C187.943 191.486 188.031 191.627 188.156 191.736C188.281 191.846 188.437 191.919 188.605 191.947C188.773 191.976 188.946 191.958 189.104 191.896C189.261 191.835 189.396 191.732 189.493 191.6ZM428.47 151.364C429.592 151.511 430.218 151.12 430.062 149.823C429.044 149.015 427.557 150.067 428.47 151.364ZM402.375 126.254C402.285 126.168 402.177 126.099 402.059 126.052C401.94 126.005 401.812 125.981 401.683 125.981C401.555 125.981 401.427 126.005 401.308 126.052C401.189 126.099 401.082 126.168 400.992 126.254V127.282C401.905 127.478 402.088 126.842 402.323 126.254L402.375 126.254ZM315.975 145.98C316.732 145.417 317.88 144.683 317.332 143.41C314.722 142.089 310.573 143.092 306.894 142.652C304.78 139.299 301.284 138.785 300.97 144.194C305.198 148.061 311.539 142.383 315.923 145.98H315.975ZM275.267 172.363C276.546 171.874 278.346 172.118 278.659 170.577C277.616 169.622 276.52 168.325 275.267 168.276C273.597 168.276 272.814 169.842 271.17 170.723C269.526 171.604 266.577 172.167 266.395 174.076C269.455 174.413 272.549 173.812 275.215 172.363H275.267ZM274.119 153.91C275.58 153.641 277.068 154.375 277.981 152.906C276.911 147.253 269.97 150.704 265.925 151.095C264.821 152.655 264.05 154.4 263.655 156.235C266.734 157.116 270.544 154.595 274.067 153.91H274.119ZM342.331 415.781C344.131 415.439 343.609 410.887 341.417 411.915C339.721 412.796 340.582 416.1 342.279 415.806L342.331 415.781Z" fill="#E04048" fill-opacity="0.13"/>
<path d="M189.258 190.572C189.258 191.012 189.545 191.11 189.493 191.6C189.396 191.732 189.261 191.835 189.104 191.896C188.946 191.958 188.773 191.976 188.605 191.947C188.437 191.919 188.281 191.846 188.156 191.736C188.031 191.627 187.943 191.486 187.901 191.331C187.771 190.425 188.554 190.547 189.258 190.572Z" fill="#E04048" fill-opacity="0.13"/>
<path d="M182.552 205.795C182.303 206.504 181.885 207.151 181.328 207.686C180.772 208.22 180.093 208.628 179.342 208.878C178.913 208.5 178.536 208.072 178.22 207.606C178.22 205.036 181.273 203.347 182.552 205.795Z" fill="#E04048" fill-opacity="0.13"/>
<path d="M306 305.5C437.667 236.167 710.9 182.8 750.5 524" stroke="#E04048" stroke-dasharray="17 17"/>
<path d="M461 557C480.5 378.163 643.5 307.859 812 319.166" stroke="#E04048" stroke-dasharray="17 17"/>
<path d="M545 353C626.508 329.315 705.054 417.842 750.714 526.247" stroke="#E04048" stroke-dasharray="17 17"/>
<path d="M329 150.5C416.5 94.5 657.5 122.5 688 267" stroke="#E04048" stroke-dasharray="17 17"/>
<path d="M177.5 276C265 220 476 234.5 542 353.4" stroke="#E04048" stroke-dasharray="17 17"/>
<path d="M691 261.5C812.5 168.5 997.5 185.5 1065 340" stroke="#E04048" stroke-dasharray="17 17"/>
<path d="M314 483.193C346 444.5 586 371.5 659.5 536" stroke="#E04048" stroke-dasharray="17 17"/>
<circle cx="306" cy="305" r="9" fill="#E04048" fill-opacity="0.19"/>
<circle cx="306" cy="305" r="6" fill="#E04048"/>
<circle cx="751" cy="524" r="8" fill="#E04048" fill-opacity="0.19"/>
<circle cx="751" cy="524" r="5" fill="#E04048"/>
<circle cx="920" cy="397" r="8" fill="#E04048" fill-opacity="0.19"/>
<circle cx="920" cy="397" r="5" fill="#E04048"/>
<circle cx="688" cy="262" r="8" fill="#E04048" fill-opacity="0.19"/>
<circle cx="688" cy="262" r="5" fill="#E04048"/>
<circle cx="461" cy="559" r="8" fill="#E04048" fill-opacity="0.19"/>
<circle cx="461" cy="559" r="5" fill="#E04048"/>
<circle cx="543" cy="353" r="8" fill="#E04048" fill-opacity="0.19"/>
<circle cx="543" cy="353" r="5" fill="#E04048"/>
<circle cx="1065" cy="340" r="8" fill="#E04048" fill-opacity="0.19"/>
<circle cx="1065" cy="340" r="5" fill="#E04048"/>
<circle cx="1078" cy="217" r="8" fill="#E04048" fill-opacity="0.19"/>
<circle cx="1078" cy="217" r="5" fill="#E04048"/>
<circle cx="715" cy="166" r="8" fill="#E04048" fill-opacity="0.19"/>
<circle cx="715" cy="166" r="5" fill="#E04048"/>
<circle cx="660" cy="537" r="8" fill="#E04048" fill-opacity="0.19"/>
<circle cx="660" cy="537" r="5" fill="#E04048"/>
<circle cx="813" cy="319" r="8" fill="#E04048" fill-opacity="0.19"/>
<circle cx="813" cy="319" r="5" fill="#E04048"/>
<circle cx="907" cy="142" r="8" fill="#E04048" fill-opacity="0.19"/>
<circle cx="907" cy="142" r="5" fill="#E04048"/>
<circle cx="175" cy="278" r="8" fill="#E04048" fill-opacity="0.19"/>
<circle cx="175" cy="278" r="5" fill="#E04048"/>
<circle cx="314" cy="484" r="8" fill="#E04048" fill-opacity="0.19"/>
<circle cx="314" cy="484" r="5" fill="#E04048"/>
<circle cx="327" cy="150" r="8" fill="#E04048" fill-opacity="0.19"/>
<circle cx="327" cy="150" r="5" fill="#E04048"/>
<path d="M718 165.929C739.5 112 861 93.4999 905 139" stroke="#E04048" stroke-dasharray="17 17"/>
<path d="M907 141.5C954 119.5 1066 155.5 1076.5 214.5" stroke="#E04048" stroke-dasharray="17 17"/>
<path d="M919.999 395.748C926 307.5 1002.5 286.5 1064.5 339" stroke="#E04048" stroke-dasharray="17 17"/>
<path d="M812 317.484C878.5 297.984 920.501 341.484 917.528 394.654" stroke="#E04048" stroke-dasharray="17 17"/>
</svg>
