<svg width="809" height="572" viewBox="0 0 809 572" fill="none" xmlns="http://www.w3.org/2000/svg">
<g clip-path="url(#clip0_2841_1261)">
<path d="M669.827 186.432C669.256 186.432 668.697 186.266 668.218 185.955C667.738 185.644 667.36 185.2 667.128 184.678C661.532 172.029 693.097 150.119 727.164 135.026C761.231 119.933 798.668 111.244 804.283 123.893C804.44 124.249 804.525 124.632 804.533 125.021C804.542 125.409 804.473 125.796 804.333 126.158C804.192 126.52 803.981 126.851 803.712 127.132C803.443 127.413 803.122 127.638 802.766 127.795C802.41 127.951 802.027 128.036 801.639 128.045C801.25 128.053 800.863 127.985 800.501 127.844C800.139 127.703 799.808 127.492 799.527 127.223C799.246 126.955 799.021 126.633 798.865 126.277C796.362 120.642 768.127 123.322 729.568 140.424C691.008 157.527 670.024 176.62 672.428 182.275C672.594 182.631 672.688 183.017 672.703 183.41C672.717 183.802 672.653 184.194 672.513 184.562C672.373 184.929 672.161 185.265 671.89 185.549C671.618 185.833 671.291 186.06 670.93 186.215C670.58 186.359 670.205 186.433 669.827 186.432V186.432Z" fill="#F5F5F5"/>
<path d="M735.695 205.012C763.716 205.012 786.431 182.297 786.431 154.276C786.431 126.255 763.716 103.54 735.695 103.54C707.674 103.54 684.958 126.255 684.958 154.276C684.958 182.297 707.674 205.012 735.695 205.012Z" fill="#E6E6E6"/>
<path d="M681.965 190.826C673.926 190.826 668.941 188.856 667.128 184.678C666.967 184.32 666.879 183.934 666.869 183.541C666.858 183.149 666.925 182.759 667.066 182.392C667.207 182.026 667.419 181.691 667.69 181.407C667.961 181.123 668.286 180.896 668.645 180.738C669.001 180.571 669.387 180.478 669.78 180.463C670.173 180.448 670.565 180.513 670.932 180.652C671.3 180.792 671.636 181.004 671.92 181.276C672.204 181.548 672.43 181.874 672.586 182.235C673.374 184.008 678.733 186.294 693.885 183.693C710.446 180.396 726.562 175.165 741.903 168.108C780.403 151.064 801.407 131.932 798.865 126.238C798.549 125.519 798.531 124.705 798.816 123.973C799.1 123.242 799.664 122.653 800.382 122.337C801.101 122.021 801.916 122.003 802.647 122.287C803.379 122.572 803.967 123.135 804.284 123.854C809.879 136.503 778.315 158.414 744.247 173.507C728.457 180.756 711.872 186.132 694.831 189.525C690.586 190.319 686.282 190.754 681.965 190.826Z" fill="#F5F5F5"/>
<path d="M624.229 77.266L625.904 80.6353C626 80.8288 626.142 80.9963 626.317 81.1232C626.492 81.2501 626.695 81.3329 626.909 81.3643L630.633 81.916C630.881 81.951 631.114 82.0547 631.306 82.2155C631.498 82.3763 631.641 82.5876 631.719 82.8256C631.797 83.0636 631.806 83.3186 631.747 83.5619C631.687 83.8051 631.561 84.0267 631.381 84.2016L628.682 86.8419C628.526 86.9922 628.41 87.179 628.345 87.3855C628.279 87.5919 628.267 87.8114 628.308 88.0241L628.938 91.7283C628.985 91.9788 628.96 92.2376 628.866 92.4743C628.771 92.711 628.611 92.9159 628.404 93.0648C628.198 93.2138 627.953 93.3006 627.698 93.3152C627.444 93.3297 627.19 93.2714 626.968 93.147L623.638 91.3933C623.442 91.2961 623.226 91.2455 623.007 91.2455C622.789 91.2455 622.573 91.2961 622.377 91.3933L619.047 93.147C618.824 93.2714 618.571 93.3297 618.317 93.3152C618.062 93.3006 617.817 93.2138 617.61 93.0648C617.403 92.9159 617.243 92.711 617.149 92.4743C617.054 92.2376 617.029 91.9788 617.077 91.7283L617.707 88.0241C617.749 87.8098 617.735 87.5881 617.666 87.3809C617.597 87.1736 617.476 86.9879 617.313 86.8419L614.594 84.2016C614.415 84.0267 614.288 83.8051 614.229 83.5619C614.169 83.3186 614.179 83.0636 614.257 82.8256C614.334 82.5876 614.478 82.3763 614.67 82.2155C614.862 82.0547 615.095 81.951 615.343 81.916L619.067 81.3643C619.281 81.3329 619.484 81.2501 619.659 81.1232C619.834 80.9963 619.975 80.8288 620.072 80.6353L621.746 77.266C621.847 77.019 622.018 76.8076 622.239 76.6588C622.461 76.5099 622.721 76.4304 622.988 76.4304C623.254 76.4304 623.515 76.5099 623.736 76.6588C623.957 76.8076 624.129 77.019 624.229 77.266V77.266Z" fill="#F5F5F5"/>
<path d="M9.95537 408.776L11.6696 412.146C11.7673 412.34 11.909 412.509 12.0835 412.639C12.2579 412.769 12.4603 412.856 12.6744 412.894L16.3984 413.426C16.6463 413.466 16.8785 413.572 17.0694 413.735C17.2603 413.898 17.4023 414.111 17.4798 414.349C17.5573 414.588 17.5673 414.844 17.5086 415.088C17.4498 415.332 17.3247 415.554 17.1471 415.732L14.4478 418.352C14.2933 418.504 14.1784 418.691 14.1131 418.897C14.0478 419.103 14.0342 419.322 14.0734 419.534L14.7039 423.258C14.7513 423.509 14.7263 423.768 14.6318 424.004C14.5373 424.241 14.3772 424.446 14.1703 424.595C13.9634 424.744 13.7184 424.831 13.4639 424.845C13.2094 424.86 12.956 424.801 12.7336 424.677L9.40367 422.923C9.21073 422.817 8.99376 422.76 8.77316 422.76C8.55256 422.76 8.33559 422.817 8.14265 422.923L4.81277 424.677C4.59028 424.801 4.33692 424.86 4.08243 424.845C3.82794 424.831 3.58287 424.744 3.37601 424.595C3.16914 424.446 3.00906 424.241 2.91455 424.004C2.82003 423.768 2.79501 423.509 2.84243 423.258L3.47294 419.534C3.51213 419.322 3.49848 419.103 3.43321 418.897C3.36793 418.691 3.25302 418.504 3.09857 418.352L0.399198 415.732C0.221572 415.554 0.0964701 415.332 0.037748 415.088C-0.0209742 414.844 -0.011026 414.588 0.0664902 414.349C0.144006 414.111 0.286067 413.898 0.476938 413.735C0.66781 413.572 0.900048 413.466 1.14793 413.426L4.87188 412.894C5.08606 412.856 5.28841 412.769 5.46285 412.639C5.63728 412.509 5.77901 412.34 5.87676 412.146L7.55155 408.776C7.6621 408.552 7.83328 408.363 8.0457 408.231C8.25812 408.099 8.50329 408.029 8.75346 408.029C9.00363 408.029 9.2488 408.099 9.46122 408.231C9.67364 408.363 9.84482 408.552 9.95537 408.776V408.776Z" fill="#E6E6E6"/>
<path d="M489.616 555.784L491.271 559.153C491.367 559.35 491.512 559.52 491.69 559.647C491.869 559.775 492.077 559.855 492.295 559.882L496.019 560.434C496.265 560.472 496.496 560.578 496.686 560.74C496.875 560.902 497.016 561.113 497.091 561.351C497.167 561.588 497.175 561.842 497.115 562.084C497.054 562.326 496.927 562.546 496.748 562.719L494.068 565.359C493.911 565.509 493.792 565.695 493.723 565.901C493.654 566.107 493.638 566.327 493.674 566.542L494.305 570.266C494.352 570.516 494.327 570.775 494.233 571.012C494.138 571.248 493.978 571.453 493.771 571.602C493.564 571.751 493.319 571.838 493.065 571.853C492.81 571.867 492.557 571.809 492.335 571.684L489.005 569.931C488.815 569.824 488.602 569.767 488.384 569.767C488.167 569.767 487.953 569.824 487.763 569.931L484.414 571.684C484.19 571.8 483.939 571.852 483.688 571.834C483.437 571.816 483.196 571.729 482.992 571.582C482.788 571.434 482.628 571.234 482.531 571.001C482.435 570.769 482.404 570.514 482.443 570.266L483.094 566.542C483.125 566.328 483.106 566.109 483.038 565.904C482.969 565.698 482.853 565.512 482.7 565.359L480 562.719C479.821 562.544 479.694 562.323 479.635 562.08C479.575 561.836 479.585 561.581 479.663 561.343C479.741 561.105 479.884 560.894 480.076 560.733C480.268 560.572 480.501 560.469 480.749 560.434L484.473 559.882C484.69 559.852 484.896 559.77 485.075 559.643C485.253 559.516 485.398 559.348 485.498 559.153L487.153 555.784C487.262 555.549 487.436 555.351 487.654 555.213C487.872 555.074 488.126 555 488.384 555C488.643 555 488.896 555.074 489.114 555.213C489.332 555.351 489.506 555.549 489.616 555.784Z" fill="#E6E6E6"/>
<path d="M465.715 0.402865L466.72 2.37321C466.776 2.48794 466.859 2.58734 466.962 2.66285C467.065 2.73836 467.184 2.78772 467.311 2.80669L469.537 3.12194C469.687 3.14259 469.828 3.20491 469.944 3.30181C470.061 3.39872 470.147 3.52631 470.194 3.67006C470.242 3.8138 470.248 3.96792 470.212 4.11486C470.175 4.2618 470.099 4.39565 469.99 4.50118L468.375 6.07746C468.283 6.16883 468.215 6.28133 468.178 6.40503C468.14 6.52874 468.133 6.65984 468.158 6.78678L468.532 8.99357C468.564 9.14232 468.552 9.297 468.497 9.43897C468.443 9.58094 468.348 9.70413 468.225 9.79369C468.103 9.88324 467.956 9.93534 467.805 9.9437C467.653 9.95207 467.502 9.91633 467.37 9.84081L465.4 8.79653C465.283 8.73768 465.155 8.70701 465.025 8.70701C464.895 8.70701 464.767 8.73768 464.651 8.79653L462.68 9.84081C462.548 9.90796 462.399 9.93714 462.251 9.92514C462.102 9.91314 461.96 9.86041 461.84 9.77278C461.72 9.68516 461.626 9.56602 461.569 9.42852C461.512 9.29103 461.495 9.14051 461.518 8.99357L461.912 6.78678C461.929 6.65833 461.917 6.5276 461.876 6.40463C461.835 6.28165 461.767 6.16973 461.676 6.07746L460.06 4.50118C459.951 4.39565 459.875 4.2618 459.839 4.11486C459.803 3.96792 459.809 3.8138 459.856 3.67006C459.903 3.52631 459.99 3.39872 460.106 3.30181C460.222 3.20491 460.363 3.14259 460.513 3.12194L462.74 2.80669C462.866 2.78772 462.986 2.73836 463.089 2.66285C463.192 2.58734 463.275 2.48794 463.331 2.37321L464.335 0.402865C464.408 0.284643 464.509 0.18695 464.63 0.119164C464.75 0.0513775 464.887 0.0157776 465.025 0.0157776C465.164 0.0157776 465.3 0.0513775 465.421 0.119164C465.541 0.18695 465.643 0.284643 465.715 0.402865V0.402865Z" fill="#E6E6E6"/>
<path d="M115.349 348.898L116.354 350.868C116.41 350.983 116.493 351.082 116.596 351.158C116.699 351.233 116.819 351.282 116.945 351.301L119.172 351.636C119.322 351.653 119.464 351.712 119.582 351.806C119.699 351.901 119.787 352.027 119.835 352.171C119.882 352.314 119.888 352.468 119.851 352.614C119.814 352.76 119.735 352.893 119.625 352.996L118.009 354.572C117.918 354.664 117.85 354.776 117.812 354.9C117.774 355.023 117.768 355.155 117.793 355.281L118.167 357.508C118.19 357.655 118.172 357.805 118.116 357.943C118.059 358.08 117.965 358.2 117.845 358.287C117.725 358.375 117.582 358.428 117.434 358.44C117.286 358.452 117.137 358.422 117.004 358.355L115.034 357.311C114.921 357.243 114.792 357.207 114.66 357.207C114.528 357.207 114.398 357.243 114.285 357.311L112.315 358.355C112.182 358.428 112.031 358.461 111.879 358.452C111.727 358.443 111.582 358.391 111.458 358.302C111.335 358.214 111.239 358.092 111.181 357.952C111.124 357.811 111.107 357.658 111.133 357.508L111.527 355.281C111.544 355.153 111.532 355.022 111.491 354.899C111.45 354.776 111.381 354.664 111.29 354.572L109.675 352.996C109.564 352.893 109.486 352.76 109.449 352.614C109.412 352.468 109.417 352.314 109.465 352.171C109.513 352.027 109.601 351.901 109.718 351.806C109.836 351.712 109.978 351.653 110.128 351.636L112.354 351.301C112.481 351.282 112.6 351.233 112.703 351.158C112.806 351.082 112.889 350.983 112.946 350.868L113.95 348.898C114.017 348.769 114.117 348.662 114.241 348.587C114.364 348.512 114.506 348.473 114.65 348.473C114.794 348.473 114.936 348.512 115.059 348.587C115.182 348.662 115.283 348.769 115.349 348.898Z" fill="#F5F5F5"/>
<path d="M14.7231 537.085L15.7083 539.055C15.7651 539.175 15.8505 539.279 15.957 539.358C16.0636 539.437 16.1879 539.489 16.3191 539.508L18.5456 539.824C18.6939 539.847 18.8326 539.912 18.9463 540.01C19.0599 540.108 19.144 540.236 19.189 540.379C19.234 540.522 19.2382 540.675 19.2011 540.821C19.164 540.966 19.0872 541.099 18.9791 541.203L17.3831 542.779C17.2866 542.868 17.2142 542.979 17.1728 543.103C17.1314 543.227 17.1224 543.36 17.1467 543.489L17.5801 545.735C17.6116 545.884 17.5994 546.038 17.5449 546.18C17.4905 546.322 17.3962 546.445 17.2733 546.535C17.1504 546.624 17.0042 546.677 16.8524 546.685C16.7006 546.693 16.5496 546.658 16.4176 546.582L14.4473 545.538C14.3313 545.479 14.203 545.448 14.0729 545.448C13.9428 545.448 13.8146 545.479 13.6986 545.538L11.7282 546.582C11.5962 546.658 11.4452 546.693 11.2934 546.685C11.1416 546.677 10.9954 546.624 10.8726 546.535C10.7497 546.445 10.6553 546.322 10.6009 546.18C10.5464 546.038 10.5342 545.884 10.5657 545.735L10.9401 543.528C10.9643 543.399 10.9553 543.267 10.9139 543.143C10.8726 543.018 10.8002 542.907 10.7036 542.819L9.08795 541.242C8.97951 541.137 8.90289 541.003 8.86681 540.856C8.83073 540.709 8.83664 540.555 8.88387 540.411C8.9311 540.267 9.01775 540.14 9.13395 540.043C9.25015 539.946 9.39123 539.884 9.54112 539.863L11.7676 539.548C11.8977 539.525 12.0207 539.472 12.1267 539.394C12.2328 539.315 12.319 539.213 12.3784 539.095L13.3636 537.124C13.4366 537.012 13.5356 536.92 13.6521 536.854C13.7687 536.789 13.8994 536.753 14.033 536.749C14.1667 536.745 14.2992 536.773 14.4194 536.832C14.5396 536.891 14.6438 536.977 14.7231 537.085V537.085Z" fill="#F5F5F5"/>
<path d="M716.618 537.381L717.623 539.351C717.681 539.468 717.767 539.569 717.874 539.645C717.98 539.721 718.104 539.769 718.234 539.784L720.46 540.1C720.609 540.123 720.747 540.188 720.861 540.286C720.975 540.384 721.059 540.512 721.104 540.655C721.149 540.799 721.153 540.952 721.116 541.097C721.079 541.243 721.002 541.375 720.894 541.479L719.298 543.055C719.203 543.145 719.132 543.256 719.09 543.38C719.049 543.504 719.039 543.636 719.061 543.765L719.436 545.971C719.467 546.12 719.455 546.275 719.401 546.417C719.346 546.559 719.252 546.682 719.129 546.771C719.006 546.861 718.86 546.913 718.708 546.922C718.556 546.93 718.405 546.894 718.273 546.819L716.303 545.774C716.187 545.716 716.059 545.685 715.929 545.685C715.799 545.685 715.67 545.716 715.554 545.774L713.584 546.819C713.451 546.891 713.299 546.925 713.148 546.915C712.996 546.906 712.851 546.854 712.727 546.766C712.604 546.677 712.508 546.556 712.45 546.415C712.393 546.275 712.376 546.121 712.402 545.971L712.796 543.765C712.818 543.636 712.808 543.504 712.767 543.38C712.726 543.256 712.654 543.145 712.559 543.055L710.944 541.479C710.835 541.374 710.759 541.24 710.723 541.093C710.686 540.946 710.692 540.792 710.74 540.648C710.787 540.504 710.873 540.377 710.99 540.28C711.106 540.183 711.247 540.12 711.397 540.1L713.623 539.784C713.752 539.765 713.874 539.716 713.981 539.641C714.087 539.566 714.174 539.466 714.234 539.351L715.219 537.381C715.29 537.258 715.392 537.156 715.515 537.085C715.638 537.014 715.777 536.977 715.919 536.977C716.061 536.977 716.2 537.014 716.323 537.085C716.445 537.156 716.547 537.258 716.618 537.381V537.381Z" fill="#E6E6E6"/>
<path d="M230.357 63.8676C231.805 63.8676 232.978 62.6943 232.978 61.247C232.978 59.7998 231.805 58.6265 230.357 58.6265C228.91 58.6265 227.737 59.7998 227.737 61.247C227.737 62.6943 228.91 63.8676 230.357 63.8676Z" fill="#E6E6E6"/>
<path d="M502.639 93.3046C502.642 93.8237 502.492 94.3323 502.206 94.7658C501.921 95.1993 501.513 95.5383 501.035 95.7397C500.556 95.941 500.029 95.9958 499.519 95.8969C499.009 95.798 498.541 95.55 498.172 95.1843C497.804 94.8186 497.552 94.3517 497.449 93.8428C497.347 93.334 497.397 92.806 497.595 92.326C497.793 91.8461 498.129 91.4356 498.56 91.1468C498.991 90.8579 499.499 90.7038 500.018 90.7037C500.71 90.7037 501.373 90.9771 501.864 91.4643C502.355 91.9515 502.633 92.613 502.639 93.3046Z" fill="#F5F5F5"/>
<path d="M216.94 301.333C218.387 301.333 219.56 300.16 219.56 298.713C219.56 297.266 218.387 296.092 216.94 296.092C215.493 296.092 214.319 297.266 214.319 298.713C214.319 300.16 215.493 301.333 216.94 301.333Z" fill="#F5F5F5"/>
<path d="M133.495 495.609C133.499 496.129 133.348 496.639 133.062 497.073C132.776 497.507 132.366 497.845 131.887 498.046C131.407 498.247 130.879 498.301 130.369 498.2C129.858 498.1 129.39 497.85 129.022 497.482C128.654 497.114 128.404 496.646 128.304 496.135C128.203 495.625 128.257 495.097 128.458 494.617C128.658 494.137 128.997 493.728 129.431 493.442C129.865 493.155 130.375 493.005 130.895 493.008C131.584 493.008 132.246 493.282 132.734 493.77C133.221 494.258 133.495 494.92 133.495 495.609V495.609Z" fill="#F5F5F5"/>
<path d="M680.266 340.74C681.713 340.74 682.887 339.567 682.887 338.12C682.887 336.673 681.713 335.499 680.266 335.499C678.819 335.499 677.646 336.673 677.646 338.12C677.646 339.567 678.819 340.74 680.266 340.74Z" fill="#E6E6E6"/>
<path d="M208.295 169.459C207.819 169.457 207.35 169.351 206.92 169.15C206.49 168.948 206.108 168.656 205.803 168.292C205.497 167.928 205.274 167.502 205.15 167.043C205.026 166.585 205.003 166.104 205.083 165.636L206.167 159.39C206.198 159.184 206.18 158.973 206.115 158.774C206.05 158.576 205.939 158.395 205.792 158.247L201.241 153.814C200.803 153.39 200.493 152.852 200.346 152.261C200.199 151.669 200.222 151.049 200.411 150.469C200.6 149.89 200.948 149.376 201.415 148.984C201.882 148.593 202.45 148.342 203.054 148.258L209.339 147.351C209.544 147.318 209.739 147.236 209.907 147.112C210.075 146.989 210.211 146.828 210.304 146.642L213.102 140.948C213.367 140.388 213.786 139.916 214.309 139.585C214.832 139.254 215.439 139.078 216.058 139.078C216.677 139.078 217.283 139.254 217.806 139.585C218.33 139.916 218.748 140.388 219.013 140.948L221.811 146.642C221.907 146.83 222.046 146.993 222.217 147.117C222.389 147.24 222.587 147.32 222.796 147.351L229.062 148.317C229.666 148.401 230.233 148.653 230.701 149.044C231.168 149.435 231.516 149.949 231.705 150.528C231.894 151.108 231.916 151.728 231.769 152.32C231.623 152.911 231.313 153.449 230.875 153.873L226.264 158.168C226.116 158.316 226.007 158.497 225.945 158.696C225.883 158.895 225.871 159.106 225.909 159.311L226.974 165.557C227.078 166.157 227.012 166.774 226.783 167.338C226.554 167.901 226.172 168.39 225.679 168.747C225.186 169.104 224.603 169.316 223.996 169.358C223.389 169.4 222.782 169.271 222.245 168.986L216.629 166.03C216.445 165.928 216.238 165.875 216.028 165.875C215.818 165.875 215.611 165.928 215.427 166.03L209.812 168.966C209.355 169.254 208.834 169.424 208.295 169.459V169.459ZM216.038 141.105C215.796 141.097 215.557 141.16 215.351 141.286C215.144 141.412 214.979 141.596 214.876 141.815L212.058 147.509C211.827 147.984 211.484 148.395 211.058 148.707C210.632 149.02 210.137 149.224 209.615 149.302L203.329 150.208C203.092 150.242 202.87 150.342 202.687 150.496C202.503 150.651 202.367 150.853 202.293 151.081C202.22 151.309 202.211 151.552 202.269 151.785C202.326 152.017 202.448 152.229 202.62 152.395L207.172 156.829C207.549 157.2 207.83 157.658 207.992 158.163C208.153 158.667 208.189 159.203 208.098 159.725L207.034 165.971C206.992 166.206 207.017 166.449 207.106 166.671C207.195 166.893 207.344 167.085 207.537 167.227C207.73 167.368 207.958 167.453 208.196 167.471C208.435 167.49 208.674 167.441 208.886 167.331L214.521 164.375C214.986 164.132 215.503 164.004 216.028 164.004C216.553 164.004 217.07 164.132 217.536 164.375L223.171 167.331C223.379 167.462 223.62 167.531 223.867 167.529C224.113 167.527 224.353 167.454 224.559 167.319C224.765 167.184 224.927 166.992 225.027 166.767C225.127 166.542 225.16 166.293 225.121 166.05L224.057 159.804C223.971 159.282 224.009 158.747 224.17 158.244C224.332 157.74 224.61 157.282 224.983 156.907L229.535 152.474C229.711 152.309 229.837 152.097 229.896 151.863C229.955 151.629 229.946 151.383 229.87 151.154C229.795 150.926 229.657 150.724 229.472 150.571C229.287 150.418 229.063 150.319 228.826 150.287L222.54 149.381C222.018 149.303 221.523 149.099 221.097 148.786C220.671 148.474 220.328 148.062 220.097 147.588L217.24 141.815C217.134 141.589 216.962 141.401 216.748 141.275C216.534 141.149 216.286 141.089 216.038 141.105V141.105Z" fill="#E04048"/>
<path opacity="0.5" d="M208.295 169.459C207.819 169.457 207.35 169.351 206.92 169.15C206.49 168.948 206.108 168.656 205.803 168.292C205.497 167.928 205.274 167.502 205.15 167.043C205.026 166.585 205.003 166.104 205.083 165.636L206.167 159.39C206.198 159.184 206.18 158.973 206.115 158.774C206.05 158.576 205.939 158.395 205.792 158.247L201.241 153.814C200.803 153.39 200.493 152.852 200.346 152.261C200.199 151.669 200.222 151.049 200.411 150.469C200.6 149.89 200.948 149.376 201.415 148.984C201.882 148.593 202.45 148.342 203.054 148.258L209.339 147.351C209.544 147.318 209.739 147.236 209.907 147.112C210.075 146.989 210.211 146.828 210.304 146.642L213.102 140.948C213.367 140.388 213.786 139.916 214.309 139.585C214.832 139.254 215.439 139.078 216.058 139.078C216.677 139.078 217.283 139.254 217.806 139.585C218.33 139.916 218.748 140.388 219.013 140.948L221.811 146.642C221.907 146.83 222.046 146.993 222.217 147.117C222.389 147.24 222.587 147.32 222.796 147.351L229.062 148.317C229.666 148.401 230.233 148.653 230.701 149.044C231.168 149.435 231.516 149.949 231.705 150.528C231.894 151.108 231.916 151.728 231.769 152.32C231.623 152.911 231.313 153.449 230.875 153.873L226.264 158.168C226.116 158.316 226.007 158.497 225.945 158.696C225.883 158.895 225.871 159.106 225.909 159.311L226.974 165.557C227.078 166.157 227.012 166.774 226.783 167.338C226.554 167.901 226.172 168.39 225.679 168.747C225.186 169.104 224.603 169.316 223.996 169.358C223.389 169.4 222.782 169.271 222.245 168.986L216.629 166.03C216.445 165.928 216.238 165.875 216.028 165.875C215.818 165.875 215.611 165.928 215.427 166.03L209.812 168.966C209.355 169.254 208.834 169.424 208.295 169.459V169.459ZM216.038 141.105C215.796 141.097 215.557 141.16 215.351 141.286C215.144 141.412 214.979 141.596 214.876 141.815L212.058 147.509C211.827 147.984 211.484 148.395 211.058 148.707C210.632 149.02 210.137 149.224 209.615 149.302L203.329 150.208C203.092 150.242 202.87 150.342 202.687 150.496C202.503 150.651 202.367 150.853 202.293 151.081C202.22 151.309 202.211 151.552 202.269 151.785C202.326 152.017 202.448 152.229 202.62 152.395L207.172 156.829C207.549 157.2 207.83 157.658 207.992 158.163C208.153 158.667 208.189 159.203 208.098 159.725L207.034 165.971C206.992 166.206 207.017 166.449 207.106 166.671C207.195 166.893 207.344 167.085 207.537 167.227C207.73 167.368 207.958 167.453 208.196 167.471C208.435 167.49 208.674 167.441 208.886 167.331L214.521 164.375C214.986 164.132 215.503 164.004 216.028 164.004C216.553 164.004 217.07 164.132 217.536 164.375L223.171 167.331C223.379 167.462 223.62 167.531 223.867 167.529C224.113 167.527 224.353 167.454 224.559 167.319C224.765 167.184 224.927 166.992 225.027 166.767C225.127 166.542 225.16 166.293 225.121 166.05L224.057 159.804C223.971 159.282 224.009 158.747 224.17 158.244C224.332 157.74 224.61 157.282 224.983 156.907L229.535 152.474C229.711 152.309 229.837 152.097 229.896 151.863C229.955 151.629 229.946 151.383 229.87 151.154C229.795 150.926 229.657 150.724 229.472 150.571C229.287 150.418 229.063 150.319 228.826 150.287L222.54 149.381C222.018 149.303 221.523 149.099 221.097 148.786C220.671 148.474 220.328 148.062 220.097 147.588L217.24 141.815C217.134 141.589 216.962 141.401 216.748 141.275C216.534 141.149 216.286 141.089 216.038 141.105V141.105Z" fill="white"/>
<path d="M572.158 321.471C571.428 321.461 570.708 321.304 570.041 321.008C569.373 320.713 568.773 320.285 568.276 319.751C567.779 319.217 567.395 318.588 567.148 317.901C566.9 317.215 566.795 316.485 566.838 315.757L567.665 303.619C567.703 303.076 567.608 302.533 567.388 302.035C567.168 301.537 566.831 301.1 566.404 300.762L556.887 293.196C556.107 292.58 555.515 291.758 555.176 290.824C554.838 289.889 554.767 288.879 554.972 287.906C555.177 286.933 555.649 286.037 556.335 285.318C557.022 284.599 557.896 284.086 558.858 283.837L570.68 280.881C571.211 280.755 571.702 280.498 572.108 280.133C572.514 279.768 572.822 279.307 573.005 278.793L577.261 267.404C577.611 266.474 578.213 265.659 579.001 265.053C579.789 264.446 580.731 264.072 581.72 263.971C582.709 263.871 583.707 264.049 584.6 264.485C585.494 264.921 586.248 265.597 586.777 266.439L593.24 276.744C593.527 277.207 593.923 277.593 594.393 277.868C594.864 278.143 595.395 278.298 595.94 278.32L608.097 278.852C609.096 278.883 610.067 279.195 610.898 279.75C611.729 280.306 612.387 281.084 612.798 281.996C613.209 282.908 613.355 283.916 613.221 284.907C613.086 285.898 612.676 286.831 612.037 287.6L604.156 296.92C603.786 297.338 603.526 297.841 603.399 298.385C603.271 298.928 603.281 299.495 603.427 300.033L606.678 311.757C606.948 312.714 606.944 313.728 606.665 314.682C606.386 315.637 605.845 316.494 605.102 317.155C604.359 317.82 603.445 318.265 602.464 318.439C601.482 318.613 600.471 318.509 599.545 318.141L588.275 313.589C587.769 313.386 587.222 313.309 586.68 313.363C586.137 313.418 585.617 313.604 585.162 313.904L575.034 320.623C574.174 321.171 573.177 321.464 572.158 321.471ZM582.305 265.907H581.95C581.322 265.96 580.723 266.193 580.223 266.577C579.724 266.962 579.345 267.481 579.133 268.074L574.877 279.463C574.58 280.277 574.086 281.005 573.44 281.583C572.794 282.16 572.015 282.569 571.172 282.773L559.35 285.729C558.739 285.88 558.183 286.2 557.744 286.652C557.305 287.104 557.002 287.67 556.869 288.285C556.736 288.901 556.777 289.541 556.99 290.134C557.202 290.727 557.576 291.248 558.07 291.64L567.586 299.206C568.258 299.744 568.789 300.438 569.132 301.228C569.475 302.017 569.621 302.879 569.557 303.737L568.729 315.875C568.677 316.5 568.806 317.128 569.099 317.683C569.392 318.238 569.838 318.698 570.384 319.008C570.916 319.34 571.531 319.516 572.158 319.516C572.785 319.516 573.399 319.34 573.931 319.008L584.078 312.289C584.797 311.812 585.62 311.516 586.478 311.427C587.336 311.338 588.203 311.458 589.004 311.776L600.294 316.328C600.868 316.551 601.493 316.612 602.1 316.505C602.706 316.398 603.272 316.126 603.735 315.72C604.199 315.314 604.541 314.788 604.727 314.201C604.912 313.613 604.933 312.986 604.786 312.387L601.535 300.664C601.303 299.832 601.276 298.956 601.458 298.111C601.64 297.267 602.025 296.479 602.58 295.817L610.461 286.497C610.859 286.012 611.116 285.427 611.201 284.805C611.286 284.184 611.197 283.551 610.944 282.977C610.69 282.403 610.283 281.91 609.766 281.554C609.25 281.198 608.644 280.993 608.018 280.96L595.881 280.448C595.016 280.409 594.173 280.161 593.425 279.725C592.677 279.289 592.046 278.679 591.585 277.946L585.142 267.641C584.864 267.127 584.455 266.696 583.957 266.392C583.459 266.087 582.889 265.92 582.305 265.907Z" fill="#E04048"/>
<path opacity="0.5" d="M572.158 321.471C571.428 321.461 570.708 321.304 570.041 321.008C569.373 320.713 568.773 320.285 568.276 319.751C567.779 319.217 567.395 318.588 567.148 317.901C566.9 317.215 566.795 316.485 566.838 315.757L567.665 303.619C567.703 303.076 567.608 302.533 567.388 302.035C567.168 301.537 566.831 301.1 566.404 300.762L556.887 293.196C556.107 292.58 555.515 291.758 555.176 290.824C554.838 289.889 554.767 288.879 554.972 287.906C555.177 286.933 555.649 286.037 556.335 285.318C557.022 284.599 557.896 284.086 558.858 283.837L570.68 280.881C571.211 280.755 571.702 280.498 572.108 280.133C572.514 279.768 572.822 279.307 573.005 278.793L577.261 267.404C577.611 266.474 578.213 265.659 579.001 265.053C579.789 264.446 580.731 264.072 581.72 263.971C582.709 263.871 583.707 264.049 584.6 264.485C585.494 264.921 586.248 265.597 586.777 266.439L593.24 276.744C593.527 277.207 593.923 277.593 594.393 277.868C594.864 278.143 595.395 278.298 595.94 278.32L608.097 278.852C609.096 278.883 610.067 279.195 610.898 279.75C611.729 280.306 612.387 281.084 612.798 281.996C613.209 282.908 613.355 283.916 613.221 284.907C613.086 285.898 612.676 286.831 612.037 287.6L604.156 296.92C603.786 297.338 603.526 297.841 603.399 298.385C603.271 298.928 603.281 299.495 603.427 300.033L606.678 311.757C606.948 312.714 606.944 313.728 606.665 314.682C606.386 315.637 605.845 316.494 605.102 317.155C604.359 317.82 603.445 318.265 602.464 318.439C601.482 318.613 600.471 318.509 599.545 318.141L588.275 313.589C587.769 313.386 587.222 313.309 586.68 313.363C586.137 313.418 585.617 313.604 585.162 313.904L575.034 320.623C574.174 321.171 573.177 321.464 572.158 321.471ZM582.305 265.907H581.95C581.322 265.96 580.723 266.193 580.223 266.577C579.724 266.962 579.345 267.481 579.133 268.074L574.877 279.463C574.58 280.277 574.086 281.005 573.44 281.583C572.794 282.16 572.015 282.569 571.172 282.773L559.35 285.729C558.739 285.88 558.183 286.2 557.744 286.652C557.305 287.104 557.002 287.67 556.869 288.285C556.736 288.901 556.777 289.541 556.99 290.134C557.202 290.727 557.576 291.248 558.07 291.64L567.586 299.206C568.258 299.744 568.789 300.438 569.132 301.228C569.475 302.017 569.621 302.879 569.557 303.737L568.729 315.875C568.677 316.5 568.806 317.128 569.099 317.683C569.392 318.238 569.838 318.698 570.384 319.008C570.916 319.34 571.531 319.516 572.158 319.516C572.785 319.516 573.399 319.34 573.931 319.008L584.078 312.289C584.797 311.812 585.62 311.516 586.478 311.427C587.336 311.338 588.203 311.458 589.004 311.776L600.294 316.328C600.868 316.551 601.493 316.612 602.1 316.505C602.706 316.398 603.272 316.126 603.735 315.72C604.199 315.314 604.541 314.788 604.727 314.201C604.912 313.613 604.933 312.986 604.786 312.387L601.535 300.664C601.303 299.832 601.276 298.956 601.458 298.111C601.64 297.267 602.025 296.479 602.58 295.817L610.461 286.497C610.859 286.012 611.116 285.427 611.201 284.805C611.286 284.184 611.197 283.551 610.944 282.977C610.69 282.403 610.283 281.91 609.766 281.554C609.25 281.198 608.644 280.993 608.018 280.96L595.881 280.448C595.016 280.409 594.173 280.161 593.425 279.725C592.677 279.289 592.046 278.679 591.585 277.946L585.142 267.641C584.864 267.127 584.455 266.696 583.957 266.392C583.459 266.087 582.889 265.92 582.305 265.907Z" fill="white"/>
<path d="M213.674 409.565L212.57 413.683C212.512 413.921 212.51 414.17 212.564 414.41C212.619 414.649 212.729 414.873 212.886 415.062L215.664 418.254C215.847 418.472 215.966 418.736 216.007 419.018C216.048 419.3 216.011 419.587 215.899 419.849C215.786 420.11 215.603 420.335 215.371 420.499C215.138 420.663 214.864 420.759 214.58 420.776L210.324 421.012C210.079 421.025 209.841 421.098 209.631 421.225C209.421 421.352 209.246 421.53 209.122 421.741L206.896 425.367C206.75 425.611 206.538 425.81 206.284 425.939C206.031 426.069 205.746 426.124 205.462 426.1C205.179 426.075 204.908 425.971 204.68 425.8C204.453 425.628 204.278 425.396 204.177 425.13L202.64 421.19C202.553 420.957 202.411 420.749 202.226 420.584C202.04 420.419 201.817 420.303 201.576 420.244L197.438 419.259C197.161 419.195 196.907 419.054 196.706 418.853C196.504 418.651 196.364 418.397 196.3 418.12C196.236 417.843 196.252 417.553 196.345 417.284C196.439 417.015 196.606 416.777 196.827 416.599L200.118 413.919C200.312 413.766 200.465 413.567 200.565 413.34C200.665 413.113 200.707 412.866 200.689 412.619L200.334 408.363C200.315 408.078 200.374 407.794 200.507 407.542C200.64 407.29 200.84 407.079 201.085 406.934C201.33 406.789 201.611 406.715 201.896 406.72C202.181 406.725 202.459 406.81 202.699 406.964L206.265 409.269C206.472 409.407 206.71 409.491 206.957 409.515C207.205 409.539 207.454 409.502 207.684 409.407L211.624 407.772C211.886 407.663 212.173 407.629 212.453 407.675C212.733 407.721 212.994 407.844 213.207 408.03C213.421 408.217 213.577 408.46 213.66 408.731C213.742 409.002 213.747 409.291 213.674 409.565V409.565Z" fill="#E04048"/>
</g>
<defs>
<clipPath id="clip0_2841_1261">
<rect width="809" height="571.786" fill="white"/>
</clipPath>
</defs>
</svg>
