<svg width="140" height="140" viewBox="0 0 140 140" fill="none" xmlns="http://www.w3.org/2000/svg">
<path d="M64.4981 133.63C64.5265 134.064 64.7161 134.41 65.0667 134.667C65.4173 134.924 65.8565 135.067 66.3842 135.095C66.77 135.115 67.1109 135.07 67.4068 134.96C67.6999 134.851 67.933 134.691 68.1062 134.481C68.2765 134.271 68.369 134.027 68.3836 133.749C68.3958 133.516 68.3509 133.313 68.2491 133.14C68.1442 132.969 68.0068 132.824 67.8367 132.704C67.6664 132.587 67.4867 132.488 67.2975 132.407C67.1082 132.329 66.9338 132.264 66.7743 132.213L65.9016 131.929C65.6778 131.857 65.4296 131.762 65.1571 131.642C64.8817 131.522 64.6211 131.365 64.3753 131.17C64.1265 130.978 63.9258 130.737 63.7732 130.447C63.6205 130.158 63.5549 129.808 63.5763 129.4C63.601 128.929 63.7468 128.51 64.0135 128.143C64.2774 127.775 64.6507 127.492 65.1334 127.293C65.6133 127.093 66.188 127.011 66.8575 127.046C67.4817 127.079 68.0169 127.208 68.463 127.433C68.9064 127.658 69.2491 127.958 69.4912 128.332C69.7305 128.706 69.8547 129.132 69.8637 129.61L68.7743 129.553C68.7632 129.223 68.6668 128.944 68.4852 128.719C68.3006 128.496 68.0621 128.324 67.7698 128.203C67.4744 128.085 67.1537 128.017 66.8075 127.999C66.4047 127.978 66.0395 128.024 65.7121 128.138C65.3845 128.254 65.121 128.426 64.9214 128.651C64.7216 128.88 64.6134 129.153 64.5968 129.471C64.5816 129.76 64.6501 130 64.8023 130.19C64.9545 130.38 65.1595 130.538 65.4174 130.666C65.6753 130.793 65.9552 130.907 66.2571 131.008L67.3134 131.371C67.9841 131.603 68.5084 131.91 68.8866 132.294C69.2647 132.678 69.4384 133.164 69.4076 133.751C69.382 134.239 69.2277 134.658 68.9449 135.007C68.659 135.359 68.2866 135.624 67.8278 135.802C67.366 135.982 66.8571 136.058 66.301 136.029C65.7393 136 65.2453 135.873 64.819 135.648C64.3925 135.427 64.0606 135.136 63.8235 134.777C63.5834 134.417 63.4679 134.017 63.4768 133.577L64.4981 133.63Z" fill="#232323"/>
<path d="M57.8166 123.61L55.3948 132.278L54.459 132.016L54.7388 131.015L54.6239 130.983C54.5222 131.072 54.3847 131.184 54.2114 131.319C54.0347 131.455 53.8085 131.557 53.533 131.625C53.254 131.694 52.9093 131.672 52.4989 131.557C51.9681 131.409 51.5373 131.145 51.2065 130.767C50.8757 130.388 50.6648 129.924 50.5738 129.373C50.4828 128.823 50.5297 128.216 50.7147 127.554C50.9013 126.887 51.1765 126.34 51.5405 125.913C51.9036 125.49 52.3238 125.2 52.8009 125.044C53.2773 124.891 53.7781 124.888 54.3035 125.035C54.7084 125.148 55.0139 125.306 55.22 125.508C55.4252 125.713 55.5695 125.92 55.6526 126.129C55.7351 126.34 55.7958 126.514 55.8348 126.649L55.9169 126.671L56.848 123.339L57.8166 123.61ZM55.3233 128.859C55.4563 128.383 55.5039 127.944 55.466 127.541C55.4274 127.141 55.3026 126.801 55.0918 126.521C54.8803 126.243 54.5802 126.05 54.1917 125.942C53.7867 125.829 53.419 125.841 53.0885 125.979C52.7545 126.118 52.4683 126.351 52.2298 126.677C51.9878 127.004 51.8041 127.392 51.6787 127.841C51.5549 128.284 51.5117 128.703 51.5491 129.097C51.583 129.493 51.7078 129.833 51.9233 130.117C52.1353 130.404 52.4465 130.604 52.8569 130.719C53.2509 130.829 53.6099 130.822 53.9338 130.697C54.257 130.575 54.5367 130.355 54.7729 130.038C55.0083 129.723 55.1918 129.33 55.3233 128.859Z" fill="#232323"/>
<path d="M45.1664 121.812L42.2189 127.656L41.3514 127.218L41.7966 126.336L41.7357 126.305C41.4833 126.54 41.1722 126.678 40.8023 126.717C40.4325 126.757 40.0725 126.688 39.7225 126.511C39.6565 126.478 39.5747 126.435 39.4771 126.383C39.3794 126.331 39.3065 126.289 39.2584 126.258L39.7189 125.345C39.7455 125.368 39.8095 125.415 39.9109 125.485C40.0085 125.556 40.1169 125.622 40.2361 125.682C40.5202 125.826 40.8039 125.894 41.0873 125.887C41.3668 125.882 41.6237 125.808 41.858 125.665C42.0884 125.524 42.2702 125.321 42.4032 125.057L44.2684 121.359L45.1664 121.812Z" fill="#232323"/>
<path d="M34.6392 115.204C35.14 115.587 35.4874 116.028 35.6814 116.527C35.8714 117.027 35.9117 117.551 35.8023 118.101C35.689 118.651 35.4285 119.192 35.021 119.725C34.6135 120.257 34.1573 120.652 33.6525 120.91C33.1437 121.168 32.6273 121.277 32.1032 121.237C31.5752 121.198 31.0765 120.999 30.6073 120.639C30.3366 120.432 30.1038 120.182 29.9089 119.89C29.7141 119.598 29.586 119.267 29.5249 118.899C29.462 118.532 29.4932 118.134 29.6184 117.704C29.7437 117.274 29.9919 116.816 30.3632 116.331L30.6222 115.993L34.6287 119.059L34.1003 119.75L30.9059 117.305C30.6814 117.598 30.5398 117.904 30.481 118.224C30.4199 118.543 30.4456 118.85 30.558 119.147C30.6682 119.443 30.8676 119.701 31.1564 119.922C31.4745 120.165 31.8101 120.297 32.1634 120.317C32.5126 120.338 32.8451 120.27 33.1609 120.115C33.4766 119.959 33.7441 119.738 33.9634 119.452L34.3157 118.992C34.6161 118.599 34.8032 118.214 34.8767 117.838C34.9463 117.462 34.9137 117.11 34.7789 116.781C34.6423 116.455 34.4127 116.168 34.0901 115.921C33.8803 115.76 33.6684 115.645 33.4543 115.574C33.2362 115.504 33.0194 115.481 32.8038 115.505C32.5865 115.532 32.3749 115.61 32.1691 115.739L31.5633 114.931C31.8448 114.732 32.1575 114.606 32.5012 114.555C32.8431 114.505 33.1974 114.533 33.564 114.638C33.9289 114.746 34.2873 114.934 34.6392 115.204Z" fill="#232323"/>
<path d="M26.7276 107.805C26.9993 108.119 27.1869 108.454 27.2903 108.812C27.3916 109.172 27.3947 109.524 27.2996 109.87C27.2024 110.218 26.9928 110.531 26.6708 110.81C26.3875 111.056 26.1095 111.199 25.8367 111.24C25.5618 111.283 25.2929 111.255 25.0301 111.156C24.7673 111.056 24.5135 110.915 24.2687 110.733C24.0199 110.55 23.7809 110.357 23.5517 110.153C23.2525 109.886 23.0123 109.668 22.8311 109.498C22.6458 109.328 22.4913 109.221 22.3675 109.178C22.2418 109.133 22.1178 109.163 21.9954 109.269L21.9697 109.292C21.652 109.567 21.4806 109.868 21.4553 110.194C21.4282 110.519 21.5664 110.856 21.8697 111.206C22.1843 111.568 22.5103 111.784 22.8478 111.852C23.1853 111.921 23.4805 111.918 23.7334 111.846L24.1012 112.79C23.689 112.922 23.3062 112.953 22.9526 112.884C22.5951 112.814 22.2723 112.68 21.9843 112.483C21.6923 112.285 21.4383 112.061 21.2224 111.812C21.0847 111.653 20.9458 111.454 20.8058 111.215C20.6617 110.975 20.5639 110.708 20.5123 110.414C20.4588 110.118 20.4932 109.805 20.6155 109.473C20.7378 109.141 20.9953 108.805 21.3881 108.465L24.6463 105.639L25.3051 106.399L24.6354 106.98L24.669 107.019C24.8209 106.977 25.0102 106.963 25.2368 106.977C25.4633 106.992 25.7061 107.061 25.965 107.186C26.224 107.311 26.4782 107.518 26.7276 107.805ZM25.9445 108.281C25.684 107.981 25.4053 107.779 25.1086 107.675C24.81 107.569 24.5217 107.545 24.2438 107.602C23.964 107.656 23.7211 107.773 23.5151 107.951L22.8196 108.554C22.8862 108.553 22.983 108.593 23.1101 108.675C23.2333 108.756 23.368 108.857 23.5145 108.979C23.6569 109.099 23.7944 109.219 23.927 109.337C24.0555 109.455 24.1605 109.55 24.242 109.622C24.439 109.797 24.6409 109.946 24.8477 110.067C25.0506 110.188 25.2545 110.252 25.4594 110.259C25.6604 110.265 25.8574 110.184 26.0506 110.017C26.3146 109.788 26.4295 109.517 26.3954 109.205C26.3572 108.892 26.2069 108.584 25.9445 108.281Z" fill="#232323"/>
<path d="M19.6443 97.9024C19.9071 98.3804 20.0184 98.8687 19.9782 99.3674C19.9355 99.8675 19.7494 100.343 19.4199 100.793C19.0879 101.245 18.6182 101.637 18.0108 101.971C17.4084 102.303 16.8288 102.487 16.2721 102.524C15.7154 102.561 15.215 102.462 14.7709 102.226C14.3268 101.99 13.972 101.631 13.7065 101.148C13.5011 100.775 13.4011 100.446 13.4065 100.161C13.408 99.8744 13.4557 99.631 13.5496 99.4302C13.6396 99.2284 13.7166 99.0677 13.7806 98.9482L13.7395 98.8735L10.9166 100.426L10.432 99.5446L18.0792 95.3394L18.5474 96.1907L17.6662 96.6753L17.7237 96.7799C17.8638 96.7871 18.0464 96.8066 18.2714 96.8385C18.494 96.8718 18.7284 96.9649 18.9747 97.118C19.2185 97.2725 19.4417 97.534 19.6443 97.9024ZM18.787 98.2182C18.5926 97.8647 18.3362 97.6167 18.0179 97.474C17.697 97.3327 17.3374 97.2889 16.939 97.3427C16.5381 97.3978 16.121 97.5444 15.6879 97.7826C15.2597 98.0181 14.9193 98.2863 14.6666 98.5874C14.4115 98.8898 14.2613 99.2123 14.2163 99.5548C14.1687 99.8987 14.2435 100.25 14.4406 100.608C14.6459 100.982 14.9129 101.24 15.2414 101.384C15.5662 101.526 15.9258 101.57 16.3203 101.515C16.711 101.459 17.108 101.32 17.5113 101.098C17.9195 100.874 18.2562 100.608 18.5214 100.3C18.7826 99.9908 18.9438 99.659 19.005 99.3044C19.0622 98.9487 18.9896 98.5866 18.787 98.2182Z" fill="#232323"/>
<path d="M15.3065 88.6276L9.10376 90.7179L8.7826 89.7649L14.9853 87.6746L15.3065 88.6276ZM7.90667 90.5817C7.96927 90.7674 7.95998 90.9489 7.87881 91.1262C7.79673 91.3007 7.66686 91.418 7.48917 91.4778C7.31149 91.5377 7.13716 91.523 6.96617 91.4337C6.79428 91.3418 6.67703 91.2029 6.61443 91.0172C6.55184 90.8314 6.56157 90.6512 6.64365 90.4767C6.72482 90.2994 6.85425 90.1809 7.03193 90.121C7.20961 90.0611 7.3844 90.0772 7.55629 90.1691C7.72728 90.2584 7.84407 90.3959 7.90667 90.5817Z" fill="#232323"/>
<path d="M9.13975 80.7715L13.0346 80.1936L13.1822 81.1884L6.70765 82.1491L6.56504 81.188L7.5767 81.0379L7.56419 80.9536C7.21289 80.8506 6.91454 80.6594 6.66915 80.3799C6.42096 80.1008 6.26058 79.7167 6.18803 79.2278C6.12299 78.7894 6.156 78.3925 6.28706 78.037C6.41532 77.6819 6.64715 77.3862 6.98255 77.1497C7.31515 76.9137 7.75684 76.7548 8.30763 76.6731L12.4217 76.0627L12.5693 77.0575L8.52268 77.6579C8.01404 77.7334 7.63741 77.9242 7.39278 78.2305C7.14534 78.5372 7.05581 78.921 7.12419 79.3818C7.17131 79.6994 7.28227 79.973 7.45707 80.2026C7.63146 80.4295 7.86137 80.595 8.14679 80.6991C8.4322 80.8032 8.76319 80.8274 9.13975 80.7715Z" fill="#232323"/>
<path d="M14.8113 66.1312C14.7759 66.6158 14.6833 67.0277 14.5332 67.3671C14.386 67.7068 14.2033 67.9854 13.9852 68.2031C13.7701 68.4182 13.5443 68.5854 13.3077 68.7049L12.8049 67.865C12.9305 67.783 13.0749 67.6782 13.238 67.5505C13.404 67.423 13.5524 67.243 13.6833 67.0104C13.8172 66.7752 13.8985 66.4607 13.9272 66.0668C13.9656 65.5398 13.8698 65.0956 13.6398 64.7342C13.4098 64.3727 13.0228 64.1722 12.4788 64.1326L11.1527 64.0359L11.1465 64.1209C11.2602 64.2033 11.3999 64.3188 11.5656 64.4676C11.7288 64.6134 11.8691 64.8173 11.9868 65.0794C12.1018 65.3385 12.1438 65.6805 12.1128 66.1055C12.0744 66.6325 11.9152 67.0966 11.6353 67.4978C11.3557 67.8961 10.9689 68.1998 10.4752 68.4087C9.98159 68.6149 9.3948 68.6932 8.71479 68.6436C8.04611 68.5949 7.47242 68.4349 6.99371 68.1636C6.51217 67.8921 6.15068 67.5367 5.90923 67.0976C5.66496 66.6582 5.56285 66.1637 5.60291 65.614C5.63388 65.189 5.72929 64.857 5.88913 64.6179C6.04634 64.3759 6.21905 64.1948 6.40726 64.0746C6.59285 63.9514 6.74499 63.8571 6.86369 63.7917L6.87113 63.6897L5.8341 63.6141L5.90473 62.6451L12.6199 63.1345C13.1809 63.1754 13.6278 63.3361 13.9605 63.6167C14.2963 63.8947 14.5308 64.2536 14.664 64.6934C14.8002 65.1306 14.8493 65.6099 14.8113 66.1312ZM11.2217 65.9038C11.251 65.5015 11.1837 65.1548 11.0198 64.8637C10.8558 64.5726 10.6063 64.3422 10.2712 64.1725C9.93602 64.0028 9.52761 63.9004 9.04594 63.8653C8.57559 63.831 8.15534 63.8716 7.78517 63.987C7.41501 64.1025 7.1178 64.2916 6.89356 64.5544C6.66932 64.8172 6.54233 65.1526 6.5126 65.5606C6.48162 65.9856 6.56348 66.3477 6.75817 66.6467C6.95307 66.9429 7.22669 67.1751 7.57904 67.3432C7.9316 67.5084 8.32888 67.6072 8.77089 67.6394C9.22423 67.6724 9.63032 67.6308 9.98915 67.5145C10.3454 67.3952 10.6328 67.2025 10.8516 66.9365C11.0678 66.6674 11.1911 66.3232 11.2217 65.9038Z" fill="#232323"/>
<path d="M9.21427 44.6326L8.36813 44.2289L11.1865 38.3213L12.0327 38.725L10.851 41.2019L17.8816 44.5561L17.4266 45.5099L10.3959 42.1557L9.21427 44.6326Z" fill="#232323"/>
<path d="M24.2917 34.4918C23.9067 34.9913 23.4643 35.3372 22.9645 35.5295C22.4643 35.7177 21.9396 35.7562 21.3904 35.645C20.8408 35.5298 20.3004 35.2675 19.7694 34.8581C19.2385 34.4488 18.845 33.9913 18.5892 33.4856C18.3329 32.9759 18.2255 32.4591 18.2671 31.9352C18.3082 31.4072 18.5091 30.9093 18.8699 30.4413C19.078 30.1713 19.3285 29.9394 19.6215 29.7455C19.9144 29.5516 20.2454 29.4248 20.6144 29.3649C20.9811 29.3032 21.3793 29.3358 21.8089 29.4625C22.2385 29.5892 22.6952 29.839 23.179 30.2119L23.5164 30.4721L20.436 34.4681L19.7475 33.9373L22.2035 30.7513C21.9111 30.5259 21.605 30.3832 21.2853 30.3233C20.9673 30.2611 20.6596 30.2857 20.362 30.3971C20.0663 30.5063 19.8074 30.7049 19.5853 30.9929C19.3408 31.3101 19.2079 31.6453 19.1868 31.9985C19.1651 32.3476 19.2315 32.6804 19.3858 32.9966C19.5402 33.3129 19.7602 33.5812 20.046 33.8015L20.5049 34.1553C20.8964 34.4571 21.2803 34.6454 21.6567 34.7203C22.0325 34.7912 22.3849 34.7598 22.714 34.6261C23.0408 34.4906 23.3282 34.262 23.5762 33.9402C23.7375 33.731 23.854 33.5195 23.9256 33.3056C23.9967 33.0878 24.0203 32.871 23.9964 32.6554C23.9703 32.4379 23.8933 32.2261 23.7653 32.0199L24.5745 31.4169C24.773 31.6991 24.8976 32.0121 24.9482 32.356C24.9965 32.6981 24.9674 33.0523 24.8608 33.4186C24.752 33.7831 24.5623 34.1408 24.2917 34.4918Z" fill="#232323"/>
<path d="M32.2613 26.1142C31.7963 26.5146 31.3014 26.7496 30.7765 26.8193C30.2516 26.8889 29.7328 26.8089 29.2201 26.5793C28.7075 26.3497 28.2379 25.9873 27.8116 25.4922C27.3778 24.9884 27.0875 24.4642 26.9408 23.9194C26.7944 23.3707 26.7944 22.8439 26.9409 22.3391C27.0876 21.8304 27.3848 21.3832 27.8326 20.9976C28.1813 20.6973 28.5512 20.4912 28.9423 20.3793C29.3334 20.2675 29.7184 20.2509 30.0973 20.3295C30.4762 20.4082 30.8206 20.5839 31.1306 20.8568L30.3686 21.5131C30.1158 21.3371 29.8142 21.2481 29.4639 21.2462C29.1138 21.2402 28.7709 21.3818 28.435 21.671C28.138 21.9268 27.9442 22.2286 27.8538 22.5764C27.7637 22.9202 27.7767 23.2858 27.8929 23.6732C28.0093 24.0565 28.2288 24.4355 28.5514 24.8101C28.8813 25.1933 29.229 25.475 29.5942 25.6554C29.9616 25.8339 30.3239 25.9062 30.6809 25.8724C31.0401 25.8368 31.3704 25.6892 31.6718 25.4296C31.8698 25.2591 32.0199 25.0698 32.1221 24.8619C32.2242 24.654 32.2756 24.4372 32.2763 24.2117C32.277 23.9861 32.2232 23.7625 32.1149 23.5409L32.8769 22.8847C33.086 23.2145 33.2065 23.57 33.2385 23.9511C33.2708 24.3282 33.2074 24.7052 33.0484 25.0821C32.8896 25.455 32.6273 25.799 32.2613 26.1142Z" fill="#232323"/>
<path d="M38.4064 16.6816L40.2919 20.1383L39.409 20.6198L35.23 12.9582L36.1128 12.4766L37.6473 15.2899L37.7222 15.2491C37.695 14.8788 37.7684 14.533 37.9425 14.2115C38.1178 13.8861 38.4311 13.6003 38.8826 13.3541C39.2741 13.1405 39.6599 13.032 40.0399 13.0286C40.4185 13.0227 40.7767 13.1364 41.1143 13.3697C41.453 13.5992 41.757 13.9608 42.0264 14.4546L44.018 18.1059L43.1351 18.5874L41.1762 14.9961C40.9272 14.5396 40.6163 14.2514 40.2433 14.1312C39.8714 14.0072 39.4773 14.0588 39.0608 14.2859C38.7715 14.4437 38.5454 14.6463 38.3826 14.8937C38.2223 15.1397 38.14 15.416 38.1357 15.7225C38.1339 16.0277 38.2242 16.3474 38.4064 16.6816Z" fill="#232323"/>
<path d="M50.7319 11.1327L51.8174 14.9176L50.8507 15.1948L49.0462 8.903L49.9802 8.63515L50.2621 9.61825L50.344 9.59476C50.3999 9.23296 50.5502 8.91204 50.7949 8.632C51.0389 8.34923 51.3985 8.13971 51.8737 8.00344C52.2997 7.88126 52.6975 7.86174 53.0672 7.94488C53.436 8.02529 53.7597 8.21618 54.0382 8.51755C54.316 8.81619 54.5316 9.23313 54.6851 9.76837L55.8317 13.7663L54.865 14.0435L53.7372 10.1112C53.5954 9.61688 53.3567 9.26864 53.0209 9.06645C52.6843 8.86152 52.2921 8.82328 51.8442 8.95172C51.5356 9.04022 51.279 9.18623 51.0743 9.38974C50.8724 9.59247 50.7386 9.84216 50.6729 10.1388C50.6073 10.4354 50.6269 10.7667 50.7319 11.1327Z" fill="#232323"/>
<path d="M65.8629 12.3768C65.273 12.4117 64.7472 12.3021 64.2853 12.0477C63.8262 11.7932 63.4569 11.4209 63.1774 10.931C62.9008 10.4408 62.7424 9.85824 62.7024 9.18329C62.662 8.50267 62.7501 7.90123 62.9667 7.37896C63.1862 6.85653 63.5088 6.44181 63.9345 6.13482C64.3631 5.82765 64.8724 5.65657 65.4622 5.62159C66.0521 5.5866 66.5766 5.69636 67.0356 5.95088C67.4975 6.20522 67.8669 6.5789 68.1437 7.07189C68.4234 7.56472 68.5834 8.15145 68.6238 8.83207C68.6638 9.50702 68.574 10.1043 68.3544 10.6239C68.1376 11.1433 67.8149 11.5566 67.3863 11.8638C66.9606 12.1708 66.4528 12.3418 65.8629 12.3768ZM65.8094 11.4749C66.2575 11.4484 66.6193 11.3116 66.895 11.0648C67.1706 10.8179 67.3668 10.5032 67.4836 10.1206C67.6003 9.738 67.6458 9.32835 67.6199 8.89161C67.594 8.45488 67.5003 8.05205 67.339 7.68311C67.1777 7.31418 66.9455 7.02201 66.6424 6.80663C66.3394 6.59124 65.9638 6.49683 65.5157 6.52341C65.0676 6.54999 64.7059 6.68813 64.4304 6.93783C64.1549 7.18753 63.9589 7.5051 63.8423 7.89052C63.7257 8.27594 63.6804 8.68701 63.7063 9.12374C63.7322 9.56048 63.8257 9.96189 63.9869 10.328C64.1481 10.6941 64.3801 10.9834 64.683 11.196C64.9859 11.4085 65.3613 11.5015 65.8094 11.4749Z" fill="#232323"/>
<path d="M77.9447 3.90277L76.913 12.5688L75.9144 12.45L76.9461 3.78388L77.9447 3.90277Z" fill="#232323"/>
<path d="M86.0489 14.6302C85.4837 14.4577 85.0289 14.1719 84.6844 13.7727C84.3426 13.3743 84.126 12.8968 84.0345 12.3402C83.9457 11.7844 84 11.1831 84.1973 10.5364C84.3964 9.88431 84.6883 9.35114 85.0731 8.93691C85.4607 8.52351 85.9075 8.247 86.4134 8.10737C86.9221 7.96857 87.4591 7.98541 88.0242 8.15791C88.5894 8.3304 89.0429 8.61583 89.3847 9.0142C89.7292 9.4134 89.9454 9.89226 90.0333 10.4508C90.124 11.0101 90.0698 11.6159 89.8708 12.268C89.6734 12.9147 89.3814 13.4434 88.9947 13.854C88.6107 14.2656 88.1643 14.5407 87.6556 14.6795C87.1496 14.8191 86.614 14.8027 86.0489 14.6302ZM86.3126 13.7662C86.7419 13.8972 87.1287 13.8949 87.473 13.7594C87.8174 13.6239 88.1108 13.3972 88.3534 13.0791C88.5961 12.7611 88.7812 12.3929 88.9089 11.9744C89.0366 11.556 89.0891 11.1457 89.0662 10.7437C89.0434 10.3417 88.9274 9.987 88.7182 9.6796C88.5091 9.37221 88.1898 9.153 87.7605 9.02197C87.3312 8.89094 86.944 8.89454 86.5988 9.03276C86.2537 9.17098 85.9594 9.40046 85.7159 9.72121C85.4725 10.042 85.2869 10.4116 85.1592 10.83C85.0315 11.2484 84.9795 11.6573 85.0032 12.0566C85.0268 12.4559 85.1437 12.8079 85.3537 13.1126C85.5636 13.4173 85.8833 13.6351 86.3126 13.7662Z" fill="#232323"/>
<path d="M96.4467 21.6563C96.0242 21.4165 95.6919 21.156 95.4497 20.8748C95.2061 20.596 95.0328 20.3115 94.9298 20.0211C94.8279 19.7345 94.7737 19.4588 94.7673 19.1938L95.7417 19.1001C95.7618 19.2487 95.7946 19.4241 95.8399 19.6262C95.8838 19.8309 95.9828 20.0422 96.1367 20.2602C96.2917 20.4821 96.5408 20.6905 96.8843 20.8854C97.3438 21.1463 97.7862 21.2504 98.2113 21.1977C98.6365 21.1451 98.9837 20.8815 99.253 20.4072L99.9093 19.2509L99.8352 19.2088C99.712 19.2762 99.5477 19.3527 99.3421 19.4386C99.1405 19.5234 98.896 19.5627 98.6088 19.5565C98.3255 19.5492 97.9985 19.4403 97.628 19.23C97.1684 18.9691 96.8175 18.6262 96.5753 18.2013C96.3355 17.7777 96.2272 17.2981 96.2503 16.7624C96.2759 16.2281 96.457 15.6645 96.7936 15.0716C97.1245 14.4885 97.5153 14.039 97.9658 13.723C98.4176 13.4046 98.8937 13.2305 99.394 13.2009C99.8957 13.1688 100.386 13.2888 100.865 13.5609C101.236 13.7712 101.495 13.9999 101.642 14.2468C101.794 14.4927 101.883 14.7264 101.911 14.948C101.942 15.1685 101.962 15.3464 101.97 15.4817L102.059 15.5321L102.573 14.6279L103.418 15.1075L100.094 20.9629C99.8162 21.4521 99.4793 21.7868 99.083 21.9669C98.6878 22.1509 98.263 22.2087 97.8086 22.1402C97.3553 22.0756 96.9013 21.9143 96.4467 21.6563ZM98.1925 18.5116C98.5433 18.7108 98.8854 18.7988 99.2187 18.7756C99.5519 18.7525 99.8671 18.6259 100.164 18.396C100.461 18.1661 100.729 17.8412 100.967 17.4212C101.2 17.0111 101.344 16.614 101.399 16.2302C101.453 15.8463 101.41 15.4967 101.269 15.1813C101.128 14.866 100.879 14.6074 100.523 14.4054C100.153 14.1951 99.7906 14.1137 99.4369 14.1612C99.0858 14.2101 98.7587 14.3576 98.4556 14.6038C98.155 14.8513 97.8954 15.1678 97.6766 15.5532C97.4522 15.9485 97.3155 16.3331 97.2666 16.7071C97.2215 17.0801 97.2722 17.4224 97.4186 17.7342C97.5689 18.0449 97.8269 18.3041 98.1925 18.5116Z" fill="#232323"/>
<path d="M104.913 27.2522C104.786 27.1388 104.682 27.0271 104.601 26.9171C104.518 26.8092 104.466 26.7286 104.445 26.6755L105.226 26.1839C105.366 26.3931 105.513 26.5537 105.664 26.6657C105.815 26.7777 105.995 26.8257 106.203 26.8097C106.412 26.7977 106.672 26.7082 106.985 26.5413L107.465 26.2843L110.035 19.7617L110.85 20.4875L108.728 25.5837L108.779 25.6291L113.598 22.9369L114.413 23.6627L107.349 27.4137C107.031 27.583 106.729 27.6889 106.444 27.7315C106.156 27.7762 105.886 27.7576 105.632 27.6756C105.379 27.5956 105.14 27.4545 104.913 27.2522Z" fill="#232323"/>
<path d="M120.065 41.6993L125.035 36.9961L125.506 37.9421L121.651 41.4426L121.681 41.5036L126.79 40.5207L127.269 41.4819L123.414 44.9443L123.444 45.0053L128.545 44.0452L129.017 44.9912L122.268 46.124L121.828 45.2391L125.69 41.7157L125.645 41.6242L120.505 42.5842L120.065 41.6993Z" fill="#232323"/>
<path d="M125.061 53.9189L131.374 52.1894L131.64 53.1593L125.327 54.8889L125.061 53.9189ZM132.561 52.3943C132.509 52.2053 132.529 52.0246 132.62 51.8523C132.712 51.6828 132.849 51.5732 133.03 51.5237C133.21 51.4741 133.384 51.4989 133.549 51.5978C133.715 51.6995 133.825 51.8449 133.876 52.034C133.928 52.223 133.908 52.4023 133.816 52.5719C133.725 52.7442 133.589 52.8551 133.408 52.9046C133.227 52.9542 133.053 52.9281 132.887 52.8264C132.722 52.7274 132.613 52.5834 132.561 52.3943Z" fill="#232323"/>
<path d="M133.527 63.5881L132.681 63.686L132.291 60.3164L133.138 60.2185L133.527 63.5881ZM134.809 61.0206L134.925 62.0196L128.727 62.7359C128.445 62.7685 128.238 62.8339 128.107 62.932C127.978 63.0327 127.897 63.1507 127.864 63.286C127.835 63.4239 127.828 63.5662 127.845 63.7129C127.858 63.823 127.874 63.9127 127.893 63.9819C127.916 64.0508 127.933 64.106 127.947 64.1473L127.073 64.4542C127.04 64.3894 127.003 64.2978 126.964 64.1794C126.922 64.0613 126.89 63.9092 126.868 63.7229C126.836 63.4407 126.864 63.1571 126.954 62.8722C127.045 62.59 127.204 62.3457 127.432 62.1392C127.66 61.9355 127.963 61.8119 128.341 61.7681L134.809 61.0206Z" fill="#232323"/>
<path d="M131.168 72.5153L127.243 72.2022L127.323 71.1997L136.023 71.8937L135.943 72.8962L132.748 72.6414L132.742 72.7263C133.067 72.9061 133.316 73.1568 133.49 73.4785C133.666 73.8032 133.734 74.2219 133.693 74.7344C133.658 75.1791 133.537 75.5613 133.332 75.8813C133.13 76.2014 132.839 76.439 132.459 76.5939C132.081 76.7519 131.612 76.8085 131.052 76.7638L126.906 76.4331L126.986 75.4306L131.064 75.7559C131.582 75.7972 131.993 75.6947 132.298 75.4482C132.605 75.2048 132.778 74.8467 132.815 74.3738C132.842 74.0453 132.796 73.7452 132.678 73.4736C132.56 73.2048 132.373 72.9848 132.119 72.8135C131.865 72.645 131.548 72.5456 131.168 72.5153Z" fill="#232323"/>
<path d="M122.738 92.1927L130.621 95.9378L130.167 96.8924L123.131 93.5496L121.39 97.2139L120.544 96.8116L122.738 92.1927Z" fill="#232323"/>
<path d="M115.489 104.354C115.849 103.885 116.276 103.56 116.771 103.377C117.264 103.197 117.787 103.162 118.34 103.272C118.892 103.384 119.436 103.646 119.972 104.058C120.513 104.474 120.909 104.934 121.162 105.44C121.413 105.948 121.515 106.463 121.468 106.986C121.419 107.511 121.215 108.008 120.855 108.477C120.495 108.945 120.068 109.27 119.575 109.45C119.081 109.632 118.556 109.666 118.002 109.552C117.447 109.441 116.899 109.177 116.358 108.762C115.822 108.35 115.429 107.891 115.181 107.385C114.93 106.88 114.83 106.366 114.878 105.841C114.925 105.318 115.129 104.822 115.489 104.354ZM116.205 104.904C115.932 105.26 115.798 105.623 115.804 105.993C115.81 106.363 115.919 106.718 116.132 107.056C116.344 107.395 116.624 107.698 116.971 107.964C117.318 108.231 117.683 108.424 118.068 108.544C118.452 108.664 118.825 108.68 119.186 108.592C119.548 108.504 119.865 108.282 120.138 107.926C120.412 107.57 120.545 107.206 120.536 106.835C120.528 106.463 120.417 106.107 120.202 105.766C119.987 105.426 119.706 105.122 119.359 104.856C119.012 104.589 118.648 104.397 118.266 104.279C117.883 104.161 117.513 104.146 117.154 104.236C116.795 104.326 116.479 104.548 116.205 104.904Z" fill="#232323"/>
<path d="M109.079 120.361L106.687 113.805L107.467 113.143L113.549 116.565L112.717 117.271L107.963 114.465L107.911 114.509L109.911 119.654L109.079 120.361Z" fill="#232323"/>
<path d="M97.1262 120.153C97.6794 119.85 98.2234 119.711 98.7583 119.735C99.2921 119.764 99.7881 119.939 100.246 120.261C100.704 120.588 101.093 121.045 101.415 121.633C101.737 122.221 101.914 122.798 101.945 123.364C101.975 123.933 101.866 124.45 101.618 124.913C101.368 125.38 100.984 125.755 100.466 126.039C100.167 126.203 99.8444 126.315 99.4982 126.375C99.1521 126.435 98.7981 126.418 98.4361 126.325C98.0754 126.234 97.7238 126.044 97.3812 125.756C97.0386 125.467 96.7206 125.055 96.4273 124.519L96.2226 124.146L100.648 121.723L101.066 122.485L97.5372 124.417C97.7145 124.741 97.9376 124.995 98.2063 125.178C98.4726 125.362 98.7643 125.463 99.0815 125.481C99.3963 125.499 99.7131 125.422 100.032 125.247C100.383 125.055 100.64 124.801 100.801 124.486C100.961 124.175 101.034 123.843 101.019 123.492C101.005 123.14 100.911 122.806 100.738 122.49L100.459 121.981C100.222 121.548 99.946 121.221 99.6314 121.001C99.3156 120.786 98.9802 120.673 98.6252 120.663C98.2714 120.656 97.9164 120.75 97.5601 120.945C97.3284 121.072 97.1368 121.219 96.9854 121.386C96.8328 121.557 96.7242 121.746 96.6595 121.953C96.5961 122.163 96.5816 122.388 96.616 122.628L95.6328 122.856C95.5642 122.518 95.5758 122.181 95.6676 121.846C95.7607 121.513 95.9295 121.2 96.1741 120.907C96.4201 120.617 96.7375 120.366 97.1262 120.153Z" fill="#232323"/>
<path d="M79.8049 126.304C80.0121 126.268 80.2027 126.312 80.3767 126.434C80.5506 126.557 80.6555 126.722 80.6913 126.929C80.727 127.136 80.6835 127.327 80.5607 127.501C80.438 127.675 80.273 127.78 80.0658 127.816C79.8587 127.851 79.6681 127.808 79.4941 127.685C79.3201 127.562 79.2153 127.397 79.1795 127.19C79.1558 127.053 79.1691 126.921 79.2193 126.794C79.2667 126.668 79.3417 126.56 79.4444 126.47C79.5448 126.383 79.665 126.328 79.8049 126.304Z" fill="#232323"/>
</svg>
