<svg width="13" height="13" viewBox="0 0 13 13" fill="none" xmlns="http://www.w3.org/2000/svg">
<path d="M6.54092 0.951292C6.63821 0.651866 7.06182 0.651866 7.15911 0.951292L8.38232 4.71596C8.42583 4.84987 8.55061 4.94053 8.69141 4.94053L12.6498 4.94053C12.9647 4.94053 13.0956 5.3434 12.8408 5.52846L9.63843 7.85515C9.52452 7.93791 9.47686 8.08461 9.52037 8.21851L10.7436 11.9832C10.8409 12.2826 10.4982 12.5316 10.2435 12.3465L7.04104 10.0198C6.92713 9.93709 6.77289 9.93709 6.65898 10.0198L3.45656 12.3465C3.20186 12.5316 2.85915 12.2826 2.95644 11.9832L4.17966 8.21851C4.22316 8.08461 4.1755 7.93791 4.06159 7.85515L0.859175 5.52846C0.604468 5.3434 0.73537 4.94053 1.05021 4.94053L5.00861 4.94053C5.14941 4.94053 5.2742 4.84987 5.3177 4.71596L6.54092 0.951292Z" fill="#FFDD00"/>
</svg>
