<svg width="13" height="13" viewBox="0 0 13 13" fill="none" xmlns="http://www.w3.org/2000/svg">
<path d="M5.84091 0.951292C5.9382 0.651866 6.3618 0.651866 6.45909 0.951292L7.68231 4.71596C7.72582 4.84987 7.8506 4.94053 7.9914 4.94053L11.9498 4.94053C12.2646 4.94053 12.3955 5.3434 12.1408 5.52846L8.93842 7.85515C8.82451 7.93791 8.77685 8.08461 8.82036 8.21851L10.0436 11.9832C10.1409 12.2826 9.79815 12.5316 9.54345 12.3465L6.34103 10.0198C6.22712 9.93709 6.07288 9.93709 5.95897 10.0198L2.75655 12.3465C2.50185 12.5316 2.15914 12.2826 2.25643 11.9832L3.47964 8.21851C3.52315 8.08461 3.47549 7.93791 3.36158 7.85515L0.159163 5.52846C-0.0955441 5.3434 0.035358 4.94053 0.350193 4.94053L4.3086 4.94053C4.4494 4.94053 4.57418 4.84987 4.61769 4.71596L5.84091 0.951292Z" fill="#FFDD00"/>
</svg>
