<svg width="96" height="94" viewBox="0 0 96 94" fill="none" xmlns="http://www.w3.org/2000/svg">
<path d="M28.1982 93.765C27.0089 93.7497 25.8351 93.4934 24.7476 93.0117C23.6602 92.53 22.6816 91.8328 21.8712 90.9623C21.0607 90.0918 20.4351 89.0661 20.0322 87.947C19.6293 86.828 19.4575 85.6388 19.527 84.4515L20.8759 64.6684C20.9373 63.7836 20.7822 62.8972 20.4241 62.0858C20.066 61.2745 19.5155 60.5625 18.8205 60.0116L3.30874 47.6793C2.03733 46.6751 1.07148 45.3359 0.519908 43.8125C-0.0316663 42.2891 -0.147094 40.642 0.186679 39.0566C0.520452 37.4711 1.29016 36.0104 2.40912 34.8387C3.52809 33.667 4.95191 32.8309 6.52029 32.4245L25.7896 27.6072C26.6551 27.401 27.4553 26.9816 28.1173 26.3869C28.7792 25.7923 29.2818 25.0415 29.5792 24.2029L36.5161 5.6402C37.0865 4.1233 38.069 2.79577 39.3531 1.80713C40.6372 0.818493 42.1718 0.208015 43.7841 0.0444479C45.3964 -0.11912 47.0224 0.170732 48.4788 0.881343C49.9353 1.59195 51.1645 2.69508 52.0278 4.06652L62.5617 20.8629C63.0288 21.6185 63.6743 22.2479 64.4414 22.6959C65.2085 23.1439 66.074 23.3967 66.9616 23.4321L86.7768 24.2993C88.4057 24.3503 89.9877 24.8577 91.3424 25.7637C92.6972 26.6696 93.7703 27.9378 94.4397 29.4238C95.109 30.9098 95.3477 32.5538 95.1285 34.1688C94.9093 35.7837 94.2411 37.3047 93.1999 38.5585L80.3537 53.7491C79.7509 54.4303 79.3268 55.2506 79.1194 56.1363C78.912 57.022 78.9278 57.9453 79.1654 58.8234L84.4645 77.9321C84.9049 79.4921 84.8976 81.1447 84.4433 82.7008C83.989 84.2569 83.106 85.6537 81.8953 86.7317C80.6844 87.8152 79.1953 88.5394 77.5954 88.8231C75.9955 89.1068 74.3482 88.9386 72.8387 88.3375L54.4686 80.9188C53.6443 80.5877 52.7521 80.4614 51.8683 80.5509C50.9845 80.6404 50.1356 80.943 49.3944 81.4326L32.887 92.384C31.4851 93.2763 29.86 93.755 28.1982 93.765ZM44.7377 3.19939H44.1596C43.1362 3.28666 42.1593 3.66599 41.3452 4.29224C40.5311 4.91848 39.914 5.76533 39.5671 6.73211L32.6302 25.2948C32.1461 26.6219 31.3416 27.8088 30.2883 28.7501C29.2349 29.6913 27.9654 30.3578 26.5924 30.6903L7.32317 35.5076C6.32696 35.7548 5.41995 36.2763 4.70507 37.0128C3.9902 37.7494 3.4961 38.6715 3.27875 39.6747C3.0614 40.6779 3.12946 41.7219 3.47536 42.6883C3.82126 43.6547 4.43114 44.5048 5.23569 45.1422L20.7474 57.4745C21.8424 58.3523 22.7071 59.4836 23.2667 60.7706C23.8263 62.0576 24.0639 63.4616 23.959 64.8611L22.6102 84.6442C22.5258 85.664 22.735 86.6867 23.213 87.5915C23.691 88.4963 24.4179 89.2455 25.3078 89.7506C26.1748 90.2916 27.1763 90.5784 28.1982 90.5784C29.2202 90.5784 30.2216 90.2916 31.0886 89.7506L47.628 78.7992C48.7994 78.0219 50.1416 77.54 51.5398 77.3946C52.9381 77.2492 54.3507 77.4446 55.6569 77.9642L74.0591 85.3829C74.9953 85.7463 76.0131 85.8461 77.0021 85.6714C77.991 85.4966 78.9132 85.0541 79.6681 84.3919C80.4231 83.7296 80.982 82.873 81.2841 81.9153C81.5862 80.9575 81.6198 79.9353 81.3814 78.9598L76.0824 59.8511C75.7033 58.495 75.6602 57.0669 75.9567 55.6904C76.2533 54.3139 76.8806 53.0304 77.7845 51.9507L90.6307 36.7601C91.28 35.9702 91.6974 35.0155 91.8363 34.0024C91.9752 32.9893 91.8301 31.9575 91.4173 31.022C91.0045 30.0865 90.3401 29.284 89.4981 28.7037C88.6561 28.1235 87.6695 27.7883 86.6483 27.7356L66.8653 26.9006C65.4556 26.8368 64.0824 26.4324 62.8632 25.7221C61.6439 25.0118 60.6148 24.0167 59.864 22.8219L49.3623 6.02557C48.9093 5.18842 48.2428 4.48604 47.4305 3.98969C46.6183 3.49333 45.6893 3.22065 44.7377 3.19939Z" fill="#E04048"/>
<path opacity="0.5" d="M28.1982 93.765C27.0089 93.7497 25.8351 93.4934 24.7476 93.0117C23.6602 92.53 22.6816 91.8328 21.8712 90.9623C21.0607 90.0918 20.4351 89.0661 20.0322 87.947C19.6293 86.828 19.4575 85.6388 19.527 84.4515L20.8759 64.6684C20.9373 63.7836 20.7822 62.8972 20.4241 62.0858C20.066 61.2745 19.5155 60.5625 18.8205 60.0116L3.30874 47.6793C2.03733 46.6751 1.07148 45.3359 0.519908 43.8125C-0.0316663 42.2891 -0.147094 40.642 0.186679 39.0566C0.520452 37.4711 1.29016 36.0104 2.40912 34.8387C3.52809 33.667 4.95191 32.8309 6.52029 32.4245L25.7896 27.6072C26.6551 27.401 27.4553 26.9816 28.1173 26.3869C28.7792 25.7923 29.2818 25.0415 29.5792 24.2029L36.5161 5.6402C37.0865 4.1233 38.069 2.79577 39.3531 1.80713C40.6372 0.818493 42.1718 0.208015 43.7841 0.0444479C45.3964 -0.11912 47.0224 0.170732 48.4788 0.881343C49.9353 1.59195 51.1645 2.69508 52.0278 4.06652L62.5617 20.8629C63.0288 21.6185 63.6743 22.2479 64.4414 22.6959C65.2085 23.1439 66.074 23.3967 66.9616 23.4321L86.7768 24.2993C88.4057 24.3503 89.9877 24.8577 91.3424 25.7637C92.6972 26.6696 93.7703 27.9378 94.4397 29.4238C95.109 30.9098 95.3477 32.5538 95.1285 34.1688C94.9093 35.7837 94.2411 37.3047 93.1999 38.5585L80.3537 53.7491C79.7509 54.4303 79.3268 55.2506 79.1194 56.1363C78.912 57.022 78.9278 57.9453 79.1654 58.8234L84.4645 77.9321C84.9049 79.4921 84.8976 81.1447 84.4433 82.7008C83.989 84.2569 83.106 85.6537 81.8953 86.7317C80.6844 87.8152 79.1953 88.5394 77.5954 88.8231C75.9955 89.1068 74.3482 88.9386 72.8387 88.3375L54.4686 80.9188C53.6443 80.5877 52.7521 80.4614 51.8683 80.5509C50.9845 80.6404 50.1356 80.943 49.3944 81.4326L32.887 92.384C31.4851 93.2763 29.86 93.755 28.1982 93.765ZM44.7377 3.19939H44.1596C43.1362 3.28666 42.1593 3.66599 41.3452 4.29224C40.5311 4.91848 39.914 5.76533 39.5671 6.73211L32.6302 25.2948C32.1461 26.6219 31.3416 27.8088 30.2883 28.7501C29.2349 29.6913 27.9654 30.3578 26.5924 30.6903L7.32317 35.5076C6.32696 35.7548 5.41995 36.2763 4.70507 37.0128C3.9902 37.7494 3.4961 38.6715 3.27875 39.6747C3.0614 40.6779 3.12946 41.7219 3.47536 42.6883C3.82126 43.6547 4.43114 44.5048 5.23569 45.1422L20.7474 57.4745C21.8424 58.3523 22.7071 59.4836 23.2667 60.7706C23.8263 62.0576 24.0639 63.4616 23.959 64.8611L22.6102 84.6442C22.5258 85.664 22.735 86.6867 23.213 87.5915C23.691 88.4963 24.4179 89.2455 25.3078 89.7506C26.1748 90.2916 27.1763 90.5784 28.1982 90.5784C29.2202 90.5784 30.2216 90.2916 31.0886 89.7506L47.628 78.7992C48.7994 78.0219 50.1416 77.54 51.5398 77.3946C52.9381 77.2492 54.3507 77.4446 55.6569 77.9642L74.0591 85.3829C74.9953 85.7463 76.0131 85.8461 77.0021 85.6714C77.991 85.4966 78.9132 85.0541 79.6681 84.3919C80.4231 83.7296 80.982 82.873 81.2841 81.9153C81.5862 80.9575 81.6198 79.9353 81.3814 78.9598L76.0824 59.8511C75.7033 58.495 75.6602 57.0669 75.9567 55.6904C76.2533 54.3139 76.8806 53.0304 77.7845 51.9507L90.6307 36.7601C91.28 35.9702 91.6974 35.0155 91.8363 34.0024C91.9752 32.9893 91.8301 31.9575 91.4173 31.022C91.0045 30.0865 90.3401 29.284 89.4981 28.7037C88.6561 28.1235 87.6695 27.7883 86.6483 27.7356L66.8653 26.9006C65.4556 26.8368 64.0824 26.4324 62.8632 25.7221C61.6439 25.0118 60.6148 24.0167 59.864 22.8219L49.3623 6.02557C48.9093 5.18842 48.2428 4.48604 47.4305 3.98969C46.6183 3.49333 45.6893 3.22065 44.7377 3.19939Z" fill="white"/>
</svg>
