<svg id="Layer_1" data-name="Layer 1" xmlns="http://www.w3.org/2000/svg" xmlns:xlink="http://www.w3.org/1999/xlink" viewBox="0 0 57 39.67"><defs><style>.cls-1{fill:url(#linear-gradient);filter:url(#filter);}.cls-2{fill:url(#linear-gradient-2);filter:url(#filter-2);}.cls-3{fill:url(#linear-gradient-3);filter:url(#filter-3);}.cls-4{fill:url(#linear-gradient-4);filter:url(#filter-4);}.cls-5{fill:url(#linear-gradient-5);}</style><linearGradient id="linear-gradient" x1="39.2" y1="14.63" x2="17.94" y2="14.63" gradientUnits="userSpaceOnUse"><stop offset="0" stop-color="#e9e4f1"/><stop offset="0.25" stop-color="#ece8f3"/><stop offset="0.56" stop-color="#f1edf5"/><stop offset="0.83" stop-color="#f4f2f8"/><stop offset="1" stop-color="#f8f7fb"/></linearGradient><filter id="filter" x="0" y="0.67" width="57" height="39" filterUnits="userSpaceOnUse"><feOffset dy="5.67" input="SourceAlpha"/><feGaussianBlur stdDeviation="5.67" result="blur"/><feFlood/><feComposite operator="in" in2="blur"/><feComposite in="SourceGraphic"/></filter><linearGradient id="linear-gradient-2" x1="37.77" y1="10.48" x2="29.42" y2="10.48" gradientTransform="translate(31.29 45.6) rotate(-103.56)" xlink:href="#linear-gradient"/><filter id="filter-2" x="29.42" y="0" width="8.35" height="20.96" filterUnits="userSpaceOnUse"><feOffset dy="5.67" input="SourceAlpha"/><feGaussianBlur stdDeviation="5.67" result="blur-2"/><feFlood/><feComposite operator="in" in2="blur-2"/><feComposite in="SourceGraphic"/></filter><linearGradient id="linear-gradient-3" x1="39.5" y1="6.21" x2="18.66" y2="6.21" gradientUnits="userSpaceOnUse"><stop offset="0" stop-color="#9b1b2d"/><stop offset="0.25" stop-color="#ec1a3b"/><stop offset="0.56" stop-color="#af1f3f"/><stop offset="0.83" stop-color="#da1d44"/><stop offset="1" stop-color="#ed2847"/></linearGradient><filter id="filter-3" x="18.66" y="4.13" width="20.85" height="4.17" filterUnits="userSpaceOnUse"><feOffset dy="5.67" input="SourceAlpha"/><feGaussianBlur stdDeviation="5.67" result="blur-3"/><feFlood/><feComposite operator="in" in2="blur-3"/><feComposite in="SourceGraphic"/></filter><linearGradient id="linear-gradient-4" x1="28.61" y1="10.48" x2="20.26" y2="10.48" gradientTransform="translate(19.98 36.69) rotate(-103.56)" xlink:href="#linear-gradient-3"/><filter id="filter-4" x="20.26" y="0" width="8.35" height="20.96" filterUnits="userSpaceOnUse"><feOffset dy="5.67" input="SourceAlpha"/><feGaussianBlur stdDeviation="5.67" result="blur-4"/><feFlood/><feComposite operator="in" in2="blur-4"/><feComposite in="SourceGraphic"/></filter><linearGradient id="linear-gradient-5" x1="30.95" y1="14.63" x2="17.88" y2="14.63" xlink:href="#linear-gradient"/></defs><rect class="cls-1" x="17.94" y="12.55" width="21.25" height="4.17" rx="1.65"/><rect class="cls-2" x="22.97" y="8.39" width="21.25" height="4.17" rx="1.65" transform="translate(51.66 -19.73) rotate(103.56)"/><rect class="cls-3" x="18.66" y="4.13" width="20.85" height="4.17" rx="1.65"/><rect class="cls-4" x="13.81" y="8.39" width="21.25" height="4.17" rx="1.65" transform="translate(40.35 -10.82) rotate(103.56)"/><path class="cls-5" d="M20,12.55a2.09,2.09,0,0,0-2.09,2.08h0A2.1,2.1,0,0,0,20,16.72H30l1-4.17Z"/></svg>