<svg width="67" height="98" viewBox="0 0 67 98" fill="none" xmlns="http://www.w3.org/2000/svg">
<path d="M66.43 48.9549C66.4275 56.8914 64.4973 64.7086 60.8053 71.7341C57.1133 78.7596 51.77 84.7832 45.235 89.2868C38.7 93.7903 31.1688 96.6391 23.2892 97.5882C15.4096 98.5372 7.41745 97.558 0 94.7349C9.26435 91.1905 17.2348 84.9179 22.8577 76.7463C28.4806 68.5747 31.491 58.8891 31.491 48.9699C31.491 39.0507 28.4806 29.365 22.8577 21.1935C17.2348 13.0219 9.26435 6.74927 0 3.20487C7.41508 0.382632 15.4046 -0.596824 23.2818 0.350688C31.159 1.2982 38.6884 4.14434 45.2227 8.64448C51.757 13.1446 57.1008 19.1642 60.7949 26.1857C64.4889 33.2073 66.4227 41.0209 66.43 48.9549Z" fill="#F5F5F5"/>
</svg>
