<svg width="26" height="25" viewBox="0 0 26 25" fill="none" xmlns="http://www.w3.org/2000/svg">
<path d="M13.8185 1.32781L13.8186 1.32778C13.7028 1.08036 13.519 0.871082 13.2885 0.724456C13.0581 0.577856 12.7906 0.5 12.5174 0.5C12.2442 0.5 11.9767 0.577856 11.7462 0.724456C11.5158 0.871082 11.3319 1.08036 11.2162 1.32778L11.2121 1.33641L11.2121 1.33637L8.85457 6.13562L8.85126 6.14235L8.85121 6.14233C8.67293 6.49191 8.41286 6.79317 8.09321 7.02061C7.77421 7.24759 7.40517 7.39439 7.01741 7.44851L1.71528 8.23401L1.71181 8.23453L1.71181 8.23452C1.45117 8.27126 1.20602 8.38034 1.00418 8.54937C0.802337 8.7184 0.651937 8.94054 0.569994 9.19068C0.488042 9.44085 0.477833 9.70904 0.540536 9.9647C0.603242 10.2204 0.736325 10.4533 0.924718 10.6372L0.92512 10.6376L4.77007 14.3983L4.77221 14.4004C5.04712 14.6726 5.25415 15.0056 5.37649 15.3726C5.49881 15.7396 5.53306 16.1303 5.47641 16.5129L5.47451 16.5258L5.47435 16.5257L4.54887 21.8259C4.50815 22.0874 4.54049 22.3552 4.64233 22.5995C4.74464 22.845 4.91311 23.0573 5.12895 23.2127C5.34475 23.3681 5.5995 23.4605 5.86481 23.4797C6.12999 23.4988 6.39525 23.444 6.63115 23.3213C6.63122 23.3213 6.63128 23.3212 6.63135 23.3212L11.3947 20.8275C11.7376 20.6353 12.1242 20.5344 12.5174 20.5344C12.9108 20.5344 13.2976 20.6354 13.6406 20.8278L18.3775 23.3224L18.3886 23.3282L18.3885 23.3284C18.6224 23.4591 18.8888 23.5205 19.1563 23.5052C19.4238 23.4899 19.6814 23.3987 19.8988 23.2421C20.1162 23.0856 20.2845 22.8701 20.3839 22.6212C20.4833 22.3723 20.5096 22.1003 20.4598 21.837L20.458 21.8275L20.4581 21.8275L19.5601 16.5242C19.5601 16.5239 19.56 16.5236 19.56 16.5233L13.8185 1.32781ZM13.8185 1.32781L13.8227 1.33637L16.18 6.13534L13.8185 1.32781Z" stroke="#E6E6E6"/>
</svg>
