<svg width="21" height="21" viewBox="0 0 21 21" fill="none" xmlns="http://www.w3.org/2000/svg">
<path opacity="0.5" d="M6.15356 20.4619C5.89403 20.4585 5.63787 20.4026 5.40056 20.2975C5.16324 20.1924 4.9497 20.0402 4.77284 19.8503C4.59598 19.6603 4.45946 19.4365 4.37154 19.1923C4.28361 18.948 4.24611 18.6885 4.26128 18.4294L4.55565 14.1123C4.56905 13.9192 4.5352 13.7258 4.45705 13.5487C4.3789 13.3716 4.25878 13.2163 4.1071 13.096L0.722051 10.4048C0.444598 10.1857 0.233825 9.89343 0.113457 9.56098C-0.00691039 9.22854 -0.0320995 8.8691 0.0407381 8.52312C0.113576 8.17715 0.281545 7.85837 0.525731 7.60267C0.769917 7.34698 1.08063 7.16452 1.42289 7.07583L5.62793 6.02458C5.81682 5.9796 5.99145 5.88805 6.13589 5.7583C6.28034 5.62854 6.39001 5.46469 6.45492 5.28169L7.96873 1.23083C8.0932 0.899807 8.30761 0.610108 8.58783 0.394362C8.86805 0.178616 9.20295 0.0453942 9.5548 0.00969964C9.90664 -0.0259949 10.2615 0.037258 10.5793 0.192331C10.8971 0.347404 11.1654 0.588133 11.3538 0.887418L13.6525 4.55281C13.7545 4.7177 13.8953 4.85506 14.0627 4.95282C14.2301 5.05057 14.419 5.10574 14.6127 5.11348L18.9369 5.30271C19.2924 5.31385 19.6376 5.42457 19.9332 5.62228C20.2289 5.81999 20.463 6.09674 20.6091 6.42101C20.7552 6.74529 20.8073 7.10406 20.7594 7.45649C20.7116 7.80891 20.5658 8.14083 20.3386 8.41444L17.5352 11.7294C17.4036 11.8781 17.3111 12.0571 17.2658 12.2504C17.2206 12.4436 17.224 12.6451 17.2759 12.8367L18.4323 17.0067C18.5284 17.3472 18.5268 17.7078 18.4276 18.0474C18.3285 18.387 18.1358 18.6918 17.8716 18.927C17.6074 19.1635 17.2824 19.3215 16.9333 19.3834C16.5841 19.4453 16.2247 19.4086 15.8952 19.2775L11.8864 17.6585C11.7065 17.5863 11.5118 17.5587 11.319 17.5782C11.1261 17.5978 10.9409 17.6638 10.7791 17.7706L7.17678 20.1605C6.87085 20.3552 6.5162 20.4597 6.15356 20.4619ZM9.76288 0.698188H9.63674C9.4134 0.717233 9.20022 0.800011 9.02256 0.936674C8.8449 1.07334 8.71023 1.25814 8.63454 1.46912L7.12072 5.51997C7.01508 5.80957 6.83952 6.06858 6.60966 6.27399C6.3798 6.4794 6.10275 6.62484 5.80314 6.69739L1.5981 7.74865C1.3807 7.8026 1.18277 7.9164 1.02676 8.07713C0.870761 8.23787 0.762938 8.4391 0.715506 8.65802C0.668075 8.87693 0.682926 9.10476 0.75841 9.31565C0.833894 9.52655 0.966986 9.71207 1.14256 9.85117L4.52761 12.5424C4.76657 12.7339 4.95527 12.9808 5.07738 13.2617C5.1995 13.5425 5.25134 13.8489 5.22845 14.1543L4.93411 18.4715C4.9157 18.694 4.96135 18.9172 5.06566 19.1147C5.16998 19.3121 5.3286 19.4756 5.52281 19.5858C5.71201 19.7039 5.93054 19.7665 6.15356 19.7665C6.37658 19.7665 6.59511 19.7039 6.78431 19.5858L10.3936 17.196C10.6493 17.0263 10.9422 16.9212 11.2473 16.8894C11.5524 16.8577 11.8607 16.9004 12.1457 17.0137L16.1616 18.6327C16.3659 18.712 16.588 18.7338 16.8038 18.6956C17.0196 18.6575 17.2208 18.5609 17.3856 18.4164C17.5503 18.2719 17.6723 18.085 17.7382 17.876C17.8042 17.667 17.8115 17.4439 17.7595 17.231L16.6031 13.061C16.5204 12.7651 16.5109 12.4534 16.5757 12.1531C16.6404 11.8527 16.7773 11.5726 16.9745 11.3369L19.7779 8.02197C19.9196 7.8496 20.0107 7.64126 20.041 7.42018C20.0713 7.1991 20.0396 6.97394 19.9496 6.76978C19.8595 6.56563 19.7145 6.3905 19.5307 6.26387C19.347 6.13725 19.1317 6.06412 18.9088 6.05261L14.5917 5.87039C14.2841 5.85646 13.9844 5.76822 13.7183 5.61321C13.4523 5.4582 13.2277 5.24105 13.0638 4.98032L10.7721 1.31493C10.6732 1.13224 10.5278 0.978967 10.3505 0.87065C10.1733 0.762333 9.97055 0.702827 9.76288 0.698188Z" fill="white"/>
</svg>
