<svg width="26" height="25" viewBox="0 0 26 25" fill="none" xmlns="http://www.w3.org/2000/svg">
<path d="M14.2715 1.11592L16.6289 5.91517C16.7667 6.19598 16.9722 6.43798 17.227 6.6193C17.4819 6.80062 17.7779 6.91552 18.0883 6.95358L23.3927 7.73941C23.7436 7.79351 24.0725 7.94444 24.3423 8.17519C24.6121 8.40595 24.8122 8.70739 24.9201 9.04564C25.028 9.3839 25.0394 9.7455 24.953 10.0899C24.8666 10.4342 24.6859 10.7477 24.4311 10.995L20.6142 14.7558C20.3892 14.9685 20.2203 15.2335 20.1224 15.5273C20.0245 15.8211 20.0006 16.1345 20.0529 16.4397L20.951 21.744C21.0186 22.1008 20.9829 22.4694 20.8483 22.8066C20.7136 23.1438 20.4857 23.4357 20.191 23.6479C19.8963 23.86 19.5473 23.9837 19.1848 24.0044C18.8223 24.0251 18.4614 23.942 18.1445 23.7648L13.4014 21.267C13.1317 21.1145 12.8272 21.0344 12.5174 21.0344C12.2075 21.0344 11.903 21.1145 11.6333 21.267L6.86214 23.7648C6.54408 23.9303 6.18638 24.0042 5.82878 23.9784C5.47118 23.9525 5.12776 23.828 4.83679 23.6185C4.54583 23.409 4.31873 23.1228 4.18081 22.7919C4.04288 22.4609 3.99952 22.0982 4.05559 21.744L4.9818 16.4397C5.02696 16.1347 4.99966 15.8233 4.90214 15.5307C4.80463 15.2382 4.63961 14.9727 4.42046 14.7558L0.575502 10.995C0.320223 10.7459 0.139892 10.4302 0.0549275 10.0838C-0.030037 9.73737 -0.0162024 9.374 0.0948399 9.03502C0.205882 8.69605 0.409692 8.39504 0.683163 8.16603C0.956633 7.93702 1.2888 7.78921 1.642 7.73941L6.94633 6.95358C7.25522 6.91079 7.54924 6.79401 7.80333 6.61321C8.05742 6.43242 8.26411 6.19298 8.40579 5.91517L10.7633 1.11592C10.9193 0.78238 11.1672 0.500259 11.4778 0.302598C11.7885 0.104936 12.1491 0 12.5174 0C12.8856 0 13.2462 0.104936 13.5569 0.302598C13.8676 0.500259 14.1154 0.78238 14.2715 1.11592Z" fill="#E6E6E6"/>
</svg>
