<svg width="1108" height="613" viewBox="0 0 1108 613" fill="none" xmlns="http://www.w3.org/2000/svg">
<path d="M1056 546.113C1055.18 549.602 1053.18 552.752 1050.31 555.095C1048.27 556.71 1041.75 559.989 1040.99 555.339C1041.23 552.465 1041.84 549.63 1042.82 546.896C1044.41 543.298 1046.13 545.648 1048.72 546.113C1051.3 546.578 1053.88 544.302 1056 546.113Z" fill="#E04048" fill-opacity="0.13"/>
<path d="M1038.25 173.545C1039.19 176.629 1039.82 179.664 1040.55 182.527C1037.94 186.027 1033.08 184.73 1029.41 186.614C1027.68 187.495 1027.19 190.75 1025.52 191.24C1023.85 191.729 1023.17 189.918 1021.89 189.943C1018.63 189.943 1017.04 196.11 1013.02 194.568C1010.72 196.11 1013.02 201.91 1010.41 202.498C1008.4 202.865 1007.3 200.05 1006.08 198.141C1004.85 196.232 1002.5 194.789 1002.45 193.026C1002.4 191.264 1005.71 188.132 1006.76 186.883C1007.8 185.635 1010.59 182.405 1012.21 181.989C1015.24 181.23 1018.32 182.307 1020.64 181.205C1022.96 180.104 1022.75 176.727 1023.82 175.821C1024.89 174.916 1025.78 175.283 1026.43 174.818C1027.91 173.548 1029 171.919 1029.56 170.11C1030.12 168.301 1030.14 166.382 1029.61 164.563C1028.86 161.7 1024.66 158.567 1027.34 155.067C1029.79 155.616 1032.03 156.796 1033.8 158.474C1035.57 160.152 1036.81 162.261 1037.36 164.563C1037.63 166.325 1036.74 168.087 1036.89 169.947C1037.26 171.174 1037.71 172.376 1038.25 173.545Z" fill="#E04048" fill-opacity="0.13"/>
<path d="M1039.16 145.743C1038.67 147.04 1037.63 146.771 1036.69 147.529C1035.75 148.288 1034.65 150.613 1033.5 150.858C1031.68 151.249 1029.61 148.851 1027.81 149.34C1026.01 149.83 1026.93 151.788 1026.22 153.941C1024.98 153.585 1023.86 152.923 1022.97 152.023C1022.09 151.124 1021.49 150.02 1021.21 148.826C1021.21 147.358 1022.86 146.379 1023.27 144.715C1023.93 141.778 1022.18 140.309 1021.21 137.544C1021.21 137.128 1021.42 137.103 1021.45 136.785C1023.66 136.247 1028.02 140.97 1033.03 141.9C1036.27 142.39 1038.98 142.047 1039.16 145.743Z" fill="#E04048" fill-opacity="0.13"/>
<path d="M1030.76 405.705C1031 407.835 1027.71 407.59 1027.34 406.219C1027.42 404.555 1030.37 404.041 1030.76 405.705Z" fill="#E04048" fill-opacity="0.13"/>
<path d="M1014.84 124.108C1017.09 125.429 1022.54 128.488 1018.71 131.278C1017.33 130.631 1016.21 129.584 1015.51 128.293C1014.81 127.001 1014.58 125.533 1014.84 124.108Z" fill="#E04048" fill-opacity="0.13"/>
<path d="M1004.38 394.447C1006.99 392.832 1009.83 389.332 1014.4 391.094C1013.38 394.276 1009.96 394.227 1007.8 395.72C1005.63 397.213 1003.75 399.783 1000.99 400.076C1000.8 399.655 1000.48 399.296 1000.07 399.048C1000.05 396.185 1002.58 395.524 1004.38 394.447Z" fill="#E04048" fill-opacity="0.13"/>
<path d="M998.248 346.258C1000.86 346.258 1003.47 345.328 1005.29 346.503C1004.95 352.915 996.134 348.045 990.289 349.073C989.037 349.293 988.671 350.37 987.34 349.831C987.425 348.729 987.891 347.682 988.668 346.852C989.446 346.021 990.492 345.452 991.646 345.23C993.316 345.034 995.795 346.258 998.248 346.258Z" fill="#E04048" fill-opacity="0.13"/>
<path d="M1000.52 354.188C1000.78 357.736 996.474 358.128 995.299 360.869C997.204 364.124 997.909 368.676 1000.1 371.613C1000.1 373.571 1000.44 376.141 999.396 376.997C994.83 378.001 992.377 368.725 990.524 365.47C987.027 366.229 990.237 378.833 985.54 377.267C983.244 376.483 985.54 372.886 985.07 370.096C984.6 367.306 982.461 367.134 982.461 365.201C982.461 363.268 984 361.946 984.496 360.306C985.227 357.981 984.757 353.502 987.236 353.38C988.436 353.38 990.08 356.268 990.863 356.464C993.447 357.173 996.682 353.38 1000.52 354.188Z" fill="#E04048" fill-opacity="0.13"/>
<path d="M992.116 392.367C991.255 394.325 986.584 393.395 986.192 391.608C987.001 389.577 991.724 390.189 992.116 392.367Z" fill="#E04048" fill-opacity="0.13"/>
<path d="M987.784 398.534C987.516 398.904 987.21 399.249 986.871 399.562C985.148 398.926 983.296 398.461 982.774 396.479C984.052 394.374 987.732 396.112 987.784 398.534Z" fill="#E04048" fill-opacity="0.13"/>
<path d="M981.652 392.122C980.478 393.958 976.433 391.975 975.05 393.909C972.675 393.909 970.3 393.909 969.831 391.608C970.509 389.724 972.649 391.021 974.371 390.85C977.111 390.483 980.921 388.378 981.652 392.122Z" fill="#E04048" fill-opacity="0.13"/>
<path d="M949.581 490.263C949.186 488.017 948.655 485.795 947.989 483.606C947.989 482.725 947.989 481.624 947.989 480.522C947.666 479.258 947.439 477.974 947.311 476.68C947.624 474.991 949.372 474.795 949.92 473.351C950.625 470.904 949.059 470.586 949.007 467.698C949.007 465.691 950.364 464.712 951.277 462.069C951.695 460.845 951.721 458.594 952.191 457.713C952.66 456.831 955.296 455.706 956.288 455.265C959.758 453.332 962.55 449.759 966.073 449.098C966.96 448.951 968.161 449.098 968.683 449.098C970.744 448.706 973.354 446.65 976.198 446.038C979.042 445.427 981.417 445.598 983.478 444.227C986.23 442.19 988.407 439.552 989.82 436.543C990.863 433.728 990.576 431.354 992.429 430.4C993.421 429.935 994.36 430.4 995.378 430.155C996.885 429.623 998.273 428.835 999.474 427.83C1001.07 426.239 1001.33 423.62 1003.1 421.956C1004.69 420.507 1006.44 419.22 1008.32 418.114C1009.42 417.486 1010.67 417.132 1011.95 417.086C1015.16 417.379 1016.64 422.421 1020.14 421.442C1021.39 421.075 1022.75 418.089 1023.79 416.303C1025.41 413.684 1026.61 410.184 1029.46 409.401C1031.78 408.765 1034.34 410.38 1035.62 408.104C1035.9 406.488 1034.52 405.534 1035.62 404.531C1038.23 404.702 1042.74 408.74 1046.73 408.862C1048.9 408.862 1052.92 406.219 1053.33 409.89C1053.54 411.53 1051.72 412.852 1051.3 414.516C1050.99 415.691 1051.74 416.327 1051.06 417.6C1049.21 418.407 1047.25 418.848 1047.2 421.173C1047.2 424.11 1050.88 425.48 1053.1 427.071C1054.64 428.172 1055.92 429.837 1056.75 430.4C1057.59 430.962 1058.55 431.085 1059.02 431.427C1060.51 432.504 1061.63 434.952 1063.59 435.025C1065.55 435.099 1068.21 431.77 1069.49 428.589C1070.66 424.663 1071.43 420.638 1071.76 416.572C1071.99 415.275 1072.8 414.002 1073.11 412.729C1074 409.205 1075.2 404.482 1077.89 403.233C1080.5 406.488 1081.54 412.778 1081.1 418.114C1082.9 419.656 1086.08 419.142 1086.53 422.715C1086.68 423.963 1085.98 425.529 1086.08 426.802C1086.24 428.98 1087.68 430.865 1087.91 432.7C1088.35 436.126 1087.41 438.941 1088.8 441.413C1090.57 444.546 1094.02 444.448 1096.31 447.825C1096.41 449.409 1096.8 450.965 1097.46 452.426C1097.67 453.209 1097.46 454.482 1097.67 454.996C1098.4 456.709 1100.28 456.88 1101.09 458.324C1101.45 459.034 1101.35 460.38 1101.77 461.653C1102.66 463.454 1103.72 465.174 1104.95 466.792C1106.16 468.375 1107.16 470.093 1107.92 471.907C1108.37 474.355 1106.72 476.215 1106.31 478.32C1106.21 481.15 1105.92 483.971 1105.42 486.763C1103.72 490.196 1101.82 493.538 1099.73 496.773C1098.13 500.058 1095.98 503.082 1093.36 505.731C1091.93 507.028 1090.21 507.786 1088.8 509.059C1086.69 511.256 1084.72 513.569 1082.9 515.985C1080.86 518.432 1078.36 520.292 1076.77 522.397C1074.42 525.432 1073.27 530.351 1069.25 530.841C1067.01 530.846 1064.78 531.193 1062.65 531.869C1059.28 533.386 1057.07 536.152 1055.4 536.225C1053.73 536.299 1052 533.9 1050.39 533.655C1048.77 533.411 1047.12 535.222 1044.46 535.197C1043.39 535.197 1042.84 534.463 1041.3 533.924C1038.04 532.75 1034.47 532.799 1034.02 528.809C1033.76 526.607 1035.25 525.628 1035.15 523.67C1035.04 521.712 1033.35 521.223 1032.54 519.583C1032.89 518.715 1032.97 517.77 1032.77 516.86C1032.57 515.95 1032.1 515.112 1031.41 514.443C1031.28 513.182 1031.61 511.916 1032.33 510.846C1030.74 511.408 1029.21 512.104 1027.76 512.926C1026.12 514.027 1024.92 516.621 1023.01 516.23C1021.11 515.838 1022.59 513.513 1022.31 511.898C1021.49 509.258 1020.18 506.773 1018.45 504.556C1016.03 503.079 1013.39 501.957 1010.62 501.227C1003.6 499.979 999.109 504.213 993.551 504.825C992.117 504.752 990.68 504.752 989.245 504.825C984.679 505.706 979.59 509.72 976.72 512.485C972.023 513.024 967.273 511.408 962.394 513.024C957.514 514.639 954.826 519.118 947.415 517.919C945.928 516.499 943.318 515.789 943.318 513.317C943.318 511.36 945.928 510.087 946.711 508.692C948.07 506.484 948.957 504.048 949.32 501.521C949.32 499.832 948.302 497.776 948.407 495.647C948.746 493.714 949.607 491.927 949.581 490.263Z" fill="#E04048" fill-opacity="0.13"/>
<path d="M945.719 383.41C946.972 383.214 947.885 382.186 949.138 382.137C951.747 382.137 954.357 384.34 957.54 383.924C958.219 384.756 957.749 385.441 957.775 386.738C960.385 388.353 964.794 388.06 966.178 391.094C964.194 393.542 961.219 391.78 958.688 391.339C956.157 390.899 953.913 391.168 951.408 390.85C948.224 390.434 945.354 388.402 942.301 388.035C940.474 387.766 938.595 388.329 936.847 388.035C935.099 387.742 927.192 384.413 927.061 382.137C926.931 379.861 930.506 379.102 933.663 379.69C937.682 380.179 940.474 384.242 945.719 383.41Z" fill="#E04048" fill-opacity="0.13"/>
<path d="M951.851 365.739C950.129 365.176 948.511 365.495 947.781 364.956C946.215 363.879 946.45 360.82 945.954 359.058C945.458 357.296 943.553 356.366 942.536 353.943C941.048 350.443 940.422 342.636 944.362 341.902C945.928 341.608 947.572 342.979 948.668 342.66C950.86 342.073 950.494 338.867 952.321 337.545C953.339 336.811 955.192 337.105 956.627 336.517C958.151 335.629 959.408 334.39 960.28 332.92C961.219 331.647 961.976 329.493 963.229 328.588C964.481 327.682 965.838 327.511 967.091 326.532C970.066 323.962 970.17 320.389 972.545 317.305C974.58 314.687 977.764 319.753 977.998 321.906C979.147 323.546 981.365 323.938 982.33 325.749C980.999 330.277 977.111 330.644 977.998 337.031C978.283 338.528 978.747 339.989 979.382 341.388C980.034 342.881 981.991 344.52 981.861 345.475C981.73 347.408 978.312 347.31 977.555 349.317C976.798 351.324 977.555 351.324 977.32 354.212C976.354 356.317 973.797 356.806 972.988 359.352C972.049 362.386 973.145 366.327 970.953 368.578C969.439 368.578 967.795 370.047 965.969 369.851C964.142 369.655 962.081 366.571 958.897 366.522C957.697 366.522 956.288 367.379 955.035 367.281C953.782 367.183 953.339 366.18 951.851 365.739Z" fill="#E04048" fill-opacity="0.13"/>
<path d="M937.134 360.037C942.927 360.037 942.927 370.145 937.134 370.145C931.341 370.145 931.367 360.037 937.134 360.037Z" fill="#E04048" fill-opacity="0.13"/>
<path d="M928.653 358.813C930.213 360.198 931.318 361.973 931.837 363.928C931.837 365.739 929.358 365.641 928.653 368.04C927.583 371.711 929.149 375.896 927.296 377.829C926.279 378.539 924.4 378.319 922.756 378.343C918.671 374.887 915.013 371.012 911.848 366.792C910.464 365.381 909.239 363.839 908.195 362.191C907.021 359.743 906.603 357.051 905.246 354.848C903.889 352.646 901.854 351.422 900.706 349.219C899.74 347.433 899.662 345.059 898.644 343.321C897.626 341.584 896.035 341.021 895.017 339.748C894.286 338.891 893.869 337.594 893.19 336.664C890.346 332.797 884.84 330.79 884.553 325.137C885.727 323.644 886.927 325.7 889.093 326.165C890.502 326.459 892.173 326.165 893.19 326.41C895.252 327.193 896.687 330.839 898.879 332.822C900.105 333.923 901.697 334.706 902.976 335.881C904.255 337.056 905.298 338.989 906.368 339.748C907.856 340.751 909.917 341.437 911.848 342.807C914.458 344.692 919.155 346.65 919.677 350.517C919.833 351.471 919.259 353.086 919.442 353.82C919.755 355.167 921.268 355.754 922.051 356.904C922.834 358.055 923.408 360.477 925.026 360.747C926.644 361.016 926.931 358.666 928.653 358.813Z" fill="#E04048" fill-opacity="0.13"/>
<path d="M821.351 304.995C823.308 305.729 829.832 314.785 827.927 319.679C827.512 320.577 826.809 321.33 825.915 321.835C825.022 322.339 823.983 322.57 822.943 322.494C818.429 321.686 819.29 310.404 820.647 305.852C820.688 305.668 820.773 305.496 820.895 305.348C821.017 305.2 821.173 305.079 821.351 304.995Z" fill="#E04048" fill-opacity="0.13"/>
<path d="M670.131 434.658C670.413 432.22 671.436 429.909 673.08 428.001C675.194 426.239 678.012 426.41 680.126 425.187C682.259 424.007 684.115 422.434 685.58 420.561C686.676 418.97 686.754 417.135 687.641 415.96C688.528 414.785 689.624 414.908 690.251 413.904C690.877 412.901 690.772 411.31 691.842 410.331C695.026 408.789 695.913 415.226 696.409 419.802C696.539 421.197 697.192 422.69 697.087 423.376C696.748 425.431 694.765 425.823 694.139 427.242C693.739 432.442 692.425 437.545 690.251 442.343C688.737 446.332 687.876 450.689 686.623 454.139C686.18 455.388 685.214 456.366 684.797 457.468C683.179 461.824 682.553 468.677 679.578 470.537C677.573 471.453 675.422 472.057 673.211 472.324C671.773 472.168 670.425 471.59 669.361 470.671C668.296 469.751 667.57 468.539 667.287 467.208C666.922 465.74 667.287 464.223 667.078 462.583C666.418 460.59 666.032 458.525 665.93 456.44C666.426 451.227 670.94 448.682 671.149 444.399C671.514 441.168 669.818 437.938 670.131 434.658Z" fill="#E04048" fill-opacity="0.13"/>
<path d="M560.533 70.0201C560.794 74.3275 554.714 73.7891 553.931 77.3623C553.592 79.0265 554.636 81.2537 554.401 82.7466C553.931 85.4387 551.609 84.6555 548.712 86.075C547.225 86.8092 545.789 89.4769 544.172 89.6482C542.554 89.8196 541.745 88.6693 540.753 88.8896C539.266 89.2077 539.762 91.3369 537.57 91.704C535.821 92.0467 532.768 89.9419 532.559 92.4872C532.429 94.1025 535.299 94.9346 537.1 94.7878C538.9 94.6409 539.579 93.5151 540.962 93.5151C543.571 93.5151 545.424 95.7668 547.12 95.8157C551.008 95.9381 554.949 91.753 558.941 92.218C560.794 92.4383 561.89 93.9067 563.273 93.7599C565.465 93.5396 567.318 90.6762 568.936 89.6482C568.257 85.3408 568.936 79.6384 572.589 79.4181C575.042 79.2468 578.721 84.1416 579.165 79.4181C579.207 78.4973 578.884 77.5944 578.257 76.8845C577.63 76.1746 576.745 75.7082 575.772 75.5757C574.468 75.5757 572.745 78.4881 571.676 76.0896C571.676 73.6422 574.024 74.352 575.303 73.6422C576.581 72.9325 576.973 72.027 578.043 71.6109C583.444 69.4572 590.96 73.7157 593.047 68.5272C588.246 63.9261 580 70.2159 574.624 69.7998C573.25 69.6351 571.951 69.1186 570.869 68.307C569.787 67.4954 568.965 66.4199 568.492 65.1987C568.257 64.4156 568.492 63.3387 568.257 61.8703C568.022 60.4018 567.292 58.5173 567.344 57.5139C567.579 52.8883 577.782 52.0072 577.782 46.2314C576.38 45.2496 574.653 44.763 572.907 44.857C571.16 44.951 569.504 45.6196 568.231 46.7453C567.553 47.553 567.605 49.1927 566.639 50.857C564.604 54.3567 558.028 54.7728 555.966 59.0558C555.218 60.6644 554.904 62.4213 555.053 64.1708C555.601 66.814 560.377 67.4258 560.533 70.0201ZM506.412 320.634C499.863 319.557 493.156 322.518 488.668 324.721C486.058 325.994 483.449 327.951 481.179 328.049C478.908 328.147 476.899 326.777 474.811 326.532C471.843 326.275 468.851 326.448 465.939 327.046C463.33 327.56 460.955 329.665 458.659 329.861C454.249 330.228 450.074 325.382 447.281 322.934C445.611 321.441 443.889 320.242 442.297 318.847C440.706 317.452 438.383 316.4 437.078 315.005C435.304 313.047 435.304 309.645 434.469 307.051C433.347 303.991 429.981 301.74 427.423 298.852C425.492 296.674 421.082 293.443 420.586 290.653C420.352 289.234 421.134 287.594 421.056 286.028C420.926 283.8 419.438 282.528 419.464 280.912C419.464 278.661 421.865 276.923 422.413 275.014C422.7 274.06 422.57 272.689 422.857 271.441C423.509 268.822 425.023 267.305 424.683 263.487C424.553 261.97 423.405 260.599 423.326 258.592C423.326 257.246 424.109 256.512 424.005 255.264C423.822 253.086 421.395 252.645 421.056 250.149C420.717 247.652 423.248 245.401 424.683 242.464C425.336 241.142 425.701 239.111 426.275 238.107C427.554 235.929 429.641 234.877 430.607 232.723C431.311 231.132 431.546 228.783 432.199 227.584C432.851 226.384 434.808 225.136 436.296 223.227C437.574 221.612 438.096 219.63 438.905 218.871C440.198 218.138 441.571 217.539 443.002 217.084C447.223 215.083 450.531 211.72 452.318 207.613C451.742 204.597 452.394 201.487 454.144 198.9C455.089 196.321 456.735 194.018 458.92 192.219C461.764 190.408 464.426 190.261 466.409 186.859C467.718 184.903 468.605 182.724 469.018 180.447C468.985 179.148 468.563 177.884 467.802 176.798C467.041 175.712 465.971 174.848 464.713 174.304C462.651 173.912 459.494 176.041 458.346 173.521C457.98 172.713 458.476 170.828 458.346 169.947C458.085 168.259 456.806 167.084 456.754 165.836C456.754 163.388 458.841 160.941 459.363 158.151C460.224 154.382 459.363 151.494 459.155 147.138C462.312 141.484 469.384 144.299 476.429 144.837C477.473 144.837 478.7 144.543 479.848 144.568C484.023 144.69 487.285 146.11 488.694 142.12C489.353 139.252 489.59 136.312 489.399 133.383C488.355 130.702 486.719 128.258 484.597 126.212C482.353 124.597 479.091 125.307 477.786 122.37C478.83 117.328 483.866 121.538 486.893 120.339C488.433 119.727 488.25 116.716 489.503 116.227C490.442 115.909 491.643 117.279 492.921 117.255C495.132 116.549 497.203 115.507 499.054 114.171C500.515 113.07 500.959 110.769 502.237 109.815C503.098 109.179 504.247 109.252 505.212 108.787C507.431 107.654 509.363 106.085 510.875 104.186C512.753 101.738 513.615 98.5078 515.885 98.0428C518.938 97.4065 525.827 98.7281 526.323 94.9591C526.819 91.1901 523.531 88.5714 524.731 84.7045C525.67 81.6697 528.123 82.2571 531.542 80.3481C533.212 81.6697 532.716 85.4632 532.925 87.6903C535.038 87.6903 539.318 86.9806 539.735 84.8758C540.257 82.2326 536.656 79.5405 535.873 77.9497C535.091 76.3589 534.83 73.2017 533.134 72.8346C529.689 72.0759 526.323 78.1944 521.991 78.1944C520.506 78.0661 519.094 77.5348 517.926 76.6655C516.758 75.7962 515.885 74.6265 515.415 73.2996C515.205 71.9385 515.126 70.5624 515.18 69.188C514.453 66.8618 514.145 64.4384 514.267 62.0171C516.015 58.6642 520.034 58.1013 522.904 56.3636C524 55.7273 524.888 54.3323 526.088 53.9162C528.123 53.0596 531.15 53.9162 533.134 52.6191C534.412 51.8114 534.047 50.4164 534.96 48.7767C535.534 47.7488 536.917 47.1614 537.57 45.9622C538.092 45.1545 538.144 43.9064 538.692 43.1477C540.675 40.3821 544.276 39.3542 545.737 36.4907C546.39 35.2181 544.615 34.7531 545.059 32.8931C545.502 31.033 548.634 32.4281 550.278 32.1344C552.548 31.7428 554.636 28.6346 557.115 28.0227C559.76 27.8216 562.38 27.3957 564.943 26.7501C566.378 26.1382 567.553 24.6698 569.04 24.4495C569.51 24.4495 570.867 24.7432 571.649 24.6943C572.432 24.6453 573.45 24.0579 574.598 23.9356C576.581 24.0062 578.559 24.1778 580.522 24.4495C584.123 24.4495 587.515 23.2258 590.516 24.6943C592.082 25.4774 591.899 27.4598 593.934 28.2919C594.952 28.708 596.283 28.1206 597.797 28.2919C600.015 28.5367 602.337 30.2499 605.286 30.5925C606.356 30.7149 607.426 30.4456 608.469 30.5925C611.943 31.4341 615.305 32.6409 618.49 34.1902C621.099 35.1936 626.788 36.4662 626.892 39.3052C626.892 42.6826 621.986 43.6616 619.847 43.6616C616.272 43.6616 611.522 41.2142 607.791 42.6337C607.785 43.9284 608.062 45.2105 608.605 46.4008C609.148 47.5911 609.945 48.6644 610.948 49.5543C611.951 50.4442 613.137 51.1318 614.434 51.5748C615.732 52.0177 617.112 52.2066 618.49 52.1296C618.933 49.3885 615.619 50.9059 615.88 48.2627C618.15 46.3537 620.864 49.5599 624.074 49.0459C625.327 48.6543 625.118 46.5985 625.431 45.2035C628.04 43.3434 631.511 40.6268 635.66 42.7561C635.857 42.3405 636.173 41.9846 636.573 41.7282C636.834 38.9137 633.964 37.4452 635.425 34.8265C636.234 32.9909 640.462 33.6273 641.114 35.0712C641.766 36.5152 640.07 36.6131 640.201 38.1549C640.453 38.8632 640.948 39.4732 641.609 39.8894C642.27 40.3057 643.059 40.5048 643.854 40.4555C646.072 40.4555 646.463 38.0081 648.629 36.8578C649.464 36.3928 650.717 36.3194 651.813 35.8544C652.909 35.3894 654.188 34.0923 655.231 33.7986C656.275 33.5049 657.11 33.7986 658.18 33.5294C659.25 33.2601 660.946 31.9875 662.042 32.012C663.138 32.0365 664.391 33.7986 666.139 34.0433C667.078 34.1902 668.174 33.456 669.531 33.2846C670.888 33.1133 671.802 33.4315 672.715 33.2846C674.907 32.9175 676.394 31.6449 678.195 31.7428C679.447 31.7428 681.639 33.7496 682.5 32.7707C683.962 31.1309 680.543 29.9072 681.613 28.4143C685.084 28.708 688.789 28.6101 692.286 29.173C697.505 30.0051 702.385 32.9175 707.056 33.0154C706.612 29.4667 703.011 30.568 701.367 28.9283C700.198 27.2899 699.358 25.4653 698.888 23.544C699.703 21.3918 700.77 19.3314 702.072 17.401C704.055 15.2718 710.631 15.2962 712.509 18.1597C713.814 20.1176 713.371 23.0545 715.249 23.0545C717.128 23.0545 717.702 18.5513 719.581 18.4534C721.46 18.3555 721.878 21.2924 723.443 21.2679C725.009 21.2434 726.627 17.2542 729.106 17.1563C730.463 17.1563 730.906 17.9395 732.994 18.1842C734.403 17.1563 732.498 15.7368 733.203 14.3418C735.812 12.2615 741.553 13.8523 744.815 12.5552C745.702 11.3315 743.641 10.4749 744.58 9.22671C747.372 6.99957 752.095 6.7793 756.871 5.89824C759.767 5.33534 762.533 3.03478 764.699 2.81451C766.865 2.59425 769.37 4.38086 771.536 4.35639C772.959 4.25993 774.349 3.91111 775.633 3.32846C776.912 2.76556 777.773 1.37056 779.051 1.02792C781.318 0.868646 783.595 0.868646 785.862 1.02792C787.931 0.44071 790.07 0.0954455 792.229 0C793.873 0.293688 795.204 2.27608 796.77 2.4474C801.571 3.30399 806.503 1.63977 810.861 2.96137C811.644 3.20611 812.427 4.11164 813.47 4.50322C816.393 5.70245 818.402 5.33534 818.95 9.39802C821.247 10.328 822.578 12.702 825.291 13.5097C827.118 14.0481 828.945 13.2404 830.98 13.2404C833.8 13.2045 836.618 13.3763 839.409 13.7544C840.714 13.9747 841.783 15.0515 843.036 15.2962C844.289 15.541 845.176 15.2962 846.22 15.2962C847.491 15.616 848.78 15.8693 850.081 16.0549C852.456 16.0549 854.283 13.6075 856.214 13.2404C857.372 13.2742 858.521 13.4469 859.632 13.7544C863.468 14.1215 867.878 13.1915 871.01 14.0236C873.374 15.0213 875.529 16.4052 877.377 18.1108C878.708 19.2611 879.517 21.0966 880.769 21.9532C882.371 23.0786 884.261 23.7877 886.249 24.009C887.684 23.7398 887.763 21.9287 889.198 21.1945C893.712 20.0687 901.723 22.8098 905.35 20.9253C906.733 20.1911 906.473 18.4779 907.621 17.5968C914.431 17.2297 921.242 17.915 927.635 18.1108C929.818 17.8747 932.016 17.7929 934.211 17.866C936.482 18.3066 938.126 20.8519 940.344 21.7085C941.857 22.2714 944.467 21.9777 946.711 22.4671C948.224 22.8098 949.477 23.8132 950.573 24.009C952.944 24.1352 955.322 23.9624 957.644 23.495C962.863 23.03 969.57 22.7119 974.684 25.0369C977.294 26.2606 978.573 28.757 981.521 29.1241C985.723 29.6625 992.22 28.7325 996.526 29.1241C997.383 29.3474 998.255 29.519 999.135 29.638C1000.6 29.5156 1001.46 28.1451 1003.23 28.0961C1005.48 28.0961 1009.08 32.0609 1012.34 31.4491C1013.75 30.3722 1011.22 29.0017 1012.55 27.8514C1013.88 26.7011 1015.6 27.8514 1017.56 27.8514C1018.63 27.8514 1019.96 27.2395 1020.98 27.3374C1023.59 27.5822 1025.86 30.103 1028.94 30.9351C1031.83 31.6229 1034.84 31.7973 1037.81 31.4491C1039.8 30.9076 1041.87 30.6437 1043.94 30.6659C1044.96 30.8372 1045.85 31.6449 1046.89 31.963C1047.93 32.2812 1048.82 31.963 1049.63 32.2078C1050.44 32.4525 1051.14 33.2357 1051.9 33.4804C1056.13 34.851 1061.76 35.5118 1066.23 37.0781C1068.83 37.9837 1071.44 39.8192 1073.74 39.8926C1074.81 39.8926 1075.78 39.3786 1077.13 39.3786C1084.02 39.3786 1092.09 42.6582 1091.46 49.878C1083.42 51.8849 1076.69 43.6616 1068.26 46.0356C1067.5 46.3339 1066.85 46.8328 1066.39 47.4714C1065.92 48.11 1065.67 48.861 1065.65 49.6333C1065.96 54.0875 1076.09 53.7204 1076.79 58.0768C1075.15 59.4718 1073.35 58.0768 1072.02 58.346C1069.4 59.1391 1067.05 60.5461 1065.18 62.4332C1063.64 64.0729 1062.31 68.2335 1060.64 68.6006C1058.97 68.9677 1055.42 66.3245 1052.45 67.0588C1051.33 67.328 1050.26 68.8943 1049.26 69.1146C1046.65 69.653 1043.57 67.5727 1042.01 70.9012C1042.84 73.3486 1042.32 76.5057 1044.04 77.8273C1045.17 78.6594 1046.65 77.9986 1047.91 78.586C1049.16 79.1734 1050.39 81.4495 1051.77 82.6976C1053.15 83.9458 1054.12 83.7255 1054.74 84.9982C1054.74 86.8827 1054.06 87.0785 1054.27 88.3266C1054.64 90.4803 1057.61 90.9699 1057.69 92.4138C1057.69 94.2738 1055.81 93.8823 1055.42 95.7423C1055.27 96.9415 1056.65 97.2597 1056.78 98.826C1056.78 99.8784 1056.02 100.955 1056.1 102.154C1056.1 103.868 1057.41 104.993 1057.22 106.511C1057.13 107.094 1056.91 107.651 1056.55 108.139C1056.2 108.627 1055.73 109.033 1055.19 109.325C1050.83 106.193 1046.92 101.836 1042.14 97.7981C1037.36 93.7599 1029.74 88.5714 1028.96 79.8587C1028.96 78.5371 1031.57 77.4113 1031.91 75.5023C1032.09 74.6946 1031.62 73.5444 1031.7 72.443C1031.86 69.4327 1034.05 66.5448 1033.97 64.7582C1033.21 62.1747 1031.42 59.966 1028.96 58.5907C1027.63 59.3739 1028.96 61.0381 1028.73 62.1884C1028.56 63.0204 1028.15 63.7935 1027.55 64.4235C1026.95 65.0536 1026.17 65.5164 1025.31 65.7616C1021.03 66.2022 1020.53 59.5208 1013.72 61.4297C1012.37 62.0984 1011.29 63.1578 1010.64 64.4501C1009.99 65.7425 1009.79 67.1983 1010.1 68.6006C1010.28 69.7019 1013.02 70.9257 1012.7 72.443C1012.39 73.9604 1006.52 74.352 1005.22 74.2296C1001.54 73.9115 999.657 70.8033 996.343 70.9012C994.725 70.9012 993.29 72.443 992.011 72.6877C984.861 74.1562 974.215 68.723 971.788 75.7715C971.449 76.7505 971.631 78.0721 971.318 79.1C970.875 80.5684 969.831 81.7432 969.518 82.6976C969.205 83.6521 969.283 85.145 968.813 86.2708C968.343 87.3966 964.116 91.7775 967.926 92.9278C968.813 93.2214 969.257 92.4872 970.535 92.683C972.466 92.9767 975.754 96.501 978.025 96.5254C979.408 96.5254 981.286 94.7878 982.33 94.7388C984.444 94.6165 985.983 96.1583 987.549 97.0394C989.115 97.9205 991.411 99.6581 992.559 99.4868C994.699 99.4868 993.681 97.7002 995.743 97.0394C999.657 98.3365 1001.51 103.036 1005.29 106.829C1006.65 108.175 1008.66 109.276 1010.51 111.185C1011.53 112.213 1014.71 114.979 1014.84 116.3C1014.97 117.622 1013.96 118.038 1013.7 119.115C1013.33 120.681 1014.19 121.832 1013.25 122.957C1009.63 121.44 1008.79 117.426 1006.18 114C1005.22 112.727 1004.25 111.21 1002.79 109.374C1002.11 108.567 999.709 105.679 998.222 106.315C995.378 107.539 999.788 112.409 1000.52 113.486C1002.31 115.771 1003.54 118.393 1004.15 121.171C1004.15 122.688 1003.26 125.478 1003.23 128.097C1003.23 129.859 1003.62 131.45 1003.47 132.992C1003.04 134.652 1002.51 136.287 1001.88 137.886C1001.33 139.746 1001.22 141.998 1000.75 143.246C1000.26 144.414 999.499 145.464 998.519 146.32C997.539 147.175 996.368 147.814 995.091 148.19C993.186 148.19 992.481 146.55 990.524 146.648C987.732 146.795 987.21 149.707 985.54 152.032C985.67 154.48 986.375 155.41 985.984 157.148C985.383 159.864 982.017 160.329 982.122 163.046C982.226 165.762 985.201 166.032 986.662 167.157C989.524 169.391 992.051 171.976 994.177 174.842C995.792 176.96 996.806 179.427 997.126 182.013C996.969 184.461 990.498 188.058 987.81 187.128C985.122 186.198 986.14 183.506 985.54 180.985C985.07 179.052 983.713 178.195 982.93 176.629C982.565 175.797 982.748 174.475 982.252 173.545C980.869 170.951 978.468 172.37 975.65 170.731C973.797 169.654 974.345 167.402 973.615 165.346C972.623 162.581 968.396 161.284 965.212 162.018C962.759 162.556 962.002 164.857 959.732 165.346C956.392 163.119 960.411 157.637 956.34 157.148C953.182 156.78 951.121 162.214 949.268 163.804C948.042 164.881 945.797 165.102 945.641 166.619C945.38 169.458 948.25 168.871 950.625 169.972C953 171.073 953.026 173.667 954.957 173.814C956.888 173.961 957.566 171.905 959.288 171.758C961.787 171.691 964.221 172.513 966.099 174.059C964.977 177.167 958.845 179.443 958.819 183.555C958.819 186.002 961.272 186.32 963.151 187.911C965.029 189.502 966.83 192.977 969.048 195.596C970.013 196.722 971.657 197.456 972.023 198.044C973.067 199.757 972.91 201.813 974.058 202.938C974.267 204.358 973.484 204.7 973.615 206.022C974.163 207.858 976.694 207.515 977.242 209.351C976.772 213.78 978.416 217.941 975.206 219.605C973.719 227.535 972.049 233.727 967.247 238.059C962.916 241.925 957.227 243.076 952.008 244.96C950.651 245.45 949.581 247.065 948.381 247.53C945.354 248.68 939.952 247.995 939.743 252.156C939.613 254.187 942.04 255.435 942.222 257.515C942.509 260.721 939.978 263.952 938.126 264.197C937.051 264.238 936.001 263.885 935.197 263.214C934.394 262.543 933.9 261.605 933.82 260.599C933.637 257.54 937.186 256.292 937.447 254.456C937.561 253.675 937.492 252.88 937.246 252.127C937 251.373 936.581 250.679 936.02 250.092C935.459 249.506 934.769 249.04 933.997 248.729C933.225 248.417 932.39 248.267 931.55 248.289C928.549 248.558 921.712 255.337 921.555 259.057C921.425 261.847 926.435 267.623 928.131 269.312C934.524 275.651 941.309 279.444 940.187 294.936C938.595 298.852 934.498 299.684 931.315 301.862C928.888 303.502 927.688 308.593 923.486 309.033C921.842 308.397 922.808 305.509 922.338 304.138C921.712 302.303 918.476 301.397 916.441 299.513C914.405 297.628 914.066 295.548 912.787 294.128C911.509 292.709 908.821 291.999 906.89 290.8C905.664 290.066 904.698 287.423 903.472 287.472C901.462 287.472 902.167 289.748 901.645 293.37C901.123 296.992 898.827 299.684 899.61 303.869C899.923 305.607 901.828 307.002 902.793 308.764C904.359 311.676 904.594 315.054 906.185 316.718C907.255 317.819 909.082 318.04 910.282 319.018C913.332 321.374 915.881 324.247 917.798 327.487C918.789 330.179 917.798 333.36 918.476 336.199C919.233 339.479 923.043 341.828 920.746 345.157C918.56 344.434 916.553 343.302 914.849 341.828C911.976 339.846 909.701 337.198 908.247 334.143C907.561 333.157 906.951 332.127 906.42 331.06C905.637 328.759 905.794 326.165 905.063 323.375C903.981 320.361 902.279 317.576 900.053 315.176C898.461 313.487 895.617 312.484 895.513 310.061C895.356 306.61 896.53 302.572 896.426 298.509C896.426 297.653 895.878 296.772 895.747 295.695C895.513 293.737 895.904 291.338 895.513 289.552C894.966 287.966 894.276 286.427 893.451 284.951C892.851 283.458 892.225 281.989 891.651 280.056C890.737 277.095 889.694 271.368 887.554 271.074C885.414 270.78 883.013 275.969 880.038 275.969C879.178 275.882 878.365 275.553 877.708 275.024C877.052 274.495 876.581 273.792 876.359 273.007C876.072 271.441 877.09 269.85 877.064 268.113C877.064 264.662 874.793 263.34 873.175 260.917C872.523 259.963 872.367 258.47 871.819 257.858C870.775 256.463 868.818 255.68 867.487 254.26C866.212 252.866 865.142 251.319 864.303 249.659C863.442 247.652 863.155 245.058 861.824 244.764C860.493 244.471 859.058 246.575 857.727 247.065C855.726 247.684 853.662 248.11 851.569 248.338C847.028 248.705 843.323 247.334 843.74 253.477C843.036 256.243 840.453 256.267 838.73 257.564C836.564 259.229 834.973 262.581 832.598 265.249C831.45 266.571 829.78 267.378 828.736 268.578C827.692 269.777 827.614 271.221 826.701 272.175C824.274 274.77 820.62 274.99 818.872 278.587C818.872 282.846 820.646 286.077 820.229 290.115C820.02 291.95 818.794 293.59 818.637 295.499C818.81 297.199 818.888 298.906 818.872 300.614C818.663 301.544 817.75 302.034 817.045 303.184C816.341 304.334 816.158 305.631 815.689 306.268C814.906 307.369 813.653 308.128 812.949 309.082C811.8 310.624 811.539 311.725 810.339 311.897C805.355 312.704 804.129 302.107 801.937 297.555C800.919 295.499 798.857 293.639 797.84 291.143C796.822 288.646 796.3 284.657 794.656 281.353C793.003 278.629 791.555 275.799 790.324 272.885C789.515 270.438 788.811 267.403 788.054 264.686C787.178 261.845 786.567 258.938 786.227 255.998C786.045 252.67 786.802 250.614 784.401 249.317C782.235 249.904 781.243 252.4 778.738 252.4C776.233 252.4 769.788 247.652 771.693 243.418C770.101 240.971 766.108 239.502 763.055 236.517C761.307 234.803 759.715 230.716 756.688 230.374C755.757 230.448 754.838 230.62 753.948 230.888C752.017 231.059 748.729 230.692 746.433 230.888C743.282 231.412 740.075 231.577 736.882 231.377C734.664 231.108 731.898 230.618 729.628 230.374C726.576 230.25 723.637 229.26 721.199 227.535C720.207 226.507 719.79 223.129 718.016 222.64C716.241 222.15 714.754 223.913 712.797 224.426C708.621 225.503 705.151 223.448 702.359 221.343C700.349 219.85 698.549 219.067 697.14 218.014C693.669 215.396 693.043 207.564 687.798 207.515C686.655 207.493 685.538 207.834 684.628 208.483C683.719 209.131 683.07 210.05 682.787 211.088C683.173 213.213 684.065 215.23 685.397 216.986C688.006 221.049 692.651 222.566 694.06 228C695 228.416 696.905 227.07 697.922 228.269C698.784 230.594 697.922 234.926 699.958 235.954C709.404 237.716 712.118 231.867 716.345 227.755C718.798 229.566 717.989 231.132 718.824 233.139C719.502 234.984 720.876 236.534 722.686 237.496C723.835 237.985 725.296 237.496 727.018 238.254C729.496 240.086 731.451 242.466 732.707 245.18C731.9 248.007 730.595 250.687 728.845 253.11C727.932 254.383 726.549 255.044 726.105 256.194C725.661 257.344 725.896 258.959 725.661 259.522C725.244 260.55 723.182 261.97 722.008 263.12C720.781 264.289 719.492 265.4 718.146 266.448C716.711 267.672 715.824 269.385 714.284 270.022C711.257 271.294 708.387 270.756 705.881 272.469C704.237 273.668 704.237 276.385 702.228 277.853C700.219 279.322 696.618 279.371 693.591 280.937C691.66 281.916 690.485 283.849 688.815 284.51C688.137 284.779 687.276 284.51 686.545 284.779C685.032 285.195 683.649 286.419 682.213 286.811C680.778 287.202 679.917 286.982 678.821 287.325C675.298 288.475 672.089 292.489 668.592 290.139C666.922 285.832 666.661 280.35 664.704 276.556C663.738 274.623 661.781 274.109 661.077 271.955C661.077 270.315 662.747 270.756 662.903 269.508C662.303 266.742 660.007 265.469 658.571 263.12C657.893 261.97 657.554 260.33 656.771 259.008C654.161 254.578 648.708 252.253 647.664 246.771C647.377 245.254 647.664 244.079 647.429 242.904C646.933 240.978 646.047 239.158 644.819 237.545C643.932 236.394 642.21 235.636 641.166 233.947C640.514 232.846 640.357 231.279 639.809 230.104C637.579 225.547 634.495 221.402 630.702 217.867C628.849 218.186 626.866 218.333 625.953 219.679C626.862 222.796 628.158 225.802 629.815 228.636C631.493 231.251 632.934 233.993 634.121 236.835C634.486 237.912 634.408 239.282 634.799 240.433C636.234 244.495 640.723 245.743 641.636 250.418C642.236 253.575 641.505 255.729 642.314 258.886C643.123 262.043 647.037 263.781 648.681 266.571C650.012 269.018 650.012 272.273 650.952 274.5C652.309 277.804 656.171 279.224 658.911 281.426C661.2 283.682 663.327 286.077 665.278 288.597C666.478 289.845 668.174 290.066 668.461 291.412C668.853 293.15 667.809 293.737 667.548 295.254C669.296 297.31 670.993 301.104 673.915 301.422C675.116 301.422 676.525 300.174 678.456 299.88C679.395 299.733 680.413 300.027 681.196 299.88C682.396 299.635 683.466 298.411 684.823 298.093C687.145 297.53 689.859 297.751 692.782 297.31C695.704 296.87 697.479 294.251 699.619 295.01C701.941 297.897 700.271 301.177 699.619 303.967C699.384 304.97 699.384 305.974 699.175 306.806C697.922 311.358 694.713 314.736 693.251 318.847C692.782 320.095 692.86 321.637 692.338 322.934C690.243 327.091 687.567 330.968 684.379 334.462C683.001 336.276 681.484 337.994 679.839 339.601C678.195 341.094 676.212 342.049 674.359 343.444C670.479 346.737 667.115 350.527 664.365 354.702C663.373 356.243 662.903 358.03 661.755 359.327C660.268 361.187 657.997 362.117 656.771 363.928C655.703 366.097 654.788 368.329 654.031 370.61C652.778 373.522 650.169 375.504 650.612 379.567C650.795 381.109 652.022 382.015 652.439 383.679C652.906 386.311 652.827 389.004 652.204 391.608C653.483 395.133 654.422 398.951 656.771 401.398C657.032 406.586 656.379 411.604 656.771 416.082C657.006 418.872 657.971 420.977 656.98 423.425C655.537 426.364 653.447 428.983 650.847 431.109C648.708 432.676 645.42 433.092 643.019 434.976C641.401 436.273 640.07 438.574 638.452 440.091C635.843 442.539 632.111 444.986 631.876 447.434C632.087 449.187 632.543 450.907 633.233 452.549C634.514 456.896 634.595 461.478 633.468 465.862C631.824 470.292 623.474 469.387 622.534 474.061C622.273 475.481 623.109 476.631 623.004 478.173C622.496 480.682 621.736 483.14 620.734 485.515C619.716 487.644 617.446 488.599 615.959 490.41C614.106 492.686 613.14 495.99 611.183 498.364C608.241 501.798 604.965 504.969 601.398 507.835C597.644 510.775 593.071 512.643 588.22 513.22C585.454 513.44 582.479 512.485 579.582 512.975C578.512 513.146 577.338 514.247 575.929 514.517C575.12 514.664 574.285 514.345 573.32 514.517C571.91 514.786 570.554 516.059 569.249 516.034C566.3 516.034 562.516 512.045 562.412 508.105C562.412 506.587 563.56 505.143 563.56 503.748C563.56 502.353 561.76 500.053 560.377 497.091C558.994 494.13 558.524 490.973 557.193 488.623C555.862 486.274 553.905 484.952 552.861 482.994C550.774 479.054 550.617 474.379 549.912 469.656C549.678 468.114 548.738 466.45 548.529 464.541C548.583 462.23 548.514 459.919 548.321 457.615C547.534 455.924 546.618 454.288 545.581 452.72C543.989 449.391 542.971 445.06 541.484 442.49C539.996 439.92 537.622 437.595 537.413 434.805C537.364 432.399 537.512 429.994 537.857 427.61C538.091 425.823 539.292 424.403 539.683 422.495C539.944 421.246 539.683 419.778 539.892 418.407C541.066 412.534 546.781 410.404 546.05 403.282C545.711 400.248 543.832 398.755 543.441 395.328C543.31 393.713 544.146 392.318 544.119 390.727C543.62 388.177 542.742 385.706 541.51 383.385C539.214 377.732 537.804 372.568 534.464 368.26C532.664 365.935 530.263 364.271 528.776 362.117C527.46 360.164 526.573 357.984 526.166 355.705C526.166 354.261 527.158 353.258 527.523 351.863C527.993 349.978 528.019 346.405 528.645 343.419C529.623 341.253 530.282 338.972 530.602 336.64C530.278 335.185 529.623 333.814 528.682 332.618C527.74 331.423 526.535 330.432 525.148 329.714C521.965 328.833 518.703 330.864 514.711 330.497C511.136 327.903 511.396 321.441 506.412 320.634ZM632.163 412.362C633.207 410.478 634.538 405.191 632.163 403.919H631.694C630.676 406.048 629.606 411.163 632.163 412.362ZM628.98 358.813C629.737 357.027 631.589 355.167 631.25 352.915C630.598 348.02 622.404 350.468 621.465 353.943C620.838 356.39 621.856 358.201 621.021 360.6C621.908 362.509 624.152 362.876 626.918 362.656C628.458 361.897 628.275 360.428 628.98 358.813ZM615.097 385.221C616.011 383.336 613.662 382.088 613.297 380.081C612.827 377.634 613.793 374.942 611.914 373.669H611.235C609.591 377.878 611.914 384.805 615.097 385.221ZM770.179 130.691C769.318 128.758 766.865 131.254 767.909 132.992C769.448 133.187 769.996 132.184 770.179 130.765V130.691ZM717.207 141.19C720.886 140.383 717.207 133.848 714.467 134.534C710.839 135.635 714.675 141.802 717.207 141.264V141.19ZM700.375 174.255C701.497 165.371 695.365 164.685 694.243 158.347C694.765 158.347 694.478 157.613 694.922 157.588C696.409 156.78 698.679 158.885 699.462 156.829C699.448 156.082 699.231 155.35 698.832 154.702C698.432 154.055 697.864 153.514 697.18 153.129C696.496 152.745 695.719 152.53 694.922 152.505C694.125 152.48 693.335 152.646 692.625 152.987C691.66 152.228 691.529 150.54 691.268 148.875C688.659 147.162 682.318 143.369 682.396 139.918C682.396 137.054 685.736 135.464 689.468 135.561C691.033 134.215 690.016 130.104 688.554 129.149C686.394 128.377 684.041 128.208 681.781 128.664C679.521 129.12 677.45 130.181 675.82 131.719C674.02 133.163 672.036 134.166 671.045 135.048C669.889 136.155 669.164 137.594 668.983 139.135C669.14 140.725 671.149 141.582 671.958 143.76C672.35 144.837 672.271 146.208 672.637 147.089C673.628 149.536 676.159 151.151 678.09 153.232C679.447 154.7 683.309 157.882 683.309 159.644C683.309 161.406 682.161 161.43 681.744 162.972C681.185 165.067 680.947 167.227 681.039 169.385C681.561 172.199 684.144 172.297 686.493 173.472C688.841 174.646 691.112 176.751 693.539 176.8C694.801 176.878 696.067 176.698 697.247 176.271C698.428 175.844 699.495 175.181 700.375 174.328V174.255ZM646.933 155.801C653.091 154.553 650.273 148.68 647.168 146.575C644.793 144.984 641.949 143.589 639.209 141.68C637.591 140.579 631.511 138.498 631.381 136.296C631.25 134.093 635.895 133.114 633.99 128.953C630.885 128.121 623.552 129.467 623.996 133.31C624.283 135.561 626.605 134.313 627.179 136.663C624.935 137.544 622.221 139.893 619.899 139.477C617.107 138.988 616.402 135.121 614.889 132.82C612.723 132.82 611.314 130.373 608.756 130.765C606.199 131.156 604.659 135.464 603.303 137.691C602.572 138.841 601.424 139.453 601.032 140.505C600.797 141.142 601.032 142.145 600.797 142.953C600.015 145.816 597.823 146.844 598.057 149.365C598.292 151.886 600.406 152.571 600.667 154.48C600.928 156.389 597.718 155.434 598.057 157.833C602.128 161.602 602.337 156.046 604.425 155.385C606.095 154.749 609.357 155.899 611.47 155.385C613.166 154.969 614.523 153.134 616.454 152.302C617.82 151.716 619.288 151.368 620.786 151.274C628.014 150.931 632.685 156.169 639.052 156.413C641.692 156.471 644.331 156.29 646.933 155.875V155.801ZM632.372 186.1C632.503 183.359 631.459 181.205 631.25 177.387C627.049 174.549 623.917 180.055 619.638 179.443C617.028 179.076 615.15 175.625 612.384 176.115C610.844 176.384 610.087 178.562 608.495 178.929C605.26 179.615 603.772 175.992 600.328 177.387C595.448 173.227 593.282 166.399 592.134 158.689C589.524 154.774 585.428 157.955 583.497 160.476C582.296 160.476 580.887 159.742 580.548 161.259C579.661 165.983 586.497 166.497 586.445 169.703C586.445 171.807 583.836 171.612 582.583 173.031C581.331 174.451 582.166 175.919 580.548 176.874C576.06 177.485 574.572 174.72 574.624 170.217C572.693 166.913 570.24 164.49 568.492 161.773C567.606 160.526 566.986 159.13 566.665 157.661C566.509 156.462 567.187 154.945 566.9 153.574C566.404 151.127 562.36 149.267 559.855 147.921C557.015 146.691 554.343 145.146 551.896 143.32C550.539 142.047 549.912 139.82 548.712 138.963C547.512 138.107 546.442 138.4 545.529 137.691C544.615 136.981 544.485 135.047 542.789 134.607C541.954 134.24 540.623 135.561 540.179 136.394C539.057 141.998 543.102 142.365 544.954 144.862C546.207 146.55 546.833 149.12 548.138 150.246C549.443 151.372 551.374 151.2 553.122 152.032C554.349 152.595 555.131 154.309 556.306 155.092C558.472 156.585 561.968 156.854 562.229 159.717C560.872 160.745 557.819 158.2 556.775 160.745C556.514 162.409 557.95 163.193 557.898 164.832C557.898 167.28 555.288 170.119 553.122 169.727C552.913 168.234 554.323 167.011 554.27 165.371C554.27 162.116 548.347 157.148 545.398 155.581C544.015 154.896 542.345 154.847 541.066 154.064C538.215 152.119 535.69 149.784 533.577 147.138C531.959 144.69 530.55 140.212 526.975 140.481C525.514 140.481 524.366 142.072 523.113 142.781C521.925 143.393 520.783 144.08 519.695 144.837C518.39 145.816 517.294 146.82 516.067 146.868C513.223 147.015 510.848 144.421 508.239 145.082C507.404 145.278 506.725 146.11 505.629 147.138C505.629 148.631 506.021 149.585 505.864 151.225C505.108 152.669 502.916 152.595 501.298 153.55C498.878 155.4 496.737 157.549 494.931 159.938C493.76 160.919 492.864 162.154 492.321 163.535C492.321 164.392 492.973 165.983 492.791 167.133C492.037 169.023 490.79 170.706 489.164 172.028C488.355 172.664 487.285 172.737 486.554 173.325C484.754 174.524 483.945 176.066 482.457 176.384C478.491 177.216 471.263 175.503 471.315 180.226C471.315 183.408 475.151 183.433 477.473 183.31C480.683 183.163 483.397 184.069 485.302 183.579C486.528 183.212 487.911 181.67 489.164 181.132C489.973 180.716 490.808 180.716 491.434 180.349C492.791 179.59 493.574 178.342 494.617 177.901C497.199 176.769 499.972 176.073 502.811 175.846C505.864 175.65 509.074 176.188 513.041 175.846C514.45 175.846 515.833 174.695 517.346 174.573C519.956 174.353 523.087 175.674 525.175 175.601C526.558 175.601 528.097 174.035 529.715 174.059C530.615 174.108 531.48 174.399 532.207 174.898C532.934 175.398 533.491 176.084 533.812 176.874C533.995 177.632 533.421 178.831 533.577 179.957C533.838 181.817 535.247 182.576 535.169 183.8C535.038 185.391 531.516 187.544 531.985 189.429C532.298 190.652 534.856 191.876 536.082 192.757C537.558 193.836 539.255 194.619 541.066 195.058C542.371 195.229 543.493 194.666 544.72 194.813C547.02 195.213 549.196 196.091 551.087 197.383C553.227 199.071 552.913 201.788 555.419 202.743C556.462 203.159 558.367 202.938 559.724 203.257C563.038 204.064 565.491 207.172 567.918 206.854C571.728 206.34 569.979 202.302 570.527 199.512C571.493 192.977 582.844 193.271 585.062 197.725C586.745 197.898 588.417 198.151 590.073 198.484C591.168 198.9 591.977 200.246 593.021 200.54C594.012 200.589 595.005 200.589 595.996 200.54C600.354 201.103 604.294 204.749 608.026 204.138C610.427 203.722 612.149 201.225 614.393 201.054C618.751 200.76 621.543 204.7 626.24 202.84C629.684 201.47 628.849 197.456 630.102 193.369C630.702 190.187 632.372 188.254 632.372 186.1ZM817.933 9.8875C816.053 9.9856 814.275 10.7154 812.922 11.9433C812.061 12.4573 810.313 12.7265 810.887 14.2439C813.053 13.8768 817.411 12.751 817.933 9.81408V9.8875ZM721.982 41.41C727.331 42.805 729.81 36.0013 726.288 32.1833C725.453 31.2778 722.686 30.9351 721.512 28.8549C720.129 26.4075 720.312 23.0055 716.972 23.7398C716.972 24.0335 716.972 24.4495 716.737 24.4985C716.424 30.103 723.678 31.498 723.574 36.0257C723.522 38.3263 721.277 38.571 721.982 41.3366V41.41Z" fill="#E04048" fill-opacity="0.13"/>
<path d="M647.168 31.5959C646.49 28.8304 651.161 29.1486 650.352 31.8652C650.128 32.0519 649.866 32.1937 649.581 32.2817C649.297 32.3697 648.996 32.402 648.698 32.3768C648.399 32.3516 648.11 32.2693 647.847 32.135C647.583 32.0007 647.353 31.8172 647.168 31.5959Z" fill="#E04048" fill-opacity="0.13"/>
<path d="M619.325 184.901C619.325 182.772 623.709 182.013 624.544 183.873C624.152 185.856 620.082 187.348 619.325 184.901Z" fill="#E04048" fill-opacity="0.13"/>
<path d="M541.197 171C543.571 168.822 548.843 170.29 552.131 170.217C551.504 172.175 551.426 174.72 550.069 175.846C546.259 175.111 542.867 174.059 541.197 171Z" fill="#E04048" fill-opacity="0.13"/>
<path d="M524.601 157.417C527.732 153.746 530.994 155.679 529.819 162.777C529.063 164.906 525.801 167.671 524.34 164.588C524.72 162.215 524.807 159.809 524.601 157.417Z" fill="#E04048" fill-opacity="0.13"/>
<path d="M529.141 149.218C529.327 149.934 529.275 150.687 528.99 151.374C528.705 152.061 528.202 152.65 527.549 153.06C524.574 152.449 526.845 146.403 529.141 149.218Z" fill="#E04048" fill-opacity="0.13"/>
<path d="M485.041 97.1862C485.104 96.3984 484.95 95.6085 484.594 94.8927C484.237 94.1768 483.69 93.5591 483.005 93.0991C482.249 92.6096 481.1 92.8299 480.396 92.3159C478.178 90.9454 477.369 88.0819 476.09 87.4211C476.247 84.6311 475.386 82.5263 476.09 80.7642C477.285 78.7643 478.999 77.0804 481.074 75.8694C483.058 75.0862 485.145 75.8694 486.293 74.0828C486.488 74.0439 486.689 74.0456 486.883 74.0879C487.077 74.1302 487.259 74.212 487.415 74.3275C487.415 75.9428 486.215 76.212 486.058 77.6805C486.345 80.0055 489.973 78.5371 490.364 80.7397C490.025 83.1871 488.12 83.6032 488.094 85.3653C488.068 87.1274 490.86 89.7706 492.191 91.753C493.182 93.2459 494.8 94.3472 495.844 95.8646C496.888 97.382 496.783 98.777 497.436 99.4378C498.61 100.735 501.324 100.931 501.507 102.791C501.794 105.238 498.897 106.193 499.236 108.934C496.131 111.699 490.912 110.255 485.824 110.99C483.527 111.308 480.996 113.902 478.543 111.748C477.995 110.035 480.578 109.79 480.813 108.175C480.657 106.658 478.935 106.853 478.543 105.728C479.222 103.721 481.283 103.28 481.153 100.343C482.223 98.7036 484.649 99.2421 485.041 97.1862Z" fill="#E04048" fill-opacity="0.13"/>
<path d="M467.975 91.0433C471.002 88.9385 476.299 90.5538 476.612 93.0991C476.821 95.0081 474.994 95.3018 474.316 97.4555C473.637 99.6092 474.446 101.738 473.637 103.084C472.828 104.431 471.028 104.186 469.775 104.626C466.931 105.581 461.399 109.374 459.102 105.14C459.416 102.864 461.373 102.399 462.051 100.515C462.051 99.0463 460.694 98.2631 460.903 96.6723C461.112 95.0815 462.469 95.4241 464.321 94.6409C465.678 94.0536 466.252 92.2425 467.975 91.0433Z" fill="#E04048" fill-opacity="0.13"/>
<path d="M312.684 35.4383C313.154 37.7144 306.709 40.7002 306.082 37.7389C305.586 35.3894 311.04 32.4525 312.684 35.4383Z" fill="#E04048" fill-opacity="0.13"/>
<path d="M305.169 613H301.777C302.864 612.584 304.082 612.584 305.169 613Z" fill="#E04048" fill-opacity="0.13"/>
<path d="M294.94 17.2542C295.03 17.1676 295.137 17.0988 295.256 17.0518C295.375 17.0048 295.502 16.9806 295.631 16.9806C295.76 16.9806 295.888 17.0048 296.007 17.0518C296.125 17.0988 296.233 17.1676 296.323 17.2542C296.088 17.8415 295.905 18.5023 294.94 18.2821V17.2542Z" fill="#E04048" fill-opacity="0.13"/>
<path d="M274.716 57.9789C274.716 59.3984 270.202 61.7234 269.706 59.0068C269.649 58.6224 269.704 58.2308 269.865 57.8732C270.025 57.5156 270.286 57.2055 270.619 56.9754C271.82 56.1189 274.664 56.6083 274.716 57.9789Z" fill="#E04048" fill-opacity="0.13"/>
<path d="M180.122 296.037C180.122 296.405 179.783 296.674 179.679 297.065C177.252 296.967 179.418 293.492 180.122 296.037Z" fill="#E04048" fill-opacity="0.13"/>
<path d="M87.7988 116.912C89.3906 115.884 90.9302 118.503 89.8603 119.751C88.0859 120.118 87.6423 117.867 87.7988 116.912Z" fill="#E04048" fill-opacity="0.13"/>
<path d="M335.648 126.408C334.578 126.115 333.038 126.163 331.786 125.894C330.533 125.625 329.176 125.258 328.159 125.111C325.34 124.744 322.313 125.674 320.643 123.838C323.512 119.716 326.788 115.857 330.429 112.311C331.446 111.259 333.691 110.549 333.038 108.469C331.107 106.56 328.733 108.469 326.906 109.741C325.034 111.229 322.872 112.359 320.539 113.07C316.781 113.706 311.797 111.846 308.718 114.098C308.3 116.031 312.215 115.297 311.667 118.209C310.974 118.453 310.223 118.508 309.498 118.369C308.774 118.231 308.105 117.904 307.57 117.426C306.526 116.349 307.126 114.759 306.448 114.098C304.123 113.015 301.49 112.655 298.932 113.07C297.749 113.233 296.651 113.742 295.794 114.524C294.936 115.306 294.364 116.321 294.157 117.426C297.027 118.944 301.751 115.884 302.794 119.751C301.229 122.933 297.575 124.646 298.019 128.953C298.163 129.827 298.526 130.656 299.08 131.371C299.634 132.086 300.361 132.667 301.203 133.065C302.481 133.31 303.186 131.915 304.386 132.037C305.586 132.16 305.378 133.824 306.996 133.579C309.188 132.527 310.388 129.051 312.919 129.223C315.92 133.334 310.31 135.341 306.996 136.565C303.368 138.033 298.619 138.841 295.853 140.138C294.392 140.823 288.912 146.82 288.025 142.194C287.477 138.841 290.634 139.747 291.443 137.054C287.92 136.296 284.632 138.768 281.423 140.138C276.856 142.096 269.106 143.32 268.01 149.12C267.801 150.27 268.453 152.449 267.775 153.207C267.097 153.966 263.991 153.941 262.556 154.48C260.364 155.336 258.459 157.148 257.102 157.564C255.745 157.98 254.493 157.784 253.919 158.078C252.118 158.861 251.44 161.626 249.378 163.462C248.517 164.221 246.769 164.759 245.96 165.518C244.785 166.839 244.629 170.143 242.541 170.633C241.237 170.633 240.141 169.507 238.914 170.388C238.758 173.643 239.932 178.097 238.679 181.401C235.864 183.791 232.825 185.937 229.598 187.813C227.667 189.013 225.971 189.331 223.675 190.628C222.031 191.533 220.543 193.736 218.665 194.984C214.333 197.848 209.088 201.274 209.114 208.567C209.114 210.134 209.844 211.847 210.027 213.682C210.027 214.759 210.027 215.836 210.027 217.011C210.288 219.703 212.01 223.105 210.027 224.965C206.974 223.545 203.086 223.056 200.946 220.609C200.346 218.161 202.12 215.983 201.859 213.682C201.625 211.822 199.25 208.543 197.971 208.298C196.693 208.053 195.362 209.718 193.901 209.571C192.439 209.424 190.613 206.805 188.421 206.512C185.237 206.096 182.862 207.319 179.34 206.756C175.895 208.837 174.903 212.508 170.702 212.141C169.215 212.141 167.858 210.746 166.162 210.354C164.023 209.723 161.801 209.377 159.56 209.326C155.672 209.62 152.879 212.752 149.539 214.71C146.617 216.424 142.468 218.577 141.58 222.053C141.111 223.961 141.58 226.678 140.902 228.44C140.371 229.586 139.761 230.698 139.075 231.769C135.871 237.892 134.952 244.847 136.466 251.519C137.46 254.522 138.753 257.431 140.328 260.207C142.039 262.138 144.391 263.474 147.008 264.001C148.791 263.753 150.541 263.326 152.227 262.728C154.223 262.508 156.202 262.165 158.151 261.7C163.056 259.914 162.091 252.425 166.997 249.904C169.653 248.82 172.53 248.294 175.425 248.362C176.031 249.034 176.484 249.815 176.758 250.656C177.031 251.498 177.12 252.382 177.017 253.257C176.516 254.747 175.905 256.202 175.191 257.613C174.669 259.253 174.564 261.162 174.068 262.508C173.39 264.246 171.876 265.494 171.459 267.134C171.12 268.186 171.302 269.581 171.015 270.462C170.493 272.151 168.406 273.326 169.424 275.063C174.277 277.241 180.175 274.451 184.428 275.332C185.849 275.714 187.121 276.474 188.09 277.521C189.058 278.569 189.681 279.857 189.882 281.231C189.882 283.556 188.29 285.073 188.055 287.618C187.794 290.849 186.594 294.765 186.463 297.408C186.255 301.666 191.996 309.009 196.014 308.935C200.033 308.862 202.851 304.04 208.07 306.635C209.792 307.467 211.619 310.624 213.524 310.477C215.429 310.33 217.49 307.246 218.534 305.093C219.813 302.474 219.891 300.198 222.161 298.95C224.431 297.702 226.545 298.216 229.677 296.894C231.079 296.2 232.377 295.336 233.539 294.324C234.635 293.492 235.809 291.241 237.166 292.807C238.992 294.838 234.948 295.988 236.487 298.191C239.645 300.051 241.263 294.667 243.533 294.593C245.206 295.188 246.753 296.058 248.099 297.163C249.874 298.46 250.474 300.32 252.405 300.736C253.658 301.03 255.667 300.198 257.415 300.492C259.738 300.859 261.121 303.11 262.869 302.939C265.009 302.939 266.027 300.247 267.879 299.88C271.898 299.048 273.385 300.369 275.134 303.208C277.117 303.6 277.195 300.614 279.022 301.666C278.03 303.894 279.361 304.921 280.144 306.806C280.666 308.005 280.588 308.837 281.057 309.253C282.153 310.428 284.241 310.428 285.833 311.554C287.589 313.345 289.113 315.325 290.373 317.452C292.194 320.083 294.979 321.998 298.202 322.836C300.811 323.008 302.742 322.029 304.804 322.322C309.501 322.983 312.423 325.627 315.711 328.49C317.564 330.081 319.208 331.182 319.808 333.091C320.226 334.413 320.017 336.199 320.487 337.692C321.504 340.898 325.706 342.44 324.14 347.947C324.818 349.562 326.358 350.149 328.002 351.275C329.646 352.401 330.429 354.09 331.864 354.359C332.777 354.53 333.795 354.041 334.473 354.09C336.809 354.473 339.048 355.262 341.075 356.415C342.495 356.794 343.868 357.31 345.172 357.957C346.321 358.838 346.477 361.775 347.912 362.558C348.826 363.072 350.913 362.362 352.453 362.558C354.88 362.876 358.194 364.565 360.281 364.614C361.612 364.614 362.734 364.002 363.908 364.1C369.493 364.589 372.65 372.078 378.026 374.354C379.67 375.04 382.331 374.55 383.48 375.113C385.489 376.092 387.185 383.042 387.342 386.126C387.785 395.426 381.444 398.363 377.791 404.58C377.034 405.877 376.591 407.908 375.521 409.695C373.329 413.317 370.902 414.076 371.189 420.732C371.189 422.543 372.102 424.33 372.102 426.361C372.133 429.027 371.906 431.689 371.424 434.316C371.032 436.004 369.806 437.375 369.597 438.917C369.388 440.458 370.015 441.682 369.832 443.028C369.186 444.989 368.311 446.877 367.223 448.657C365.109 453.038 364.613 458.178 360.412 459.915C357.802 460.968 354.514 460.38 351.774 461.457C350.652 461.898 349.165 463.048 347.886 463.758C343.946 465.838 338.309 468.653 337.213 473.254C336.248 477.341 338.57 480.596 337.892 485.295C337.075 486.799 336.16 488.253 335.152 489.651C334.186 491.095 333.691 492.808 332.542 494.277C331.186 496.186 329.072 497.042 328.237 499.637C327.95 500.518 328.237 501.57 327.793 502.965C327.793 503.503 326.802 504.287 326.41 505.29C326.019 506.294 326.071 507.346 325.732 508.105C324.688 510.552 321.609 515.838 319.365 516.573C314.641 518.041 309.657 514.297 306.317 515.006C306.787 517.576 308.457 517.307 309.527 519.118C310.034 520.356 310.636 521.558 311.327 522.716C312.345 524.037 313.258 524.527 313.389 526.044C313.403 527.425 313.106 528.793 312.517 530.058C311.928 531.324 311.06 532.458 309.97 533.386C307.928 534.457 305.688 535.155 303.368 535.442C301.698 535.76 297.34 535.785 296.558 536.984C295.383 538.77 297.158 543.151 296.323 544.938C294.627 548.682 290.06 544.816 287.685 545.941C287.521 546.836 287.602 547.754 287.922 548.611C288.242 549.467 288.789 550.233 289.512 550.836C290.921 551.791 293.113 550.567 294.053 552.378C293.583 554.825 291.156 555.266 290.634 557.762C290.634 560.21 291.365 560.846 291.104 562.363C290.504 565.667 285.885 565.521 286.094 569.045C286.276 574.282 295.018 572.129 295.201 577.244C295.201 580.327 292.591 580.376 291.782 583.387C291.286 585.002 292.069 585.369 291.782 586.715C291.391 588.526 289.512 589.162 289.512 591.071C289.512 593.519 292.696 596.211 294.287 598.242C295.831 600.555 297.74 602.635 299.95 604.41C303.16 606.392 307.909 605.927 309.292 609.525C308.848 611.679 306.996 612.241 305.195 612.853H304.725C303.638 612.437 302.42 612.437 301.333 612.853H298.149C295.096 611.262 291.417 610.235 287.711 608.742C286.355 608.203 284.841 606.931 283.38 606.294C281.918 605.658 281.057 605.511 280.196 604.997C278.239 603.847 276.047 600.102 274.064 598.609C272.864 597.704 270.985 597.214 270.202 596.284C269.517 595.036 268.907 593.754 268.375 592.442C267.645 591.267 266.288 590.411 265.427 589.114C263.548 586.299 261.121 582.481 261.095 580.401C261.069 578.32 262.843 576.95 262.243 575.041C261.643 573.132 258.198 573.621 257.702 571.443C257.389 570.122 258.694 567.919 258.59 566.059C258.59 564.982 256.763 563.612 257.468 561.947C258.172 560.283 259.816 562.094 261.095 561.189C260.155 557.493 261.095 551.546 257.911 550.42C256.241 552.011 259.633 555.609 256.789 556.588C254.023 555.193 254.675 551.13 254.18 548.12C253.562 546.19 253.108 544.218 252.823 542.221C252.823 541.12 253.214 539.774 253.058 538.648C252.562 535.197 249.169 532.358 248.961 528.859C249.197 527.202 249.572 525.565 250.083 523.964C250.265 522.765 250.083 521.516 250.083 520.121C250.083 518.726 251.1 516.989 251.231 515.52C251.446 512.178 251.297 508.824 250.787 505.51C250.213 502.549 248.178 500.028 247.812 496.798C247.812 495.647 248.152 493.689 248.047 492.197C247.943 490.704 247.264 489.431 247.134 487.84C247.189 486.291 247.345 484.746 247.604 483.215C247.839 480.008 247.03 476.411 247.134 473.229C247.134 472.275 247.604 471.589 247.604 470.659C247.604 468.016 246.795 465.349 246.69 462.73C246.876 458.454 246.798 454.172 246.456 449.905C246.109 446.258 245.348 442.657 244.185 439.161C241.94 436.04 239.09 433.342 235.783 431.207C234.191 430.204 232.286 429.861 230.564 428.907C226.858 426.851 219.682 422.519 218.064 418.407C217.595 417.208 217.647 415.617 217.151 414.296C215.829 411.749 214.311 409.295 212.611 406.954C209.792 402.059 207.522 396.063 204.782 391.07C203.508 388.538 202.061 386.085 200.45 383.728C199.511 382.529 196.51 381.28 196.145 379.616C195.623 377.169 194.057 373.987 194.318 372.274C194.631 369.827 198.859 367.844 198.859 365.617C198.859 363.39 196.614 362.631 196.249 361.016C195.101 357.1 196.901 354.799 198.284 351.52C198.728 350.468 199.172 348.73 199.641 347.947C200.476 346.527 202.251 346.136 203.295 344.618C203.895 343.762 204.286 341.975 205.095 340.776C206.844 338.182 209.636 337.203 210.314 334.878C211.041 330.011 211.111 325.077 210.523 320.193C209.75 318.446 208.879 316.739 207.913 315.078C206.87 311.97 206.635 308.593 203.817 308.666C202.068 308.666 200.842 310.869 199.72 312.239C199.459 314.075 199.72 316.057 197.893 316.596C195.284 317.452 194.318 313.536 191.317 312.508C190.117 312.092 188.186 312.117 187.455 311.725C185.237 310.624 184.532 307.002 182.236 305.582C179.94 304.163 178.635 304.824 177.461 303.012C177.189 301.32 177.111 299.605 177.226 297.897C174.616 296.258 172.633 290.115 169.737 288.671C167.884 287.692 165.014 287.692 162.665 286.811C161.643 286.306 160.578 285.88 159.481 285.538C158.075 285.359 156.698 285.014 155.385 284.51C150.896 282.063 148.469 273.815 142.885 273.986C140.51 273.986 138.214 276.581 136.074 276.434C133.063 275.843 130.201 274.713 127.646 273.105C124.854 271.637 121.774 270.854 119.452 269.508C117.599 268.455 116.321 266.497 114.677 265.665C113.45 265.053 111.623 264.931 110.606 264.393C108.909 263.291 107.296 262.081 105.778 260.77C103.936 259.541 102.636 257.721 102.125 255.655C102.125 253.648 103.769 251.935 103.952 250.002C104.526 243.908 100.533 239.527 98.028 235.905C96.1753 233.237 93.9833 231.01 92.1306 228.563C92.2352 227.365 92.2352 226.162 92.1306 224.965C90.6064 223.014 89.237 220.961 88.0337 218.822C86.6768 216.742 84.0412 214.515 83.702 212.165C83.2844 209.277 84.6936 206.756 83.702 203.966C82.0841 199.316 76.3693 201.519 77.126 207.539C77.3348 209.228 79.4224 211.504 80.0748 213.193C80.7271 214.882 80.5967 217.011 81.1968 219.067C81.797 221.123 83.5454 222.762 84.1717 224.965C85.1372 228.489 85.1111 232.307 85.9983 234.461C86.8855 236.615 89.6516 238.254 88.0337 240.604C85.8678 241.093 85.0589 238.67 83.702 237.275C82.9713 236.492 80.2574 234.999 79.8399 233.164C79.4224 231.328 80.701 229.639 80.3096 227.779C79.5268 224.182 73.0553 224.084 73.0292 220.437C73.0292 217.99 75.6386 217.819 75.6386 215.542C75.6386 213.266 72.6638 210.966 72.0115 208.886C71.4815 206.352 71.176 203.782 71.0981 201.201C71.1199 198.747 70.9718 196.294 70.6545 193.859C69.7723 191.788 68.2673 190.002 66.3228 188.719C64.3396 187.471 62.7478 188.009 61.7823 186.272C60.9202 184.134 60.3844 181.893 60.1905 179.615C59.8513 176.531 60.1905 173.153 59.9556 169.825C59.6554 166.503 59.6554 163.162 59.9556 159.84C61.0777 157.392 63.1392 156.12 64.2874 153.672C65.0702 151.959 65.2007 149.854 66.0879 148.043C67.758 144.69 71.3069 141.607 73.9164 138.254C76.6225 134.874 78.8341 131.17 80.4923 127.24C81.4922 125.218 82.1102 123.049 82.3189 120.828C82.0319 118.381 77.9089 116.325 78.222 113.486C78.4308 111.675 80.8315 111.699 81.4056 109.913C81.8245 108.401 82.0522 106.849 82.0841 105.287C82.0841 102.84 80.962 100.245 81.4056 97.6023C81.797 95.3507 84.7718 94.4452 83.2322 91.9733C81.6926 89.5014 79.0049 93.2949 77.3087 91.7041C75.6125 90.1133 77.6219 88.498 77.7784 85.8303C77.7784 84.7535 77.2304 83.5297 77.3087 82.7466C77.4653 81.5963 79.4485 79.6629 78.9005 78.9042C77.674 77.142 76.291 72.6878 73.6815 71.2193C70.3414 69.3348 66.7403 70.6075 62.0954 69.6775C59.225 69.1146 57.8941 66.1043 55.2586 66.349C53.6407 66.4958 52.6491 68.5761 50.4832 69.6775C48.3173 70.7788 45.2642 70.3872 43.2027 70.9501C41.1413 71.513 39.9931 73.2017 37.7489 73.0059C35.5048 72.8101 35.8701 70.9501 33.652 70.7054C32.3503 70.8892 31.0609 71.1425 29.79 71.4641C25.3323 72.0307 20.808 71.9482 16.3772 71.2193C13.2447 70.3293 10.2588 69.0361 7.50499 67.3769C4.89551 65.9574 -0.323464 64.2198 0.0157686 61.9926C0.146243 60.5487 4.76503 59.0313 6.59167 58.395C9.56648 57.3915 11.3931 55.7518 13.6634 55.5805C14.5245 55.5805 15.6727 56.1923 16.8209 56.0944C17.969 55.9965 19.4303 54.7973 20.9177 54.5526C24.1013 54.0631 28.5896 54.7483 28.1982 51.2241C25.7975 49.0704 15.9597 52.8149 15.6988 48.1648C15.5422 45.3259 19.4303 44.4693 22.3008 43.8085C25.1677 42.9441 28.1403 42.4259 31.1469 42.2666C33.7564 42.4134 37.1748 45.693 38.6622 41.9974C39.3929 39.4031 37.775 37.1026 37.3053 35.0957C39.2363 32.0854 42.7852 32.4525 45.473 32.012C48.488 31.5922 51.4124 30.7248 54.1365 29.4422C56.8608 28.2064 59.7757 27.3805 62.7739 26.9948C65.8531 26.5298 68.854 25.2082 71.6461 24.939C73.8472 24.8924 76.0431 24.7207 78.222 24.425C80.187 23.6411 82.2603 23.122 84.3804 22.8832C85.7895 22.8832 86.9899 24.1314 88.4512 24.425C89.9125 24.7187 91.3477 24.4251 92.783 24.6698C94.2182 24.9145 94.8706 25.7711 95.9665 25.9669C97.6888 26.2606 99.5415 25.6977 101.186 25.9669C102.829 26.2361 104.03 27.2885 105.517 27.4843C109.014 27.9982 113.033 27.2885 116.425 28.0227C117.73 28.2919 118.878 29.0017 120.287 29.2954C121.696 29.5891 123.079 29.2954 124.384 29.5401C126.184 29.9562 127.698 31.9875 129.603 32.1099C133.1 32.526 137.066 30.3967 140.719 30.0541C143.461 30.0861 146.201 29.9143 148.913 29.5401C151.283 28.7578 153.718 28.1602 156.193 27.7535C157.446 27.7535 158.464 28.1696 159.612 28.0227C160.76 27.8759 162.221 26.2361 163.474 26.4809C165.17 26.7746 164.857 29.1975 166.657 29.8094C168.641 28.6346 170.598 29.8094 172.79 29.8094C174.982 29.8094 176.808 28.6101 179.157 29.0262C183.306 29.7604 189.073 34.337 192.204 31.8652C193.039 31.2288 192.831 30.152 193.587 28.5122C194.579 26.3096 196.562 23.6174 196.197 20.5826C191.63 20.5826 187.272 23.1769 182.08 23.3971C176.861 19.7016 183.489 17.401 187.299 15.7123C190.456 14.3173 192.935 11.2091 196.849 10.5973C200.033 10.0588 203.529 11.3804 207.287 11.8699C209.479 12.1636 211.697 11.6986 212.95 12.1146C215.194 12.8733 216.342 15.3697 218.169 15.9571C218.952 16.2263 220.282 16.2018 221.352 16.471C223.388 17.0094 225.214 18.2331 227.25 16.471C228.868 16.8136 229.05 18.7226 230.668 19.0408C232.182 18.1352 233.278 15.7858 235.678 15.1984C236.67 14.9536 237.74 15.3942 238.862 15.1984C240.715 14.8557 243.168 12.0412 244.316 14.6844C243.846 16.5444 241.367 16.8136 239.984 18.2821C238.451 19.8578 237.428 21.8103 237.035 23.9111C237.296 26.3585 240.558 25.404 240.662 28.5122C240.193 30.3233 238.34 29.5156 236.8 30.3233C235.261 31.1309 234.896 32.5504 233.408 32.7707C229.259 33.6517 225.841 31.6204 222.266 31.7672C222.083 33.5049 224.04 34.5328 224.875 35.0957C228.137 37.0047 230.773 36.7355 235.313 36.6131C237.662 36.6131 240.349 37.4208 242.359 35.8544C243.637 34.8755 243.559 32.6973 244.629 31.4981C245.395 30.6758 246.342 30.0199 247.406 29.5761C248.469 29.1323 249.623 28.9113 250.787 28.9283C251.428 29.0972 252.009 29.425 252.468 29.8772C252.927 30.3295 253.248 30.8894 253.397 31.4981C253.397 33.8231 250.474 33.0889 250.448 35.6097C252.379 36.9068 257.468 34.1902 257.728 32.012C257.911 30.4212 256.085 29.5646 256.137 27.9248C256.137 25.2327 259.477 25.2817 259.085 22.5406C257.52 21.1456 255.902 22.8343 254.31 22.5406C252.092 22.1 250.083 19.0897 249.091 17.1563C250.083 15.7613 252.144 16.6913 253.632 16.8871C255.302 14.2928 258.407 13.2649 262.739 12.7999C264.252 12.6286 266.314 11.9433 267.044 13.5586C267.41 16.006 263.861 17.45 264.435 20.2156C267.514 21.0966 268.506 16.4465 271.037 14.5865C272.4 13.7603 273.852 13.0712 275.369 12.5307C276.752 11.9433 278.317 10.4504 279.465 10.4994C280.614 10.5483 280.927 11.6986 282.075 12.286C283.223 12.8733 284.684 11.9188 285.024 13.5586C282.414 18.6981 272.576 15.7613 270.019 20.9008C270.593 24.4006 268.48 27.7535 270.254 30.1275C271.507 31.7917 274.377 30.6659 275.029 32.428C275.917 34.8754 272.263 34.8754 273.203 37.5431C275.63 39.1829 278.422 36.0013 280.718 34.7286C283.014 33.456 286.12 31.7673 286.407 28.5857C285.206 25.9914 280.718 27.9983 280.04 25.2572C280.103 23.3417 280.726 21.4794 281.84 19.8729C283.977 17.7614 286.551 16.0817 289.405 14.937C292.259 13.7923 295.332 13.2066 298.436 13.216C299.585 13.216 300.733 14.097 301.855 14.2439C305.769 14.6844 310.388 12.3349 313.467 14.2439C315.92 12.6041 318.895 14.4642 322.313 13.9747C324.923 15.7368 324.244 19.4813 328.237 21.1455C329.333 21.6105 330.69 21.2924 332.099 21.6595C333.508 22.0266 334.291 23.3482 335.517 24.1069C337.24 24.988 338.544 24.7677 338.91 26.1383C339.275 27.5088 337.683 28.3409 337.787 29.7359C338.779 30.6415 337.944 32.012 338.466 33.3091C339.458 35.7565 341.937 35.5118 344.363 36.6376C346.112 37.4452 349.765 39.8926 349.582 41.7771C349.582 43.0498 346.138 45.2769 345.042 45.8643C343.256 47.0335 341.244 47.8648 339.118 48.3117C336.979 47.9446 336.144 43.0498 333.221 43.1721C332.843 43.1681 332.468 43.2413 332.123 43.3866C331.778 43.5318 331.47 43.7457 331.222 44.0135C330.974 44.2812 330.791 44.5963 330.685 44.937C330.58 45.2777 330.555 45.6359 330.611 45.9867C330.611 49.3641 333.952 49.4864 334.004 52.3988C334.004 55.8741 332.334 56.1189 329.698 58.2971C327.905 57.1708 325.892 56.3889 323.775 55.9965C322.339 57.93 326.175 58.6397 324.923 61.1116C321.269 61.9926 318.477 59.9613 315.137 58.811C314.093 58.4439 312.528 58.5908 311.745 58.0523C310.44 57.1957 310.075 54.6994 309.135 53.4267C307.807 51.5871 305.766 50.3053 303.447 49.8536C300.628 49.8536 296.584 53.7938 294.366 50.0983C295.905 44.2245 303.186 48.5809 307.987 46.5006C309.788 45.7419 310.414 43.6127 311.875 42.6582C314.798 40.7737 319.704 40.5045 319.13 36.76C318.921 34.8999 316.52 34.9244 315.268 33.9455C313.493 32.6483 312.136 28.0227 309.605 27.8025C308.274 27.6801 307.335 28.9283 305.952 29.0751C303.003 29.3933 299.741 27.7535 297.08 29.0751C295.853 29.8828 296.688 31.1554 295.723 32.6728C294.757 34.1902 293.113 34.2636 292.304 35.4873C291.495 36.711 291.626 38.7179 290.478 39.8437C288.625 41.7037 284.685 41.9974 282.31 42.9274C281.24 43.319 279.909 44.714 278.891 44.714C277.013 44.714 276.282 41.875 274.116 42.9274C273.933 45.6685 276.726 46.7698 278.448 48.0425C280.535 49.2164 282.136 51.0197 282.988 53.1575C281.136 57.5873 278.187 52.9373 275.16 52.9128C272.133 52.8883 267.331 59.8389 264.461 54.1854C265.139 51.1996 268.062 50.7346 268.793 47.7977C265.583 48.4096 262.765 51.4444 259.007 52.3988C257.415 52.7904 255.876 52.6925 254.467 53.1575C251.727 54.0631 249.848 56.3392 246.951 57.5384C245.829 58.0034 244.498 57.8565 243.324 58.2971C240.227 59.5807 237.258 61.1204 234.452 62.8982C231.668 64.4584 229.047 66.2611 226.623 68.2825C225.084 69.8256 223.918 71.6622 223.205 73.6667C223.205 75.1841 225.814 75.6981 225.814 77.2644C225.814 78.1944 224.327 80.2502 225.345 81.6208C226.362 82.9913 228.163 81.841 230.12 82.1347C233.591 82.5997 235.887 85.8548 238.549 87.519C240.747 88.9624 243.218 90.0006 245.829 90.5783C248.935 91.0188 252.431 89.5504 252.875 92.3649C253.318 95.1794 249.926 96.0604 249.691 97.7491C251.361 100.197 248.543 101.469 248.543 103.647C248.543 105.434 250.5 108.102 252.17 108.248C254.467 108.469 257.833 105.801 258.772 103.133C259.92 100.05 259.425 95.7912 261.512 93.662C272.107 93.9801 281.057 88.2288 280.379 75.9673C280.07 74.6246 279.921 73.2537 279.935 71.8801C280.248 69.8978 283.275 68.2335 282.884 65.7372C285.859 64.7092 285.728 59.325 288.807 58.5418C291.417 57.9055 294.287 60.5976 297.654 60.3529C298.75 60.3529 300.263 59.1537 301.307 59.325C303.525 59.6676 304.856 62.7513 306.526 64.2198C308.196 65.6882 309.553 65.0764 309.944 66.6672C309.501 69.5551 307.7 69.6285 307.883 72.3207C307.984 73.2674 308.355 74.1712 308.956 74.9376C309.558 75.704 310.368 76.3047 311.301 76.677C313.324 76.7447 315.317 76.2045 316.99 75.1352C320.043 73.5199 322.626 68.6251 325.184 69.237C327.167 69.7264 328.759 76.8973 329.046 79.4915C329.333 82.0858 328.706 84.3863 328.811 86.8337C329.098 91.1412 334.03 90.7006 336.326 92.9767C337.031 93.662 337.318 95.4241 337.918 96.3052C339.066 98.0428 340.527 98.0428 340.527 99.8784C340.971 104.308 336.979 104.773 337.344 109.668C336.535 111.601 334.447 111.479 334.734 114.024C334.995 118.087 340.136 114.979 341.545 118.136C342.302 119.825 341.545 121.097 340.867 123.52C342.615 125.968 342.615 129.663 339.51 129.663C338.075 129.223 337.5 126.922 335.648 126.408ZM87.7988 116.912C89.3906 115.884 90.9302 118.503 89.8603 119.751C88.0859 120.118 87.6423 117.867 87.7988 116.912ZM248.569 143.05C247.63 142.023 244.525 142.316 242.411 142.537C240.923 142.708 239.175 143.075 239.018 144.348C241.367 145.571 247.812 146.452 248.569 143.05ZM236.748 138.694C237.132 138.31 237.417 137.849 237.581 137.346C237.746 136.843 237.785 136.312 237.697 135.792C237.609 135.273 237.395 134.779 237.073 134.349C236.75 133.918 236.327 133.563 235.835 133.31C235.078 133.09 234.087 133.946 232.86 133.848C231.634 133.75 230.251 132.404 229.233 132.306C228.41 132.246 227.584 132.378 226.828 132.69C226.072 133.002 225.41 133.484 224.901 134.093C224.901 135.635 225.919 135.88 225.814 137.421C223.623 139.208 224.797 145.155 226.963 145.376C229.129 145.596 230.459 138.792 233.565 138.18C234.687 137.984 235.261 138.914 236.748 138.694ZM233.565 148.949C230.329 147.652 227.328 149.83 224.692 150.246C223.101 150.466 220.23 149.879 220.596 152.546C220.883 154.7 223.857 153.917 225.606 153.305C228.577 152.438 231.298 150.948 233.565 148.949ZM223.544 129.37C228.085 127.216 222.657 120.51 220.596 119.898C216.916 118.821 211.671 122.957 207.548 124.254C205.147 124.989 202.851 125.062 202.329 127.338C204.495 131.352 208.748 126.457 211.88 127.069C213.472 127.387 214.489 129.835 215.977 130.153C218.517 130.154 221.051 129.925 223.544 129.467V129.37ZM220.361 133.506C219.421 132.257 214.333 133.652 212.871 134.778C211.861 136.066 210.988 137.443 210.262 138.89C209.192 140.334 207.992 141.46 207.078 142.732C206.165 144.005 201.651 151.347 205.252 152.204C206.791 152.571 209.975 148.973 210.262 147.603C210.809 143.567 213.008 139.89 216.394 137.348C218.143 136.149 220.074 136.32 220.361 133.506ZM191.943 104.871C194.553 104.871 196.197 96.3297 191.943 97.5289C189.099 98.1897 188.395 105.018 191.943 104.871ZM179.679 297.065C179.679 296.674 179.992 296.405 180.122 296.037C179.418 293.492 177.252 296.967 179.679 297.065ZM83.4932 82.5997C83.4932 82.1103 83.2322 82.0124 83.2583 81.5718C82.5538 81.5718 81.7709 81.425 81.9014 82.3305C81.9429 82.4859 82.0313 82.6267 82.156 82.7362C82.2808 82.8456 82.4365 82.9188 82.6046 82.9473C82.7727 82.9757 82.9459 82.958 83.1035 82.8964C83.2611 82.8347 83.3964 82.7317 83.4932 82.5997ZM322.47 42.3645C323.592 42.5113 324.218 42.1198 324.062 40.8227C323.044 40.015 321.557 41.0674 322.47 42.3645ZM296.375 17.2542C296.285 17.1676 296.177 17.0988 296.059 17.0518C295.94 17.0048 295.812 16.9806 295.683 16.9806C295.555 16.9806 295.427 17.0048 295.308 17.0518C295.189 17.0988 295.082 17.1676 294.992 17.2542V18.2821C295.905 18.4779 296.088 17.8415 296.323 17.2542L296.375 17.2542ZM209.975 36.9802C210.732 36.4173 211.88 35.6831 211.332 34.4104C208.722 33.0888 204.573 34.0923 200.894 33.6517C198.78 30.2988 195.284 29.7849 194.97 35.1936C199.198 39.0605 205.539 33.3825 209.923 36.9802H209.975ZM169.267 63.3632C170.546 62.8737 172.346 63.1184 172.659 61.5766C171.616 60.6221 170.52 59.325 169.267 59.276C167.597 59.276 166.814 60.8424 165.17 61.7234C163.526 62.6045 160.577 63.1674 160.395 65.0763C163.455 65.4131 166.549 64.8121 169.215 63.3632H169.267ZM168.119 44.9098C169.58 44.6406 171.068 45.3748 171.981 43.9064C170.911 38.2529 163.97 41.7037 159.925 42.0953C158.821 43.6545 158.05 45.4 157.655 47.2348C160.734 48.1159 164.544 45.5951 168.067 44.9098H168.119ZM236.331 306.781C238.131 306.439 237.609 301.887 235.417 302.915C233.721 303.796 234.582 307.1 236.279 306.806L236.331 306.781Z" fill="#E04048" fill-opacity="0.13"/>
<path d="M83.2583 81.5718C83.2583 82.0124 83.5454 82.1103 83.4932 82.5997C83.3964 82.7317 83.2611 82.8347 83.1035 82.8964C82.9459 82.958 82.7727 82.9757 82.6046 82.9473C82.4365 82.9188 82.2808 82.8456 82.156 82.7362C82.0313 82.6267 81.9429 82.4859 81.9014 82.3305C81.7709 81.425 82.5538 81.5474 83.2583 81.5718Z" fill="#E04048" fill-opacity="0.13"/>
<path d="M76.552 96.7947C76.3033 97.5043 75.8848 98.1511 75.3284 98.6856C74.7721 99.2201 74.0927 99.6281 73.3423 99.8784C72.9132 99.4996 72.5363 99.0721 72.2202 98.6057C72.2202 96.036 75.2733 94.3473 76.552 96.7947Z" fill="#E04048" fill-opacity="0.13"/>
</svg>
